<svg id="SvgjsSvg1177" width="288" height="288" xmlns="http://www.w3.org/2000/svg" version="1.1" xmlns:xlink="http://www.w3.org/1999/xlink" xmlns:svgjs="http://svgjs.com/svgjs"><defs id="SvgjsDefs1178"></defs><g id="SvgjsG1179"><svg xmlns="http://www.w3.org/2000/svg" data-name="Layer 1" viewBox="0 0 1000 1000" width="288" height="288"><path d="M308.16,710.21c-13.18,0-26.36.08-39.54,0-7.64-.06-12.29-3.55-13.46-9.68-1.65-8.65,3.87-14.59,13.92-14.62,23.72-.08,47.44,0,71.16,0,2.64,0,5.28-.05,7.91,0,8.34.2,13.93,5,14,12.07s-5.59,12.16-13.84,12.24C334.92,710.31,321.54,710.21,308.16,710.21Z" fill="#6e90e8" class="color000 svgShape"></path><path fill="#6e90e8" d="M410.06 697.73a12.21 12.21 0 01-11.52 12.41c-6.45.3-12.56-5.61-12.55-12.13a12.52 12.52 0 0112-12.09A12.15 12.15 0 01410.06 697.73zM722.89 624.85c.07 6.26-5.57 12.06-11.87 12.21s-12.09-5.36-12.34-11.72 5.62-12.53 12.15-12.49A12.57 12.57 0 01722.89 624.85z" class="color010101 svgShape"></path><path d="M810.84,803.13Q773,765.23,735,727.4c-2.77-2.76-3-4.23-.06-7,8-7.52,15.6-15.4,23.32-23.18,10.07-10.13,7.58-19.77-6.15-23.74q-83.67-24.19-167.4-48.2c-4.35-1.24-5.59-2.85-5.57-7.27.16-49.73.11-99.46.1-149.19,0-12.85-3.91-16.78-16.68-16.78H269.67c-12.9,0-16.82,3.87-16.83,16.62V643.4c0,14.6,3.44,18.09,17.82,18.09H521.53c1.43,0,2.85.06,4.27,0,2-.12,3.14.34,3.8,2.69,6.62,23.34,13.41,46.63,20.29,70.4h-314c-13.26,0-17.11-3.81-17.11-17q0-146.76-.12-293.51c0-4.89.9-6.33,6.12-6.32q233.83.24,467.66,0c4.86,0,6.38.83,6.35,6.1-.24,49.32-.14,98.64-.13,148,0,2.63-.13,5.26.72,7.84,1.81,5.5,5.81,8.45,11.31,8.52s9.55-2.84,11.48-8.28c1-2.77.84-5.6.84-8.43V327.93c0-27-14.62-41.57-41.8-41.57q-221.34,0-442.69-.18c-20.22-.05-34.8,6.83-42.88,25.76V733.36c8,18.57,22.25,25.83,42.31,25.75,104.33-.38,208.66-.14,313-.3,4.65,0,6.48,1.21,7.75,5.77,7.46,26.9,15.28,53.71,23.06,80.53,3.52,12.15,13.57,14.87,22.53,6.09,8.12-8,16.25-15.9,24-24.17,3-3.21,4.56-2.73,7.45.18q37.9,38.29,76.13,76.29c7.81,7.8,15.18,7.77,23-.09q37.9-37.87,75.78-75.78C820.31,818,820.35,812.66,810.84,803.13ZM218.75,326.58c0-11.61,4.21-15.85,15.76-15.85H683.08c11.09,0,15.5,4.42,15.52,15.5,0,20.49-.13,41,.12,61.47.06,4.64-1,6-5.85,6q-117.17-.27-234.32-.13-116.87,0-233.72.13c-5.07,0-6.31-1.17-6.23-6.23C218.93,367.16,218.72,346.87,218.75,326.58Zm303,286.91c-5.23,5.14-3.67,11.09-1.89,17,.57,1.92,1.12,3.86,1.71,5.88-1.93,1.33-4,.69-5.85.69q-116.31.06-232.63.14c-4.59,0-6-.92-6-5.83q.31-74.6,0-149.19c0-4.62,1-6,5.84-6q133.07.25,266.12,0c4.64,0,6,1,6,5.85-.22,42.83-.13,85.66-.13,128.49v5.93c-5.82-1.69-11.24-3.24-16.64-4.83C532.48,610,526.73,608.57,521.72,613.49ZM784.51,819.58q-29,28.27-57.28,57.26c-3.31,3.38-4.81,3-7.9-.15-24.84-25.11-49.87-50-74.85-75-10.14-10.15-15.07-10.11-25.37.2-6.15,6.15-12.28,12.31-19,19.06C582.67,760.45,565.48,700.8,548,640L729,692.07c-7.21,7.17-13.81,13.69-20.35,20.26-8.67,8.7-8.64,14.44.13,23.21q37.66,37.69,75.44,75.27C787.64,814.15,788.36,815.83,784.51,819.58Z" fill="#6e90e8" class="color000 svgShape"></path><path d="M561.64,340c27.37,0,54.74,0,82.11,0,10.91,0,17.29,8,13.51,16.77-2.39,5.5-7,7.56-12.71,7.56H480.94c-2.63,0-5.27.16-7.82-.75-5.35-1.91-8.35-5.64-8.41-11.33s2.92-9.47,8.22-11.46c2.55-1,5.19-.81,7.82-.82Z" fill="#6e90e8" class="color000 svgShape"></path><path fill="#6e90e8" d="M325.86 364.24A12.11 12.11 0 11338 352.32 12.46 12.46 0 01325.86 364.24zM282.35 353a12 12 0 01-12.64 11.18A12.1 12.1 0 01270.89 340 12.05 12.05 0 01282.35 353zM393.29 352.36a12.12 12.12 0 01-12.05 11.91 12.12 12.12 0 1112.05-11.91z" class="color010101 svgShape"></path><path d="M484.35 508.79c-12.52-7.74-26.38-8.36-40.49-8.09-10.94.21-15.44 4.58-15.48 15.62-.06 13.39 0 26.79 0 40.18 0 13.8-.06 27.6 0 41.4.05 8.74 3.89 14.19 11.36 14.63 15.67.93 31.27.73 45.24-8.21 17.4-11.14 26.7-27.25 26.64-47.65C511.58 536.05 502.16 519.81 484.35 508.79zm-27.79 79.67c-3.49.07-3.94-1.23-3.89-4.18.15-9.31.06-18.61.06-27.92 0-9.1.13-18.21-.07-27.3-.07-3.2.84-4.09 4.07-4 16.56.44 30.55 14.62 30.76 31.46S473.23 588.14 456.56 588.46zM402 593.78q-13.71-41.1-27.53-82.16c-2.41-7.18-6.54-10.73-12.26-10.85-5.87-.12-10.21 3.54-12.75 11-4.49 13.19-8.88 26.41-13.32 39.62-4.89 14.55-9.9 29.06-14.63 43.66-2.55 7.87.07 14 6.6 16.68 6.16 2.54 12.09.11 15.69-7.27 1.36-2.79 3.06-2.65 5.24-2.65 8.11 0 16.22.17 24.32-.07 3.76-.1 6.07.51 7.74 4.55 2.14 5.19 8.22 7.43 13.23 6.05a13 13 0 009.32-12.14C403.16 598.47 402.72 596.07 402 593.78zm-48.77-16.5c2.82-8.45 5.53-16.6 8.7-26.12 3.18 9.4 6 17.6 8.84 26.12zM713.54 157.68c0 10.47 0 20.94 0 31.4 0 10.63-6.88 17.44-17.55 17.45q-31.59 0-63.16 0c-10.86 0-17.61-6.81-17.63-17.7q0-14.85 0-29.7c0-4.68 1.87-7.16 5.38-7.22s5.54 2.52 5.55 7.38q0 14.69 0 29.36c0 5.1 1.88 6.95 7 6.95q31.23 0 62.47 0c5.11 0 7-1.87 7-7q0-31.25 0-62.48c0-5.15-1.85-7-6.94-7q-31.23 0-62.47 0c-5.31 0-7.06 1.82-7.08 7.23 0 3 .07 5.92 0 8.88-.11 3.46-2.37 5.75-5.48 5.73s-5.32-2.32-5.39-5.81c-.09-3.75-.12-7.51 0-11.27a16.15 16.15 0 0115.85-15.63q33.28-.19 66.57 0c8.88.05 15.78 7.3 15.86 16.32C713.61 135.6 713.54 146.64 713.54 157.68z" fill="#6e90e8" class="color000 svgShape"></path><path d="M653.44 171.82c0-2.28-.14-4.57 0-6.83.15-1.91-.63-2.34-2.32-2.19a18.07 18.07 0 01-3.75 0 5.35 5.35 0 01-4.86-5.61c.23-3 2-4.73 4.92-5.22 2-.33 4.62.94 5.75-.69.91-1.31.16-3.74.25-5.68a16.33 16.33 0 0115.35-15.46c3.86-.18 7.74-.12 11.61 0 3.48.08 5.77 2.32 5.77 5.43s-2.28 5.35-5.76 5.45c-3.18.09-6.37 0-9.56 0a7.25 7.25 0 00-6.51 10.2c.38.89 1 .7 1.65.71 1.37 0 2.74-.06 4.1.06a5.4 5.4 0 015.15 5.35 5.49 5.49 0 01-5 5.5c-.12 0-.23 0-.35 0-1.77.23-4.26-.86-5.15.46s-.36 3.71-.38 5.62c0 3.3 0 6.6 0 9.9-.09 3.51-2.26 5.81-5.35 5.87s-5.45-2.32-5.55-6C653.39 176.37 653.44 174.09 653.44 171.82zM787.11 297.41c-10.42 0-20.85 0-31.27 0s-17.16-6.79-17.17-17.29q0-31.1 0-62.2c0-10.68 6.71-17.35 17.43-17.36q31.1 0 62.2 0c10.48 0 17.19 6.74 17.22 17.24q0 15 0 29.92c0 4.21-2.07 6.67-5.44 6.63s-5.31-2.48-5.31-6.76c0-9.86 0-19.72 0-29.58 0-4.8-1.91-6.68-6.74-6.69H756.16c-4.84 0-6.73 1.88-6.73 6.68q0 30.94 0 61.87c0 4.87 1.86 6.77 6.64 6.78q31.09 0 62.2 0c4.55 0 6.45-2 6.49-6.59 0-3 0-6.06 0-9.08.08-3.47 2.17-5.74 5.21-5.82s5.44 2.25 5.52 5.86.07 6.95 0 10.42a16 16 0 01-16.11 16C808.63 297.49 797.87 297.41 787.11 297.41z" fill="#6e90e8" class="color000 svgShape"></path><path d="M787.32 227.46a21.53 21.53 0 1021.29 21.83A21.55 21.55 0 00787.32 227.46zm-.4 32.27A10.75 10.75 0 11797.84 249 10.8 10.8 0 01786.92 259.73zM531.85 160.53a55.21 55.21 0 00-55.41 55c-.15 30.09 24.38 55.07 54.32 55.31 30.64.26 55.77-24.16 56-54.41A55.18 55.18 0 00531.85 160.53zm-.37 98a42.9 42.9 0 1143-43A43 43 0 01531.48 258.57z" fill="#6e90e8" class="color000 svgShape"></path><path d="M557.84,209.66c-11.61-5.77-23.18-11.61-34.81-17.33-5.48-2.7-9.73-.05-9.8,6-.07,5.74,0,11.48,0,17.21s-.06,11.73,0,17.6,4.28,8.6,9.55,6c11.75-5.76,23.43-11.67,35.14-17.51,2.45-1.21,4.2-3,4.26-5.83C562.25,212.78,560.42,210.94,557.84,209.66Zm-32.19,14.41V207.32l16.71,8.35Z" fill="#6e90e8" class="color000 svgShape"></path></svg></g></svg>