<svg id="SvgjsSvg1133" width="288" height="288" xmlns="http://www.w3.org/2000/svg" version="1.1" xmlns:xlink="http://www.w3.org/1999/xlink" xmlns:svgjs="http://svgjs.com/svgjs"><defs id="SvgjsDefs1134"></defs><g id="SvgjsG1135"><svg xmlns="http://www.w3.org/2000/svg" data-name="Layer 1" viewBox="0 0 1000 1000" width="288" height="288"><path d="M876.39,687.21c-8.91-83.72-81.92-151.62-165.81-153.85-6.45-.17-8-1.71-8-8.15q.42-98,0-195.94c0-7,1.58-9.16,8.75-8.8,12.2.6,16.38-4,16.4-16.16q0-33.18,0-66.35c0-13.36-3.84-17.25-17-17.25-49.44,0-98.88-.08-148.32.11-4.86,0-7.13-1.42-9.26-5.87C528,162.45,486.07,133.73,428,133.76S328,162.3,302.79,214.83c-2.08,4.33-4.19,6.07-9.16,6-25-.29-50-.13-74.94-.13s-50,0-74.94,0c-11.22,0-15.57,4.36-15.6,15.54q-.08,34,0,67.91c0,12.3,4.12,16.82,16.26,16.32,6.82-.28,8.93,1.29,8.91,8.63q-.41,172.13,0,344.26c0,7.36-1,10.4-9.36,9.79-11.53-.83-15.75,4.09-15.78,15.91q0,20.31,0,40.6c0,14.79,3.46,18.22,18.42,18.22q190.49,0,381-.14c5.75,0,8.27,1.28,10.25,7.16,26.7,79.4,109.3,129.19,191.63,115.9C823.23,865.67,886.52,782.3,876.39,687.21Zm-312.59-436c-.75-4.35.19-5.67,4.87-5.65q64.35.28,128.71,0c4.49,0,5.61,1.3,5.52,5.63q-.42,19.5,0,39c.1,4.47-1.25,5.59-5.61,5.54-21.58-.22-43.17-.1-64.75-.1-20.8,0-41.61-.16-62.41.12-5.14.07-7.46-.53-6.3-6.53A105.39,105.39,0,0,0,563.8,251.23Zm-136.42-93c62.31-.06,112.94,50.14,113,112,0,62.27-50.14,112.7-112.22,112.78a112.5,112.5,0,0,1-112.6-113.17C315.67,208.84,366.29,158.3,427.38,158.25ZM293.73,320.51c5.06,0,7.16,1.8,9.09,6.12,22.69,50.77,73.14,83.44,128.51,81.15,56-2.31,96.62-29.85,121.35-80.21,2.51-5.12,4.92-7.14,10.81-7.08q53.87.48,107.74,0c5.57,0,6.73,1.48,6.72,6.86q-.3,100.32,0,200.64c0,5.5-1.31,7.42-7,8.36-24.36,4-46.59,13.69-68.13,28.2V450.83c0-14-3.7-17.74-17.35-17.74H270.1c-13.21,0-17,3.87-17,17.25,0,74.95-.11,149.9.16,224.85,0,6.61-1.67,8.06-8.06,7.92-20.29-.46-40.59-.37-60.89,0-5.26.08-6.29-1.54-6.28-6.48q.21-174.89,0-349.77c0-5.22,1.5-6.32,6.45-6.29Q239.09,320.84,293.73,320.51Zm-15.68,250c0-35.13.15-70.26-.16-105.39-.05-5.84,1.36-7.23,7.2-7.19q61.67.42,123.35,0c5.84,0,7.19,1.37,7.17,7.19q-.33,105.4,0,210.79c0,5.84-1.36,7.23-7.19,7.19q-61.68-.42-123.35,0c-5.85,0-7.24-1.37-7.19-7.19C278.2,640.77,278.05,605.63,278.05,570.5ZM153,290.1c.27-13,.3-26,0-39-.11-4.53,1.35-5.55,5.65-5.5,21.32.21,42.64.09,64,.09,21.06,0,42.12.18,63.18-.12,5.25-.08,7.37.7,6.25,6.58a105.33,105.33,0,0,0,.06,38c.77,4.42-.3,5.63-4.91,5.61q-64.36-.27-128.71,0C153.94,295.79,152.94,294.37,153,290.1ZM528.68,731.82c-3.58,3.46-10.88,1-16.54,1q-85.84.11-171.67,0c-60.09,0-120.17-.08-180.25.14-5.71,0-7.4-1.14-7.27-7.11.38-18,.08-18,18.07-18q174,0,348-.14c6.47,0,10.21.76,9.2,8.43C527.54,721.55,532,728.61,528.68,731.82Zm2.26-54.07c-.72,4.36-2.56,5.3-6.62,5.27-26-.16-52-.22-78,0-4.85.05-6-1.2-6-6,.22-35.62.12-71.25.12-106.88,0-35.11.12-70.22-.12-105.33,0-5.26,1-7,6.63-6.93q62,.42,124.06,0c5.12,0,7.05.75,7,6.55-.3,38.49-.2,77-.08,115.47a13,13,0,0,1-3.64,9.68C551.25,614.75,536.51,644.05,530.94,677.75ZM703.47,857.84c-82.46.1-150.29-66.69-150.56-148.26-.28-84.23,66.24-151.25,150.39-151.53,82-.28,149.25,67.29,149.4,150.17C852.85,790.1,785.39,857.74,703.47,857.84Z" fill="#007CAA" class="color000 svgShape"></path><path d="M377.58 608c-12.08 0-12.08 0-12.08-12.12 0-12.86 0-12.86 12.9-12.86 12.08 0 12.08 0 12.08 12.12C390.48 608 390.48 608 377.58 608zM478.25 583c12.17 0 12.17 0 12.17 12 0 13 0 13-12.81 13-12.17 0-12.17 0-12.17-12C465.44 583 465.44 583 478.25 583zM768.4 657.34a49.52 49.52 0 002.18-29.68c-4.4-18.5-16-30.78-34-36.14-19.3-5.73-36.58-1-50.94 13-17.13 16.69-33.88 33.79-50.78 50.71-12.5 12.51-25.27 24.77-37.41 37.62a49.11 49.11 0 00-8.83 55.65c8.75 18.47 26.88 29.18 48 28.3 13.72-.57 24.85-6.62 34.31-16.23 10.51-10.68 21.06-21.3 32.1-32.46 9.32 36.73 35 57.11 67.45 54.58 29.9-2.33 54.42-26.62 57.1-56.56C830.59 692.05 810.84 669 768.4 657.34zm-84.89 55.31c-11 10.75-21.7 21.7-32.66 32.44-4.65 4.55-10.5 6.54-17.75 6.7-9.76-.36-18-4.76-22.18-14.56-4.14-9.61-3-19.07 4.33-26.81 10.75-11.3 22-22.11 32.94-33.26 2.37-2.42 3.87-2.47 6.26 0Q668.9 692 683.7 706.39C686.27 708.89 685.81 710.39 683.51 712.65zm24.1-24.06c-2.77 2.86-4.34 2.27-6.8-.26Q687 674.1 672.74 660.26c-2.73-2.66-3.54-4.28-.34-7.37 11-10.61 21.6-21.7 32.64-32.31 7.68-7.39 17.06-8.62 26.69-4.65s14.71 11.84 15.06 22.44A23 23 0 01740 656C729.23 666.92 718.27 677.61 707.61 688.59zm57.64 69.27c-15.71 0-30-10.21-34.19-25h68.41C795.19 747.7 781 757.86 765.25 757.86zm-34.13-50.24c3.67-13.72 17.25-24 32.33-24.61 16.33-.7 30.31 8.53 36.37 24.61zM515.37 247.51c-.07-9.61-4.77-14.18-14.48-14.29-10.14-.11-20.29-.23-30.42.08-4.21.13-5.22-1.25-5.12-5.24.26-10.14.18-20.29.06-30.43-.12-9.66-4.73-14.3-14.39-14.37q-23-.16-46 0c-9.73.06-14.35 4.65-14.48 14.27s-.34 19.26.1 28.87c.23 5.24-.88 7.28-6.62 6.94-9.07-.54-18.2-.17-27.3-.13-11.84 0-16.1 4.19-16.17 15.74 0 7.28 0 14.57 0 21.85 0 7.54-.07 15.08 0 22.62.12 10.11 4.66 14.62 14.86 14.72s20.29.18 30.42-.07c3.79-.1 4.84 1.08 4.75 4.8-.24 10.14-.15 20.29-.06 30.43s4.62 14.74 14.76 14.8q22.62.15 45.25 0c10.21-.05 14.8-4.59 14.91-14.67.1-9.62.26-19.25-.08-28.86-.18-4.82.78-6.84 6.2-6.55 9.6.49 19.24.2 28.86.12 10.26-.09 14.91-4.56 15-14.6Q515.55 270.53 515.37 247.51zm-43.72 35.66c-5.72 0-11.43-.1-17.15 0-9.21.2-13.87 4.78-14 13.94-.15 10.13-.23 20.28.05 30.4.12 4.21-.81 5.69-5.41 5.74-19.66.25-19.66.43-19.66-19.47 0-5.72.13-11.44 0-17.15-.27-8.63-5-13.3-13.73-13.44-10.39-.16-20.79-.25-31.18.06-4.2.13-5-1.28-5.13-5.23-.41-19.86-.53-19.85 19.25-19.86 5.72 0 11.44.13 17.15 0 8.7-.24 13.47-4.89 13.63-13.55.19-10.39.2-20.79 0-31.18-.09-3.86.73-5.24 5-5.34 20-.46 20-.63 20 19.1v2.34c0 4.68-.06 9.35 0 14 .16 10 4.71 14.53 14.94 14.62 9.87.08 19.75.26 29.61-.09 4.54-.16 5.47 1.36 5.51 5.64C490.74 283.17 490.88 283.17 471.65 283.17z" fill="#007CAA" class="color000 svgShape"></path></svg></g></svg>
