<svg id="SvgjsSvg1001" width="288" height="288" xmlns="http://www.w3.org/2000/svg" version="1.1" xmlns:xlink="http://www.w3.org/1999/xlink" xmlns:svgjs="http://svgjs.com/svgjs"><defs id="SvgjsDefs1002"></defs><g id="SvgjsG1008"><svg xmlns="http://www.w3.org/2000/svg" data-name="Layer 1" viewBox="0 0 1000 1000" width="288" height="288"><path d="M947,668.72c-16.75-83.18-64.21-143.2-141.08-178-66.67-30.22-134.4-26.52-200.22,4.13C503.78,542.28,449.24,646.31,469.27,754.16c18.45,99.32,78.56,164,175.26,193.69,37.65,11.55,73.25-16.51,72.55-55.89-.77-42.86,31.62-76,74.42-76.11,16.27-.05,32.54,0,48.81,0v-.09c17.53,0,35.07.37,52.6-.1,18-.48,32.19-8.45,42.05-23.71a74.46,74.46,0,0,0,9.69-22.22A225.79,225.79,0,0,0,947,668.72Zm-19.8,99.73c-4.87,18.94-19,29.94-38.57,30-16.63.06-33.26,0-53.6,0-16.51.71-36.78-1.23-57,1-38.41,4.18-72.47,37.75-77.38,76.09a106.55,106.55,0,0,0-1,16.75c.81,27-23.2,46.43-49.26,39.31-55-15-99-45.94-130.19-93.64-68.39-104.41-41.5-240.31,61.45-311.06,45.34-31.17,96-43,150.64-37.89,100.54,9.35,181.79,90.22,198.55,186.52A218.28,218.28,0,0,1,927.21,768.45Z" fill="#6e90e8" class="color000 svgShape"></path><path d="M592.35 553.69c-24.54-.11-43.33 18.79-43.41 43.67s18.41 43.75 43.11 43.85c25.05.11 43.67-18.59 43.64-43.82C635.67 572.51 617.12 553.8 592.35 553.69zm-.19 70a26.46 26.46 0 01-26-26.92c.17-14.41 11.5-25.45 26.06-25.39A26.08 26.08 0 01618.43 598 25.55 25.55 0 01592.16 623.72zM708.57 505.62c-24.47-.23-43.53 18.73-43.66 43.45-.13 25.11 18.64 44.25 43.41 44.23 24.35 0 43.16-18.73 43.38-43.17C751.94 524.94 733.45 505.86 708.57 505.62zM708.34 576c-14.42 0-26.26-12.15-26.13-26.86.13-14.35 12.16-26.28 26.34-26.12s25.9 12.17 25.86 26.6S722.56 575.93 708.34 576zM592.48 785.6c-24.4-.26-43.42 18.79-43.53 43.58-.12 25.14 18.7 44.19 43.52 44.06s43.22-18.84 43.22-43.78S617.28 785.86 592.48 785.6zm-.19 70.17a26.53 26.53 0 01-26.15-26.86 25.8 25.8 0 0125.94-25.71 26.33 26.33 0 0126.39 26.56A25.8 25.8 0 01592.29 855.77zM825.12 553.38c-23.61-.23-44.87 20.75-45 44.36-.08 23 20.26 43.48 43.54 43.73 23.54.25 44.3-20.23 44.53-43.94C868.47 574.42 848.14 553.6 825.12 553.38zm-.89 70.34a26.36 26.36 0 01-26.05-26.82 25.37 25.37 0 0125.91-25.49 26.19 26.19 0 0126.36 26.45A25.69 25.69 0 01824.23 623.72zM544.57 670.18c-25-.14-43.76 18.15-44.12 43-.34 24.33 18.83 43.6 43.56 43.78s43.82-18.54 44-43.22S569.63 670.32 544.57 670.18zm-.28 69.7a26.18 26.18 0 01-26-26.26A26.5 26.5 0 01544 687c14.25-.23 26.53 12.15 26.45 26.66A26.49 26.49 0 01544.29 739.88zM872.16 670.18c-25.06.09-43.64 18.63-43.54 43.45s19.06 43.44 43.86 43.35 43.86-19.21 43.69-43.66C916 688.54 897.16 670.08 872.16 670.18zm.46 69.7a26.48 26.48 0 01-26.48-26.5c.05-14.31 12-26.37 26.15-26.41s26 11.89 26.1 26.34A26.23 26.23 0 01872.62 739.88zM319.37 430.8c11.59.3 24.84 6.26 35.16 18.27 2 2.31 3.35 2.67 6.29 1.56a43.24 43.24 0 0153.31 20.08c3.2 6 2.23 11.15-2.56 13.74-4.58 2.46-9.32.57-12.59-5-8.51-14.57-24.26-18.33-38.41-9.17-6.71 4.34-11.05 3.09-15.3-4.39-8.26-14.54-24.18-21.18-40-16.69a34.79 34.79 0 00-25.29 35.29 39.71 39.71 0 002.32 10.93c2.14 6.27.5 11-4.43 12.82-5.12 1.91-9.65-.75-12-7.1C253 467.08 278.44 430.79 319.37 430.8zM320.46 367.9a49.64 49.64 0 0110.1-21.34c10.31-12.94 23.85-19.8 40.32-20.8 6.06-.37 10 2.9 10.29 8.07.31 5.37-3 8.7-9.13 9.28-17.31 1.65-28.91 10.51-34.26 27.24-1.85 5.79-5.45 8.28-10.46 7.41C323 377 320.12 373.16 320.46 367.9zM172.11 428.16c.91-18.26 13.79-35 31.41-40.77 4.95-1.63 9.64.32 11.46 4.77 1.89 4.61-.15 9.41-5.4 11.53-12 4.87-18.67 13.57-20.13 26.47-.68 6.08-4.68 9.44-9.71 8.83S171.8 434.33 172.11 428.16z" fill="#6e90e8" class="color000 svgShape"></path><path d="M571.49,483.5a69.45,69.45,0,0,0-63-54c-3.68-.21-5.18-1.51-4.66-5.37,1.33-10,2-20,0-30-1.25-6.21.17-11.71,2.53-17.32q19.55-46.37,38.46-93c5.47-13.53,12.4-26.3,21.82-37.33,6.65-7.78,7.69-15.69,5.54-25-4.67-20.24-9.5-40.44-14.11-60.7-2.32-10.22-9.27-13.34-18.29-7.82q-29,17.73-57.6,36a17.88,17.88,0,0,0-8.67,14.22,142.46,142.46,0,0,1-8.73,38.76c-7.38,18.87-15.43,37.47-23.11,56.22-1.28,3.13-3,3.53-6,2.31-6.75-2.84-13.49-5.72-20.64-7.44-2.47-.59-3.83-1.95-3.45-4.74,1.39-10.29,2.6-20.62,3-31,.51-13,2-26.11.77-39.19a22.37,22.37,0,0,1,4.07-15.77c19.38-28.23,23.4-58.56,11.18-90.78-8.52-22.43-22.69-41-39.77-57.48-3.14-3-6.38-6.15-10.81-7.41h-6.13c-6.08,2.43-8.09,5.43-6.62,11.82,3,13.16-.37,24.9-6.9,36.17-7.57,13.06-17.42,24.36-27.51,35.43a49.66,49.66,0,0,0-11.66,20.71c-4.67,17.36-1.55,33.48,9.05,47.92,3.27,4.45,4.46,8.64,3.61,14.16-3.2,20.86-5.71,41.81-5.32,63,.14,7.66-.08,15.33.06,23a8.09,8.09,0,0,1-4.37,7.94,70,70,0,0,0-11.33,7.85c-3.05,2.69-4.15,1.45-5-1.91-1.6-6.62-3.1-13.26-4.66-19.89-10.93-46.41-21.87-92.82-32.5-139.3-2.49-10.9-5.92-21.28-11.95-30.73-.83-1.29-1.43-2.71-2.17-4.06-11.12-20.49-22-41.11-33.43-61.46-3.17-5.67-7.54-10.22-14.76-10.11,0,.12.05.23.07.34l-8.59,0a1,1,0,0,1,0-.3c-10.25-.17-16.95,10.06-17.36,20-.35,8.32-1,16.67-1,25-.05,15.15-1.86,30.24-1.24,45.4a26.06,26.06,0,0,1-.41,4.57,62.62,62.62,0,0,0,.87,22.83c9.63,40.58,19,81.22,28.63,121.81,3.92,16.56,7.67,33.17,11.64,49.72.39,1.61,1.15,3.31-.09,4.89s-14.81,3-16.2,1.8a7.35,7.35,0,0,1-1.66-2.55c-.83-1.69-1.49-3.44-2.21-5.17q-20.68-50.31-41.65-100.5c-6-14.31-15.58-18.21-29.94-12.2-15.39,6.44-30.84,12.73-46.26,19.12-7.86,3.25-15.82,6.29-23.47,10-5.52,2.7-9.26,6.74-9.11,13.33a1.39,1.39,0,0,1,.35,0l-.06,6.36-.26.1c.27,7.33,4,13.57,6.71,20.09q27.31,66,54.66,132c2.12,5.11,2,5.26-3.33,6.15-16,2.65-29.75,9.78-40.67,21.68-10.2,11.12-16.92,24.11-17.92,39.54v3.07c2.17,3.32.65,6.93.84,10.41h0c0,1.68,0,3.36,0,5l-.37,0a36,36,0,0,0,1.12,10.55c7,26.22,34.22,50.28,64.27,50.23q195.15-.3,390.29-.12a56.57,56.57,0,0,0,14.66-1.53C553.56,560,581.16,526.91,571.49,483.5ZM481.8,249.32a173.68,173.68,0,0,0,10.38-41.4c.21-1.61,0-3.2,1.91-4.35,11.25-6.87,22.4-13.91,34.83-21.67-3.77,9.19-7,17.13-10.27,25.06-.83,2-1.85,4-2.53,6.11-1.63,5,.44,9.67,4.88,11.39s9.11-.07,11.26-5c3.92-9,7.57-18.17,11.34-27.25.32-.76.72-1.49,1.57-3.26l9.41,40.13c.43,1.82-.88,2.81-1.8,4A164.56,164.56,0,0,0,531,269.15a7.6,7.6,0,0,1-5,4.46c-16.83,5.74-35.91-2.11-43.61-18C481.36,253.56,480.85,251.74,481.8,249.32Zm-24,58.54c5.12-11.26,9.63-22.78,14.56-34.62a58.06,58.06,0,0,0,33.11,19.1,44,44,0,0,0,11.66.85c2.4-.14,3.63,0,2.42,2.9-8.82,21.11-17.56,42.24-26.59,64-6.34-13-13.9-24.42-23.76-34.18-2.78-2.75-5.42-5.83-8.69-7.83C456,315.29,455.72,312.51,457.84,307.86ZM347.37,142.12c10.59-11.77,20.85-23.8,28.88-37.55a80,80,0,0,0,10.42-27.52,116.44,116.44,0,0,1,25.68,40.27q15.6,39.88-8.76,75.06c-2,2.86-4.08,3.85-7.56,3.6q-20.88-1.53-41.8-2.47c-4-.18-6.53-1.84-8.84-4.91A36.4,36.4,0,0,1,347.37,142.12Zm49.31,93.78c0,2.23-.84,2.84-3,2.91a213.83,213.83,0,0,1-41.15-2.25c-2.17-.34-2.77-1.18-2.46-3.37q1.4-9.84,2.38-19.72c.25-2.48,1.63-2.54,3.5-2.42,6.1.38,12.21.71,18.32,1.06,6.44.38,12.88.88,19.33,1.09,2.48.08,3.21,1,3.16,3.34Q396.59,226.22,396.68,235.9Zm-1.1,22.61q-1.72,15.19-3.23,30.43c-.14,1.49-.65,2.1-2.16,2-14.59-.75-28.75,1.7-43.08,6.36-.27-14.05-.16-27.61.84-41.18.23-3.13,1.94-2.41,3.78-2.17,13.67,1.78,27.36,3.22,41.19,2.24C394.63,256.09,395.86,256.12,395.58,258.51ZM200.08,103.16c.17-5.61,0-11.22,0-16.83h1.15c0-5.78,0-11.56,0-17.34,0-2,.14-4.06,2.34-4.57s3.06,1.59,3.95,3.23c5.33,9.85,10.6,19.73,16.07,29.5,1.38,2.45,1,3.77-1.21,5.37-5.89,4.22-12.37,5.27-19.37,4.36C200.73,106.58,200,105.49,200.08,103.16Zm-1.82,47.75c.49-7.81.76-15.63.89-23.45,0-2.66.73-3.59,3.51-3.21,11.32,1.51,21.54-1.4,31-8.57,4.72,8.72,9.28,17.22,13.93,25.67a5.19,5.19,0,0,1,.11,4.39c-3,10.2-9.49,17.57-19.76,20.15s-19.45-.64-27-8.22A8.1,8.1,0,0,1,198.26,150.91Zm18.13,83Q210.6,209,204.71,184.26c-.23-1-.75-1.93,0-3,5.09,1.78,10.32,3.25,15.79,3.2,2.55,0,2.58,1.75,3,3.31,1.75,7.27,3.37,14.57,5.15,21.82,1.48,6,5.45,8.8,10.6,7.71s7.57-5.79,6.16-12c-1.59-6.95-3-13.95-4.86-20.84-.78-2.93-.63-4.63,2.46-6,4.53-2,7.93-5.65,11.92-9.42,5,21.32,9.85,42.07,14.7,62.83q11.49,49.13,23,98.24c.81,3.4.6,6-1.67,8.88-3.68,4.74-6.7,10-10.42,15.67-4-17-7.91-33.25-11.74-49.53q-6.26-26.55-12.42-53.1c-1.71-7.32-5.85-10.6-11.52-9.1-5.07,1.35-7.13,6.12-5.52,12.93q10.38,44.14,20.79,88.29c.26,1.14.4,2.3.7,4l-17.4-4c-2.28-.52-1.88-2.66-2.22-4.11Q228.74,287,216.39,233.87ZM69.7,273.26c-1.43-3.42-1.58-5.06,2.41-6.67,21.55-8.68,43-17.62,64.43-26.62,2.94-1.24,4.41-1.14,5.45,2.19,1.3,4.18,5.3,9.12,4.08,12s-7.39,3.87-11.44,5.58c-5.78,2.45-11.61,4.79-17.4,7.19-6.81,2.81-9.26,7.18-7,12.42,2.15,5,7,6.39,13.38,3.78,9-3.66,17.93-7.25,26.77-11.15,2.69-1.18,3.87-.8,4.81,1.92a78.64,78.64,0,0,0,4.1,9.85c1.34,2.6.42,3.47-2,4.33-4.14,1.5-8.21,3.23-12.24,5-5.29,2.36-7.37,6.83-5.51,11.48,2,4.94,6.66,6.75,12.23,4.61,4.27-1.64,8.55-3.31,12.68-5.26,2.07-1,3.09-.64,3.72,1.43.05.16.13.32.19.48,1.68,4.25,5.46,9.12,4.45,12.57s-7.62,4-11.74,5.82c-6,2.7-12.24,5-18.33,7.6-5.71,2.42-7.89,6.78-6,11.69s6.9,6.78,12.73,4.43c9.12-3.69,18.23-7.41,27.25-11.33,2.69-1.17,4.14-1.27,5.2,1.95,1.42,4.34,5.15,8.75,4.6,12.68s-6.78,4.66-10.41,7c-22.93,14.6-37.69,35.14-45.13,62.31-2.07-4.9-3.79-8.89-5.46-12.91Q97.66,340.45,69.7,273.26ZM504.09,552.33c-54.83.35-109.66.11-164.48.12H311q-94.5,0-189,0c-26.53,0-47.18-15.74-53.22-40.4-9-36.85,24.63-71.26,61.69-63.1,2.47.55,5,1.31,7.5,1.21,4.83-.18,7.7-4.06,8-10,1.75-34.78,23.12-63.78,55.87-74.94,26-8.85,50.62-5.17,73.51,9.87,9.32,6.13,13.55,5,17.8-5.24,16.72-40.27,59.49-66.05,101.66-61.28,46.46,5.26,82,38.25,89.66,83.18a102.75,102.75,0,0,1-2.38,44.47c-2.46,9.23,2.2,14.21,11.56,12.47C524,443,552.21,464.3,555.54,495.37,558.73,525.07,534.71,552.14,504.09,552.33Z" fill="#6e90e8" class="color000 svgShape"></path></svg></g></svg>