<svg id="SvgjsSvg1312" width="288" height="288" xmlns="http://www.w3.org/2000/svg" version="1.1" xmlns:xlink="http://www.w3.org/1999/xlink" xmlns:svgjs="http://svgjs.com/svgjs"><defs id="SvgjsDefs1313"></defs><g id="SvgjsG1314"><svg xmlns="http://www.w3.org/2000/svg" data-name="Layer 1" viewBox="0 0 1000 1000" width="288" height="288"><path d="M791.46,542.67a55.84,55.84,0,0,0-.93-12.07c-4.85-21.69-21.87-34.15-46.76-33.85-5.94.07-7.34-1.58-7.32-7.39.22-60.14.13-120.28.14-180.42,0-9.82-.31-19.61-2.27-29.27-13-64.27-65.66-108.35-131.6-110-4-.1-5.84-1.33-7.36-5a103.25,103.25,0,0,0-190.78.18c-1.58,3.84-3.62,4.84-7.52,4.88a127,127,0,0,0-30.95,4.2c-61,16.09-101.21,68.9-101.34,133.39-.12,59.07,0,118.14,0,177.22,0,11.69,0,11.69-11.92,12.12-24.83.88-42.68,18.49-42.9,43.1q-.42,48.62.06,97.24c.2,19.8,13.59,35.86,32.6,40.74,5.91,1.52,11.86,1.22,17.8,1.14,3.27-.05,4.51.87,4.47,4.29a50.24,50.24,0,0,0,1.06,11.42c5.8,26.2,26.86,42.31,55.42,42.34q89.58.09,179.15,0,74.85,0,149.71,0c12.58,0,25.19.34,37.73-.41,25.93-1.55,47.27-23.2,48.26-49.15.26-6.79,1.8-8.73,8.87-8.62,28.58.44,46.38-17.43,46.43-45.85Q791.58,587.77,791.46,542.67ZM258.12,659.83c-7.88-.11-15.34-.7-21.38-6.43-4.84-4.6-7.6-10.18-7.6-17,0-32.39-.14-64.79.06-97.18.08-13.65,10.17-23,24.35-23.35,11.19-.29,11.19-.29,11.19,10.81v61.38c0,21.74-.2,43.48.15,65.21C265,658.81,263.25,659.89,258.12,659.83ZM499,120.33c32.94-.49,66.25,20.55,77,48.87H424.07C433.62,142.05,466.32,120.82,499,120.33ZM285.6,285.76c7.24-50.21,51.3-91.94,102-96,32.33-2.57,64.79-.49,97.19-1,5.33-.08,10.66,0,16,0,33.27,0,66.54-.18,99.8,0,56.46.35,102.47,37.79,114.47,92.81,2.38,10.93,2.24,22,2.22,33.1,0,12.37.11,24.74,0,37.11-.26,21.82-15.17,36.87-37,37.29-10,.2-20-.1-30.07.11-3.61.08-4.91-1-4.72-4.68.27-5.11.21-10.24,0-15.35-.42-10.5-7.72-18-18.28-18.41-9.58-.34-19.19-.3-28.78-.05-11.49.29-19,7.92-19.42,19.44a129.47,129.47,0,0,0,0,14.07c.28,4-1.06,5.06-5,5-14.5-.23-29-.09-43.5-.09-34.12,0-68.24-.12-102.36.13-4.94,0-6.32-1.36-5.88-6.07a98.66,98.66,0,0,0,0-13.43c-.5-11.13-8-18.71-19.15-19-9.38-.27-18.77-.26-28.15,0-11.64.28-19,7.82-19.3,19.39-.13,5.12-.07,10.24,0,15.35,0,2.16-.25,3.78-3,3.7-12.57-.36-25.2,1-37.7-.69-17.81-2.41-30.77-16.51-30.8-34.4C284.2,331.33,282.33,308.46,285.6,285.76Zm312.62,88.15c0-3.14,1.08-4,4.06-4,6.58.1,13.18.05,19.75-.24,3.24-.14,4.5.73,4.38,4.19-.25,7.21-.07,14.44-.07,21.67h.17c0,7.23-.11,14.45.06,21.68.07,3-.27,4.66-4,4.53-6.79-.23-13.6,0-20.39.21-3.12.12-4-1.07-4-4.07Q598.41,395.9,598.22,373.91ZM375,395.26c0-7.24.11-14.48-.05-21.71-.07-2.8.83-3.66,3.62-3.62,6.8.11,13.63.05,20.43-.24,3.51-.14,4.24,1.34,4.22,4.51-.1,14.48-.1,29,.15,43.44.06,3.64-1.4,4.14-4.47,4.09-6.6-.11-13.21-.08-19.8.27-3.54.19-4.24-1.21-4.16-4.38C375.14,410.17,375,402.72,375,395.26ZM679.14,717.83q-178.47-.76-357,0c-22.56.1-38.56-15.63-38.41-38.58.64-92.33.27-184.67.27-277V395c14.24,11.89,29.93,14.17,46.46,13.54,6.39-.24,12.83.36,19.18-.16,5.36-.44,6.69,1.68,6.11,6.46a46.77,46.77,0,0,0,0,7.67c.48,10.41,7.92,18,18.33,18.35,9.38.28,18.77.21,28.15.07,12.17-.18,19.82-7.89,20.14-20,.33-12.39.33-12.39,12.63-12.39,46.06,0,92.13.09,138.18-.12,4.83,0,6.5,1.18,5.85,5.95a39.8,39.8,0,0,0,0,8.31c.82,10.46,8.31,17.94,18.66,18.22q14.7.39,29.42,0c10.46-.3,17.86-7.87,18.39-18.3.23-4.43-1.34-10.46,1-12.9,3-3.24,9.22-.87,14-1.12,3.61-.19,7.25-.16,10.87,0,16.32.66,31.81-1.68,45.88-13.46v7.24c0,92.33-.36,184.67.25,277C717.7,702.14,701.93,717.93,679.14,717.83Zm93-81.11c-.1,13-10.36,22.59-23.44,22.94-12.08.32-12.08.32-12.08-11.76V587.8c0-21.52.29-43-.18-64.57-.14-6.48,1.9-7.72,7.83-7.5,7.44.28,14.47.94,20.17,6.27,4.87,4.56,7.76,10.11,7.76,16.9C772.2,571.51,772.34,604.12,772.11,636.72Z" fill="#007CAA" class="color000 svgShape"></path><path d="M696.76,624.16c-.54,8.46,1.06,18.72-1.42,28.82a52.44,52.44,0,0,1-22.1,31.66c-5.67,3.87-11.36,3.27-14.71-1.3s-2.32-10.29,3.35-14.25c11.09-7.72,16-18.21,15.68-31.62-.29-12.35-.09-24.7,0-37.05,0-4.15,1.71-7.56,5.53-9.35a9.34,9.34,0,0,1,9.71.78c3.09,2.15,4,5.26,4,8.88C696.72,608,696.76,615.21,696.76,624.16Z" fill="#007CAA" class="color000 svgShape"></path><path fill="#007CAA" d="M696.77,563.76c0,7.77-3.63,12.43-9.64,12.35s-9.69-4.86-9.64-12.52c0-7.42,3.51-11.74,9.5-11.86C693.35,551.6,696.76,555.79,696.77,563.76Z" class="color020202 svgShape"></path><path d="M644 550c0-24.43-16-40.33-40.48-40.36q-51.19-.06-102.39 0-51.82 0-103.66 0c-24 0-40.1 16.08-40.15 40.06q-.09 48.32 0 96.63c.05 25.48 17.27 43.34 42.73 43.43q100.79.32 201.58 0c25.15-.1 42.31-18 42.36-43.12Q644.13 598.34 644 550zm-19.23 95.08q0 25.36-25.64 25.41-49.56 0-99.12 0H402.81c-17.92 0-26.23-8.3-26.24-26.1 0-21.75.15-43.5-.12-65.24-.06-4.62 1.32-5.54 5.67-5.49 14.79.19 14.79 0 14.8 14.81 0 2.13-.11 4.27.05 6.39.41 5.44 4.37 9.36 9.39 9.44a9.63 9.63 0 009.68-9.18 124.42 124.42 0 000-16.61c-.3-4.14 1.19-4.86 5-4.82 19 .19 37.94.09 56.92.09 46.9 0 93.8.07 140.7-.12 4.91 0 6.33 1.1 6.26 6.18C624.62 601.62 624.81 623.36 624.79 645.11zm.1-93.46c-.43 4.64-3.51 2.84-5.53 2.84-33.25.11-66.51.08-99.77.08H500.41c-39 0-78-.18-117 .18-6.38.06-7.29-2.18-6.85-7.53.88-10.54 8.56-18.25 19.26-18.26q104.89-.11 209.78 0C617.86 529 626.07 539.11 624.89 551.65zM751.39 862q-.4-25.12-.91-50.24c-.42-20.8-14.51-34.37-35.4-34q-115.32 2.06-230.64 4.17a18.32 18.32 0 00-3.15.18 5.86 5.86 0 00-.21 11.48 18.34 18.34 0 004.33.18q38.76-.67 77.54-1.39c27.16-.49 54.33-.91 81.49-1.57 3.42-.08 4.19.86 4.07 4.07a139.14 139.14 0 00.3 15.82c.27 3.42-.63 4.3-4.16 4.35q-77.34 1.2-154.68 2.71-81.3 1.47-162.6 2.92c-1.48 0-3.19.74-4.38-.89-2.81-3.83-6.92-6-10.78-8.53-2.6-1.66-2.51-2.92-.12-4.59 3.44-2.42 7-4.77 10.17-7.5a11 11 0 017.55-2.61q60.53-1 121.06-2.15c6.74-.12 9.67-1.95 9.69-6s-3-6-9.7-5.86q-61.71 1.13-123.43 2.19a22 22 0 00-10.12 2.66c-25.8 13.4-50.42 29.26-78.44 38.11l-6.59 6.83c-1 2.09-2.7 3.77-3.36 6.11-2.22 7.94-1.31 15.27 3.86 21.87l6.27 6a93.92 93.92 0 0012.8 4.82c4.88 1.5 9.89 2.61 14.54 4.92 17.78 8.82 35.64 17.48 53.42 26.3a19.9 19.9 0 009.48 2.07q98.5-1.87 197-3.62c6.68-.12 9.24-1.79 9.23-6s-2.93-6-9.29-5.88l-195 3.54c-2 0-3.87.2-5.66-1.11-3.83-2.79-7.75-5.46-11.72-8.06-2.66-1.73-3.16-3.06-.1-5.05s6.59-4.07 8.86-7.18c1.53-2.08 3.2-2.61 5.62-2.65q158.64-2.81 317.28-5.71a11.87 11.87 0 001.58 0c2-.31 2.74.34 2.71 2.52 0 5.93-.06 11.88.36 17.79.24 3.32-1 3.79-3.9 3.84-28.75.42-57.49 1-86.24 1.51a17 17 0 00-3.92.29c-3 .8-4.73 2.85-4.57 6a5.38 5.38 0 004.81 5.42 18.26 18.26 0 003.55.12q78.74-1.43 157.46-2.86C738.12 897 751.71 882.82 751.39 862zm-495.73-2.08c-3.89-1.48-8.23-1.9-11.38-5a12.45 12.45 0 013.13-20c3.49-1.68 7.34-2.62 11-3.89 1.1 3.43.53 7 .67 10.47.22 5.25 0 10.53.41 15.76C259.82 861 258.37 861 255.66 859.93zm17.53 6.32a3 3 0 01-1.79-3.14c-.15-11.59-.34-23.18-.64-34.77a3.58 3.58 0 012.21-3.7c8.36-4.4 16.69-8.88 25.33-13.49 1 6.57 6.26 9.22 10.95 12.35 5 3.31 5 3.43.25 6.8-1.71 1.22-3.43 2.44-5.08 3.75-7.67 6.12-7.56 15.91.26 21.82 2.21 1.67 4.54 3.16 6.87 4.64s2.92 2.85.21 4.58c-1.65 1.06-3.08 2.49-4.75 3.52a15.36 15.36 0 00-7.57 10.46C290.57 874.73 281.89 870.47 273.19 866.25zM645.38 851q-84.45 1.39-168.89 3-74 1.34-147.93 2.72c-2.6 0-5 .16-6.16-2.51a56.67 56.67 0 00-9.43-6.9c-2.25-1.45-3.05-2.7-.35-4.6 3.87-2.71 8-5.18 10.78-9.17 1.12-1.58 2.92-.85 4.41-.88q101.85-1.9 203.7-3.73c37.83-.69 75.67-1.32 113.51-2.13 3.26-.07 4.3.59 4.15 4a128.93 128.93 0 00.3 16.21C649.77 850.42 648.51 850.9 645.38 851zm31.49 35.28c-4.21.09-8.44 0-12.64.3-2.17.14-2.28-.82-2.31-2.5q-.76-45.43-1.67-90.88c0-2.08.52-2.68 2.58-2.62a97.21 97.21 0 0011.45-.23c2.67-.25 2.93.84 3 3.08q.72 44.85 1.6 89.7a25.17 25.17 0 00.43 2.94C678.09 886.13 677.48 886.22 676.87 886.23zm43.15-.87c-8.95.32-17.92.35-26.88.63-1.93.06-2.44-.54-2.47-2.42q-.75-45.48-1.66-91c0-2.22.71-2.59 2.69-2.6 8.57 0 17.14-.39 25.7-.39 11.52 0 20.64 8.29 21.05 19.79.67 18.44.84 36.9 1.07 55.36.07 5.48-2.09 10.25-5.94 14.4A20.08 20.08 0 01720 885.36z" fill="#007CAA" class="color000 svgShape"></path></svg></g></svg>
