<svg id="SvgjsSvg1365" width="288" height="288" xmlns="http://www.w3.org/2000/svg" version="1.1" xmlns:xlink="http://www.w3.org/1999/xlink" xmlns:svgjs="http://svgjs.com/svgjs"><defs id="SvgjsDefs1366"></defs><g id="SvgjsG1367"><svg xmlns="http://www.w3.org/2000/svg" data-name="Layer 1" viewBox="0 0 1000 1000" width="288" height="288"><path fill="#007CAA" d="M101.24,623.31c2.66,3.12,2.21,6.23,0,9.35Z" class="color282828 svgShape"></path><path d="M898.14,617.75c-10.91-103.15-118.77-170.51-216.58-135-5.85,2.12-7.76,1-9.8-4.6-14.6-40.19-25.43-81.56-39.08-122-1-3-2.53-5.51,2.21-7.15,4.34-1.49,6.6-1.53,8.94,3.28,9,18.39,18.38,36.56,27.83,54.7,5.92,11.35,15.53,15.92,27.15,12.08q33.16-11,66-23.05c11.12-4.09,16.08-14,13.79-25.61-3.77-19.07-7.65-38.13-11.52-57.18-1-5-2.56-9.54,3.61-13.06,3.43-1.95,3.6-6.68,2.61-10.72-1.86-7.53-8.72-10.13-18.27-6.81-41.33,14.34-82.63,28.78-124,43-2.36.81-5.09,4.48-7.9.21s1.45-5.1,3.41-6.94c3.66-3.44,4.37-7.71,3-12.15s-4.88-8-9.73-7.49c-6.07.64-6.1-2.37-5.8-6.71.75-10.86,8.1-17.57,15.06-24.58,13.31-13.4,16-30.15,7.09-44.51-8.79-14.2-24.43-19.29-42.17-13.56-3.31,1.07-5.75,2-8.19-2.1-2.83-4.69-7.79-5.82-13-3.84-4.89,1.85-7.84,5.62-7.15,10.78.57,4.25-1.37,5.31-4.62,6.39-12,4-24,8.15-36,12.26-10.66,3.65-14.46,8.92-11.91,16.51,2.36,7,9,9,19,5.64,12-4.06,24-8.2,36-12.31,3.17-1.09,5.85-2.36,8.28,2,2.58,4.6,7.62,5.35,12.41,3.86,5.24-1.62,7.81-5.65,8.11-11.16.07-1.43-1-2.88.46-4.33,3.14-3.16,12.25-3.73,16.13-.84a10.69,10.69,0,0,1,2.19,15.21c-2.69,3.46-6,6.44-9.12,9.57-11.89,11.94-17.3,26.29-15.62,43.07.39,3.84.07,6.36-3,9.36-5.75,5.6-3.09,17.69,4.36,18.15,8.65.54,8.81,6.21,10.64,11.41,2.31,6.59,3.88,13.47,6.51,19.92,2.19,5.36,1,8-4.08,10.86-34,19.27-67.91,38.9-101.83,58.41l-62,35.65c-8.6-21.89-16.87-43.11-25.31-64.26-1.28-3.22-.18-4.46,2.64-5.61A81.44,81.44,0,0,1,446.7,388c13.89-.54,25-10.75,27.39-24.35,3.41-19.4-10.25-38.14-30.74-38.86-31.91-1.12-63.9-.89-95.83-.12-16.18.39-27.21,17.34-20.11,31.11,10.8,21,25.33,39.86,50.59,43.14,12.55,1.62,17.22,7.44,19.72,17.91a8.12,8.12,0,0,0,1,2.12c2.39,4.11,1.35,7.39-1.4,11.2-14.62,20.16-29.09,40.44-43.21,61-3.34,4.86-5.75,5.23-10.81,2.4-88.59-49.5-203.46-3.73-234.35,93-3.36,10.55-4.26,21.61-7.68,32.1v4.68a12,12,0,0,1,0,9.35v23.39c2.85,3.66,2.26,8.24,3,12.39C119.19,751.61,203.62,812,287.06,799c73.22-11.37,126.82-64.15,139.66-137.55.51-2.9-.21-7.21,4.73-5.73,4.58,1.36,11.32-3.81,13.53,5.42,4.68,19.51,16.74,33.33,35.77,39.84,6.26,2.14,8,4.83,7.4,10.8-.53,5.13,1.42,11.41-.92,15.21s-9.08.78-13.84,1.57c-6.9,1.15-11,5.57-10.6,12.1.42,6.73,4.31,10.77,10.89,10.89q26.1.46,52.2,0a11.21,11.21,0,0,0,11.3-11.5c0-6.1-4.67-10.54-11.43-11.61-4.69-.74-11.13,2.67-13.69-1.89-2.12-3.76-.55-9.61-.61-14.54a16.45,16.45,0,0,0,0-2.33c-.73-4.62,1.2-6.52,5.77-8,22.78-7.5,38-27.39,39.17-50.13,1.2-24.16-11.66-45.4-34.18-55.19-4.7-2-5.44-4.36-4.54-8.71,5.12-24.45,12.47-48.1,24.24-70.26,19.14-36,47-62.2,85.81-76.06,4.41-1.57,6.95-2,8.53,4a316.47,316.47,0,0,0,15.16,44c2.11,4.93.64,6.84-3.49,9.66-55.08,37.7-81,89.8-74.38,156.5,9,90.16,94.61,156.45,183.89,143.53S907.65,707.71,898.14,617.75ZM668.31,337.45c23.26-7.9,46.39-16.18,69.64-24.08,1.38-.47,4.52-3.83,5.45.63,4,19.28,7.79,38.59,11.81,58.63.74,2.33-1.6,2.63-3.54,3.31-18.31,6.41-36.63,12.77-54.89,19.31-3.55,1.27-5,0-6.49-3.06-8.1-16.2-16.3-32.35-24.76-48.36C663.45,339.88,664.32,338.81,668.31,337.45ZM356.71,358.2c-2.27-3.07-4.51-6.15-7.73-10.54,31.07,0,60.33,0,89.59,0,5.57,0,10.42,1.44,12.06,7.54,1.44,5.39.09,9.4-6.39,9.55-12.08.29-23.4,3.57-34.49,8.16C387.63,382.06,370.86,377.34,356.71,358.2Zm5,263.8c.93,5.67.1,8-6.38,7.13-8-1-16-1-24.07-1.37V628c-9.06-.47-18.13-1.37-27.19-1.24-5,.07-5.62-3.2-7.43-6.23-1.93-3.23-2.17-5.59.28-8.92q15.61-21.3,30.54-43.11c2.63-3.83,4.12-3.86,7.28-.52C349.23,583.32,358.33,601.15,361.73,622Zm41.5,37.94c-8.91,57-56.13,105-112.57,114.66C213,787.89,142.89,739.91,127.1,662.71c-15.34-75,37.65-151.69,113.23-164,30.93-5.06,60.35-1,88.41,13.24,5.76,2.91,7.4,4.59,3.12,10.93-4.86,7.21-8.68,8.64-16.24,4-5.63-3.43-12.41-5.1-18.83-7.06-7.45-2.28-13.66.76-15.78,7.16s1.68,12.62,9.47,15.26q7.71,2.61,15.3,5.56a55.51,55.51,0,0,1,5.71,3c-11.54,16.3-23,32.33-34.24,48.51-3.13,4.51-7.09,1.89-10.6,1.79-17.8-.51-32.25,10.22-36.58,27.56-4.08,16.3,4.27,33.41,19.82,40.64,16.71,7.76,36.24,1.68,45.87-14.66,1.9-3.23,3.42-5,7.54-4.75q26.43,1.59,52.92,2.44c4.72.16,5.17,1.45,4.23,5.92-9.35,44.61-52.14,78.19-97.92,76.51-47.8-1.75-88.07-37-94.38-82.6-7-50.26,20.79-94.13,69.26-109.47,10-3.17,14.17-9.5,10.73-16.76-3-6.4-8.15-8.08-14.86-6.35C186.47,531.71,150.4,573,144.67,621.24c-7.78,65.45,34.35,122.8,99.17,135,62.82,11.82,126.29-30.49,139.52-93,.69-3.22.25-8.52,2.84-9.08,5.15-1.11,10.85-.4,16.19.44C405.17,655.05,403.51,658.17,403.23,659.94ZM277.33,636.4a12.44,12.44,0,1,1-24.87.43,12.15,12.15,0,0,1,12.2-12.28A12.31,12.31,0,0,1,277.33,636.4Zm119.15-5.84c-8.4,1.77-10.71-2-11.59-9.79-3.19-27.81-15.4-51.49-35.5-70.84-4.35-4.19-4.75-7-.78-11a18.13,18.13,0,0,0,3.13-4.43c2.23-4.4,4.3-4.52,8-1,26.56,25.16,41.44,55.87,45.1,92.24C405.73,634.64,399.31,629.5,396.48,630.56Zm67.84-26.14a47.44,47.44,0,0,0-17.15,23.52c-3.07,8.94-9.95,3.37-15,4.14s-3.67-3.9-3.9-6.59c-3.86-44.33-22.1-81.51-55.19-111.33-2.29-2-4.81-3.3-1.85-7.34,13.3-18.16,26.2-36.63,39.26-55,2.55,1.88,2.82,4.62,3.73,6.92,17.7,45,35.23,90,53,135C469.16,598.54,468.86,601.16,464.32,604.42Zm67.4,34.72c4.09,14.38-2.49,30.48-15.06,37.48-3.91,2.18-5.43,1.94-5.28-3,.24-7.78.13-15.56.05-23.34-.1-8.64-4.29-13.68-11.32-13.85s-11.91,5.28-12,14.13c-.11,9,0,18.07,0,27.7-14.49-4-23.6-21.62-20.84-35.92,2.92-15.13,15.2-26.42,30.57-27.23C513.84,614.29,527.37,623.87,531.72,639.14Zm91.53-220.77C559,439.65,523.37,487.29,503.44,549.22a285,285,0,0,0-9.4,38.44c-.26,1.47,0,3.19-2.51,4.29q-5.17-13.26-10.34-26.45c-9.56-24.3-19-48.63-28.79-72.86-1.81-4.5-1.71-6.88,3.1-9.61Q534.43,438,613,392.49c4.08-2.36,6.31-3.21,7.58,2.63s3.42,11.39,5.42,17C627.17,415.3,627.08,417.11,623.25,418.37ZM759.81,774.83c-64.82,11.57-129.14-24.14-154-85.51a140.54,140.54,0,0,1,50.64-168.24c5.35-3.67,6.76-2.5,9.65,2.82,4.19,7.7,3.11,11.31-4.09,17.1-40.35,32.48-56.26,75-43.55,125.26,12.94,51.16,47.78,81.6,99.69,90.56,59.08,10.19,118.65-29.07,134.46-87.13,2.26-8.31-.31-14.59-6.82-16.63-7.1-2.22-12.78,1.31-15.54,10-12.13,38.18-37.6,61.81-76.86,70.09-43.53,9.18-89.31-15.59-107.86-58-17.67-40.39-4-91.15,31.15-116.6,3.85-2.79,5.33-2.08,7.28,1.88,7.57,15.33,15.25,30.6,23.29,45.68,2.31,4.35,1.54,7.12-1.13,11-9,13-8.14,29.62,1.65,42a35.83,35.83,0,0,0,63.8-24C770.93,619.79,760,606.3,745,602.18a7.51,7.51,0,0,0-3-.62c-10.47,2-14-4.92-17.65-12.82-6-12.91-12.55-25.57-19.44-38-3-5.37-1.12-6.84,3.76-8.26,50.26-14.74,104.38,14.1,120.46,64.3.71,2.22,1.12,4.55,2,6.7,2.52,6.19,8.49,9,14.51,7s9.19-7.5,7.49-14.18c-7.05-27.69-22.06-50.31-45.17-67-33.3-24-70-30.1-109.25-17.85-6,1.87-8.3,1-10.62-4.79-4.2-10.55-4.62-10.31,6.56-13.87A130.2,130.2,0,0,1,736,496.57c73.09.23,132.94,55.69,139.7,129.4C882.18,696.62,831.21,762.09,759.81,774.83ZM723.32,636.34A12.3,12.3,0,0,1,736,624.54a12.17,12.17,0,0,1,12.14,12.35,12.44,12.44,0,1,1-24.86-.55Z" fill="#007CAA" class="color000 svgShape"></path></svg></g></svg>
