<svg id="SvgjsSvg1385" width="288" height="288" xmlns="http://www.w3.org/2000/svg" version="1.1" xmlns:xlink="http://www.w3.org/1999/xlink" xmlns:svgjs="http://svgjs.com/svgjs"><defs id="SvgjsDefs1386"></defs><g id="SvgjsG1387"><svg xmlns="http://www.w3.org/2000/svg" data-name="Layer 1" viewBox="0 0 1000 1000" width="288" height="288"><path fill="#007CAA" d="M429.48,899.44c1.95-2.57,4.76-1.51,7.2-1.51q201.78-.07,403.57,0c2.44,0,5.24-1,7.22,1.51Z" class="color222 svgShape"></path><path d="M833.46 103.84c5.63.54 9.61 4 10.68 10.42a21.91 21.91 0 01.1 6.95c-.92 5.88 1.36 8.08 7.16 7.12a24 24 0 015.42 0c6.88.44 11.6 4.75 11.6 11 0 6.56-3.63 12.07-9.91 11.61-12-.87-15.74 3.29-14.82 15.19.47 6-5.22 9.82-11.94 9.35-6.3-.45-9.65-4.25-10.67-10.32 0-.25 0-.51-.05-.77-.46-4 1.85-9.53-1-11.82-2.59-2.07-7.84-.66-11.89-1.11-7.06-.79-11.85-6-11.51-12.22.35-6.37 5.23-10.6 12.61-10.93a6.18 6.18 0 011.55 0c8.41 1.63 11.21-1.55 10.43-10.18C820.4 109.24 825.46 103.83 833.46 103.84zM437.87 155.38c-15.49-14.51-31.23-28.76-47-43A31.93 31.93 0 00369 103.85q-96.33-.07-192.66 0c-13.21 0-21.85 8.26-22.63 21.55a219.16 219.16 0 000 24.85c.75 13.64 9.44 21.68 23.16 21.89 8.8.14 17.64.48 26.4-.12 6.17-.43 7.17 1.87 7 7.4-.36 16-.13 32.1-.13 48.16 0 12.82 0 12.82-13 12.85-27.17.07-43.41 16.22-43.6 43.41q-.09 15.13 0 30.29c0 2.93-.09 5.08-3.69 6.48-19.52 7.58-27.82 22.51-27.78 43 .13 62.41 0 124.82 0 187.23 0 13.89 3.47 17.29 17.59 17.29q101.76 0 203.53-.1c5.58 0 7.9.72 7.88 7.31-.26 92.71-.16 185.42-.19 278.13 0 16.76-6.06 22.63-23.12 22.63H171.64c-21.16 0-26.24-5-26.24-25.89q0-118.1 0-236.18c0-9.1-4.37-14.42-11.49-14.43S122.12 605 122.12 614q-.08 121.59 0 243.17c0 16.28 7.23 28.84 21.36 37.12 3.46 2 7.28 3.46 10.94 5.16H340.9c27.16-11.54 33.32-21 33.32-51.26V367.28c0-3.1.07-6.22-.12-9.31-1.1-17.73-9.82-30.19-26.29-36.79-4.07-1.63-5.24-3.67-5.14-7.88.28-11.65.31-23.31-.05-34.95-.55-17.26-12.13-31.51-28.71-36.42-7.4-2.18-14.91-1.49-22.37-1.37-4.21.07-5.16-1.31-5.12-5.28.18-19.43.24-38.85 0-58.27-.07-4.53 1.78-4.91 5.42-4.89q29.52.19 59 0c3.45 0 5.75 1.27 8.12 3.48 11 10.24 22 20.51 33.2 30.45A22 22 0 00423 205c5.81-5.89 11.48-12 16.79-18.32C448.18 176.57 447.52 164.42 437.87 155.38zM351.06 487.65c-.39 17.08-.31 34.18 0 51.26.08 4.84-1.48 6.05-6.17 6q-96.71-.21-193.42 0c-4.71 0-6.23-1.15-6.15-6 .3-17.09.36-34.19 0-51.27-.13-5.65 1.78-6.76 7-6.73 32.1.23 64.21.12 96.31.12 31.85 0 63.7.12 95.55-.13C349.43 480.87 351.19 482.05 351.06 487.65zm-.17-124.49c.07 29.26-.11 58.51.14 87.76.05 5.4-1.45 7-6.9 6.93-32.1-.25-64.2-.12-96.3-.12-31.83 0-63.67-.12-95.51.11-5.22 0-7.11-1.06-7.06-6.74.29-29.51.08-59 .17-88.53 0-13.65 7.54-21 21.16-21.05q81.15 0 162.3 0C343.92 341.53 350.86 348.32 350.89 363.16zm-50.66-99.39c13.07 0 19.07 5.92 19.21 18.82.12 9.84-.31 19.69.16 29.5.26 5.4-1.78 6.26-6.56 6.21-21.74-.23-43.48-.1-65.22-.1-21.22 0-42.45-.28-63.66.17-6.42.14-7.78-1.95-7.48-7.81.46-9.3 0-18.63.16-27.95.27-12.79 6.49-18.82 19.35-18.84Q248.21 263.68 300.23 263.77zm-37-57.95c0 9.84-.18 19.68.09 29.51.11 4-1.08 5.41-5.2 5.2-6.45-.34-12.94-.31-19.4 0-4 .18-5.4-.84-5.35-5.08q.33-29.13 0-58.24c-.05-4.16 1.25-5.29 5.23-5.1a169.67 169.67 0 0019.4 0c4.79-.33 5.43 1.73 5.31 5.79C263 187.18 263.19 196.51 263.19 205.82zM418 176.36c-10.84 12-10.64 12.14-22.53 1.17-8-7.37-16.25-14.49-23.94-22.16-5-5-10.44-6.64-17.38-6.61-56.45.21-112.9 0-169.35.27-6.35 0-8.39-1.3-8.13-7.95.55-14 .15-14 14.38-14h83.9c29.78 0 59.56.11 89.33-.1a19.51 19.51 0 0114.58 5.67q18.88 17.88 38.33 35.19C420.45 170.83 421.42 172.54 418 176.36z" fill="#007CAA" class="color000 svgShape"></path><path d="M879.27 849.47c-2.36-18.37-16.57-30.41-35.15-30.75-6.43-.12-12.86 0-19.81 0 2.59-7.35 4.67-14.17 4.69-21.54.18-52.19-42.07-96.24-94.3-96.73-63.44-.61-126.9-.79-190.34.09-38.17.54-66.35 19.54-83.95 53.21-10.66 20.4-14.67 42.07-6.21 65-9 0-17.31-.36-25.56.13-5.34.32-6.25-1.66-6.24-6.5q.18-183.36.12-366.72c0-15.52 6.29-21.72 21.65-21.72q79.63 0 159.27 0c19 0 24.61 5.52 24.61 24.35q0 104.89 0 209.78c0 9 4.67 14.4 11.76 14.22 6.78-.18 11.48-5.56 11.49-13.94q.09-108.39-.07-216.77c0-13.4-4.74-26.66-16.77-32.18-13.34-6.12-13.48-15.3-12.62-26.54.16-2.05.06-4.14 0-6.21-.42-20-13.56-33.86-33.61-34q-62.92-.51-125.86 0c-20.3.14-33.16 13.4-33.76 33.74-.2 7-.09 14 0 21 0 2.72-.14 4.86-3.24 6.18-19.4 8.26-26.36 23.65-26.32 44q.32 203.94.11 407.89c0 3.37-.07 6.75.14 10.1 1 15.18 8.6 25.57 22.55 31.53 1.52.65 3.8.21 4.49 2.45h3.11c2.67-1.51 5.58-.76 8.36-.76q200.64-.06 401.26 0c2.79 0 5.7-.75 8.37.76h3.11c6-2.63 12.38-4.45 17.44-9.09C880.35 879 881.19 864.44 879.27 849.47zM451.83 394.63c.4-5.14 0-10.34.1-15.52.11-10.79 2.54-13.32 13.34-13.34q54.74-.07 109.47 0c4.66 0 9.32-.08 14 .09 6.22.24 9.23 3.84 9.84 9.83 2.55 24.88 2.56 24.88-21.88 24.88h-52c-22.26 0-44.52-.14-66.77.12C453.09 400.73 451.45 399.45 451.83 394.63zm21.4 397.84c2.43-37.74 33.31-68.34 71.06-68.67q95.49-.82 191 .05c38.77.4 70.27 33.71 70.34 72.45 0 13.4-8.74 22.35-22.26 22.37q-72.21.09-144.41 0-70.66 0-141.31 0Q471.51 818.67 473.23 792.47zM853.91 871c-2.67 4.46-7.41 5-12.3 5-17.61-.09-35.22 0-52.83 0H440c-15.52 0-23.6-14.06-15.94-27.83 2.87-5.16 7.7-6.24 13.25-6.23 32.63.1 65.25 0 97.88 0H640q99.83 0 199.65 0c6.19 0 12.65 0 15.19 6.65C857.7 856 858.21 863.88 853.91 871zM730.05 212.21c-14.31-.46-14.31-.46-14.95-14.87-.84-18.7-14.63-32.67-32.5-32.92-18.33-.25-32.62 13.58-33.73 32.5-.28 4.85 2.13 11-1.08 14.2s-9.36.87-14.21 1.07c-18.48.77-32.17 14.79-32.09 33 .08 18.08 14.08 32.2 32.45 32.72 14.32.41 14.32.41 14.95 14.78.84 18.82 15.33 33.22 33.29 33.09 17.73-.12 31.87-14.2 32.94-32.68.28-4.84-2.15-11.38 1.12-14 3-2.47 9.32-1 14.17-1.15 18.26-.62 32.2-15 32.11-33.08S748.63 212.81 730.05 212.21zm-1.76 42.45q-10.08 0-20.18 0c-12.92 0-16.26 3.44-16.29 16.65 0 6.47.12 12.94 0 19.4-.17 7.1-4.11 11.71-9.72 11.75s-9.68-4.57-9.84-11.62c-.17-7.76.09-15.52-.09-23.28-.19-8.55-4.38-12.68-13-12.87-7.75-.17-15.52-.06-23.28 0-6.35 0-10.5-2.65-10.91-9.35-.37-6.13 3.69-9.64 11.16-9.78 6.72-.13 13.45 0 20.18 0 12.19-.08 15.84-3.66 15.93-15.58 0-3.1 0-6.21 0-9.31 0-4.14-.19-8.29.06-12.41.36-6.24 3.44-10.52 10.08-10.35 6.2.17 9.2 4.37 9.4 10.24.26 7.75 0 15.52.11 23.28.12 10 4.07 13.91 14.24 14.11 7.5.14 15 0 22.5 0 6.45 0 10.58 3 10.46 9.68S734.69 254.68 728.29 254.66z" fill="#007CAA" class="color000 svgShape"></path><path d="M525.06,476.58c-44,.06-80.08,36.22-79.84,80.11.24,43.59,36.06,79.37,79.74,79.64s80.1-36,80.11-79.93A79.83,79.83,0,0,0,525.06,476.58ZM525.22,613c-31,0-56.8-25.85-56.7-56.84a56.62,56.62,0,1,1,113.24.72C581.55,587.66,556.05,613,525.22,613Z" fill="#007CAA" class="color000 svgShape"></path><path fill="#007CAA" d="M547,546a14.48,14.48,0,0,1-4.5,9.57c-6.09,6-12,12.14-18.13,18-5.85,5.62-13.09,5.81-17.81.75-4.47-4.79-4-11.62,1.44-17.22,6.31-6.48,12.68-12.91,19.2-19.17,3.63-3.48,7.95-4.6,12.81-2.35C544.5,537.71,546.47,541.37,547,546Z" class="color010101 svgShape"></path></svg></g></svg>
