<svg id="SvgjsSvg1230" width="288" height="288" xmlns="http://www.w3.org/2000/svg" version="1.1" xmlns:xlink="http://www.w3.org/1999/xlink" xmlns:svgjs="http://svgjs.com/svgjs"><defs id="SvgjsDefs1231"></defs><g id="SvgjsG1232"><svg xmlns="http://www.w3.org/2000/svg" data-name="Layer 1" viewBox="0 0 1000 1000" width="288" height="288"><path d="M897.32,521c-1.84-43.39-22.43-75.73-60.45-96.75-19.9-11-42.2-13.49-64.13-16.05-20.72-2.42-36-10.71-44.72-30.28-3.82-8.52-9.07-16.43-14-24.42q-52.21-84.77-147-115.38c-45.24-14.63-91.75-14.54-138.15-10.51C358.31,233.7,300,265.14,253.27,318.23c-17.74,20.15-30.63,43.48-43.51,66.77-6.89,12.46-16.45,20.46-30.53,23.36-10.46,2.15-20.72,5.24-31.14,7.61-27.4,6.24-45.58,22-52.16,49.92-.14.62-.92,1.1-1.41,1.64V575.76C97,577.18,96.31,580,97,582c8.34,27.17,31.67,45,60,45.44,13.33.19,26.67.25,40-.07,4.72-.11,7.12,1.28,9.63,5.53,17,28.8,42.45,44.42,75.88,44.55,33.78.13,59.45-15.55,76.65-44.61,2.24-3.78,4.26-5.48,8.86-5.47q128.22.24,256.45,0c4.09,0,6.23,1.08,8.42,4.86,17,29.17,42.54,45.08,76.3,45.18,34.1.1,59.94-15.78,77-45.35,2.25-3.9,4.59-4.72,8.55-4.67,13.85.16,27.71.26,41.56,0a61.89,61.89,0,0,0,60.07-50.92C899.45,558.14,898.1,539.44,897.32,521Zm-55.77-44c20,0,20,0,26.28,19.28.55,1.69.95,3.43,1.44,5.19-19.66,2.34-35-4.86-42.5-19.3-2.1-4.08-1.75-5.53,3.08-5.22C833.74,477.14,837.65,476.94,841.55,476.94Zm-707.09,0h6.64c-1.78,7.24-3.62,13.76-4.91,20.39-.74,3.84-2.51,4.81-6.26,4.82-10.31,0-10.31.21-10.31-10.19C119.62,476.9,119.62,476.9,134.46,476.94ZM282.69,652.61c-34.47.08-62.7-28.19-62.67-62.78a62.73,62.73,0,1,1,62.67,62.78Zm426.57,0c-34.46,0-62.65-28.24-62.6-62.85a62.73,62.73,0,1,1,62.6,62.85Zm163.15-86.13a37.45,37.45,0,0,1-36.52,35.87c-11.23.29-22.49-.18-33.71.19-4.9.17-5.7-1-5.35-6,3.2-44.65-25.81-83.94-68.27-93.05-58.9-12.63-111.79,34.15-106.68,94.34.11,1.28.29,2.55.49,4.2H370c5.45-51.24-26.43-86.21-61.41-96.84-59.27-18-117.41,28.23-113.25,90.45.44,6.7-1.62,7-6.83,6.84-10.44-.32-20.91.05-31.36-.14C136.13,602,120,586,119.67,565c-.19-10.71.28-21.45-.19-32.14-.22-5.16,1.6-6.15,6.19-5.84,5.72.38,11.49,0,17.24.11,7.61.15,12.42-3.37,14.28-10.7,4.12-16.16,8.3-32.32,12.14-48.55,2.07-8.77-3.35-15.64-12.41-16-8-.3-16.06-.06-25.44-.06a29.85,29.85,0,0,1,15.78-9.51c13.36-3.51,26.73-7,40.16-10.22,19.42-4.67,33.57-16,43.34-33.26,11.42-20.2,22.1-40.88,37.07-58.84,47.53-57,108.4-86.93,182.6-88.8,32.61-.83,65.26-1.31,97.3,7.38Q642.55,284.34,693.6,368c4.22,6.89,8.66,13.73,12,21.05,12.87,28,35.13,41.25,65.15,44.16,13.7,1.33,27.45,3.5,40.72,7.59a72.73,72.73,0,0,1,22.3,11.06c-8.43,0-15.08-.07-21.73,0-10.48.14-15.08,5.08-14.75,15.68,1,32.1,28.35,58.72,61.21,59.56,14,.36,14,.36,14,14.29C872.51,549.76,872.73,558.13,872.41,566.48Z" fill="#6e90e8" class="color000 svgShape"></path><path d="M653.05,389.11a161.34,161.34,0,0,0-34.5-52c-1.28-1.31-2.63-2.55-3.92-3.85-6.68-6.75-7.43-13.58-2.12-19.2s12.62-5.14,19.31,1.1a183.44,183.44,0,0,1,36.93,48.29,265,265,0,0,1,14,32.21c3.9,10.5-1.44,18.46-12.64,18.48q-86.24.17-172.48,0c-9.24,0-14.08-4.8-14.1-14q-.13-61.16,0-122.3c0-9.33,4.72-14.06,13.88-14.22,31.6-.57,61.65,6,89.91,20.24,8.35,4.21,11.15,10.86,7.7,17.7s-10.38,8.8-18.71,4.69a176.76,176.76,0,0,0-59.8-17.11c-5.41-.58-8.24-.46-8.12,6.65.47,29,.26,58,.13,87,0,4.16.09,6.45,5.58,6.41C560.12,389,606.11,389.11,653.05,389.11Z" fill="#6e90e8" class="color000 svgShape"></path><path fill="#6e90e8" d="M270.37 426.82c4.43 0 8.87-.3 13.27.06a12.37 12.37 0 0111.61 12.4 12.19 12.19 0 01-11.59 12.4c-9.08.41-18.22.45-27.31 0a11.94 11.94 0 01-11.16-12.72c.45-6.88 4.38-11.14 11.15-12C261 426.37 265.69 426.83 270.37 426.82zM508.73 451.8c-4.42 0-8.87.26-13.27-.06-6.91-.51-11.73-5.63-11.9-12.13a12.22 12.22 0 0112.05-12.73c8.57-.36 17.18-.34 25.75 0 7.35.27 12.35 5.68 12.3 12.51s-5.06 12-12.44 12.41c-4.15.25-8.33 0-12.49 0z" class="color010101 svgShape"></path><path d="M458.38 277.9c0-9.31-4.74-14-13.85-14.26-28.34-.7-55.62 4.37-81.47 16-50.85 22.92-84.32 61.71-103.18 113.76-4.85 13.38-.07 20.74 14.26 20.76q41.53.06 83.09 0c28.74 0 57.49.05 86.23 0 10.23 0 14.92-4.63 14.93-14.77Q458.5 338.66 458.38 277.9zM428.6 389.23c-46.25-.21-92.51-.12-140.21-.12 26.33-56 68.32-89.31 128.45-98.69 16.39-2.56 16.49-2 16.49 14.79q0 39.19 0 78.41C433.37 387 433.44 389.26 428.6 389.23zM282.67 552.26a37.61 37.61 0 1037.69 37.1C320.25 569 303.1 552.12 282.67 552.26zm-.29 50.13a12.52 12.52 0 1112.88-12.76A12.61 12.61 0 01282.38 602.39zM709.5 552.26A37.61 37.61 0 10747 589.54 37.78 37.78 0 00709.5 552.26zm-.07 50.13A12.52 12.52 0 11721.9 590 12.59 12.59 0 01709.43 602.39z" fill="#6e90e8" class="color000 svgShape"></path></svg></g></svg>