<svg id="SvgjsSvg1061" width="288" height="288" xmlns="http://www.w3.org/2000/svg" version="1.1" xmlns:xlink="http://www.w3.org/1999/xlink" xmlns:svgjs="http://svgjs.com/svgjs"><defs id="SvgjsDefs1062"></defs><g id="SvgjsG1063"><svg xmlns="http://www.w3.org/2000/svg" data-name="Layer 1" viewBox="0 0 1000 1000" width="288" height="288"><path d="M753.1,249.14m-194.43-1Q387.55,248,216.42,248c-8.58,0-9.32-.76-9.36-9.36-.08-22.29,0-44.58,0-66.87,0-10.11.29-20.23-.12-30.33-.6-14.71-5.64-19.79-20.17-19.32-21.85.7-40.81,9-57,23.52-16.84,15.08-27.18,33.64-29.23,56.44v515c1.46,11.49,2.44,23,8.53,33.42,18.58,31.82,45.93,48.21,83,48.2q169.12-.08,338.27,0c2.85,0,6-.9,9.09,1.31-7.61,7.84-15,15.08-22.31,22.42-12.6,12.7-25.47,25.12-37.82,38-4.32,4.53-6.82,9.92-4.37,16.31,2.3,6,7.25,7.67,13.16,7.48H885c10.74-1,13-3.54,13-14.89q0-112,0-224,0-84.76,0-169.52c0-5.72-.63-10.77-6.52-13.76s-11.06-1.06-15.88,2.48c-4.41,3.24-7.92,7.46-11.87,11.19-6,5.7-11.37,12.17-18.27,17.53-.8-3.29-.42-5.88-.42-8.45q0-106.14,0-212.29c0-18.94-5.51-24.41-24.66-24.51-21.52-.11-43,0-64.56-.07m-32.16,26.32c29.31.23,58.61.34,87.91-.05,6.55-.09,7.53,2.22,7.52,8q-.26,117.45,0,234.9c0,5.18-1.73,8.6-5.24,12.1q-78.78,78.53-157.39,157.24c-1.47,1.47-3.05,2.83-4.38,4.41-5,6-5,12.78,0,17.39,4.53,4.17,11.45,3.84,16.77-1.18,5.66-5.34,11-11,16.55-16.46l187.14-187c2.5,1.39,1.24,3.7,1.25,5.47.09,29.82-.08,59.63.2,89.45,0,5.36-1.15,7.38-6.74,6.81a76.62,76.62,0,0,0-14.76,0c-7.51.67-11.78,5.35-11.61,12s4.62,10.85,12.28,11.16c5.44.21,10.9.24,16.33,0,3.45-.15,4.48,1.12,4.42,4.46q-.25,13.6,0,27.22c.06,3.17-1.2,4-4.1,3.86-5.18-.18-10.37-.15-15.56,0-8.48.2-13.49,4.65-13.43,11.75s5.17,11.37,13.69,11.57c4.92.12,9.87.28,14.77-.05,3.94-.27,4.74,1.32,4.65,4.89q-.35,12.83,0,25.66c.1,3.74-1.08,5-4.84,4.87-5.43-.26-10.89-.18-16.33,0-6.85.29-11.27,3.63-11.82,10.8-.53,6.76,3.61,11.47,11.21,12.23a130.62,130.62,0,0,0,16.32.21c3.57-.09,5.74.22,5.5,4.88-.42,8.53-.35,17.11,0,25.65.16,4.12-1.55,4.72-5,4.57a146.83,146.83,0,0,0-15.56,0c-8.09.51-12.63,5-12.51,12s4.73,10.92,12.94,11.36c6.42.34,15.1-2.83,18.68,1.16,4.16,4.64,1.12,13.32,1.3,20.24.22,8.55-.39,17.14.19,25.65.47,6.8-1.23,8.95-8.59,8.93-92.84-.29-185.68-.19-278.52-.19H517.52c0-3.34,2.72-4.42,4.37-6.07Q575.2,800.8,628.63,747.45a64.56,64.56,0,0,0,5.36-5.62c4.34-5.53,4.07-11.67-.52-16.13-4.28-4.16-11.11-4.27-16.19.23-4.46,3.94-8.53,8.33-12.75,12.54-10.27,10.25-20.63,20.44-30.75,30.84a12,12,0,0,1-9.48,3.9Q378,773,191.64,773.08c-37.18,0-63.43-23.79-67.5-60.43-2.57-23.11,15.27-51.34,39.64-62.58a66.18,66.18,0,0,1,25.45-6.27c10.92-.42,15-4.48,15-15.35q.18-38.88,0-77.77c0-10.25-5.64-16.24-13.47-14.8s-10,7.17-9.93,14.37c.07,21.26-.17,42.52.15,63.78.09,5.48-1.4,7.49-7,8.49-19.2,3.44-35.17,13.19-50.14,28.41v-7.57q0-212,0-423.91c0-31.22,13.79-54,42.62-67,13.83-6.23,14.36-5.8,14.36,8.75q0,166.07,0,332.12a55.38,55.38,0,0,0,.47,9.3c.95,5.46,4.44,8.65,10,9.16,5.9.54,10.23-2.08,11.86-7.76a39.75,39.75,0,0,0,1-10.75q.08-105.78,0-211.56c0-4.73.15-7.37,6.35-7.36q163.77.31,327.53.16c1.23,0,184.42-2.11,187.22-.11M645,554.8m-347-.42" fill="#007CAA" class="color000 svgShape"></path><path d="M805.48,650.85c-6.14-2.53-10.86.33-15.2,4.68q-61.47,61.61-123.1,123.07c-4.41,4.4-7,9.25-4.51,15.26s8.09,7.23,14.21,7.19c20-.13,39.9,0,59.84,0,20.21,0,40.42,0,60.63,0,11.18,0,15.45-4.25,15.48-15.57.08-40.14,0-80.29,0-120.43C812.88,658.92,811.68,653.4,805.48,650.85ZM789.57,770.68c0,5.15-.86,7.17-6.64,7.09-26.54-.32-53.08-.14-79.13-.14,28.53-28.49,57-56.9,85.62-85.53,1.13.77,0,3,0,4.84C789.49,721.52,789.32,746.11,789.57,770.68Z" fill="#007CAA" class="color000 svgShape"></path><path fill="#007CAA" d="M648.21,415.29l-.39,0-.37.1c-1.62-2-1.67-4,.07-6a.55.55,0,0,1,.69.11Z" class="color7e7e7e svgShape"></path><path d="M624.9 645.87c-2.45-1.06-3.15-2.23-3.17-4.8-.11-12.68.64-25.38-.67-38-4.26-41-22.66-74.28-54.22-100.51a11.85 11.85 0 00-12-2.24c-1.53.5-2.68.67-4.16-.31A136 136 0 00511 482c-1.44-.39-2.79-.59-2.56-2.84.45-4.45-2-7-6-8.79-19.52-8.6-38.91-8.56-58.36.28-3.73 1.69-5.61 4.18-5.62 8.23 0 1 .72 2.26-1 2.72a209.33 209.33 0 00-20.07 6.82c0-2.07 0-3.57 0-5.08.21-21.38.49-42.76.54-64.14 0-3.08 1.06-4.05 3.85-4.89 16.47-4.94 28.54-14.64 33.16-31.92 2.57-9.64 2.35-19.4.35-29.09-4.71-22.86-15.26-42.33-33.68-57.13-2.67-2.15-5.64-4-9.05-2.41S409 299 409 302.38q0 23.39-.07 46.76c0 4.75-1.51 6.29-6.12 6.28-7.72 0-15.44-.06-23.16-.21-4.52-.09-5.66-1.25-5.69-5.74-.05-7.45 0-14.9.06-22.35 0-8.82.08-17.65.05-26.48 0-2.85-.7-5.56-3.45-7s-5.34-.35-7.69 1.28a44.15 44.15 0 00-3.64 2.72c-19 16.39-30 37.25-32.86 62-3.21 28.11 8.85 46.66 34.43 54.55 2.85.88 3.51 2 3.48 4.79q-.51 46.76-.68 93.52a14.76 14.76 0 01-3.8 10.31 143.93 143.93 0 00-33.76 79.73c-1.33 12.94-.5 25.91-.74 38.87 0 1.77.15 3.15-2.15 4.2-10.71 4.85-15.61 14.62-13.44 26 2.07 10.82 10.06 17.68 22 18 18 .48 34.71 5.3 50.53 13.68a120.34 120.34 0 0032.17 11.39c2.87.6 6 .14 8.57 2h77.81a25.13 25.13 0 0114.07 0h7.45c.14-.67.62-.76 1.2-.82a106.51 106.51 0 0040.79-12.37 115.25 115.25 0 0152.53-14.06c10.31-.2 18.44-7.62 20.47-17.81C639.62 660.25 634.85 650.14 624.9 645.87zM511.35 495a136 136 0 0134.13 16.27c2.1 1.39 1.9 3.08 1.9 5q0 32.68 0 65.36c0 1.1 0 2.21 0 3.31.26 4.22 2.65 6.75 6.29 6.73s6.07-2.54 6.08-6.82c.06-15.86 0-31.71 0-47.57V512.81c20.59 17.28 34.64 37.75 42.85 62.24 5.55 16.53 7.2 33.58 6.75 50.92-.13 5-.09 9.92 0 14.89.05 2-.24 2.91-2.61 2.9q-22.14-.18-44.26 0c-2.25 0-2.78-.75-2.75-2.86.12-7 .08-14.06 0-21.09 0-4.78-2.46-7.6-6.29-7.5s-6 2.81-6.1 7.38c-.07 7-.11 14.06 0 21.09 0 2.35-.63 3-3 3q-16.54-.18-33.09 0c-2.26 0-3.05-.52-3.05-2.94q.09-71.76 0-143.53C508.32 494.71 509 494.25 511.35 495zm-57.06-15.18a57 57 0 0138.46 0c2.5.86 3.28 2 3.27 4.68-.11 26.06-.07 52.12-.07 78.18H496c0 25.79-.07 51.57.08 77.35 0 3.15-.82 3.84-3.86 3.8-12.55-.19-25.1-.15-37.64 0-2.56 0-3.49-.46-3.48-3.31q.12-78.18-.05-156.36C451.05 481.45 452.14 480.57 454.29 479.81zm-17.39 15a7.6 7.6 0 011.81 0v3.76q0 70.51.13 141c0 3.46-.83 4.33-4.27 4.25-10.61-.25-21.23-.15-31.84 0-2.27 0-3-.52-3-2.93q.07-62.85 0-125.73a3.54 3.54 0 011.56-3.46A127.77 127.77 0 01436.9 494.77zm-82.11-96.56c-10-5.73-15.42-14.42-16.14-25.79-1.47-23.05 7.62-42.23 22.14-59.61 1.37 1.45.82 2.73.82 3.86 0 11-.13 22.06-.05 33.09.06 10.79 6.7 17.58 17.41 17.86 8.27.21 16.55.31 24.82.23a17.33 17.33 0 0017.55-17.59c.11-12.23 0-24.46 0-37.91 13.89 16 21.82 33.2 23 53.17 1.17 20.3-9.44 33.49-30.12 38.13-7.89 1.77-8.49 2.54-8.55 10.43-.22 25.64-.52 51.29-.63 76.93 0 2.88-.81 4.58-3.42 5.75a47.11 47.11 0 00-5.27 3.23c-.89.54-1.61 1.36-2.95.78-6-2.61-11-.64-15.36 3.68a12.82 12.82 0 01-1.48 1.07c-1-1.48-.48-3-.47-4.4q.27-43.85.61-87.69c.05-7.21-.79-8.18-7.7-9.84A53.58 53.58 0 01354.79 398.21zM342.7 580.88c7.73-26.37 21.83-48.55 42.74-66.38.39-.33.84-.58 1.9-1.3 0 43 0 85.17.06 127.37 0 2.62-.74 3.21-3.24 3.19-14.48-.12-29-.06-43.45-.06-1.45 0-3 .47-3-2.07C337.83 621.25 336.85 600.83 342.7 580.88zm283.14 87.83c-.76 4.62-5 8.18-10.42 8.28-20.11.37-38.77 5.92-56.44 15.28a100.34 100.34 0 01-27.49 9.83 106 106 0 01-20.95 2c-24 0-48-.11-72 .06A105.8 105.8 0 01387.69 692c-12.48-6.55-25.47-11.75-39.52-13.89a80.79 80.79 0 00-14.41-1c-7.71.21-12.21-3.49-12.31-10.13s4.54-10.87 12.23-10.87h278.5a16.36 16.36 0 016.12.69C623.53 658.81 626.68 663.67 625.84 668.71zM314.29 513.64c-1.77-10.59-9.76-17.78-20.48-17.93-2.95 0-3.25-1.11-3.22-3.56.11-8.82.07-17.65 0-26.48 0-4.66-2.25-7.24-6.07-7.22-4.1 0-6.42 2.76-6.39 7.31.07 9 0 17.93.12 26.9 0 2.27-.48 3.12-2.91 3a81.64 81.64 0 00-11.17 0c-3.08.24-3.91-.65-3.9-3.8.11-27-.71-54.1.25-81.1.58-16.06-1.92-30.47-11.92-43.25-1.09-1.39-1.75-3.11-2.72-4.62a7.58 7.58 0 01-1.26-4.27c0-9.38.09-18.76 0-28.14 0-2.32.6-3 3-3q21.51.21 43 .09c2.51 0 3.3.64 3.25 3.23-.2 9.93 1.56 20.27-.71 29.65-2 8.34-8.43 15.61-12.9 23.36l-.21.35a11.69 11.69 0 00-1.92 7c.06 13.24 0 26.48 0 39.72 0 4 2.43 6.49 6.35 6.48 3.67 0 6-2.33 6.11-6.32s0-7.72 0-11.58c0-9.52-1.72-19.49.57-28.42 2.16-8.47 8.5-15.88 13.09-23.71a14.14 14.14 0 002-7.44c-.07-19.44 0-38.89 0-58.34 0-6.58-2.12-8.74-8.59-8.73q-28.14 0-56.28.1c-7.22 0-9.12 1.86-9.12 9 0 19 .06 38.07 0 57.1a17.52 17.52 0 002.73 9.73c3.9 6.32 7.48 12.84 11.3 19.21a10.85 10.85 0 011.64 5.82c0 32.69 0 65.38.17 98.07 0 3.21-.92 3.78-3.9 3.8-10.23.08-17.45 6.87-19.12 17.55s3.42 19.84 13 22.94c2.45.79 3 1.93 3 4.3-.09 20.41-.05 40.83-.05 61.24h-.06c0 20.27-.18 40.55.05 60.82.17 14.53 10.3 24.81 25.46 26.53a27.75 27.75 0 0030.39-20.56 43.46 43.46 0 001-10.68q.1-58.54.2-117.1c0-2-.39-3.7 2.51-4.71C310.14 532.63 315.86 523 314.29 513.64zM244.62 308.07c-.22-2.16.63-2.84 2.8-2.8 7.29.12 14.58 0 21.87 0v-.1c7 0 14 .09 21 0 2.47 0 3.64.28 3.57 3.25-.16 6.76 0 6.77-6.6 6.76-12.93 0-25.86-.16-38.78 0-3 0-4.42-.57-3.91-3.79A12.08 12.08 0 00244.62 308.07zm40.72 351.78c0 9.68-6 16.69-14.59 17.65-7.28.82-14.65-4.62-16.93-12.41a21.3 21.3 0 01-.53-6.15q0-29 0-57.92h.12c0-20 .07-40-.08-60 0-3.08.7-4 3.84-3.89 8.41.22 16.82.14 25.23 0 2.54-.05 3.25.62 3.24 3.2C285.48 580.15 285.48 620 285.34 659.85zm7.33-135.17c-7.71.05-15.43 0-23.14 0v.2c-7.72 0-15.43 0-23.15 0-6.07 0-9.4-2.93-9.43-8.39s3.23-8.53 9.28-8.53q23.15 0 46.29.06c5.94 0 9 2.86 9 8.29S298.65 524.65 292.67 524.68z" fill="#007CAA" class="color000 svgShape"></path><path d="M638.46,398.07c-4.49-3.46-7.82-6.87-6.16-13.25,1.14-4.37-2-9.52.06-13.28s6.64-6.06,10-9.13c4.66-4.28,6.06-10.4,3.23-15.79-3.38-6.45-7-12.79-10.89-19-3.27-5.19-8.84-7-14.81-5.18a73.24,73.24,0,0,0-8.94,3.11c-3.79,1.7-6.94,2-10.43-1.08-3.06-2.7-7-4.36-10.86-5.82a3.78,3.78,0,0,1-2.83-3.51c-.45-3.54-1.19-7.06-1.94-10.56-1.73-8.05-6.32-11.77-14.48-11.82-5.37,0-10.75,0-16.13,0-9.84,0-14.37,3.8-16.09,13.45a20.36,20.36,0,0,0-.68,3.65c.08,6.39-3.86,9.14-8.75,12.72-8,5.84-14.9,6.17-23.51,2.09-6.41-3-12.54-.26-16.26,5.88q-5,8.28-9.7,16.8c-3.45,6.27-2.4,12.37,2.88,17.18,2.95,2.69,6,5.32,9.12,7.78a4.59,4.59,0,0,1,1.91,4.95,35.58,35.58,0,0,0,0,12.77c.61,3.33,0,5.71-3,7.73a65,65,0,0,0-7.85,6.73,12.87,12.87,0,0,0-2.75,15.53q5,9.48,10.68,18.62c3,4.93,8.25,6.9,14,5.62a27.1,27.1,0,0,0,6.64-2.19c5.89-3.1,10.53-1.68,16.56,1.22,8.46,4.08,12.06,9.42,13,18.41.87,8.34,6.05,11.92,14.58,12,4.83.06,9.66,0,14.49,0,11.6,0,15.32-3.11,17.55-14.67a37.62,37.62,0,0,0,.75-4.06c.37-4.84,2.19-8.18,7.2-10.14,4.26-1.67,7.77-6.41,11.93-6.85,4.34-.46,9,2.74,13.62,4.09,5.36,1.57,10.58.66,13.81-3.91a115.12,115.12,0,0,0,13-22.89q0-3,.07-6C646.64,403.92,642.31,401.05,638.46,398.07Zm-4,16.28c-2.81,4.57-5.45,9.24-8,13.94-1,1.75-1.94,2.26-3.94,1.47-4.35-1.72-8.85-3-13.2-4.72a8,8,0,0,0-9.11,1.6A52.33,52.33,0,0,1,582.94,437a7.74,7.74,0,0,0-5.45,6.57c-.77,4.89-2,9.71-2.73,14.6-.36,2.4-1.18,3.31-3.65,3.23-5.09-.16-10.2-.17-15.3,0-2.55.09-3.3-1-3.64-3.3-.66-4.49-1.74-8.92-2.38-13.41-.5-3.53-2.22-5.81-5.6-6.89a53.27,53.27,0,0,1-17.94-9.92,7.78,7.78,0,0,0-8.45-1.31c-4.61,1.78-9.33,3.29-14,5-2,.74-3.22.49-4.3-1.56-2.45-4.61-5.06-9.15-7.79-13.6-1.2-2-.85-3.09.87-4.47,3.76-3,7.33-6.27,11-9.37,2.29-1.93,3.52-4.25,2.83-7.27A54.63,54.63,0,0,1,506,374a7.77,7.77,0,0,0-3.09-8c-3.74-3-7.25-6.38-11-9.39-1.83-1.47-2.29-2.65-.95-4.78q4.15-6.64,7.83-13.58c1.11-2.1,2.37-2.16,4.29-1.44,4.51,1.69,9.09,3.16,13.57,4.89a6.88,6.88,0,0,0,7.66-1.25,57.57,57.57,0,0,1,18.61-11.25c3.12-1.13,4.38-3.53,4.93-6.55.89-4.87,2-9.72,2.65-14.62.33-2.31,1.29-2.94,3.49-2.88,5.1.13,10.21.15,15.3,0,2.36-.07,3.42.54,3.74,3.07.59,4.64,1.64,9.21,2.43,13.82.56,3.26,2.12,5.47,5.44,6.55a54.39,54.39,0,0,1,18.3,10.14,7.34,7.34,0,0,0,8.05,1.29c4.61-1.78,9.35-3.23,14-5,2.15-.84,3.4-.7,4.57,1.55,2.34,4.51,5,8.86,7.52,13.28.4.71.77,1.45,1.07,2,0,1.36-.88,1.84-1.59,2.46-3.54,3.06-7,6.17-10.67,9.15-2.8,2.3-4,4.86-3.16,8.66a45.89,45.89,0,0,1,.44,18.89c-.9,4.39.3,7.69,4,10.42s6.88,5.95,10.41,8.82C635.29,411.52,635.56,412.55,634.45,414.35Z" fill="#007CAA" class="color000 svgShape"></path><path d="M562.79,347.36a36,36,0,0,0-.38,71.92c19.66.1,36-16.24,36.05-36.08A35.78,35.78,0,0,0,562.79,347.36Zm-.15,59.5a23.54,23.54,0,0,1-.09-47.08A23.35,23.35,0,0,1,586.06,383,23.84,23.84,0,0,1,562.64,406.86Z" fill="#007CAA" class="color000 svgShape"></path></svg></g></svg>
