<svg id="SvgjsSvg1082" width="288" height="288" xmlns="http://www.w3.org/2000/svg" version="1.1" xmlns:xlink="http://www.w3.org/1999/xlink" xmlns:svgjs="http://svgjs.com/svgjs"><defs id="SvgjsDefs1083"></defs><g id="SvgjsG1084"><svg xmlns="http://www.w3.org/2000/svg" data-name="Layer 1" viewBox="0 0 1000 1000" width="288" height="288"><path d="M9.57-271.72c0-28.61,0-35.26,0-58.92,0-14.27-5.52-22.25-19.06-26.88-56.62-19.35-91.32-38.5-147.92-57.89a32.32,32.32,0,0,0-22,.19c-55.87,19.14-87.8,38.12-143.7,57.16-15.39,5.24-20.66,12.57-20.67,28.84,0,42.11.22,67.23-.07,109.34-.34,49.54,12.93,84.91,41.91,124.64,36.67,50.27,71.26,75.83,126.6,103,10.47,5.15-2.1,5.3,8.37.16,50.74-24.91,80.84-38.13,116.66-82.3C-21.4-110,4.27-150.18,8.48-196.4,10.92-223.13,8.79-249.92,9.57-271.72Zm-27.89,52.6c.22,49.87-20.59,90.81-53.57,126.5-26.36,28.52-57.67,50.59-91.69,69-2.56,1.38-4.76,2.24-7.87.55-49.06-26.66-92.52-59.61-122-108.24-16.38-27-24.72-56.34-24.43-88.05.14-15.85,0-31.71,0-47.56,0-20,.09-40-.07-60,0-3.89.89-5.74,5-7.12Q-242.6-357.74-172.49-382a14.16,14.16,0,0,1,9.74.3q69.12,23.58,138.28,47c4.71,1.59,6.29,3.67,6.26,8.72Q-18.58-272.53-18.32-219.12Z" fill="#007CAA" class="color000 svgShape"></path><path fill="#007CAA" d="M554.91,445a.6.6,0,0,1,.76.2v4.46l-.32.31-.43-.09A3.22,3.22,0,0,1,554.91,445Z" class="color373737 svgShape"></path><path fill="#007CAA" d="M409.43 136.73c0-1.07 0-1.22 0-1.37.32-3.48-1.58-8.83.74-10 3.4-1.76 8.31-.61 12.57-.74 1.7 0 1.86 1 1.85 2.3 0 6.06-.06 12.13 0 18.19 0 1.69-.49 2.52-2.25 2.29-.29 0-.59 0-.89 0-3.83-.07-8.74 1.28-11.18-.59C407.62 144.73 410 139.57 409.43 136.73zM386.77 316.67c0 12.91 0 12.83-12.26 12.25-2.46-.11-2.94-1-2.9-3.19.11-5.63.12-11.26 0-16.89-.05-2.09.5-3.1 2.71-2.73a6.59 6.59 0 00.89 0c3.69.08 8.47-1.22 10.77.61C388.45 308.7 386.36 313.69 386.77 316.67zM288.63 514.05c0-3.53-1.37-8.18.36-10.3 2.07-2.55 6.94-.39 10.54-.93s4.17 1 4 4.16c-.26 5.32-.15 10.67 0 16 .05 1.92-.53 2.77-2.48 2.48a8.81 8.81 0 00-.89 0c-3.8-.24-8.67 1.59-11.12-.73C286.74 522.57 288.64 517.7 288.63 514.05zM124.94 191c-1.49-1.37-2-1.84-2.54-2.34-3.87-3.86-7.68-7.79-11.63-11.55-1.39-1.32-1.56-2.28 0-3.45a7.27 7.27 0 00.64-.61c2.76-2.63 5.36-7.09 8.35-7.38s5.55 4.61 8.25 7.26c2.29 2.24 6.3 4.26 6.15 7-.13 2.33-4 4.38-6.07 6.68A46.53 46.53 0 00124.94 191zM248 345.52c5 5.11 9.25 9.62 13.7 13.92 1.64 1.58 1.34 2.47-.13 3.84-2.94 2.7-5.53 7.52-8.62 7.81s-5.77-4.78-8.59-7.54c-6.75-6.63-6.68-6.65.11-13.53A52.58 52.58 0 00248 345.52zM184.69 477.7c-.74-.67-1.3-1.12-1.8-1.62-3.88-3.87-7.7-7.78-11.63-11.58-1.28-1.24-1.64-2.06-.09-3.44 3.08-2.74 5.7-7.57 9-8 3.08-.43 5.76 4.79 8.58 7.55 6.69 6.55 6.65 6.6-.17 13.4C187.35 475.21 186.07 476.39 184.69 477.7zM188 545.66c-3.79-3-9-6.24-9.73-10.31-.61-3.35 5.35-6.36 8.4-9.52 5.58-5.79 5.65-5.71 11.5.13 4.85 4.86 4.85 4.86 0 9.75l-9.43 9.4A6.28 6.28 0 01188 545.66zM320.3 104c1.08.85 1.64 1.27 2.19 1.73 9.91 8.3 9.93 8.32.95 17.24-2.29 2.27-4.74 6.15-7.07 6.11s-4.5-4.22-7.06-6.17c-3.39-2.59-3.44-4.53-.06-7.28s6.35-6.17 9.45-9.34A16.14 16.14 0 00320.3 104zM263.36 213.18c-.63.69-1.1 1.24-1.62 1.76-3.77 3.79-7.65 7.48-11.3 11.39-1.66 1.79-2.7 1.58-4.2-.08a79.28 79.28 0 00-6.62-6.6c-1.9-1.66-1.41-2.71.17-4.21 3.77-3.58 7.42-7.29 11-11 1.29-1.34 2.18-2.11 3.8-.22 2.21 2.59 4.78 4.88 7.19 7.3C262.32 212 262.78 212.54 263.36 213.18zM527.92 247.72c-3.27 3.39-6.1 8.75-9.94 9.6s-6.62-5.22-9.85-8.25c-5.87-5.51-5.75-5.65-.15-11.24 5.1-5.11 5.1-5.11 10.32.11q4.55 4.53 9.07 9.09A7.23 7.23 0 01527.92 247.72zM422.48 410.15c-3.47-3.56-6.2-6.5-9.1-9.27-1.38-1.32-1.49-2.17-.05-3.54 4-3.8 7.85-7.7 11.66-11.66 1.32-1.38 2.34-1.61 3.51 0 .09.12.22.2.32.31 2.75 2.9 7.31 5.6 7.65 8.76.27 2.45-4.73 5.47-7.37 8.26C427 405.29 424.86 407.59 422.48 410.15zM437.42 523c-.76.88-1.27 1.56-1.87 2.16-3.76 3.8-7.61 7.5-11.28 11.39-1.48 1.57-2.42 1.59-3.86 0-2.67-3-7.29-5.51-7.79-8.74-.46-3 4.6-5.56 7.25-8.28 6.84-7 6.89-6.93 13.82 0C434.84 520.64 436.07 521.71 437.42 523z" class="color010101 svgShape"></path><path d="M548.74,95.21c-3.91-1.77-7,.07-10.08,2.58-19.59,16.16-39.78,31.51-60.85,45.72a735.09,735.09,0,0,1-201.69,95.32,730.2,730.2,0,0,1-111.2,23.86c-18.84,2.55-37.76,4.24-56.73,5.54-3.81.26-7,1.35-8.38,5.34-1.32,3.83.59,6.55,3.12,9.08q40.19,40.17,80.38,80.35c5.95,5.92,11.59,4.64,14.65-3.23,4-10.22,7.83-20.46,11.76-30.69,7.16-18.64,14.34-37.28,21.61-56.17,1.43,1,2.63,1.89,3.8,2.77q38.49,28.83,77,57.67c7,5.28,12.09,3.55,14.51-4.91,8.49-29.62,17.05-59.21,25.34-88.87,1.15-4.12,2.08-4,5.23-1.79C385,257.22,413,276.5,440.93,295.86c2.95,2,6,3.51,9.51,1.87,3.15-1.47,4.28-4.24,4.49-7.62,2.08-34.69,4.28-69.37,6.27-104.07.22-3.93,1.07-3.89,4.23-2.29,24.71,12.5,49.51,24.83,74.29,37.2,8.28,4.13,13.35,1.1,13.35-8q0-54.15,0-108.3C553.11,100.73,552.78,97,548.74,95.21ZM187.57,344.51l-62.22-62.32a776,776,0,0,0,91.15-12.92C206.61,295,197,319.94,187.57,344.51Zm126.85-28.33-70.67-53A764.81,764.81,0,0,0,338,233.7C330.05,261.45,322.33,288.49,314.42,316.18ZM446.15,185.86c-1.85,30.18-3.7,60.37-5.61,91.31L363,223.44A794.4,794.4,0,0,0,445,182.07C447.52,182.7,446.21,184.47,446.15,185.86ZM537.75,203l-69.81-34.91a785.77,785.77,0,0,0,69.81-50Z" fill="#007CAA" class="color000 svgShape"></path><path fill="#007CAA" d="M446.15,185.86c-.75-1.15.58-2.92-1.12-3.79.31-.54,1-1,1.32-.53C447.36,183,446.84,184.44,446.15,185.86Z" class="color848484 svgShape"></path><path d="M554.91 445c-1.63-4.74-5.35-5.33-9.66-5-13.31 1.17-26.63 2.18-40 2.77a677.93 677.93 0 01-159.08-11.94 680.68 680.68 0 01-130.42-39.13 707.54 707.54 0 01-103-53c-3.19-2-6.42-3.4-9.93-1.14-3.23 2.08-4 5.29-3.45 9q7.44 54.46 14.83 108.94c1.31 9.65 6.79 12 14.68 6.25q33.85-24.6 67.65-49.28c2.63-1.93 3.65-2.61 4.46 1.56 6.12 31.58 12.49 63.11 18.84 94.65 2 9.72 7.63 11.87 15 5.75q28.77-23.93 57.5-47.92c7.61-6.34 15.24-12.66 23.06-19.16 11.21 29.07 22.21 57.66 33.26 86.23 3.22 8.33 9.07 9.37 15.12 2.72q31.65-34.77 63.26-69.57c3.78-4.16 3.76-4.18 6.48.49q21.86 37.42 43.71 74.87c4.69 8 10.41 8.2 15.63.48q30.07-44.4 60.09-88.82c.82-1.22 1.85-2.35 2-3.92S554.91 446.61 554.91 445zm-427.08-1.17c-3.83-28.42-7.57-56.26-11.47-85.18a745.23 745.23 0 0075.06 38.93zm105 52.57c-5.93-29.66-11.76-58.78-17.75-88.77a716.15 716.15 0 0089.1 29.33zm126.32 22.48c-9.74-25.35-19.29-50.18-29.15-75.81a718.29 718.29 0 0086.26 13zm126.4 7.56L445.7 458.16c29.15.89 57.76.72 87.22-1.77zM205.32 132.25A22.67 22.67 0 10227.78 155 22.67 22.67 0 00205.32 132.25zm0 30.16a7.65 7.65 0 01-7.56-7.63 7.44 7.44 0 1114.87.21A7.63 7.63 0 01205.31 162.41zM492.82 328.92a22.58 22.58 0 1022.53 22.79C515.53 339.44 505.27 329.06 492.82 328.92zm-.46 30a7.26 7.26 0 01-7.17-7.43 7.36 7.36 0 017.72-7.35 7.63 7.63 0 017.26 7.47A7.52 7.52 0 01492.36 358.89zM144.76 487.8a22.58 22.58 0 1022.52 22.62A22.42 22.42 0 00144.76 487.8zm.05 30a7.4 7.4 0 117.29-7.31A7.32 7.32 0 01144.81 517.76zM516.1 890.52c2.87-7.25 4-15 5.92-22.46 2.33-8.86 4.44-17.79 6.58-26.7.7-2.94 2.24-5 5.33-5.44 4.78-.75 8.18 3.17 7 8.22-2.88 12.17-5.88 24.32-8.83 36.48-.12.46-.19.93-.42 2.1 17.82-6.75 35.2-13.32 52.91-20a109.84 109.84 0 01-18.78-22.42c-9.52-15.31-14.15-32.07-15.34-49.94-.67-10-1.7-20-2.34-30.07-.34-5.13 3.91-8.43 8.43-6.78 3.26 1.18 4 3.93 4.32 7.12 1.21 13.48 1.61 27 3.66 40.42 3.5 22.71 14.79 41 32.28 55.68 1.38 1.16 2.27.49 3.29.11q35.61-13.44 71.21-27c-.47-1.42-1.88-1.48-2.91-2q-86.65-44.8-105.16-140.57a16.59 16.59 0 01-.26-2.22c-.28-4.11 1.9-7 5.55-7.46 3.32-.39 6.22 2 7 5.79 1.06 5 1.79 10 3.1 14.92Q602.28 786.45 686.36 822a6.93 6.93 0 005.66.1c13.84-5.34 27.73-10.56 42.24-16.05-18.07-6.3-33.71-15.78-48.5-26.54-39.27-28.59-71.55-63.5-94.52-106.57a95.63 95.63 0 01-10.76-32.26c-2.63-19.27 9.36-33.27 28.07-32.54a19.89 19.89 0 014.41.64 6 6 0 014.61 7 6.25 6.25 0 01-6.57 5.32c-14.94-.39-20 5.45-17.57 20.28s9.18 28 17.22 40.4c28.7 44.28 65.14 80.5 112 105.56 8.55 4.57 17.55 8.2 27.28 9.29 15.47 1.74 21.49-5 18.62-20.41a95.83 95.83 0 00-3.77-13.6c-1.56-4.54-.25-8 3.4-9.24s7 .52 8.55 5c3.82 10.73 6.76 21.62 3.93 33.1a22.53 22.53 0 01-14.76 16.46c-16.1 6-32.23 12-48.31 18.05q-95.69 36.16-191.34 72.37c-.58.22-1.19.35-1.78.52-1.15.41-2.34.13-3.5.21-3 .26-4.12-1.68-4.87-4.08z" fill="#007CAA" class="color000 svgShape"></path><path fill="#007CAA" d="M516.1,895c1.43,1.3,2.09,3.48,4.37,3.8.3.11.41.24.34.41s-.15.26-.24.26Q514.84,900.73,516.1,895Z" class="colorf3f3f3 svgShape"></path><path fill="#007CAA" d="M516.7,549.38l-.6-.19v-3.73l.61-.18A2.66,2.66,0,0,1,516.7,549.38Z" class="color3e3e3e svgShape"></path><path fill="#007CAA" d="M520.57,899.47a1.2,1.2,0,0,0-.1-.67l4,.07a.69.69,0,0,1-.17.6Z" class="color545454 svgShape"></path><path d="M720.49 714.89c-3.87-.1-6.06-1.55-6.86-4.53a6 6 0 013.31-7.48c5.54-2.76 11.15-5.35 16.73-8L847.9 640.5a27.47 27.47 0 013.39-1.49 5.87 5.87 0 017.3 2.9c1.67 2.8 1.14 5.54-1.23 7.74a13.88 13.88 0 01-3.47 2.11q-65 31-129.95 61.86C722.6 714.25 721.27 715 720.49 714.89zM675.05 603c.2 28.13-6.34 54.77-17.61 80.39-2.05 4.64-3.88 9.38-5.89 14-1.83 4.25-5.32 5.85-8.91 4.22-3.38-1.53-4.48-5-2.78-9.19 6.36-15.58 13.49-30.86 17.44-47.34a178 178 0 001.44-78.25c-1.31-6.43.07-9.92 4.45-10.8 4.12-.83 6.7 1.9 8 8.12A182.8 182.8 0 01675.05 603zM840.35 746.84c-.08 4.7-4.36 7.37-9.39 5.57a218.05 218.05 0 00-22.37-6.75 196.8 196.8 0 00-80.47-2.35c-6.35 1.11-12.7 2.2-19.06 3.23-4.32.7-7.58-1.34-8.18-5-.66-4 1.65-6.77 6.22-7.57 17.71-3.1 35.39-6.4 53.46-6.51a210.85 210.85 0 0174.31 12.8C838.85 741.73 840.4 743.64 840.35 746.84zM744.92 644.33a7.22 7.22 0 01-2.55 6q-31.26 28.13-62.56 56.21c-3.32 3-7 2.76-9.5-.2-2.35-2.77-2-6.44 1.06-9.23q31.23-28.16 62.52-56.26c2.23-2 4.7-2.78 7.49-1.37A6 6 0 01744.92 644.33zM656 543.26a12.69 12.69 0 01-.17-25.37 12.69 12.69 0 11.17 25.37z" fill="#007CAA" class="color000 svgShape"></path><path fill="#007CAA" d="M865.75 616.33c0 1.11.06 2.23 0 3.35-.23 3.67-2.66 6.15-6.07 6.25a6.32 6.32 0 01-6.51-5.87 42.68 42.68 0 010-6.69c.23-3.85 2.87-6.45 6.35-6.46s6.15 2.71 6.31 6.81c0 .87 0 1.74 0 2.61zM850.05 537.07c6.4-.06 9.47 2 9.46 6.27s-3.18 6.42-9.49 6.4a23.45 23.45 0 01-4.44-.28c-3.38-.7-5.11-3-5.15-6.35s2.47-5.7 5.9-6C847.56 537 848.81 537.07 850.05 537.07zM877 633.39a6 6 0 01-5-3.18c-1.28-2.22-1.38-4.63.25-6.61a43.14 43.14 0 016.26-6.27 5.46 5.46 0 016.31-.27 5.94 5.94 0 013.3 5.39C888.24 626.49 881.58 633.35 877 633.39zM888 651.34c-6.38 0-9.48-2.05-9.49-6.3s3.15-6.39 9.45-6.39c1 0 2 0 3 0 4 .21 6.77 3 6.67 6.53s-2.78 6-6.63 6.14C890 651.38 889 651.34 888 651.34zM865.74 673.8c0 6.34-2.08 9.47-6.33 9.4s-6.35-3.22-6.33-9.54a22.71 22.71 0 01.22-4.45 6.27 6.27 0 0112.42.86C865.82 671.31 865.74 672.55 865.74 673.8zM840.35 559.36c0 6.49-1.94 9.33-6.36 9.3s-6.32-2.92-6.32-9.42c0-1.12-.06-2.24 0-3.35.32-3.8 3-6.23 6.59-6.11s5.83 2.52 6.05 6.23C840.41 557.12 840.35 558.24 840.35 559.36zM840.35 527.36c0 1.12.06 2.24 0 3.35a6.31 6.31 0 01-12.61.29 51.41 51.41 0 010-6.33c.15-4 2.78-6.79 6.4-6.77s6.13 2.73 6.27 6.85c0 .87 0 1.74 0 2.61zM818.34 537.06c6.46 0 9.37 2 9.31 6.34s-3.07 6.36-9.48 6.34a22.55 22.55 0 01-4.43-.29 6 6 0 01-5-6.76 5.86 5.86 0 015.86-5.61C815.86 537 817.1 537.06 818.34 537.06zM841.71 633.34c-4 0-11-6.83-11-10.61a6.21 6.21 0 013.18-5.55 5.6 5.6 0 016.34 0 25.77 25.77 0 016.56 6.53 5.65 5.65 0 01.12 6.35A6.36 6.36 0 01841.71 633.34zM877.23 656.71c4.37 0 11 6.85 10.9 10.95a6.15 6.15 0 01-9.37 5.18 24 24 0 01-6.56-6.49A5.77 5.77 0 01872 660 6.36 6.36 0 01877.23 656.71z" class="color010101 svgShape"></path><path d="M879 838.55a19.05 19.05 0 01-5.1-5.26 94.54 94.54 0 00-19.92-22 96.31 96.31 0 00-42.75-19.72c-4.15-.8-7 .51-8.33 3.73-1.66 4.07.76 7.79 5.79 8.75a83.43 83.43 0 0147.23 26.66c-1.1.36-1.89.66-2.71.88a36.21 36.21 0 00-21 14.47c-6 8.62-6.59 17.85-1.53 27 5.15 9.31 13.48 13.75 24.1 12.94 10.13-.77 17.28-6.14 21.43-15.47 1.78-4 2.48-8.3 3.17-13.52 6.19 10.79 6.86 20.91 1.93 31.32-2.68 5.64-2.12 7.89 2.92 11.13H888a12.49 12.49 0 004.07-4.14C902.52 876.21 896.84 851.18 879 838.55zm-14.85 28a12.66 12.66 0 11-21.78-12.8 22.89 22.89 0 0112.5-9.38c6.42-2.07 9.62-.29 11.12 6.25a41.89 41.89 0 01.59 5.14A23.88 23.88 0 01864.17 866.52zM589.86 552.61c2.2-2.08 3.13-4.49 2.19-7.37s-3.1-4-5.93-4.33c-5-.65-10-1.56-15.09-2.11a4.27 4.27 0 01-3.86-2.83c-2.08-4.49-4.36-8.89-6.49-13.35-1.3-2.7-3.32-4.43-6.33-4.41s-5 1.72-6.3 4.44c-2.12 4.47-4.46 8.84-6.55 13.32a4.29 4.29 0 01-3.87 2.82c-5.17.59-10.31 1.44-15.46 2.2-2.63.39-4.68 1.54-5.46 4.29 0 1.37 0 2.74 0 4.1.21 1.63 1.47 2.54 2.52 3.57 3.44 3.39 6.87 6.82 10.41 10.12a4.22 4.22 0 011.55 4.48c-1 5.1-1.69 10.27-2.63 15.39-.52 2.85.13 5.21 2.46 6.92s4.88 1.45 7.36.14c4.6-2.42 9.23-4.78 13.77-7.31a4.06 4.06 0 014.46 0c4.43 2.46 9 4.73 13.44 7.14 2.6 1.4 5.16 1.75 7.68-.06s2.85-4.49 2.36-7.34c-.85-4.88-1.63-9.78-2.62-14.63a4.29 4.29 0 011.43-4.57C582.62 559.77 586.15 556.1 589.86 552.61zm-25.54 8.09c-1.43 4 1.06 7.73.85 12.52-7.11-5.78-14.18-6.8-21-.23-.21-.61-7-21-7.08-21.16 3.69-1.27 8-.24 11.29-2.74s3.53-7 6.5-10.46c2.14 9.1 7.34 14 17.39 12.46C569.94 555.34 565.69 556.9 564.32 560.7zM795.83 594.44c-.05-4.39-2.37-6.58-6.75-6.66-5.08-.09-10.16 0-15.24 0s-10.42-.06-15.62 0c-4.43.06-6.81 2.2-6.86 6.54q-.2 15.61 0 31.24c0 4.19 2.28 6.63 6.37 6.69q15.81.24 31.62 0c4.14 0 6.43-2.44 6.47-6.58Q796 610.07 795.83 594.44zM782.53 619c-1.91 1.9-5.87.29-8.73.66-3.24-.32-7.18 1.23-9.13-.63s-.51-5.85-.6-8.9-1.07-7.18.48-8.94c1.83-2.08 6-.64 9.2-.64s7.08-1.4 8.85.6c1.5 1.68.46 5.62.54 8.57 0 .12 0 .24 0 .37C782.92 613.12 784.46 617.08 782.53 619zM866 746.73a19 19 0 1018.9 19.08A19.23 19.23 0 00866 746.73zm-.23 25.36a6.11 6.11 0 01-6.23-6 6.32 6.32 0 016.11-6.6 6.57 6.57 0 016.54 6.3A6.41 6.41 0 01865.81 772.09zM713.4 568.7a19.18 19.18 0 00-19.18 18.77 19 19 0 0038.06.66A19.13 19.13 0 00713.4 568.7zM713 594.07a6.21 6.21 0 01-6.11-6.21 6.33 6.33 0 1112.65.09A6.19 6.19 0 01713 594.07z" fill="#007CAA" class="color000 svgShape"></path></svg></g></svg>
