<svg id="SvgjsSvg1071" width="288" height="288" xmlns="http://www.w3.org/2000/svg" version="1.1" xmlns:xlink="http://www.w3.org/1999/xlink" xmlns:svgjs="http://svgjs.com/svgjs"><defs id="SvgjsDefs1072"></defs><g id="SvgjsG1073"><svg xmlns="http://www.w3.org/2000/svg" data-name="Layer 1" viewBox="0 0 1000 1000" width="288" height="288"><path fill="#007CAA" d="M399.27,533.25H245.54c-3.53,0-7,.16-10.53-.93-6.25-2-9.53-6.27-9.56-12.63s3.14-11,9.49-12.58a39.17,39.17,0,0,1,9.67-1.05q155-.07,309.91-.07c3.57,0,7.12.06,10.47,1.32,5.8,2.18,8.55,6.81,8.45,12.67a12.36,12.36,0,0,1-8.34,12c-3.63,1.4-7.46,1.33-11.28,1.33Q476.54,533.24,399.27,533.25Z" class="color010101 svgShape"></path><path d="M399.77 389.35q78.48 0 157 0c7.76 0 14.12 1.84 16.2 10.36a12.72 12.72 0 01-10.77 16.06 62.37 62.37 0 01-9 .35H245.79a58.28 58.28 0 01-9-.34c-7.15-1.12-11.15-5.53-11.32-12.74s3.78-11.79 10.79-13.27c2.89-.61 6-.37 9-.37Q322.52 389.33 399.77 389.35zM317.22 661.22q-38.78 0-77.57 0c-7 0-12.15-3.12-13.8-10.24-1.44-6.17.64-11.16 6.16-14.66 2.73-1.72 5.72-1.76 8.64-1.77q76.35-.09 152.69 0c9.63 0 15.44 5.15 15.65 13 .22 8.1-6 13.64-15.83 13.68C367.85 661.29 342.54 661.22 317.22 661.22zM300.15 769.17c-20.16 0-40.31 0-60.47 0-6.68 0-11.76-2.89-13.66-9.46-1.74-6-.07-11.22 5.29-15.05 2.63-1.88 5.6-2.17 8.53-2.17 40.32-.07 80.63-.15 120.94 0 9 0 14.3 5.47 14.26 13.32 0 8.14-5.65 13.25-15.23 13.31C339.92 769.27 320 769.18 300.15 769.17z" fill="#007CAA" class="color000 svgShape"></path><path d="M667.66,513.56c0-55.35,0-214.44,0-269.79,0-16.84-3.75-20.56-20.71-20.56-33,0-66-.21-99,.16-6.63.08-8.35-1.91-7.94-8.2.53-8.14.16-16.35.12-24.53-.08-13.32-4.32-17.75-17.51-17.87-14.45-.13-28.91-.37-43.34.12-6.34.22-7.94-1.73-8.57-8-4.52-45.43-49.22-75.27-92.48-61.37-30.19,9.7-46.87,31.33-50.41,62.77-.59,5.24-2.17,6.67-7.32,6.54-14.44-.36-28.9-.17-43.35-.11s-18.65,4.34-18.69,18.43c0,8.18-.43,16.39.13,24.53.42,6.08-1.27,7.73-7.52,7.66-33.26-.35-66.52-.18-99.79-.16-16.31,0-20.33,4-20.33,20.23V861.05c0,16.35,4,20.48,20.1,20.48,69.53,0,175.73,0,245.25,0a46.87,46.87,0,0,0,8.13-.51c7.45-1.33,12-6.52,11.87-13.28s-4.92-12-12.23-13.11a55.38,55.38,0,0,0-8.16-.26c-64.62,0-165.91-.06-230.53.1-5.25,0-7.46-.57-7.46-6.82q.3-295.3.05-590.61c0-5.25,1.21-6.83,6.65-6.78q43.75.42,87.52,0c5.77-.07,6.78,2,6.42,7-.36,5.15-.08,10.35-.08,15.54,0,16.25,3.95,20.16,20.33,20.16h241.3c1.91,0,3.82.1,5.72-.05,9-.7,13.95-5.59,14.25-14.59a212.11,212.11,0,0,0-.06-21.25c-.37-5.46,1.47-6.79,6.78-6.74,28.9.26,57.81.34,86.7,0,6.39-.08,7.51,1.9,7.49,7.79-.24,50.17-.15,204.08-.13,254.25a72.58,72.58,0,0,0,.33,9c.89,7.22,5.24,11.17,12.37,11.72,7,.52,12.68-4.2,13.78-11.23A52.76,52.76,0,0,0,667.66,513.56ZM506.56,265.78c-35.7-.19-71.41-.1-107.12-.1-34.89,0-69.79-.31-104.67.22-8.23.12-9.87-2.37-9.6-10,.6-16.6.38-33.25.07-49.88-.1-5,1.2-6.51,6.32-6.4,15.53.35,31.07.17,46.61.11,13.92,0,18.46-5.22,17.1-19.27-2.52-25.92,8.82-44.5,31.33-51.36,30.93-9.43,61.24,16.15,57.08,48.16-2.27,17.5,2,22.48,19.39,22.48,14.72,0,29.45.22,44.16-.11,5-.12,6.43,1.29,6.34,6.36-.33,17.71-.38,35.44,0,53.15C513.72,264.87,511.64,265.8,506.56,265.78Z" fill="#007CAA" class="color000 svgShape"></path><path fill="#007CAA" d="M391.49,740.47a16.58,16.58,0,0,1,0,12.12Z" class="color1b1b1b svgShape"></path><path d="M866.25,626.13a23.51,23.51,0,0,0-6.16-15.64c-6.08-7-13.89-11.34-22.35-14.63-2.7-1.05-3.7-2.46-3.71-5.43,0-12.9-.63-25.8-.37-38.69.19-9.47-4-16-11.57-20.85s-16.21-7.68-25-9.63c-22.88-5-45.94-5.23-69-1.6-13,2.06-25.79,5.47-37.06,12.85-7.71,5.06-11.74,11.92-11.34,21.48.53,12.89.42,25.79.79,38.68.07,2.61-.74,3.9-3.08,4.89a84.12,84.12,0,0,0-10,5c-12.41,7.28-19.59,17.08-18.68,32.59,1.13,19.37.74,38.83,1,58.26,0,1.46,0,2.92,0,3.71-34.35-30.64-70.61-47-114.35-18q0-39.88,0-79.73a28.71,28.71,0,0,0-.33-5.57,6.77,6.77,0,0,0-13-.79,20.47,20.47,0,0,0-.67,6c-.08,7.19,0,14.37,0,22.89-5.41-7.54-10.85-13-18-16.33-13.34-6.28-27.11-5.63-41-2.11-8.42,2.14-10,4.81-7.47,13,4.93,15.9,12.87,29.7,28.69,37.08,11,5.11,22.6,4.75,34.27,2.75,1.23-.21,3.33-1.87,3.38,1.09.13,7.32,0,14.65,0,22.51-17.37-13.32-30.25-15.73-42.65-15.79-14.57-.08-28.19,4-41.09,10.47-20.72,10.32-36,25.6-42.64,48.42-1.4,4.83-2.32,9.8-3.46,14.71v2.8a32.08,32.08,0,0,1,0,12.12v7.46c1.79,1.43,1.39,3.62,1.69,5.46a120.5,120.5,0,0,0,3.52,15.4,208.18,208.18,0,0,0,38,71.38c13,16.17,27.7,30.75,46.8,39.81,14.74,7,29.83,9.48,45.09,1.27a3.1,3.1,0,0,1,3.41-.17c11,6.15,22.45,6.3,34.23,2.89,1.16-.33,2.36-1.06,3.43.16,2.12,2.41,5,2.21,7.77,2.21h213c8.36,0,10.4-2.09,10.42-10.49,0-8.2,0-8,8-9.57,16.81-3.3,33.21-7.79,47.62-17.58,8.64-5.87,14.59-13.26,14.44-24.46Q867.51,731.24,866.25,626.13ZM495.46,642.66c-13.78-2.87-20.16-13.19-25.2-24.9-.6-1.41-.09-1.77,1.27-2.17,19.08-5.51,39.48,6.75,44.11,26.71A47.36,47.36,0,0,1,495.46,642.66Zm357.42,23.57c0,4.66-.26,9.36.21,14,.74,7.38-2.89,11.94-8.61,15.72-12,7.94-25.53,11.69-39.36,14.65a239.59,239.59,0,0,1-43,4.71c-8.4.26-10.48,2.4-10.35,10.66,0,2.27,0,4.54,0,7.36a138.36,138.36,0,0,0-27.51-10.73,160.94,160.94,0,0,0-54.45-4.7c-5.85.51-5.9.53-5.9-5.17,0-20.64,0-41.27,0-62,28.94,16.32,61.25,19.69,94,19.32s65-4.46,95-22.26C852.88,654.28,852.86,660.26,852.88,666.23Zm-32.62-63.84c0,3.38-2.3,5.27-4.76,7-9,6.23-19.42,8.86-30,10.6-24,4-47.87,3.78-71.47-2.7a49.41,49.41,0,0,1-15.58-7,8.61,8.61,0,0,1-4.07-7.79c.18-10.7.07-21.4.07-31.79,41.91,15,83.5,14.61,125.78-2.08C820.27,579.81,820.28,591.1,820.26,602.39ZM696.68,545.82c6.65-5.73,14.92-8.12,23.15-10.21,12.66-3.21,25.64-4.42,40.75-4.37,14.93.17,31.71,1.57,47.63,8.14a29.64,29.64,0,0,1,9.08,5.5c2.69,2.5,2.88,4.85,0,7.42-6.61,5.86-14.76,8.53-23,10.44-27.79,6.44-55.59,6.75-83.17-1.36-5.2-1.52-10.26-3.57-14.42-7.22C693.11,551,693.06,548.93,696.68,545.82Zm-32,77.32c3.9-5.57,9.66-8.57,15.43-11.62,1.13-.6,1.69-.28,2.19.66,5.82,11.05,16.52,15.05,27.42,18.22,27.39,8,55.13,7.8,82.93,2.37,10.84-2.12,21.3-5.42,30.56-11.77a26.64,26.64,0,0,0,9.05-9.78c.51-1,.59-2.53,2.55-1.56,5.15,2.55,10.35,5,14.23,9.43,4.32,4.9,4.36,8.75-.24,13.41-6.83,6.91-15.6,10.58-24.59,13.58-18.37,6.14-37.35,8.95-56.67,9.59-3.88.13-7.75.37-11.63.56-22.27-.28-44.31-2.2-65.69-9a77.31,77.31,0,0,1-20.09-9.47,19,19,0,0,1-5.78-6A7.28,7.28,0,0,1,664.65,623.14ZM565.48,816.83c.08,20-.07,40.07.1,60.11,0,3.22-.92,4.54-4,5.44-10.05,2.92-19.56,3-28.3-3.73-2.68-2-5.77-2.76-8.63-.58-12.53,9.51-25.35,7-38.11.88-12.05-5.8-22-14.52-31.07-24.17a197.84,197.84,0,0,1-45-76.75,105.55,105.55,0,0,1-4.89-27.92c0-32.54,16.61-55.52,46.06-66.51,15.21-5.68,30.55-8.18,46.23-1.9,9.48,3.79,16.87,10.27,23.12,18.2,5.53,7,9.34,7.05,14.82.3,16.81-20.75,37.49-27.07,63.07-18.83,17.53,5.64,32.74,14.76,43,30.77,5.34,8.38,5.38,8.25-4,11-24.27,7.1-44.85,19.52-58.71,41.36C569,780.44,565.4,798.14,565.48,816.83Zm215.25,67.66c-32.77-.1-65.54-.06-98.31-.06s-65.54-.06-98.31.07c-3.49,0-4.8-.65-4.68-4.48.3-9.93.19-19.88,0-29.82,0-2.87.5-4,3.78-4q99,.15,198,0c3.32,0,3.72,1.29,3.68,4.08-.13,10.09-.21,20.19,0,30.28C785.08,884,783.78,884.5,780.73,884.49Zm-1-52.07c-32.62-.21-65.23-.11-97.85-.11s-65.23-.06-97.85.08c-3.58,0-4.74-.8-4.64-4.55.3-12.08-.3-24.2,2.9-36.07,6.24-23.16,20.83-39.35,42.48-48.68,37.76-16.27,76.19-16.48,113.86-.3,31.09,13.34,45.84,38.44,46.21,72.11.05,4-.26,8.1.09,12.11S784.19,832.45,779.78,832.42ZM768,744.8c-2.54-2.2-1.79-4.76-1.87-7.26-.24-8.06-.19-8.29,7.88-8.81,19.28-1.24,38.2-4.28,56.52-10.57a96.82,96.82,0,0,0,22-10.75l1.64.47q0,36.33,0,72.67c0,3.91-2.15,6.71-4.91,9.13-8.27,7.24-18.41,10.76-28.63,13.89-6.21,1.9-12.69,2.88-19,4.53-2.53.65-3.27,0-3.46-2.48C796.29,781.28,786.49,760.83,768,744.8Zm81.88,102c-7.92,6.9-17.53,10.44-27.33,13.37-6.81,2-13.85,3.3-20.77,5-2.3.57-2.91-.09-2.89-2.44.11-12.27.13-24.54,0-36.8,0-2.64.95-3.29,3.34-3.71,15.45-2.72,30.53-6.76,44.61-13.89,2.45-1.24,4.77-2.74,8.13-4.7,0,11.73,0,22.44,0,33.14C854.92,841,852.88,844.13,849.83,846.78Z" fill="#007CAA" class="color000 svgShape"></path><path d="M674.34 756.24a15.9 15.9 0 01-.07 31.8 15.9 15.9 0 11.07-31.8zM738.51 787.58a15.92 15.92 0 11-31.84.33 15.92 15.92 0 0131.84-.33zM635.83 821.13a13.75 13.75 0 1113.64-13.66A13.92 13.92 0 01635.83 821.13z" fill="#007CAA" class="color000 svgShape"></path><path fill="#007CAA" d="M637.14,781.45a6.62,6.62,0,0,1-6.22-6.81,6.34,6.34,0,0,1,6.68-6.26A6.65,6.65,0,0,1,644,775.1,6.85,6.85,0,0,1,637.14,781.45Z" class="color030303 svgShape"></path></svg></g></svg>
