<svg id="SvgjsSvg1168" width="288" height="288" xmlns="http://www.w3.org/2000/svg" version="1.1" xmlns:xlink="http://www.w3.org/1999/xlink" xmlns:svgjs="http://svgjs.com/svgjs"><defs id="SvgjsDefs1169"></defs><g id="SvgjsG1170"><svg xmlns="http://www.w3.org/2000/svg" data-name="Layer 1" viewBox="0 0 1000 1000" width="288" height="288"><path fill="#007CAA" d="M770,108.41c-2.17-1.72-3.09-4.92-6.34-5.38-.53-.17-.74-.4-.62-.69s.27-.46.43-.46Q771.75,100.17,770,108.41Z" class="colorf3f3f3 svgShape"></path><path fill="#66ccff" d="M113.66,101.88a7.28,7.28,0,0,0,.22,1.13h-7c.09-.38.17-.75.23-1.13Z" class="color4e4e4e svgShape"></path><path fill="#007CAA" d="M763.51,101.88a3,3,0,0,0,.19,1.15l-7,0c.09-.38.17-.75.23-1.13Z" class="color4f4f4f svgShape"></path><path d="M434.65 771.2H283c-11.34 0-14.14-2.84-14.16-14.31 0-9.8-.06-19.61 0-29.41 0-7.76 3.55-12.19 9.51-12.31 6.23-.13 10 4.48 10.07 12.58.08 6.09.34 12.22-.09 18.29-.33 4.74 1.41 5.67 5.84 5.65 44.45-.16 88.9-.1 133.35-.1 49 0 98.05-.08 147.07.13 5.19 0 6.42-1.38 6.39-6.45-.23-32.89-.13-65.79-.09-98.69a31.42 31.42 0 01.69-7.76c1.26-4.87 5-7.27 9.74-7s8.12 3 8.89 8.06a33.5 33.5 0 01.25 5.21q0 56.21 0 112.42c0 10.58-3.05 13.65-13.52 13.65zM268.83 446.41C255.47 455.05 243.27 463 231 470.83c-12.47 8-21.43 6.41-30.35-5.41Q181 439.37 161.43 413.23c-4.93-6.57-4.92-12.26-.06-16.08 5.2-4.09 10.49-2.65 15.87 4.49 12.45 16.52 25 33 37.16 49.68 2.85 3.91 4.71 4.14 8.71 1.45 15.5-10.45 31.32-20.44 47-30.66 4.14-2.71 8.24-5.17 13.25-2.23 4.59 2.7 5.12 7.16 5.12 11.91q0 124.19 0 248.37a20.49 20.49 0 01-.69 5.8c-1.41 4.79-4.88 7.17-9.8 6.85s-8.06-3.1-8.83-8a47.57 47.57 0 01-.26-7.17q0-111.76 0-223.53zM600.48 446.34c0 16.06 0 30.81 0 45.55a42.81 42.81 0 01-.33 7.17c-.83 4.71-4.16 7.19-8.62 7.6a8.87 8.87 0 01-9.7-6.14 21.39 21.39 0 01-.91-7.06c-.07-20.48 0-41-.06-61.45 0-5 .51-9.64 5.51-12.33 4.84-2.61 8.74-.25 12.68 2.31 15.86 10.32 31.85 20.44 47.56 31 3.84 2.58 5.59 2 8.19-1.49q37.68-50.5 75.72-100.76c2.63-3.48 2.85-5.13-1-8-19.42-14.38-38.6-29.08-57.79-43.77-5.37-4.12-6.31-9.58-2.91-14.23s9-5.21 14.44-1.57c.54.36 1.08.74 1.6 1.14 19.76 15 39.57 29.95 59.27 45 11 8.46 12.5 19 4.21 30.07q-39.76 53-79.66 106c-8.94 11.85-18 13.42-30.36 5.45S613.9 455 600.48 446.34zM762.88 102.55h-6.33c-4.72.25-8.73 2.49-12.81 4.56-36.84 18.65-75.24 33.28-114.81 45-5.7 1.68-10.86 2.49-16.17-1.12-2.88-2-6.49-2.46-10-2.5-7-.09-14-.15-20.91 0-10.85.24-18.83 5.08-23 15.28-1.6 3.94-4.18 5.7-8.19 6.38a677.25 677.25 0 01-94.75 9.51 634.79 634.79 0 01-77.62-2.23c-19.31-1.85-38.49-4.31-57.65-7.16-4.14-.62-7.18-2.1-8.9-6.43-4.17-10.5-12.44-15.24-23.54-15.38-6.53-.08-13.07 0-19.6 0-4 0-8 .62-11.3 2.76-4.68 3-9.23 2.76-14.33 1.26-40.43-11.89-79.63-26.87-117.25-45.92-3.9-2-7.78-4-12.29-4-2.19.19-4.43-.44-6.56.46-4.32 1.4-6.16 4.68-6.23 8.92-.07 4.69 2.85 7.45 6.8 9.48 42.24 21.69 86.07 39.39 131.81 52.15 5.79 1.62 7.16 4 7.23 9.71.23 16.94-1.8 34 1.26 50.81.45 2.52-1.19 3-2.44 3.95q-10.86 8.39-21.8 16.66Q174.38 292 125.24 329.36c-11.11 8.46-12.56 18.87-4.32 30 4.28 5.77 8.51 11.58 13 17.19 4.17 5.22 9.76 6.07 14.29 2.55s4.91-9.21 1.12-14.54c-2.9-4.08-5.68-8.31-9.09-11.94-4.29-4.58-4.16-7.2 1.26-11.25 35.41-26.45 70.86-52.85 105.49-80.28 12.57-10 25-16.7 41.27-13.88a16.55 16.55 0 003.91-.08c8.69-.59 14.44-5.08 17.93-13 .79-1.78-.28-4.85 2.7-5.29 3.52-.53 4 2.84 5.28 4.88 9.62 15.27 18.48 31.07 28.8 45.84 23.77 34 56.78 49.8 98.24 46.12 34.86-3.1 61.25-20.69 80-49.95 9-14.1 17.67-28.44 26.5-42.67 1.34-2.17 2.2-4.7 5.69-4.37s2.35 3.27 3 4.94c3.37 8.37 9.73 13.21 18.92 13.52 6.09.2 12.21.33 18.29 0 4.44-.24 7.85 1.18 11.27 3.9 9.2 7.31 18.58 14.39 28 21.39 5.16 3.82 11.14 3 14.47-1.54s2.47-9.8-2.42-13.81c-5.23-4.27-10.56-8.44-16.11-12.26-6.54-4.51-10.77-8.3-9.06-18.39 2.33-13.77.91-28.24.46-42.38-.19-6.13 1.4-8.84 7.72-10.62a699.45 699.45 0 00128.88-50.76c3.75-1.91 7-4.14 9.28-7.74v-6.54C768.89 105 767.35 102 762.88 102.55zm-471.2 87.86c.18 2.81 0 5.65 0 8.47 0 8.26-.13 16.53.07 24.78.07 3.14-.91 4.15-4 4-5.86-.22-11.75-.27-17.6 0-3.66.16-4.28-1.43-4.26-4.62q.18-24.12 0-48.26c0-3.64 1-5 4.81-4.8 6.69.38 15.39-2.16 19.56 1.16C294.67 174.7 291.26 183.78 291.68 190.41zM437.84 306.63c-40.45 1.3-67.37-20.12-85.57-56 55.23 14.52 109.64 14.39 164.64.1C500.27 284.11 475.54 305.42 437.84 306.63zm121-98.74c-1.54 3.08-6 .72-9 1.59a20.22 20.22 0 00-13.29 10.73c-1.8 3.59-4.52 5.39-8.27 6.63a298.23 298.23 0 01-93.69 15 298.12 298.12 0 01-93.65-15.14c-3.53-1.16-6.06-2.81-7.84-6.17-3.84-7.27-9.77-11.59-18.31-11.41-2.41.05-3.8-.58-3.42-3.27a3.53 3.53 0 000-.65c-.88-15.23-.93-14.88 14.14-12.53A698.67 698.67 0 00470 200.44 676.77 676.77 0 00555 191c3.68-.67 4.77.56 4.32 4a20.64 20.64 0 000 2.61C559.24 201.08 560.24 205.09 558.84 207.89zm42 19.79c-6.08-.15-12.18-.24-18.26 0-3.51.16-3.79-1.53-3.75-4.31.13-8.26 0-16.52 0-24.78 0-8 .13-16.09-.07-24.13-.08-3.36.92-4.61 4.41-4.46 5.86.26 11.74.18 17.61 0 2.8-.07 3.87.95 3.86 3.74q-.09 25.11 0 50.21C604.75 226.91 603.62 227.74 600.87 227.68zM223.43 582.21c-10-6-17.39-14.07-23.51-23.92-7.13-11.48-22.83-11.3-29.77.3a63.67 63.67 0 01-22.39 22.24c-12.72 7.71-12.15 24.35 1.05 31.08A46.27 46.27 0 01169.42 632c7.22 13.52 23.68 13.83 31.44.6 5.11-8.72 11.62-15.61 20.66-20.21 6.36-3.24 9.42-8.76 9.77-15.74C230.89 590.53 228.61 585.3 223.43 582.21zm-38.1 37.88A60.77 60.77 0 00160.73 596c10-6.61 18.12-13.92 24.33-24.37a79.14 79.14 0 0024.41 24.89A68.66 68.66 0 00185.33 620.09zM625.51 555.94c-9-5.39-15.68-12.75-21.27-21.6-7-11-22-10.75-28.67.47a57.51 57.51 0 01-20.15 19.91c-12 7.33-11.45 23.19 1 29.64a42.77 42.77 0 0118.75 18.32c6.68 12.44 22.35 12.94 29.63.85 5-8.28 11.23-14.74 19.8-19.24 5.66-3 8.17-8.18 8.31-14.79C632.73 563.9 630.48 558.91 625.51 555.94zm-35.17 33.52a56.72 56.72 0 00-20.67-20.22c8-5.73 15-12 20.37-20.49 5.67 8.24 11.9 15.29 20.6 20.83A63.43 63.43 0 00590.34 589.46zM633.85 845.65A22.46 22.46 0 00654.3 860c9.65.13 19.3.19 29 0a8.71 8.71 0 017.29 3.1c3.39 3.68 7.16 7 10.55 10.69A31.5 31.5 0 00720 883.61c12.65 2 25.23 4.48 37.85 6.66a37.32 37.32 0 006.26.33q42.06 0 84.13 0c2.25 0 2.87.48 2.81 2.78-.18 6-.06 6 5.94 6 14.66 0 29.32 0 44 .06 2 0 2.52-.47 2.51-2.52q-.12-32.5 0-65c0-2-.47-2.53-2.51-2.51q-23.78.14-47.53 0c-2.05 0-2.64.48-2.51 2.53.2 2.9 0 5.83.09 8.73.07 1.57-.42 2.08-2 1.94s-2.89 0-4.65 0c11.67-18.86 7.09-40.64-9.22-53.42l2-.89c15.12-6.47 18.5-24.8 6.63-36.11-1-.94-1.55-1.31-.21-2.59 12.26-11.82 8.78-29.9-6.94-36.47-.49-.2-1-.46-1.5-.73 10.43-8.39 15.93-19.09 15.77-32.47-.24-20.73-17.65-38.21-38.47-38.34-25.76-.16-51.53 0-77.3 0q-39.74 0-79.48 0c-11.91 0-21.25 7.54-23 18.78-1.16 7.53 1.39 14 6.91 19.21 1.08 1 1.31 1.44.09 2.62-12.21 11.83-8.63 29.94 7.12 36.44.42.17.82.37 1.43.65-10.15 8.18-15.78 18.56-15.78 31.55s5.55 23.29 15.58 31.41c-.43.93-1.46.89-2.2 1.21-14.76 6.5-18 24.69-6.38 35.83 1.36 1.29 1.3 1.78 0 3A21.46 21.46 0 00633.85 845.65zm225.83-5.32c0-1.8.49-2.23 2.25-2.21q15.29.12 30.59 0c1.81 0 2.23.5 2.21 2.25-.09 7.92 0 15.85 0 23.77 0 8.1-.06 16.21 0 24.31 0 1.81-.49 2.23-2.24 2.21q-15.3-.12-30.59 0c-1.82 0-2.22-.5-2.22-2.25Q859.79 864.37 859.68 840.33zm-47.5-129c-30.87.19-61.73.09-92.59 0a17.44 17.44 0 01-16.41-12.18c-.58-1.74.12-4.33-1.49-5.09s-3.93-.09-5.93-.21c-1.52-.1-2.06.21-2.27 2-1.07 8.7-7.94 15.25-16.37 15.48-7.64.21-15.3.21-22.94 0a13.27 13.27 0 01-13-13.73c.31-7.17 6.16-12.42 13.92-12.42H814.36c6 0 5.92 0 6.09-6 .06-2.26-.51-2.8-2.79-2.8-27.22.09-54.44.06-81.66.06q-40.43 0-80.85 0c-8 0-13.87-5.52-13.95-13-.07-7.28 6-13.23 13.79-13.24q78.51-.06 157 0a30.54 30.54 0 01.15 61.07zM691.56 715.1a25.29 25.29 0 005.72-5.73c.72-1 1.09-.5 1.57.15a24.24 24.24 0 005.35 5.35c.87.62 1.08 1 .07 1.76a22.06 22.06 0 00-5.36 5.33c-.61.87-1 1.09-1.75.07a24.46 24.46 0 00-5.32-5.38c-.33-.25-.86-.39-.8-1.15zm135.93 66.23H695.3c-8.29 0-16.58.14-24.86-.07-12.15-.3-23.1-8.45-27.37-20a30.67 30.67 0 017.83-32.79c7.3-6.78 16.06-8.75 25.71-8.3a18 18 0 0116.22 12.12c.62 1.78-.31 4.46 1.64 5.23s4.13.15 6.23.16H701c1 .11 1.32-.17 1.5-1.28 1.77-10.78 8.19-16.21 19-16.21H826.67c.91 0 1.82 0 2.73 0 8.78.55 14.7 8.68 12.29 16.85-1.71 5.77-6.83 9.33-13.53 9.33h-159c-6.17 0-6.07 0-6.21 6.14 0 2.14.53 2.66 2.66 2.65 27.22-.08 54.44 0 81.66 0h34.14c15.84 0 31.68-.05 47.53 0A13.06 13.06 0 01841.68 772C839.92 777.69 834.44 781.33 827.49 781.33zM685.16 839.89c1.64-6.22 8.83-8.14 13.57-3.52 6.45 6.29 12.79 12.7 19.12 19.11a14.56 14.56 0 0011 4.56q18-.1 36 0a16.72 16.72 0 007.85-1.89c4.1-2.11 8.24-4.13 12.71-6.36v5.89c0 7.16 0 7.13 7.24 6.74 1.17-.06 1.56-.33 1.53-1.53a89.75 89.75 0 010-9.28c.46-5.9-1.63-10.5-6-14.53-6.11-5.71-12-11.72-17.78-17.73-4.58-4.73-2.57-12 3.62-13.55 3.35-.82 6 .57 8.31 2.92 11.49 11.54 23.05 23 34.53 34.58a19 19 0 0014.39 6c5.82-.09 11.65.06 17.47-.06 1.8 0 2.25.47 2.23 2.24-.1 8.55-.14 17.11 0 25.66 0 2.27-.52 2.81-2.79 2.8-28.21-.09-56.42 0-84.64-.07a32.82 32.82 0 01-5.43-.36c-12.17-2.14-24.32-4.38-36.49-6.51-4.07-.71-8.15-1.47-11.21-4.47Q698.69 859 687.1 847.19A7.3 7.3 0 01685.16 839.89zM779.78 843c1.1 1.12.72 1.51-.44 2.06-3 1.45-6.05 2.91-9 4.52a14.37 14.37 0 01-7.28 1.7c-11-.09-22-.11-33 0a8.44 8.44 0 01-6.74-2.75c-5-5.24-10.28-10.3-15.39-15.48-3.24-3.28-6.42-6.6-11.29-7.65.27-.26.31-.35.36-.35l63.85-.05c.6 0 1.2-.11 1.73.49C768 831.67 774 837.22 779.78 843zm-138.58-5c0-7.44 5.93-13 13.87-13 10.09 0 20.18 0 30.27 0h4.59c-11.64 2.5-16.17 12.89-11.26 26.08a1.57 1.57 0 01-.47.13c-7.73 0-15.46.07-23.19 0S641.16 845.32 641.2 838.06zm.61-38.81c1.82-5.6 7.25-9.17 14.07-9.17H810.76a30.35 30.35 0 016.24.53c11.76 2.42 19.86 9.23 23.63 20.61 3.7 11.21 1.17 21.33-6.58 30.16-.47.53-.87 1.13-1.74 1.17-3 .15-5.85-.19-8.11-2.42-4.91-4.85-9.79-9.73-15.16-15.07h4.74c6.76 0 6.67 0 6.67-6.79 0-1.86-.7-2-2.21-2-5.28.08-10.56 0-15.84.07a4.4 4.4 0 01-3.55-1.51c-3.74-3.85-7.48-7.72-11.42-11.37-4.94-4.59-10.79-5.91-17.18-3.57a15.81 15.81 0 00-10.86 13.78c-.27 2.24-.8 2.69-3 2.69q-50.25-.12-100.52-.06c-.82 0-1.64 0-2.46 0A13.14 13.14 0 01641.81 799.25zM859.91 653.93c.73 1.48 3.23.79 4.88 1.37 7.19 2.56 11.36 7.59 12.31 15.16.16 1.28.43 1.83 1.73 1.61a4.49 4.49 0 01.82 0c1.91 0 4.11.58 5.65-.18s.8-3.23 1.38-4.88c2.54-7.2 7.57-11.37 15.14-12.32 1.28-.16 1.84-.42 1.62-1.73a4.48 4.48 0 010-.82c0-1.91.57-4.11-.18-5.65s-3.23-.81-4.88-1.38c-6.77-2.36-11-7-12.1-14.08-.37-2.48-1.24-3-3.32-2.68a17.15 17.15 0 01-1.83 0c-2.66-.73-3.92.31-4.48 3.71-1.24 7.42-7.3 12.68-15 13.64-1.48.19-2.13.53-1.88 2a3.25 3.25 0 010 .54C859.73 650.19 859.15 652.4 859.91 653.93zm15.36-4.52a23.37 23.37 0 005.35-5.34c.76-1.1 1.22-1 1.93 0a21.25 21.25 0 005.16 5.16c1.1.78.95 1.2-.05 1.92a23.39 23.39 0 00-5.16 5.16c-.26.35-.55.65-1.09 1.29a8.78 8.78 0 00-.47-.91 26.19 26.19 0 00-5.93-5.91C874.1 650.15 874.75 649.8 875.27 649.41z" fill="#007CAA" class="color000 svgShape"></path><path d="M851.14,793.63c.81,1.93,3.47,1,5.24,1.64,6.16,2.35,10.36,6.48,11.55,13,.55,3.05,1.4,4.63,4.23,3.66a6.75,6.75,0,0,1,1,0c2.86.56,4.05-.33,4.57-3.51,1.24-7.62,7.24-12.89,15.14-13.85,1.59-.19,1.92-.67,1.84-2.1-.12-2,.52-4.23-.19-6-.8-1.94-3.46-1-5.23-1.65-7-2.62-11-7.55-12-14.86-.21-1.58-.69-1.91-2.11-1.82-2,.11-4.23-.53-5.94.18-1.94.81-1,3.46-1.65,5.24-2.63,7-7.56,11-14.86,12-1.58.21-1.91.69-1.83,2.11C851.07,789.68,850.43,791.92,851.14,793.63Zm15.27-4.25c2.26-1.69,3.84-4.89,6-5.61s3.51,3.43,5.77,4.8c.38.23.69.59,1.07.83.79.49.7.85,0,1.38-2.27,1.68-3.84,4.91-6,5.62s-3.47-3.48-5.76-4.83a10.6,10.6,0,0,1-1.09-.81c-.2-.16-.38-.35-.54-.49C865.78,789.75,866.13,789.59,866.41,789.38Z" fill="#007CAA" class="color000 svgShape"></path></svg></g></svg>
