<svg id="SvgjsSvg1053" width="288" height="288" xmlns="http://www.w3.org/2000/svg" version="1.1" xmlns:xlink="http://www.w3.org/1999/xlink" xmlns:svgjs="http://svgjs.com/svgjs"><defs id="SvgjsDefs1054"></defs><g id="SvgjsG1055"><svg xmlns="http://www.w3.org/2000/svg" data-name="Layer 1" viewBox="0 0 1000 1000" width="288" height="288"><path d="M236.09,428.29A266.84,266.84,0,0,1,462.43,165.45c143-22.38,278.91,75.55,302.23,219.4C779.6,477,751.85,556,685.85,621.79a43.57,43.57,0,0,1-4.63,4.18c-5.92,4.4-13.58,3.69-18.26-1.57a13.17,13.17,0,0,1,.36-17.72c5.46-5.92,11.63-11.2,16.87-17.3,59.74-69.64,78-149.16,49.12-236.07S638.23,212.67,548.58,193.86C418.23,166.5,288.83,255.52,266.8,386.93c-14.05,83.88,10.57,155.88,70.83,215.78.92.91,1.92,1.75,2.8,2.7,5.59,6.07,6,13.44,1,18.89-5.13,5.63-13.12,6-19.46.17a258.74,258.74,0,0,1-43.06-51.14C250.46,529.17,236.6,480.7,236.09,428.29Z" fill="#007CAA" class="color000 svgShape"></path><path d="M797.65,692.53c4.41-6.42,10-9,17.76-8.87,23.63.32,47.27.07,70.91.15,7.56,0,13.14-2.4,15.57-10v-9.36a25.53,25.53,0,0,1-1.72-2.34c-42.88-74.15-147.52-80.83-199-12.53-3.19,4.22-6.21,5.82-11.4,5.81q-187.18-.2-374.38,0c-5.13,0-8.26-1.4-11.48-5.68C253.7,583,151.21,587.41,107.3,658c-3.28,5.28-6,10.45-2.62,16.67,3.49,6.48,9.43,7.25,16,7.22,24.95-.12,49.91,0,74.87-.13,4.24,0,7.18.94,9.79,4.61,7.53,10.58,15.38,20.93,23.38,31.16,2.54,3.24,2.49,5.45-.05,8.69-7.85,10-15.53,20.18-22.87,30.57-2.73,3.86-5.71,5.15-10.33,5.12-24.95-.21-49.92,0-74.87-.14-6.26,0-12.08.63-15.61,6.6-3.74,6.32-1.2,11.78,2.28,17.37,43.84,70.35,146.06,75.13,196.14,9,3.3-4.36,6.43-6.31,12-6.3q187.19.26,374.38,0c4.84,0,7.92,1.22,11,5.3a119.46,119.46,0,0,0,167.77,23.67c13.71-10.3,23.8-23.62,33.3-37.56v-7.8c-.87-7.67-6-10.91-12.85-12.37a51.48,51.48,0,0,0-10.87-.75q-32.73,0-65.46,0c-5.13,0-9.7-.66-13.08-5.25q-9.71-13.17-19.65-26.17c-3.28-4.27-2.68-7.91.42-11.92C786.27,708,792.21,700.44,797.65,692.53Zm-50.38,39.28c11.31,15.22,23.18,30.05,34,45.64,5.88,8.52,12.9,11.61,22.94,11.26,16.1-.58,32.24-.16,48.36-.16h8.39c-40.9,40.84-110.22,32.91-141.72-15.13-5.77-8.81-12.29-11.76-22.38-11.75q-194.61.36-389.23,0c-9.87,0-16.15,3.06-21.7,11.55-29.94,45.79-92.24,55.53-135.23,21.66-1.94-1.53-3.71-3.26-7.17-6.33,17.58,0,33.14-1.13,48.46.31,17,1.6,28.41-4.13,37.34-18.69,8-13,18.15-24.68,27.32-36.95,7-9.4,7-13.21-.19-22.86-11.5-15.4-23.23-30.64-34.48-46.22-4.74-6.57-10.45-9.18-18.5-9-19.22.39-38.45.13-58.44.13,1.44-3.73,4.4-5.35,6.85-7.24,42.73-32.92,104.38-22.83,134,22.39,5.5,8.4,11.6,11.67,21.61,11.64q195.39-.4,390.79,0c9.33,0,15.2-2.91,20.39-10.92,30.82-47.59,96.76-56.72,138.66-19.67a20.09,20.09,0,0,0,3.2,1.92l-.89,1.91c-14.65,0-29.31-.1-44,0-30.06.24-23-3.39-41.38,20.67-9.14,12-18.12,24.08-27.06,36.2C741.54,719.78,741.55,724.13,747.27,731.81Z" fill="#007CAA" class="color000 svgShape"></path><path d="M656.58,521a8.31,8.31,0,0,1-2.77-3.77c-6.38-18-18.26-31.31-34.52-41-16.8-10-33.51-20.21-50.36-30.16-2.42-1.43-2.34-2.32-.85-4.35a65.7,65.7,0,0,0,10.22-20.63,3.73,3.73,0,0,1,3.22-2.93c3.9-.86,7.81-1.7,11.66-2.78,10-2.79,15.35-12.07,13.93-23.92-1.17-9.81-9-16.66-19.15-16.84-6.36-.12-6.36-.12-6.36-6.87,0-5.77,0-5.77,5.66-6a20.85,20.85,0,0,0,19.84-18.06,20.16,20.16,0,0,0-14.63-22c-2.68-.78-5.3-1.82-8-2.46-2.4-.57-3-1.88-3-4.2a47.77,47.77,0,0,0-1.9-12.61C574.23,282.56,557,263,528,260.39c-2.44-.22-3.59-1.13-4.75-3.24-7.47-13.6-28.27-14.79-36.38-1.67-2.58,4.16-5.46,5-9.45,5.46-23.83,2.8-44.63,22.71-48.59,46.53-.59,3.53.42,8.22-1.52,10.4s-6.81,2.23-10.33,3.34c-9.34,3-15.81,13-14.47,22.35,1.41,9.92,10.43,18.36,20.29,18.12,4.56-.1,5.45,1.24,5.22,5.46-.38,7.2-.1,7.21-7.41,7.52a18.93,18.93,0,0,0-18.18,16.58c-1.54,11.5,3.62,20.63,13.37,23.39,3.83,1.09,7.74,2,11.65,2.75a4.56,4.56,0,0,1,3.95,3.69c2.15,7.17,5.12,14.07,9.85,19.92,2.15,2.67,1.14,3.45-1.12,4.8-16.72,9.92-33.44,19.82-50,29.93C364.16,491.49,351,514.54,351,545c0,27.35.06,54.7-.08,82,0,3.2.88,3.85,3.93,3.84q69.45-.15,138.89-.07h136.9c14,0,21.36-7.46,21.38-21.54,0-3.47.16-7-.06-10.41-.16-2.42.76-3.85,2.63-5.28C676.89,576.67,676.65,537.36,656.58,521ZM427.89,405.31c-3.05-1-5.72-1.71-8.27-2.73-3.83-1.52-5.4-5.09-4.44-9.94.79-3.94,3.51-5.23,7.29-5.22,5.42,0,5.42-.07,5.42,5.35ZM581.51,516.93c.22-12.92.08-25.84.09-38.77,0-4.1,5-7,8.61-4.86,9,5.34,18.1,10.66,27,16.17,8.07,5,14.27,11.77,19.37,20.86a46.64,46.64,0,0,0-19.6-.14A44.56,44.56,0,0,0,594,522.9c-1.45,1.52-2.52,2.51-4.54.86a5.68,5.68,0,0,0-3.35-1.11C582,522.66,581.45,520.5,581.51,516.93Zm.75-129.36c3.26,0,6.74-1,9.68,1.12s2.69,5.62,2.34,8.76c-.33,2.91-2.17,4.71-5.11,5.35-2.44.54-4.76,1.61-7.57,1.55,0-5,0-9.86,0-14.77C581.61,388.84,581.32,387.57,582.26,387.57ZM440.8,313.84a45.34,45.34,0,0,1,36-39.85c.91-.18,1.87-.17,2.78-.35,2.58-.51,3.47,0,3,3-1.29,8-2.06,16.12-3.21,24.16-.3,2.08.17,2.94,2.26,3,1.73.05,3.45.29,5.18.44,5.3.43,5.22.42,5.88-5q2-16.47,4.16-32.91c.63-4.81,3.21-6.95,8.07-7,5.22,0,7.61,1.85,8.33,7.11q2.31,17,4.29,34.1c.36,3.16,1,4.5,4.79,3.91,8.75-1.34,8.74-1,7.49-9.82-.86-6.07-1.37-12.19-2.39-18.23-.49-2.9.61-3.17,2.9-2.83,17.44,2.63,29.39,12.22,36.07,28.45a52.67,52.67,0,0,1,2.77,11.21c.5,2.88.06,3.85-3.2,3.82-20.27-.17-40.55-.08-60.82-.08s-40.81-.05-61.22.05C441.42,317.07,440.52,316.61,440.8,313.84ZM424.12,349c-6.82,0-10.8-5.34-8.3-11a7.29,7.29,0,0,1,5.29-4.4c7.25-1.72,14.43-3.25,22-3.21,42.52.2,85,.12,127.56.06,6.51,0,12.61,1.92,18.76,3.54,4,1.05,5.69,4.61,5,8.8-.65,4-3.29,6.16-8,6.18-15.2.06-30.39,0-45.59,0h-36Q464.51,349,424.12,349Zm16,52.84c-.32-12.26,0-24.54-.15-36.81,0-2.69.78-3.28,3.34-3.26,20.41.1,40.81.05,61.22.05s40.56.06,60.83-.06c2.71,0,3.59.51,3.55,3.41-.19,11.87.1,23.75-.13,35.61-.41,21.51-9.81,38.18-28.11,49.42-8.45,5.2-16.89,10.69-27,12.61-10.42,2-20.46,1-29.9-4-7.65-4-15.53-7.7-22.26-13.23C447.75,434.29,440.56,419.61,440.08,401.85Zm10.35,52.88c1.57-1,2.48.19,3.47.9,7.82,5.59,16.27,10.1,24.8,14.47,17.05,8.74,34.35,8.79,51.45.36,9.06-4.46,18.05-9.18,26-15.62.94-.76,1.75-1.54,3.13-.64,5.1,3.31,10.25,6.52,16,10.18-12.2,6.14-23,13.05-34.79,18-24.38,10.22-48.86,9.73-72.9-1-11.12-5-21.75-11.05-33.31-17C440.07,460.91,445.28,457.86,450.43,454.73Zm105.49,36.71a3.94,3.94,0,0,1,2.59-4.24c3.31-1.61,6.48-3.5,10.28-5.58,0,13,0,25.36.05,37.72,0,2.11-.59,2.61-2.66,2.65-10.2.21-10.2.28-10.2-9.81C556,505.27,556.09,498.35,555.92,491.44Zm-89.6,3.68c25.66,10.12,51.12,10.1,76.85,0,0,8.57-.08,16.67.05,24.77,0,2.45-1.42,2-2.84,2h-32c-12.94,0-25.88-.06-38.81.06-2.52,0-3.4-.5-3.33-3.22C466.45,511.06,466.32,503.34,466.32,495.12ZM453.55,519.6c0,2-.7,2.32-2.51,2.38-10.34.35-10.34.4-10.34-9.7v-30c4.13,2.06,7.74,3.95,11.43,5.65,1.44.67,1.38,1.71,1.38,2.92C453.5,500.42,453.45,510,453.55,519.6Zm-44.1,94.55c0,3.12-.74,4-3.9,3.92-12.67-.19-25.34-.15-38,0-2.5,0-3.1-.64-3.07-3.09.14-11.6.06-23.2.06-34.8s.64-23.51-.14-35.19c-1.32-20,6.47-35.92,20.17-49.57,5.72-5.7,12.91-9.36,19.75-13.47,5-3,10.27-5.69,15-9.06,3-2.12,4.84-.22,7.22.63s2,2.78,2,4.6c0,13.6,0,27.2,0,40.8,0,2-.21,2.88-2.61,3.24-10.52,1.6-16.59,8.84-16.62,19.6C409.34,565.88,409.31,590,409.45,614.15ZM597.73,618q-86,0-172.06.1c-3.55,0-4.3-.86-4.28-4.32.18-23.47.09-46.95.1-70.42,0-6.78,1.78-8.6,8.42-8.61H579.16a20.07,20.07,0,0,1,3.2.1c2.17.35,3.09,1.16,2.18,3.74-6.87,19.42-2.7,43.47,14.76,55.86,1.49,1,1.48,2.29,1.53,3.77.2,6.51-.72,13.06,1.07,19.78Zm41.56-15.71c-.24,3.18.05,6.39-.1,9.58-.19,3.76-2.32,5.93-6.07,6.08-4.39.16-8.8.15-13.19,0-3.94-.13-6.12-2.34-6.27-6.28-.13-3.59.07-7.2-.08-10.79-.08-1.91.76-2.17,2.35-2.13,3.6.09,7.2,0,10.8,0,3.06,0,6.15.22,9.19-.06S639.5,599.6,639.29,602.28Zm9.42-19.79c-4.53,4.72-9.71,3.16-14.82,3.43-1.49.08-1-1.28-1-2.1,0-3.2,0-6.4,0-11.17-2.45-7.27,2.06-13.15,8.5-18.15,2.2-1.7,2.28-3.1,0-4.88s-4.09-5.84-6.67-5.76c-2.18.07-4.37,3.51-6.34,5.65-1.41,1.53-2.49,1.83-3.77,0a1.24,1.24,0,0,0-.27-.29c-2.22-1.84-4.26-6.09-6.3-5.38-3.08,1.07-5.27,4.65-7.87,7.13-.72.7-.8,1.31-.07,2a3.82,3.82,0,0,0,.58.56c10.24,6.18,10,16,9.43,26.18-.36,6.21-.08,6-6.23,6.31-3.64.18-6.25-1.17-8.93-3.36-11.92-9.78-12.77-28.8-8.11-41,4.84-12.62,17.28-20.31,31.27-19.77a31.76,31.76,0,0,1,30.25,29.16C659.28,562.84,657.31,573.5,648.71,582.49Z" fill="#007CAA" class="color000 svgShape"></path><path d="M544.75,583.33l-24.62-6.2c-.29-1.38.78-2,1.36-2.74,7-9.4,14.09-18.73,21-28.18,1.51-2.06,2.66-2.47,4.57-.58,2.23,2.2,6.67,3.25,6.81,6.06.12,2.38-3.17,4.93-5,7.39-2.42,3.29-4.86,6.56-7.56,10.21l25.51,6.45c-6.6,8.8-13,17.31-19.37,25.79-1.83,2.41-3.57,6.39-5.73,6.66s-4.84-3.21-7.44-4.79-2.33-2.76-.67-4.85c3.72-4.69,7.21-9.57,10.78-14.38A4.66,4.66,0,0,0,544.75,583.33Z" fill="#007CAA" class="color000 svgShape"></path></svg></g></svg>
