<svg id="SvgjsSvg1270" width="288" height="288" xmlns="http://www.w3.org/2000/svg" version="1.1" xmlns:xlink="http://www.w3.org/1999/xlink" xmlns:svgjs="http://svgjs.com/svgjs"><defs id="SvgjsDefs1271"></defs><g id="SvgjsG1272"><svg xmlns="http://www.w3.org/2000/svg" data-name="Layer 1" viewBox="0 0 1000 1000" width="288" height="288"><path d="M900.43 674.38c-4 6.39-9.93 7.93-17.17 7.83-22-.29-44.07.07-66.1-.23-5.31-.07-7 1.13-6.92 6.72.36 20.74.07 41.48.17 62.22.08 14.93-4.59 27.94-15 38.76-5.41 5.63-12.08 6.28-17.15 1.73s-5.6-10.93-.5-16.58c7.3-8.08 9.29-17.29 9.28-27.84q-.21-249.27.17-498.52c.06-22.5-13.19-36-36.45-36-149.84.4-299.68.2-449.52.2-2.33 0-4.67.08-7 0-7.48-.39-12.34-4.64-12.7-11s4.84-11.82 12.39-12.28a122.24 122.24 0 0119.42 0c6.23.62 7.07-1.89 7-7.35-.31-21 .07-42-.23-63-.11-7.24 1.44-13.17 7.83-17.17h7.78c8.13 2 10.08 8.07 10.13 15.36.14 19.44 0 38.88.07 58.33.05 10.56.46 11 10.9 11q17.9.07 35.78 0c10.08 0 10.65-.56 10.7-10.45.1-20 0-39.92 0-59.89 0-7.35 2.54-12.57 10.18-14.35h7.77c8.55 2.2 9.95 8.93 10.08 16.26.26 15.28.06 30.55.1 45.83 0 4.4-.07 8.8 0 13.2.18 8.55.88 9.32 9.39 9.39 11.9.11 23.81.07 35.72 0 10.13 0 10.66-.52 10.71-10.4.08-16.83 0-33.66 0-50.49a80.38 80.38 0 01.3-9.31c.84-7.16 3.26-13.1 11.43-14.5h6.22c9.25 1.89 11.38 8.87 11.56 16.82.43 18.12.11 36.25.17 54.37 0 13.51 0 13.52 13.84 13.52 11.13 0 22.27-.19 33.39.07 6.38.15 8.74-2.45 8.7-8.71-.14-19.42-.18-38.84 0-58.26.07-7.71.73-15.29 10.11-17.81h7.78c7.63 1.78 10.18 7 10.18 14.35 0 20-.07 39.93 0 59.89 0 9.89.62 10.41 10.7 10.45 12.7 0 25.41-.17 38.1.09 6.42.13 8.68-2.52 8.64-8.76q-.19-29.94 0-59.88c0-7.49 1.58-14 10.15-16.14h7.78c8.11 2 10.05 8 10.09 15.33.12 19.67 0 39.35.07 59 0 10 .37 10.35 10.57 10.39 18.63.05 37.27-.19 55.9.08 15.45.22 29.63 4.26 41.34 15 12.33 11.35 18.33 25.31 18.22 42.09-.15 20.71-.08 41.41 0 62.12 0 9.2.57 9.74 9.61 9.78 21 .1 41.93 0 62.9.08 7.29 0 13.35 2 15.33 10.09v7.78c-2 8.13-8.06 10.08-15.35 10.13-20.22.14-40.44 0-60.66.07-11.54 0-11.77.26-11.79 11.68 0 11.67 0 23.33 0 35 0 10.07.59 10.65 10.46 10.7 20.74.09 41.48.05 62.21 0 7.5 0 13.32 2 15.13 10.2v7.78c-2.2 8.53-8.93 9.95-16.26 10.08-16 .26-32.1.06-48.15.1-4.66 0-9.32-.07-14 0-8.57.18-9.32.87-9.4 9.38-.11 11.91-.07 23.82 0 35.73 0 10.12.53 10.66 10.41 10.7 17.87.08 35.73 0 53.59 0a80.3 80.3 0 019.31.3c7.16.85 13.11 3.26 14.5 11.43v6.23c-2 9.7-9.44 11.45-17.6 11.6-18.89.34-37.79.09-56.69.13-13.52 0-13.53 0-13.53 13.83 0 11.14.2 22.27-.07 33.4-.15 6.38 2.47 8.74 8.72 8.69 18.9-.15 37.8-.07 56.7 0a90.3 90.3 0 019.31.28c6.39.65 11.52 3 13.16 9.9v7.78C898.62 597 892.8 599 885.3 599q-31.09-.07-62.21 0c-9.87 0-10.42.63-10.46 10.69 0 12.7.18 25.41-.08 38.11-.14 6.43 2.54 8.67 8.76 8.63q31.5-.18 63 0c7.49 0 14 1.58 16.13 10.15zM343.66 847.83c0 11.93 0 23.86 0 35.78-.06 9.13-4.35 14.55-11.41 14.69-7.35.15-12-5.48-12-15-.07-23.34-.22-46.68.11-70 .08-5.62-1.06-7.33-7.07-7.33-24.36 0-48.78 1.62-73.06-.73-19.29-1.86-32.9-12.84-41.33-30.13-3.5-7.18-1.63-13.5 4.48-16.72 5.79-3.06 12.17-1.47 15.66 5.37 7.66 15 20.17 19 35.94 19q239.56-.28 479.13-.1c3.11 0 6.23.05 9.31.35 6.51.62 9.84 4.94 10.08 10.86s-3 10.38-9.29 11.54a45.17 45.17 0 01-7.7.69c-14.78.06-29.58.52-44.33-.19-7.29-.35-8.3 2.18-8.18 8.6.39 22 .15 44.08.15 66.11a56 56 0 01-.11 6.22c-.76 6.72-5.56 11.41-11.59 11.46-6.33.07-11.54-4.92-11.62-12.07-.22-20-.06-39.92-.13-59.89 0-6.43 2.1-15-1.16-18.74-3.83-4.37-12.63-1.27-19.26-1.41-11.66-.23-23.34.18-35-.18-5-.15-6.62 1.16-6.55 6.41.3 22.55.13 45.11.12 67.66 0 2.08.08 4.16-.06 6.22-.47 6.9-4.81 11.6-10.92 11.95s-11.76-4.4-12.23-11.5c-.5-7.49-.19-15-.19-22.55 0-17.37-.17-34.74.1-52.11.08-4.67-.95-6.2-5.91-6.09q-24.87.51-49.77 0c-4.87-.09-6.07 1.36-6 6.1.24 22.81.13 45.63.08 68.44a48.14 48.14 0 01-.67 8.49c-1.1 6-5.22 9-10.92 9.11s-9.92-2.93-11.15-8.81a46.18 46.18 0 01-.74-9.26c-.06-22.55-.19-45.11.09-67.67.07-5.17-1.49-6.49-6.5-6.4-16.33.3-32.67.37-49 0-5.4-.13-6.25 1.8-6.21 6.58.22 22.81.11 45.63.09 68.44a35.89 35.89 0 01-.33 7c-1.26 6.37-5.16 10.14-11.78 10.24-6.09.1-10.95-4.82-11.15-11.6-.3-10.62-.13-21.26-.14-31.89 0-14.26-.13-28.52.08-42.77.06-4.12-.67-6-5.42-5.93-17.1.27-34.22.21-51.33 0-4-.05-5.38 1-5.29 5.21C343.82 823.46 343.66 835.65 343.66 847.83zM194 275.83c0-10.63-.14-21.27 0-31.89.47-29.73 19.73-50.92 49.13-54.23 7.63-.85 13.44 2.93 14.6 9.51s-3.17 11.91-10.81 13.38c-21.79 4.21-29.51 13.5-29.51 35.54q0 233.34 0 466.68a53.79 53.79 0 01-.28 8.53c-1.08 6.73-6.14 10.86-12.5 10.15-6.6-.73-10.36-4.72-10.51-11.31-.27-11.4-.39-22.82 0-34.22.16-4.92-1.38-6-6.08-6q-35.39.35-70.78 0c-8.19-.06-13.51-5.29-13.22-12.17.28-6.6 5.4-10.9 13.35-11.18 1.81-.06 3.63 0 5.44 0 21.26 0 42.53-.29 63.78.17 6.4.13 7.65-1.94 7.51-7.81-.39-15.8-.36-31.63 0-47.44.12-5.39-1.28-7-6.83-6.92-22.55.32-45.11.15-67.66.12-3.09 0-6.28.37-9.12-1.27-4.73-2.72-7.33-6.81-6.19-12.27 1.52-7.29 6.9-9.85 13.83-9.85 22.56 0 45.12-.34 67.66.19 7.05.16 8.58-1.84 8.35-8.54-.54-15.27-.43-30.59 0-45.88.15-5.65-1.09-7.54-7.15-7.43-21.77.41-43.55.19-65.33.13a38 38 0 01-9.24-.86c-5.42-1.38-8.24-5.45-8.26-10.84s2.8-9.48 8.19-10.9a37 37 0 019.24-.87c22-.07 44.08-.21 66.11.09 5.25.08 6.52-1.54 6.42-6.55-.3-15.81-.36-31.64 0-47.44.14-5.83-1-7.93-7.46-7.8-21.77.46-43.55.19-65.33.17a37.58 37.58 0 01-7-.33c-6.37-1.25-10.14-5.15-10.26-11.76-.12-6.09 4.8-11 11.58-11.17 9.32-.31 18.66-.14 28-.14 15 0 30.07-.14 45.11.08 4.07.06 5.33-1.14 5.28-5.26-.2-17.1-.25-34.22 0-51.33.08-4.69-1.72-5.47-5.86-5.44-20.74.18-41.48.08-62.22.08h-6.22c-10.24-.07-16-4.4-15.77-11.91.19-7.32 5.7-11.48 15.51-11.5 22.3-.05 44.6-.22 66.89.12 5.88.09 8-1.15 7.73-7.5C193.58 299.18 194 287.49 194 275.83z" fill="#6e90e8" class="color000 svgShape"></path><path d="M726.61,499.33c-3.53,4.95-6.94,6.33-10.8,4.27-3.4-1.81-4.07-4.87-4.11-8.46-.35-32.76-7.61-63.94-22.94-92.89-30.32-57.23-77-94-140.23-108.49-109.27-25-221.07,43.2-246.82,152.31-20.19,85.52,5.14,157.47,72.43,214.33,1.77,1.5,3.88,2.73,4.5,5.14.87,3.39.17,6.39-2.84,8.47-3.19,2.2-6.32,1.67-9.24-.62A220.82,220.82,0,0,1,339.88,649Q289,593.68,281.22,518.87C269.61,405.52,348,300,459.73,278c118.89-23.35,234.42,51.52,261.39,169.45a219.85,219.85,0,0,1,4.62,29.66c.06.78-.33,1.8.87,2.15v3.49c-.54.48-.43,1.13-.45,1.74s-.09,1.26.45,1.74v3.49a6.69,6.69,0,0,0,0,5.23Z" fill="#6e90e8" class="color000 svgShape"></path><path fill="#6e90e8" d="M726.61,495a3.94,3.94,0,0,1,0-5.23Z" class="color131313 svgShape"></path><path fill="#6e90e8" d="M725.88,484.46c-.1-.71-.28-1.46.73-1.69v1.74C726.34,484.91,726.09,484.9,725.88,484.46Z" class="color797979 svgShape"></path><path fill="#6e90e8" d="M725.88,484.46c.24,0,.49,0,.73.05v1.74C725.76,485.9,725.73,485.22,725.88,484.46Z" class="color5a5a5a svgShape"></path><path d="M515.43 441.13c-30.23 0-60.45.06-90.68-.09-3.51 0-4.26 1-4.24 4.34.13 25.87 0 51.74.09 77.61.14 49.52 40.39 86.94 89.76 83.52 38.08-2.63 71.06-34.24 75-72.23 1.89-18.1.41-36.3.78-54.45.09-4.5-.1-9 .06-13.51s3.26-7.39 7.52-7.31a7 7 0 017.21 7.17c-.26 23.09 1.46 46.25-.79 69.27-4 41.25-36.34 76.06-77.31 84.24A97.88 97.88 0 01406.78 538.5 108.26 108.26 0 01405.7 522c.06-25.43-.08-50.87.14-76.3 0-4-1.1-5-4.81-4.61-4.16.48-7.5-.92-8.91-5.23-1.6-5 2.16-9.5 8.17-9.57 11.19-.12 22.38-.21 33.57.06 3.69.09 4.48-.94 4.45-4.52-.18-23.1-.1-46.21-.07-69.32a21.71 21.71 0 01.55-5.59 6.65 6.65 0 017.18-5.14c3.67.16 6.28 2.18 6.93 6a29.23 29.23 0 01.21 4.78c0 23.11.07 46.21-.05 69.32 0 3.2.49 4.46 4.16 4.44q46.21-.25 92.43 0c3.23 0 4.13-.73 4.11-4.06-.16-23.1-.08-46.21-.08-69.32a40 40 0 01.15-4.78A7.27 7.27 0 01568 347a19.34 19.34 0 01.53 5.16c0 23.4.1 46.8-.07 70.19 0 3.33.88 4.06 4.08 4 11.19-.21 22.38-.16 33.57-.06 6.74.06 10.55 5.07 8.17 10.45-1.59 3.6-4.57 4.44-8.19 4.43q-42.29-.06-84.58 0zM503.37 639.36c5.08 0 10.17-.11 15.25 0 4.88.14 8 3.16 8 7.37s-3.17 7.15-8 7.49c-7.77.54-7.77.54-7.77 8.49 0 5.38 0 10.76 0 16.13.13 16.59 11.75 26.37 28.1 23.48A208.94 208.94 0 00697.18 573.5c1.13-2.85 2.17-5.85 5.48-6.86 2.8-.85 5.54-.53 7.68 1.67a7.36 7.36 0 011.59 8.41 208.86 208.86 0 01-20.58 40.65q-53.86 81.6-150 99.7c-23.83 4.49-44-11.34-45.24-35.53-.42-8-.25-16-.08-24 .06-2.77-.82-3.6-3.45-3.35a25.43 25.43 0 01-5.65-.12 7.39 7.39 0 01-6.77-7.28 7.18 7.18 0 017.1-7.33c5.37-.24 10.75-.06 16.13-.06z" fill="#6e90e8" class="color000 svgShape"></path><path d="M493.93,512.79q14.31,0,28.66,0c9.9,0,12.83,4.77,8.4,13.63-6.81,13.59-13.66,27.16-20.43,40.77-1.81,3.65-4.45,5.79-8.63,4.95-5.13-1-7.28-6.08-4.76-11.26,4.68-9.64,9.51-19.2,14.26-28.81.63-1.25,1.71-2.36,1.42-4.35h-26c-1.6,0-3.2,0-4.8,0-7-.26-10.29-5.38-7.2-11.62q10.59-21.42,21.42-42.71c2.45-4.85,6.62-6.44,10.65-4.3,3.8,2,4.87,6.27,2.56,11-4.66,9.5-9.42,18.94-14.11,28.41C494.73,509.72,493.66,510.83,493.93,512.79Z" fill="#6e90e8" class="color000 svgShape"></path><path fill="#6e90e8" d="M721.64,543.06c-.13,6.54-3.46,10.93-8.24,10.88a7.52,7.52,0,0,1-7.36-7.61c.06-6.59,3.69-11.31,8.55-11.11A7.41,7.41,0,0,1,721.64,543.06Z" class="color020202 svgShape"></path></svg></g></svg>