<svg id="SvgjsSvg1220" width="288" height="288" xmlns="http://www.w3.org/2000/svg" version="1.1" xmlns:xlink="http://www.w3.org/1999/xlink" xmlns:svgjs="http://svgjs.com/svgjs"><defs id="SvgjsDefs1221"></defs><g id="SvgjsG1222"><svg xmlns="http://www.w3.org/2000/svg" data-name="Layer 1" viewBox="0 0 1000 1000" width="288" height="288"><path d="M267.14,134c2.58-6.61,6.34-12.11,13.48-14.46a19.56,19.56,0,0,1,25.21,13.5c1.09,3.91,2.4,4.09,5.8,2.69a503,503,0,0,1,128.52-33.67,482,482,0,0,1,128.11.6c5.61.79,8.56,3.72,7.91,8s-4.19,6.48-9.8,5.7a455.36,455.36,0,0,0-72.3-4.33A496.33,496.33,0,0,0,327.12,144.4c-4.42,1.67-8.72,3.7-13.2,5.15-3,1-3.42,2.38-2.71,5.25,6.06,24.6,12,49.24,17.93,73.87q4.94,20.47,9.85,41c.24,1,.64,2,.94,2.91q162.39-59.15,324.68,0,5-20.52,10.07-41.23c6.11-25.21,12.1-50.46,18.37-75.64.93-3.72.16-5.1-3.4-6.54a526,526,0,0,0-92.79-27.86c-5.56-1.14-8.22-4.43-7.2-8.6s4.62-5.88,10.27-4.76a503.44,503.44,0,0,1,93.23,27.93c2.94,1.2,4.24,1.37,5.24-2.33,3-11.08,13.34-17,24-14.31s16.81,12.91,14.13,24.09q-21.63,90.17-43.42,180.3c-1.24,5.12-4.72,7.65-8.76,6.54-4.29-1.19-5.92-4.83-4.58-10.39Q693.17,264.36,706.58,209q8.17-33.82,16.27-67.67c1.13-4.69-.33-7.82-4-8.78-3.46-.9-6.38,1.34-7.53,6.07q-18.69,77-37.3,154-20.93,86.58-41.75,173.17c-.18.74-.43,1.47-.56,2.22-.62,3.66.6,6.39,4.3,7.5,3.24,1,6.46-1.18,7.45-5.07,2.24-8.88,4.34-17.8,6.48-26.7q11.15-46.31,22.28-92.6c.43-1.76.71-3.65,2-5.05,2.32-2.48,5.08-3.42,8.25-1.76,3.51,1.83,4.39,4.79,3.49,8.51q-6.15,25.61-12.26,51.21c-5.47,22.71-11,45.39-16.42,68.11-2,8.61-6.76,14.66-15.59,16.76-7.49,1.78-13.94-.47-19.07-6.12-4.92-5.44-5.84-11.84-4.15-18.85q21-86.79,42-173.58c.84-3.46-.09-4.43-3-5.52-64.55-24.26-131.21-32-199.67-25.74-38.42,3.51-75.47,12.77-111.6,26.1-3.26,1.2-2.79,2.58-2.18,5.07q21,86.78,41.87,173.6c2.89,12-3.09,22.32-14.49,25.1-10.55,2.58-20.93-4-23.78-15.45-5.75-23.1-11.31-46.25-16.88-69.4-1.14-4.74,1-8.49,5-9.29,4.21-.85,7.32,1.36,8.51,6.27q8.28,34,16.49,68.09c1.2,5,4.16,7.31,7.81,6.31s5-4.23,3.88-9Q340.22,333.17,308,199.86l-14.19-58.75c-.28-1.19-.54-2.39-.89-3.56-1.17-3.92-4.17-5.93-7.43-5s-5.1,4.07-4.17,8c2.72,11.44,5.51,22.85,8.27,34.28q23.64,97.68,47.27,195.38c.18.74.31,1.5.46,2.25.85,4.28-1,7.68-4.65,8.66-4,1.07-7.5-.88-8.62-5.34-3.47-13.92-6.77-27.89-10.14-41.83q-23-95-45.93-190.06a7.62,7.62,0,0,0-.81-1.58Z" fill="#6e90e8" class="color000 svgShape"></path><path d="M555.17 174q-1.7 14.06-3.37 28.11c-.44 3.64-.69 7.31-1.3 10.92-.78 4.56-4 7-8 6.4-3.76-.58-6.1-3.6-5.6-8.09 1.93-17.46 4-34.9 6.07-52.36q.76-6.6 1.54-13.2c.43-3.63 1.87-6.55 5.86-7.17s6.52 1.47 8 5.19c5.63 13.67 11.36 27.29 17.07 40.93a9 9 0 002.4 3.59L580.25 169c.79-6.52 1.55-13.05 2.36-19.57.39-3.15 1.89-5.48 5.14-6.27 5-1.22 9.06 2.38 8.46 7.82-1.7 15.34-3.57 30.66-5.38 46-.76 6.53-1.61 13-2.3 19.58-.41 3.93-2.09 6.82-6.19 7.37-3.88.53-6.23-1.7-7.67-5.17q-9.25-22.38-18.59-44.71zM482.24 177.17c0-10.4 0-20.81 0-31.21 0-7.11 2.2-9.24 9.35-9.26 8 0 15.92 0 23.87 0 4.91 0 7.95 2.82 7.85 7-.09 4-3.05 6.67-7.69 6.75-5.5.1-11 .13-16.52 0-2.39-.07-3.2.66-3.11 3.1.18 4.58.18 9.18 0 13.76-.1 2.57.65 3.5 3.33 3.4 5.35-.19 10.71-.11 16.06 0 4.93.06 8 2.79 7.93 6.91s-3.1 6.79-8.07 6.87c-5.2.09-10.41.16-15.6 0-2.71-.11-3.85.5-3.67 3.48a111.52 111.52 0 010 13.31c-.17 3 1.06 3.56 3.73 3.47 5.35-.18 10.71-.11 16.06 0 4.61.07 7.56 2.8 7.55 6.79s-2.92 6.86-7.54 6.92q-12.84.19-25.7 0c-5.3-.08-7.78-2.86-7.82-8.58C482.19 198.9 482.24 188 482.24 177.17zM447.17 202.56q3.18-26.15 6.35-52.28c.28-2.27.52-4.55.88-6.81.67-4.2 3.79-6.86 7.46-6.45 4 .44 6.66 3.81 6.19 8.18-.8 7.59-1.78 15.16-2.71 22.74-1.72 13.94-3.41 27.89-5.22 41.81-.83 6.37-4.67 10.56-10.11 11.47-6.11 1-11.08-1.69-13.92-7.93q-13.23-29.11-26.3-58.31c-2.12-4.72-.85-8.75 3.08-10.41s7.34 0 9.46 4.69q12.07 26.6 24 53.24zM387.24 151.12c4.93 0 7.46 1.82 8.23 5.36.82 3.78-.86 6.73-4.58 7.88-5.53 1.7-11.14 3.23-16.79 4.46-2.87.62-3.25 1.67-2.41 4.3 1.43 4.5 2.58 9.1 3.59 13.71.46 2.06 1.12 2.33 3.09 1.77 5.42-1.56 10.91-2.9 16.4-4.2 4.59-1.1 8.13.7 9.13 4.46 1.1 4.09-1 7.37-5.8 8.76a155.23 155.23 0 01-15.47 4.09c-3.25.59-3.1 2-2.43 4.37.77 2.63 1.42 5.3 2.12 7.95 2.16 8.12 2.16 8.12 10.53 5.92 3.68-1 7.34-2.08 11-2.95a6.81 6.81 0 018.41 4.45 6.58 6.58 0 01-4.5 8.73c-8.8 2.48-17.68 4.7-26.58 6.83-4.23 1-7.32-.87-8.42-5q-8.64-32.74-17-65.55c-.86-3.37.3-6.59 3.52-7.58C368.9 155.88 378.67 153.45 387.24 151.12zM611.28 225.68q3.54-15.39 7.1-30.78c2-8.78 3.92-17.59 6.08-26.33.57-2.33.29-3.22-2.22-3.62-3.76-.61-7.47-1.59-11.16-2.54-4.36-1.13-6.72-4.71-5.75-8.47s4.57-6 9-5q20.33 4.61 40.59 9.41c5.05 1.2 7.33 4.31 6.51 8.32-.89 4.28-4.33 6.12-9.6 5A87.33 87.33 0 01642 169.5c-2.75-.91-3.58-.31-4.21 2.53-4 18.18-8.32 36.31-12.54 54.45-1.49 6.44-7.06 9-11.45 5.36A7 7 0 01611.28 225.68zM448.39 400.14c0-4.65.13-9.3-.14-13.93-.18-2.93.93-3.44 3.61-3.5 13.76-.29 13.76-.37 13.73 13.14 0 1.43 0 2.86-.08 4.29l-.7.62a32.62 32.62 0 01-15.71 0zM448.39 417.26c-4.65 0-9.3-.13-13.93.15-2.94.18-3.44-.94-3.5-3.62-.29-13.75-.37-13.75 13.15-13.73 1.43 0 2.86.05 4.28.08l-.15-.15c2.85 5.37 1.9 10.94.81 16.52z" fill="#6e90e8" class="color000 svgShape"></path><path d="M465.51 400.14c4.65 0 9.3.13 13.93-.14 2.93-.18 3.45.92 3.51 3.61.29 13.75.37 13.75-13.14 13.73-1.43 0-2.86 0-4.29-.08l-.65-.76c-1.1-5.57-2.06-11.14.8-16.51zM646.65 417.34c-8.21 0-8.21 0-8.21-8.53 0-8.75 0-8.75 8.53-8.75 8.75 0 8.75 0 8.75 8.53C655.72 417.34 655.72 417.34 646.65 417.34zM370.53 417.66c0 8.32 0 8.32-8.41 8.32-8.87 0-8.87 0-8.87-9 0-8.33 0-8.33 8.42-8.33C370.54 408.7 370.54 408.7 370.53 417.66z" fill="#6e90e8" class="color000 svgShape"></path><path d="M465.52 417.26c0 4.65-.13 9.3.14 13.93.18 2.93-.93 3.45-3.61 3.5-13.76.3-13.76.37-13.73-13.14 0-1.43 0-2.86.07-4.29l-.15.16a19.7 19.7 0 0117.43 0zM465.6 503.3c0 9.1 0 9.1-9.27 9.1-8 0-8 0-8-8.19 0-9.1 0-9.1 9.27-9.1C465.6 495.11 465.6 495.11 465.6 503.3z" fill="#6e90e8" class="color000 svgShape"></path><path d="M759.4,875.56c-.23-10.4-4.85-18.3-14.07-23.17-2.42-1.28-3.26-2.56-3.25-5.27q.12-110.18,0-220.35c0-2.86,1.15-4,3.45-5.15a24.31,24.31,0,0,0,13-16.36c3-11.92-1.59-21-10.78-28.35,16.29-21.76,15.44-45.29-2.16-61.67a43.2,43.2,0,0,0-57.2-1.29,42.15,42.15,0,0,0-15,27.8c-1.63,13.35,2.68,25,11.49,35-10.37,8.4-14.51,18.5-10,31.22.71,2-.26,3-1.45,4.13-8.61,8.44-17.11,17-25.85,25.31-2.71,2.59-5.33,5.5-9.07,7.14,0-37.84,0-75.29-.05-112.73a14.53,14.53,0,0,1,2.71-8.93A34.49,34.49,0,0,0,590,477.46c-13,11-16.13,30.15-6.67,44.39,2.76,4.16,1.64,5.83-1.48,8.47a126.28,126.28,0,0,1-164-.45c-2.93-2.5-3.49-4.08-1.09-7.67a34.11,34.11,0,0,0-6.66-44.84,34.54,34.54,0,0,0-45.44.65,34.18,34.18,0,0,0-5.39,45,14.49,14.49,0,0,1,2.61,9q-.1,53.75-.05,107.48V644c-.95-.1-1.39,0-1.62-.2-12.24-9.83-22.79-21.44-34-32.38a2.79,2.79,0,0,1-.8-3.34c4.62-13,.24-23.13-10-31.36,16.49-20.28,15.55-45.25-2.22-61.67a43.23,43.23,0,0,0-58.42,0c-17.75,16.44-18.66,41.45-2.23,61.54a3.81,3.81,0,0,1-.65.86c-17.17,12.59-13.28,37.12,4.09,44.77,2.66,1.17,2.08,3,2.08,4.84q0,109.9.1,219.81c0,3-1.08,4.32-3.59,5.62-7.5,3.88-12.33,10.23-13.29,18.52a127.72,127.72,0,0,0-.26,22.64c.31,4.93,4,7.5,9,7.51,22.69,0,45.38.07,68.06,0,5.71,0,9-3.41,9.13-9.12.15-5.93.24-11.89,0-17.81-.46-9.5-4.88-16.95-13.25-21.43-3.27-1.74-4-3.63-4-7q.15-88.58.07-177.15v-5.63c1.3,1.23,1.92,1.78,2.5,2.37,22.69,23.27,48.46,42.27,78.08,55.8,3.74,1.71,2.67,3.66,1.75,6.31q-27.51,79.61-54.92,159.25c-3.36,9.73,0,14.47,10.28,14.47H652.36c10.61,0,13.87-4.64,10.39-14.74Q635.41,807.13,608,727.78c-1.38-4-.71-5.44,3-7.14A240.61,240.61,0,0,0,651.38,697c13.75-9.84,26.22-21.18,38.91-34,0,62.49,0,123.68.06,184.88,0,2.4-.94,3.32-2.93,4.36-8.78,4.61-13.76,12-14.33,21.91-.34,5.92-.18,11.88-.05,17.81s3.42,9.31,9.48,9.33q33.75.12,67.51,0c6,0,9.23-3.41,9.37-9.45Q759.57,883.66,759.4,875.56ZM732.81,607.41c-11.13.11-22.25.13-33.38,0-5.48-.06-9.08-3.65-9.11-8.55s3.57-8.49,9-8.64,11.13,0,16.69,0,11.13-.09,16.69,0c5.78.12,9.52,3.74,9.39,8.83C742,603.9,738.34,607.36,732.81,607.41ZM707.47,629.6c0-4,.91-5.06,5-5,12.41.25,12.42,0,12.42,12.55q0,103.41.11,206.82c0,4.48-1,5.67-5.52,5.54-11.87-.35-11.88-.11-11.88-12v-101C707.57,700.89,707.65,665.24,707.47,629.6Zm8.28-108.55a25.9,25.9,0,1,1-25.44,26.07A26,26,0,0,1,715.75,521.05Zm-103-34.56a17.26,17.26,0,1,1-17.48,16.92A17.33,17.33,0,0,1,612.72,486.49Zm8.53,141.35c0,4.25-.62,5.82-5.37,5.67-12-.39-12-.11-12-12.39v-84a32.28,32.28,0,0,0,16.7.09c1,1.86.56,3.69.56,5.43C621.16,571.07,621.06,599.46,621.25,627.84ZM387.91,486.49a17.26,17.26,0,1,1-17.36,17A17.34,17.34,0,0,1,387.91,486.49Zm8.63,142.09c0,3.46-.37,5-4.47,4.91-12.89-.18-12.89,0-12.89-13.11V537.22a33.52,33.52,0,0,0,17.28-.14v5.8C396.46,571.45,396.4,600,396.54,628.58Zm5.9,22.07c8.42,0,11.29-2.89,11.3-11.35,0-29.86,0-59.73,0-89.87,57.81,37.76,115,37.73,172.84,0v4.51q0,42.66,0,85.31c0,8.52,2.83,11.38,11.23,11.4,10.72,0,21.44,0,33.48,0A220.51,220.51,0,0,1,592,673.89c-3,1.37-2.82-1-3.36-2.5-3.43-9.82-6.81-19.66-10.24-29.48-2.5-7.15-4.38-8.53-11.72-8.53H433.83c-7.54,0-9.32,1.26-11.81,8.38q-5.16,14.72-10.26,29.47c-.61,1.79-.5,4-3.75,2.52a230.88,230.88,0,0,1-39-23.09C381.06,650.66,391.75,650.67,402.44,650.65ZM570.3,682.48a221.22,221.22,0,0,1-109.58,7.79,245.8,245.8,0,0,1-30.22-7.66c-3.09-1-3.87-2-2.68-5.14,2.85-7.54,5.5-15.17,7.88-22.87,1-3.14,2.45-4.05,5.69-4,19.6.16,39.2.08,58.8.08,19.42,0,38.85.13,58.26-.12,3.81,0,5.33,1.2,6.38,4.62,2.34,7.53,5,15,7.66,22.38C573.4,680.08,573.54,681.42,570.3,682.48ZM258.21,546.85a25.9,25.9,0,1,1,26.08,26A26,26,0,0,1,258.21,546.85Zm0,52.09c-.08-5.09,3.65-8.69,9.47-8.74q16.43-.15,32.84,0c5.82,0,9.56,3.65,9.48,8.74s-3.83,8.39-9.75,8.49c-5.38.09-10.76,0-16.15,0s-10.76.07-16.15,0C262,607.33,258.3,604,258.22,598.94Zm17.15,30.67c0-4,.89-5.07,5-5,12.42.25,12.43,0,12.43,12.54q0,103.41.11,206.83c0,4.46-1,5.67-5.51,5.54-11.88-.35-11.89-.11-11.89-12V737.07C275.47,701.25,275.55,665.43,275.37,629.61ZM310,882.7c-.77,2.1-2.35,1.21-3.57,1.23-7.54.08-15.08,0-22.62,0-7.36,0-14.72-.11-22.08,0-2.68.06-3.62-.53-3.67-3.48-.19-11.43,2-13.85,13.62-13.85,9.16,0,18.31,0,27.47,0C307.93,866.73,313.07,874.41,310,882.7Zm332.24-2.57c.39,1.14.58,2.35.91,3.7H356.84c4.67-13.65,9.22-27,13.83-40.39,12.56-36.45,25.21-72.88,37.65-109.38,1.24-3.64,2.29-4.52,6.24-3.15q85.56,29.65,171.23.08c3.24-1.12,4.81-1.21,6.11,2.6Q617,806.91,642.28,880.13Zm40.44-233.74c-24.54,25-51.38,46.48-83.61,60.82-31.65,14.07-64.76,21-104.56,21.28-61.4-1.34-118.72-24.85-166.21-71.8-5.12-5.06-10.18-10.18-15.26-15.28-2.43-2.44-4.55-14.86-2.82-17.66,1.5-2.42,3-.86,4.27.43q8.22,8.19,16.41,16.4a243.25,243.25,0,0,0,77.23,52.14c88.17,37.58,191.15,17.13,261-51.92,5.5-5.44,10.95-10.93,16.43-16.39,1-1,1.82-2.4,3.58-1.61,1.53.69.93,2.14,1.09,3.31C691.38,634.23,688.79,640.21,682.72,646.39ZM742.1,883c-.78,1.57-2.15,1-3.27,1-7.72.06-15.44,0-23.16,0-7.36,0-14.72-.1-22.08,0-2.48.05-3.29-.54-3.38-3.21-.41-11.43,2-14.12,13.34-14.12,9.52,0,19-.07,28.55,0C740.13,866.77,745.64,875.85,742.1,883Z" fill="#6e90e8" class="color000 svgShape"></path><path d="M572.28,452.29c-6.95-3.73-13.82-7.63-20.81-11.29a9.74,9.74,0,0,1-4.83-5.38c-3.89-9.64-8-19.2-11.94-28.81-1.64-4-4.18-6.77-8.78-6.7-4.32.07-6.83,2.69-8.36,6.5-.93,2.33-1.91,4.64-2.88,6.95-3.45,8.27-5.42,17.73-10.78,24.48-5.51,6.94-15.48,9.27-23.33,13.91l-.48.25c-7.85,4.59-7.87,12.2.07,16.71q10.06,5.71,20.34,11a10.38,10.38,0,0,1,5.15,5.8c3.8,9.48,7.9,18.84,11.75,28.31,1.62,4,4,6.88,8.59,6.94s7.09-2.77,8.73-6.76c3.89-9.44,8-18.81,11.76-28.31a10.82,10.82,0,0,1,5.54-6.08c6.85-3.53,13.54-7.39,20.32-11.06,3.22-1.75,5.31-4.21,5.59-8C577.84,456.75,575.72,454.13,572.28,452.29Zm-46.14,36.87c-4.37-13.06-10-24.31-25-28.47,14.44-4.65,21.09-15,24.71-28.77,4.7,12.85,10.07,24.56,25.43,28.47C536.55,464.93,530.18,475.75,526.14,489.16Z" fill="#6e90e8" class="color000 svgShape"></path></svg></g></svg>