<svg id="SvgjsSvg1238" width="288" height="288" xmlns="http://www.w3.org/2000/svg" version="1.1" xmlns:xlink="http://www.w3.org/1999/xlink" xmlns:svgjs="http://svgjs.com/svgjs"><defs id="SvgjsDefs1239"></defs><g id="SvgjsG1240"><svg xmlns="http://www.w3.org/2000/svg" data-name="Layer 1" viewBox="0 0 1000 1000" width="288" height="288"><path d="M615.51,551.8c-5.22-5.46-10.6-10.78-15.7-16.36-56.28-61.64-103.08-130.07-145-202A13.94,13.94,0,0,1,453.2,326c0-22.66-.77-45.34,4.44-67.68,1.3-5.56-1.9-9.89-6.89-10.73-4.58-.78-8.56,2.25-9.55,7.76-1.57,8.69-3,17.42-4.15,26.18-.34,2.63-1.16,3.31-3.69,3.31q-67.77-.11-135.53,0c-2.36,0-3.5-.37-3.83-3.18-3.28-27.65-9.57-54.73-16.61-81.61-2.33-8.9-.78-12,7.31-18.7,4.2-3.47,9.53-4.62,15-5,17.84-1.13,34.6,3.77,49.88,11.91,11.48,6.12,20.56,6,32,0,15.46-8.2,32.39-13.21,50.43-11.83,8.73.67,15.9,4.18,20.94,11.64a9.83,9.83,0,0,1,1.51,8.76c-2,7.44-3.81,15-5.56,22.49-1.52,6.49.76,10.9,6,12.08,4.87,1.08,8.77-2,10.36-8.3q3.44-13.63,6.73-27.32a12.34,12.34,0,0,0-.33-7.59c-2.88-7.32-6.74-14.09-13.19-18.7-3.59-2.57-4.55-5.64-5.1-9.65-3-22.12-12.09-41-29.86-55.24H418c-3.82,1-6.13,3.58-7.91,7-7.64,14.78-13.73,30.1-16.34,46.63-.52,3.26-1.36,6-5,7.14-6.84,2.19-13.33,5.28-19.9,8.16a7.54,7.54,0,0,1-6.86-.05,161.48,161.48,0,0,0-19.39-7.91,7,7,0,0,1-5.19-6.31c-2.44-17.15-8.79-32.95-16.87-48.15-1.75-3.28-4.09-5.55-7.65-6.53h-5.54A78.13,78.13,0,0,0,279,152.31c-1.6,8.5-3.91,15.38-10.74,21.56-8.18,7.41-11,16.88-7.69,29,10.95,40.2,20.12,80.81,17.31,123-.18,2.59-.22,5-1.6,7.41-36,62.08-76,121.38-122.26,176.35q-18.18,21.58-38,41.71c-6.59,6.68-6.21,10.81,1.34,16.7,1.16.9,2.35,1.77,3.54,2.64a401.93,401.93,0,0,0,46.36,28.84c1.48.79,4.2.94,2.78,4.16-2.23,5,.38,8.39,4.43,11.1a306.92,306.92,0,0,0,39,21.66c6.26,3,10.95,1.92,13.36-2.86,2.49-4.94.28-9.08-6.31-12.47-9.16-4.7-18.19-9.64-27.34-14.34-2.93-1.5-2.82-2.72-.93-5.26,48.07-64.93,85.75-135.81,119.26-209,3-6.62,1.73-11.38-3.44-13.57-5-2.11-9,.09-11.88,6.57Q275.76,430.95,252,474.87C231.66,512.44,209.7,549,184.69,583.71c-2.36,3.27-4.07,4-7.79,1.93C163.26,578,149.84,570,136.79,561.36c-3.92-2.59-3.33-4-.5-6.77,5.23-5.2,10.15-10.71,15.05-16.22C204.05,479.09,248.63,414,288.47,345.58c2-3.44,4-4.81,8.13-4.79q68.59.24,137.18,0c4.36,0,6.74,1.21,9,5.13C486.65,420.84,535.66,492,595.45,555.28c2.38,2.53,2.44,3.64-.56,5.67-13.14,8.85-26.71,16.95-40.55,24.63-3.48,1.94-5.34,1.8-7.85-1.69C512,536,483.08,484.75,456.86,432c-7.69-15.47-14.83-31.2-22.2-46.82-3-6.28-7.14-8.45-12.05-6.16s-6,6.88-3.26,13.25c.08.17.19.32.26.49,33.43,73.08,71,143.78,119,208.54,2.51,3.39,1.21,4.21-1.57,5.84a334.14,334.14,0,0,1-52.27,24.73c-52.32,19.53-106.1,27-161.71,19.5a363,363,0,0,1-68-16.23c-6.23-2.11-10.47-.3-12.27,4.79-1.72,4.89.84,9.09,6.92,11.19,33.28,11.44,67.46,18.37,102.64,19.73,48.87,1.89,96-6.62,141.6-24.26a330.13,330.13,0,0,0,61.91-31.26c3.57-2.33,7.17-5.27,5.64-9.71s.75-5.27,3.58-6.8a364.6,364.6,0,0,0,49.34-31.35C621,562.4,621.26,557.82,615.51,551.8ZM412.59,156.52a129.06,129.06,0,0,1,10.2-29c7.51,9.64,11.54,20.2,13.66,32.5a65.52,65.52,0,0,0-20.79.07C412,160.65,412,159,412.59,156.52Zm-104.4-29A113.89,113.89,0,0,1,318.65,158c.56,3-1.41,2.24-3,2.09-6.74-.65-13.47-1.24-21,0A71,71,0,0,1,308.19,127.52ZM435.12,323c-3.21,2.88-10.86.92-16.54.93-39.41,0-78.81-.08-118.21.14-4.75,0-6.07-1.31-5.56-5.79.61-5.41-2.25-12.7,1.16-15.79,3-2.7,10.13-.88,15.44-.89,18.22-.05,36.45,0,54.68,0,21.91,0,43.83.1,65.74-.09,3.72,0,4.84,1.06,4.51,4.62C435.81,311.91,438.8,319.71,435.12,323Z" fill="#6e90e8" class="color000 svgShape"></path><path fill="#6e90e8" d="M571.06,667.64c.84.16.64.76.55,1.31-.17.32-.36.32-.55,0Z" class="colora3a3a3 svgShape"></path><path fill="#6e90e8" d="M571.06,669a2.53,2.53,0,0,1,.55,0v1.32c-.17.31-.35.34-.55,0Z" class="color898989 svgShape"></path><path fill="#6e90e8" d="M571.06,670.29l.55,0c.12.58.17,1.12-.55,1.35Z" class="color6f6f6f svgShape"></path><path d="M901.07,664.5c-6.93-12.22-16.74-19.7-30.79-21.51-4.38-.57-7.39.42-9.81,4.63-8.62,15-17.65,29.66-26.54,44.45-6.87,11.44-13.7,22.91-20.7,34.46a5.83,5.83,0,0,1-.3-3.09c0-15.48-.18-31,0-46.45a117.94,117.94,0,0,0-13.83-56.78A120.75,120.75,0,0,0,758,575.06c-24.68-16.38-52.09-21.85-81.07-18.69-32,3.49-58.25,18.6-78.9,43.18A119.4,119.4,0,0,0,573.38,649c-1.22,5.08-1.24,10.27-2.32,15.32v3.32c.43.39.32.92.34,1.42v1.14c0,.5.09,1-.34,1.42V817c.81,2.12.68,4.47,2.15,6.49,4,5.49,9.46,7.71,16,7.71h78.28a9.77,9.77,0,0,0,2.64-.12,145.93,145.93,0,0,1-16.68,7.13c-6,2.2-12.27,3.72-18.47,5.36-10.59,2.78-18.63,14.56-14.32,26.85,1.75,5,5,8.82,8.77,12.26,8.1,7.41,17.4,12.36,28.53,13.31H760.9c2.86-.75,5.89-.36,8.73-1.42a40.48,40.48,0,0,0,19.78-16A186.41,186.41,0,0,0,810,837.86c6.56-18.44,15.91-35.44,25.74-52.23a9.32,9.32,0,0,1,1.36-1.87c2.53-2.59,5.92-1.75,6.89,1.73a17,17,0,0,1,.28,4.62q0,50.22,0,100.44c0,1.84-.44,3.79.91,5.42h32.52c1.16-1.3.89-2.91.89-4.43,0-9.85.18-19.7,0-29.54s.45-19.45.91-29.15a206.85,206.85,0,0,1,6.11-39.6,226.92,226.92,0,0,1,14.32-41.31c5.69-12.25,10.86-24.53,11.32-38.5C911.81,696.18,909.76,679.81,901.07,664.5Zm-318.65,4.79A106.31,106.31,0,0,1,607.23,607c16.74-20.16,38.16-32.79,63.93-37.89A118.68,118.68,0,0,1,691.69,567c44.41,2,77.73,21.91,98.39,61.82,7.38,14.25,10.56,29.63,11.19,45.6.09,2-.61,2.34-2.39,2.37-8.44.17-8.2.19-9-8.12-2.25-24.85-12.28-46.1-30.38-63.32-17.28-16.44-37.92-25.61-61.78-27-30.06-1.7-55.82,8.34-76.84,29.79-17.66,18-26.74,40-27.77,65.17-.11,2.61-.61,3.57-3.48,3.49C582.14,676.64,581.92,676.78,582.42,669.29Zm194.3,7.54c-11.83-.11-23.66-.05-35.49-.05H691.48c-28,0-55.94,0-83.91.08-3,0-3.58-.73-3.47-3.66a87.61,87.61,0,0,1,70-82.38c48-9.87,94.93,22,103.74,70,.8,4.35,1,8.77,1.45,13.16C779.53,676.19,779,676.85,776.72,676.83ZM585.15,687.57q53.42.12,106.82.06c35.27,0,70.55,0,105.82-.07,2.92,0,3.67.66,3.62,3.6-.2,11.16-.15,22.33,0,33.5,0,2.08-.72,2.82-2.58,3.28q-35.8,8.89-71.58,17.89c-2,.51-2.87.29-2.81-2.17.18-6.74,0-13.49.1-20.24,0-1.95-.19-2.87-2.59-2.85q-30.34.16-60.71,0c-2.06,0-2.59.55-2.55,2.59.13,6.85,0,13.71.09,20.56,0,1.95-.18,2.75-2.45,2.18q-35.92-9.07-71.89-18c-1.79-.44-2.44-1.18-2.42-3.13.11-11.39.14-22.78,0-34.16C582,688.05,582.74,687.57,585.15,687.57Zm128.47,81.28c-.11,4.44-2.12,6.43-6.56,6.45q-15.39.08-30.8,0c-4.54,0-6.39-1.9-6.46-6.44-.06-4.3.09-8.61-.06-12.91-.06-2,.52-2.65,2.59-2.6,6.4.13,12.8,0,19.2,0s13,.08,19.54,0c2,0,2.69.52,2.62,2.59C713.53,760.24,713.72,764.55,713.62,768.85Zm-8.16-26.3c-10.93,0-21.87-.07-32.81.06-2.33,0-2.94-.64-2.92-2.94,0-8.2,0-8.2,8.21-8.2h13.59c6.52,0,13,.08,19.56-.05,2,0,2.58.57,2.6,2.6C713.78,742.55,713.85,742.55,705.46,742.55ZM590.35,819.17c-7,0-8.3-1.35-8.3-8.34,0-23,.05-46-.06-69,0-2.76.57-3.22,3.27-2.53q35.43,9.06,70.94,17.77c2.07.51,2.67,1.28,2.56,3.3-.15,3.08-.11,6.19,0,9.28.31,9.6,7,16.51,16.61,16.7q16.25.33,32.52,0c9.81-.19,16.39-7.12,16.6-17,0-.67,0-1.33,0-2,.21-3.17-1.33-7.15.61-9.28,1.76-1.92,5.65-2,8.63-2.7,22.36-5.59,44.73-11.14,67.36-16.77a22.61,22.61,0,0,1-3.36,15.85c-9.63,15.82-20.21,30.82-33.05,44.24-14.73,15.41-35.3,19.35-54.5,9.87-2-1-3.36-1.05-5.19.51-4,3.45-7.88,7.78-12.63,9.49s-10.23.57-15.41.57Q633.65,819.19,590.35,819.17Zm253.2-51.57c-.92,1.45-1.76,2.34-3.8,2.42-6.66.26-11,4-14.42,9.62a352.87,352.87,0,0,0-29.88,62.58,14.43,14.43,0,0,1-7.12,8,140.47,140.47,0,0,1-70,18.36c-14.94,0-29.87.08-44.8,0-2.84,0-4,.44-3.85,3.65.27,7.24.08,7.26,7.48,7.25,14.82,0,29.65,0,44.47-.06a143.14,143.14,0,0,0,59-13.1c.76-.34,1.47-1,2.82-.62-2.11,3.4-3.91,6.84-6.47,9.76C771.29,882,764,885,755.31,885q-44.64,0-89.27,0c-7,0-13.76-1.33-19.85-5.5,3.44,0,6.89-.09,10.33,0,1.7.06,2.21-.39,2.26-2.17.22-8.71.28-8.71-8.31-8.71-5.08,0-10.18-.14-15.26.06-2.16.09-3-.89-3.48-2.64a8.69,8.69,0,0,1,5.64-10.59c4.27-1.46,8.7-2.45,13-3.75A162.87,162.87,0,0,0,706.5,822a4.81,4.81,0,0,1,5.29-.9c22.53,7.58,42.49,3.05,59.44-13.56,12.86-12.59,23.47-27,32.72-42.41q32.2-53.67,64.36-107.34c1.23-2.06,2.19-3,4.8-2.24a25.74,25.74,0,0,1,15.22,11,70.32,70.32,0,0,1,10,24,4.7,4.7,0,0,1-1.17,4.71,505.36,505.36,0,0,0-40.87,52.58C851.91,754.33,847.76,761,843.55,767.6ZM891.85,741A246.38,246.38,0,0,0,867.07,850.8c.07,10.51-.06,21,.07,31.53,0,2.24-.67,2.7-2.78,2.7-8.31,0-8.31.06-8.31-8.17q0-44.31,0-88.61c0-4.4-.39-8.64-3.43-12.11-1.18-1.35-.12-2.19.47-3.15a496.76,496.76,0,0,1,43-59.63c1-1.24,2.08-2.49,3.64-4.36C899.71,720.88,896.62,731.15,891.85,741Z" fill="#6e90e8" class="color000 svgShape"></path></svg></g></svg>