<svg id="SvgjsSvg1031" width="288" height="288" xmlns="http://www.w3.org/2000/svg" version="1.1" xmlns:xlink="http://www.w3.org/1999/xlink" xmlns:svgjs="http://svgjs.com/svgjs"><defs id="SvgjsDefs1032"></defs><g id="SvgjsG1033"><svg xmlns="http://www.w3.org/2000/svg" data-name="Layer 1" viewBox="0 0 1000 1000" width="288" height="288"><path d="M896.69,695.82c-4.33-17.2-13.78-24.14-30.92-20.87-18.21,3.48-36.48,6.71-55,10.09.23-.81.21-1.18.38-1.29q10.92-7.44,21.88-14.85c10.35-7.06,15.57-15.75,12.07-24.61-5.2-13.18-9-28.2-25.74-32.56a4.48,4.48,0,0,0-1.54-.17c-4.84.55-5.3-1.74-4.64-5.95a306.75,306.75,0,0,0,3.76-45c.06-6.93-1.6-13.22-7.38-17.09-3.77-2.52-3.47-4.61-2.25-8.14a89.27,89.27,0,0,0,.18-58.82c-2.25-6.78-6.38-10.9-13.1-13.08-9-2.91-18-5-27.48-4.71-4.18.13-6.25-.5-6.9-5.57-4.15-32.43-34.66-57.3-68.24-52.37-4.63.68-5-1.14-4.78-5,.39-6.74,1.1-13.64.09-20.23-5-32.38-6.68-35.41-38.79-40-22.05-3.15-42.68,2.26-61.77,13.62-3.47-7-6.58-13.84-10.18-20.41A96.9,96.9,0,0,0,562.64,310c-12.2-13.32-23-13.69-35.74-.95q-24.56,24.52-49,49.18c-2.67,2.71-4.3,3.91-8.17,1.17-24.14-17.06-50.52-16-73.89,2.49-1.73,1.37-3.07,3.42-6,2.14-13.22-5.73-26.89-6.3-41.18-2.2,0-15,.21-29,0-43-.47-25.57-15.54-45.56-39-53.48-5-1.69-12.45,1.15-14.69-4.4-2-4.93-.5-11.27-.54-17,0-.52.05-1,0-1.55-.38-3,.83-4.54,3.82-5.66,8.55-3.22,12.35-10.25,12.5-18.85.32-18.46.43-36.93-.09-55.37-.3-10.7-8-18.81-18.06-18.91q-49.12-.49-98.25,0c-9.52.11-17.2,8.14-17.37,17.69-.36,19.49-.14,39,0,58.48,0,6.13,2.43,12.23,7.83,14.29,8.67,3.3,8.64,9.35,8,16.45a32.85,32.85,0,0,0,0,7c.58,4.39-1.3,6.12-5.55,6.16-6.37.07-12.27,2.21-17.79,5.09-21.88,11.42-31,30.25-31,54.24q0,164.57.12,329.12c0,5.38-1.47,9.14-5.31,12.9a102.86,102.86,0,0,0-24.58,37.46c-3,8.08-5.34,16.45-8,24.69v29.64a8.17,8.17,0,0,1,1.42,2.47c5.38,32.56,22.5,57.61,49.2,76.35,24,16.85,51,23.17,80.11,23.12q228.51-.33,457-.25c3.63,0,7.28-.1,10.9-.39,27.5-2.21,49.67-26.81,48.22-54.32-.37-7.05,2.07-6.77,7.36-5.79,28.06,5.2,56.14,10.34,84.29,15,15.38,2.56,25.1-4.84,27.66-20,.69-4.1,1.26-8.21,1.87-12.32,2.19-14.81-4.32-24.64-18.91-28.25-7.3-1.81-14.67-3.31-22-5-1.81-.41-4.15,0-4.82-2.6,15.15-2.79,30.12-6.18,45.27-8.18C894.19,733.31,903.86,724.29,896.69,695.82Zm-116.08-212c3.31.76,5.51,1.82,6.33,5.62,3.31,15.43,2.41,30.32-4.47,44.73-1.48,3.11-2.88,4.94-6.78,4.78-8.28-.34-16.58-.1-24.87-.1-.53-.8-1.05-1.6-1.57-2.4,3.18-2.58,6.75-4.81,9.45-7.82,4.68-5.21,4.42-11.61,0-16.09s-11.12-5.24-16-.18c-5.52,5.7-7.38,3.69-9.19-2.44a22.55,22.55,0,0,0-3.37-6.07c-5.93-8.53-6-8.67,3.07-13.57A66.24,66.24,0,0,1,780.61,483.83Zm-73.38-59.54c15.31,3.27,27.63,16.2,29.77,31.21.66,4.63.54,8-5.33,9.86-8.94,2.78-16.81,8-23.83,14.26-4.62,4.11-7.55,3.63-9.54-2.45-6.06-18.54-12.27-25.84-30.45-36.23A36.42,36.42,0,0,1,707.23,424.29Zm-137.5-19.81c14.07-34.24,49.66-52.68,84.57-44.22,4.76,1.15,7.08,3,8,7.77,1,5.38,2,10.69,1.85,16.22-.34,14.71-2.27,28.76-13.52,40-5.33,5.33-15.11,12.77-22.37,15.58a130.49,130.49,0,0,0-11.88,5.68c-2.26,1.15-5,4.86-6.49.08-1.3-4.18-10.48-6.4-3.21-13,7.47-6.82,14.44-14.19,21.47-21.48,5.89-6.1,6.3-12.95,1.4-17.86s-11.8-4.44-17.85,1.44c-7.45,7.24-15,14.43-21.94,22.11-4,4.42-7.44,5.53-13.29,3.18C565.21,415.45,565,415.92,569.73,404.48ZM546.61,535.75c.21,1.22.71,2.88-1.19,2.93-2.76.08-5.64,1-8.27-.83-10.78-7.56-10.76-7.5-20.59-.2-3.22,2.4-7.22,1.67-10.51.87s-.36-4-.52-6c-.68-9-10-14-17.64-9.31a17.84,17.84,0,0,0-5.26,4.57c-6.76,9.64-15.79,12.69-27.35,11.37-4.9-.56-7.9-1.41-10.28-6.08a101.36,101.36,0,0,1-10.85-34.61c-.63-5.41.4-6.89,6.08-6.82,28.59.31,57.18.14,85.77.14,28.85,0,57.71.12,86.56-.11,5.06,0,6.71,1.08,6.05,6.38a99,99,0,0,1-12.4,37.37c-1.5,2.62-3.21,3.84-6.15,3.5a12.53,12.53,0,0,0-3.12,0c-11.51,1.61-21.08-1-28.11-11.22-3.31-4.83-8.47-8.07-14.88-5.64C547.73,524.39,545.45,529.24,546.61,535.75Zm-25.26-67.42c3.38-15.54,17.59-27.31,33.44-28.15,16.83-.88,33.55,9.57,38.22,23.83.84,2.56,1.37,4.38-2.53,4.36C567.47,468.28,544.47,468.33,521.35,468.33Zm-29-91.6c17.28-17.2,34.61-34.36,52.19-51.81a93.34,93.34,0,0,1,20.52,35.81c1.11,3.5.06,6-1.59,9.26-6.63,13.12-16.2,18.29-31.08,15.76-8.45-1.43-13.67,4-13.86,11-.2,7.39,4.92,11.85,14,12.09,3.56.1,7.14,0,10.8,0-1.3,9-5.2,13-12.84,14.11-2.86.42-3.57-1.62-4.68-3.2a58.67,58.67,0,0,0-29.25-22C489.78,395.33,487.26,381.84,492.39,376.73Zm-160.48,48.1c-3.41-14.62,2-27.33,14.61-35.9,12.19-8.32,25.21-8.67,38.2-1.42,11.44,6.38,13.94,6,22.37-3.78,10-11.57,22.69-15.48,37.14-11.5,15,4.13,23.22,14.92,25.62,30.14,2,12.82,2.39,13.33,14.77,16.24,9.76,2.29,17.52,7.33,23,15.93,1.94,3.06,2.12,5.3-.23,8.28A45.6,45.6,0,0,0,498,463.11c-.82,4.65-3.21,5.37-7.42,5.32-19.22-.23-38.45-.05-57.67-.13-8,0-15.06,2.11-19.39,9.24-2.88,4.75-5.25,1.25-7.51,0C385.22,465.85,363.37,462.89,340,468c-13,2.8-21,9.21-22.95,22.59-.39,2.69-1.23,5.32-1.91,8.16-14.38-13.95-11.2-39.88,7.1-51C331.85,441.82,334.47,435.85,331.91,424.83Zm36.61,111.81a8.82,8.82,0,0,1,.39,2.22c-6,0-11.49-.65-16.81.15-8,1.19-11.12-2.53-12.46-9.59a89.75,89.75,0,0,1-.88-29.31c1-7.39,5-9.2,11-10.16,22.89-3.64,42.49,3,59,19,7.66,7.45,6.82,18.75,11.74,27.51.52.91,0,2.38-1.2,2.22-6.13-.79-12.93,2.91-18.36-2.91-4.43-4.73-9.11-9.23-13.74-13.77-6.71-6.58-13.23-7.71-18.45-3.27S363.39,528.67,368.52,536.64Zm-51.44.64c-.56,3.29-4.34,1.33-6.65,1.49-4.38.3-8.8.09-13.21.09-5.44,0-10.88-.15-16.32,0-3.63.13-4.64-1-3.44-4.52a41.67,41.67,0,0,1,6.82-12.95c7.53-9.31,8.57-9.3,17.26-1.46a65.49,65.49,0,0,0,11.24,8.2A8.39,8.39,0,0,1,317.08,537.28ZM205.16,166.61c12.72.26,25.46.09,38.19.09,12.47,0,25,.17,37.42-.09,4.72-.09,7,.65,6.78,6.26-.46,12.2-.31,24.43-.05,36.63.09,4.4-1.23,5.8-5.7,5.76q-38.21-.28-76.4,0c-3.94,0-5.51-.95-5.43-5.17q.36-19.1,0-38.2C199.9,167.87,201,166.53,205.16,166.61Zm11.14,78.86c-1-2.8-1.83-7.2,4.56-7,15,.4,30,.28,45.07,0,4.22-.07,5,1.33,5.14,5.28.44,19,.56,19-18.51,19h-9.33c-7.51,0-15.3,1.26-22.47-.3C210.35,260.21,218.32,251.15,216.3,245.47Zm-54.6,88.67c.73-7.21-.39-14.53,1-21.76a31,31,0,0,1,26-25.43c9.82-1.52,19.72-.65,29.57-.71q35.47-.19,70.94,0c23.45.08,36.06,12.76,36.09,36.16,0,6.21,2.12,14.11-.88,18.18-3.24,4.4-11.57,1.14-17.66,1.44-9.66.47-15,4.7-14.69,12.3.26,7.3,5.2,11.05,14.76,11.16,3.64,0,7.29-.16,10.91.07,2.45.16,6.28-1.48,7.07,1.13,1,3.44,1.88,7.77-1.15,11.09-12.25,13.44-17.47,29.17-15.54,47.24.29,2.67-.76,4.23-2.75,5.84-17.86,14.52-24.63,33.48-21.7,56,.45,3.45-.85,4.68-2.94,6.92-8.43,9-18.78,9.94-30.32,9.69-27-.57-54-.4-81.06,0-6.37.09-7.72-1.92-7.62-7.87.35-20.52.14-41.06.14-61.58,0-20.27.21-40.54-.14-60.81-.1-5.89,1.13-8,7.57-7.85,22.07.44,44.17.14,66.25.19,7,0,12.31-2.23,13.56-9.83,1.34-8.11-4-13.48-13.85-13.55-21.83-.15-43.66-.3-65.48.11C163.28,342.35,161,340.7,161.7,334.14ZM312,672.31c1.91,1.64,4.25,3,5.06,6.46-15.33-1.59-28.48-7.65-40.56-16.26-10.78-7.69-12.55-7.66-23.31,0-12.09,8.62-25.25,14.68-40.72,16.29,1.37-4.2,4.53-5.84,6.91-8.11,3.68-3.53,5.51-7.6,4.11-12.61s-5.28-7.52-10.15-8.54c-6.83-1.44-13.87-2.12-20.56-6,6.26-5.12,13.84-5.94,21-6.56,15.3-1.31,30.62-1.26,45,5.53,4.81,2.27,9.39.92,14.17-.87,18.59-7,37.51-6.89,56.54-1.85a37.06,37.06,0,0,1,5.11,1.84,11.22,11.22,0,0,1,2.13,1.69c-5.54,4-11.95,4.49-18,5.75-5.59,1.15-10.67,2.69-12.4,9S307.6,668.52,312,672.31ZM254.51,528.7c-.42,3.39,1.16,8.54-4.52,10.33-16.22,5.11-18.7,9.06-18.51,25.63.18,16.12,2.39,32,4.71,48.12-28.12,1-57.23-1.23-72.32,30.07-2.88-2.44-2.06-4.36-2.06-6-.06-34.31.1-68.63-.19-102.94-.05-5.81,1.37-7.47,7.28-7.4,26.51.33,53,.09,79.54.25C250.55,526.78,255,524.87,254.51,528.7ZM293.62,832a26.51,26.51,0,0,1,1.09,3.76c-32.91-2.21-65.29,3.53-97.06-4.08-48.25-11.56-80-56.54-72.31-102.32,5-29.95,22.35-51.26,48.36-66,6.17-3.5,9.71,2.89,14.44,4.54,3.92,1.37,0,4.47-.58,6.47-3.73,12.54,1.84,22.92,14.52,26.45,11,3.08,21.6.39,32.08-2.77a95.39,95.39,0,0,0,26-12.1c3.61-2.43,6.09-2.2,9.67.07a103.17,103.17,0,0,0,41.86,15.71c6.54.87,13,.62,19.13-1.9,10.81-4.44,15.45-14.7,10.91-26.23-1.88-4.76,0-5.23,3.18-7.71,6.89-5.33,12.08-2.67,17.92,1.25,17.77,11.93,30.85,27.47,38.25,47.74,1.81,5,1.54,7.32-4.24,9.41-24.34,8.79-48.24,18.83-72.67,27.32C289.23,763.72,276.23,801.33,293.62,832ZM514.19,692.07c2.4,6.55,9.07,8.65,17.71,5.65,4.62-1.61,10.38-5.53,13.61-4,3.5,1.62,2.47,8.81,3.5,13.55.94,4.31,1.53,8.7,2.53,13,1.67,7.22,7,11.16,13.35,10.18,6.6-1,10.86-7.1,9.64-14.48-1.52-9.21-3.2-18.41-5.3-27.51-.84-3.66.23-5,3.44-6.26,28.85-10.86,57.53-22.18,86.51-32.65,19-6.84,36.8,2.58,40.69,22q13,64.86,24.22,130.07c2.95,17-10.73,32.27-28.1,33.38-14.23.91-14.18.9-16.55-12.72q-2.27-13-4.78-26c-1.71-8.72-7.19-12.94-14.56-11.39-6.6,1.39-10,7.55-8.48,16q2.61,14.55,5.65,29c.81,3.9.13,5.57-4.43,5.41-10.12-.33-20.27-.21-30.41,0-3.47,0-5-.9-5.56-4.63-1-7.19-2.41-14.33-4-21.41-1.81-8.11-6.94-12.25-13.33-11.24-6.89,1.09-10.64,7-9.45,15.27.78,5.39,1.74,10.77,3,16.07.93,4,.83,6.08-4.4,6-27.81-.23-55.63-.19-83.44,0-4,0-5.18-1.36-5.78-5.14-1.58-10-3.67-19.9-5.61-29.83-1.77-9-6.82-13.42-13.94-12.22-7.34,1.24-10.73,7.68-9,17,1.59,8.42,2.9,16.89,4.81,25.23.86,3.77.41,5.05-3.73,5-44.45-.13-88.9.11-133.35-.26-14.78-.13-25.92-10.49-28.75-24.92-2.93-14.89,3.72-28.6,17.65-34.47s28.54-10.94,42.73-16.59c4-1.57,4.82-.25,5.26,3.43a97.21,97.21,0,0,0,2.77,13.72c1.84,6.76,7.11,10.07,13.43,8.89,6.09-1.14,10.11-6.61,9.27-13.28A98.08,98.08,0,0,0,397.9,755c-1.58-5.12.44-6.65,4.78-8.25,19.92-7.36,39.75-15,59.57-22.62,8.48-3.26,11.57-8.28,9.7-15.18-1.75-6.48-8.33-9.88-15.51-7.42-9.06,3.1-18,6.54-26.89,10.15-3.37,1.37-4.83,1-6.06-2.66-9.95-29.72-29.36-51.45-56.64-66.47-1.73-1-3.68-1.66-4.44-4-3.83-12-13.74-17-24.57-20.62-17.37-5.79-35.19-6.17-53.1-3.3-5.13.82-8.38,1.5-8.39-6,0-8.29-6.19-12.57-14.44-10.77-4.15.91-4.82-.28-5-3.7-.57-8.81-1.09-17.63-2-26.41-.48-4.65,1.33-6.07,5.63-5.54a38.44,38.44,0,0,0,4.68,0H627.81c2.6,0,5.2,0,7.79-.11,6.59-.39,10.82-3.7,11.36-10.44s-2.71-10.85-9.33-12.24c-2-.42-4-.8-6.3-1.25,6.32-14.43,10.44-29,10.86-44.56.39-14.35-2.83-19.82-15.64-25.16,6.19-7.11,17.28-10.25,27.18-7.38,12.3,3.56,20.95,11.57,22.25,24.3,1.14,11.22,5.72,16.37,16.73,18.56,13.9,2.76,22.68,15,23,28.7.08,4.27-.54,7-5.84,6.27a28.7,28.7,0,0,0-8.51.43c-6.58,1.12-10.18,5.18-9.84,11.87s4.26,10.47,10.95,10.82c6,.31,12,.18,17.92.19,22.1,0,44.2.17,66.29-.12,5.32-.06,7.08,1.1,6.86,6.79a296.29,296.29,0,0,1-6.87,51.65c-.61,2.82-1.67,5.08-4.53,6.73q-27.95,16.17-55.63,32.78c-2.93,1.74-4.73,2.46-6.16-1.67-8.94-25.8-39.27-42.24-70.45-30.5q-63.27,23.82-126.39,48C514.85,679.21,511.64,685.11,514.19,692.07Zm245.56,63.81q25.74,6,51.5,11.9c9.85,2.26,19.68,4.66,29.58,6.65,8.68,1.75,3.18,7.65,3.44,11.59.34,5.08-3.72,3.84-6.65,3.32-29.61-5.31-59.18-10.78-88.81-16-4.81-.84-6.58-2.72-7.43-7.74-4.11-24-8.74-47.95-13.44-71.86-1-5,.14-7.78,4.84-10.49,25.61-14.72,51-29.9,76.41-44.9,2.86-1.68,6-5.2,8.11.94,1.44,4.18,7.43,7.46-.34,12.39-22.1,14-43.66,28.93-65.44,43.48-3.25,2.17-6.59,4.28-7.94,8.23-2.64,7.77,3.09,15.53,11.91,15.53,16.86-3,34.22-6.13,51.56-9.3,20.15-3.68,40.32-7.27,60.4-11.27,4.23-.84,6.72-.51,6.65,4.13-.05,3.67,4.67,8.63-3.86,10.1-35.26,6.08-70.41,12.77-105.6,19.24-1.53.28-3.07.52-4.59.86-5.95,1.34-10,4.85-10.24,11.07C749.55,750.38,753.42,754.4,759.75,755.88Z" fill="#007CAA" class="color000 svgShape"></path></svg></g></svg>
