<svg id="SvgjsSvg1207" width="288" height="288" xmlns="http://www.w3.org/2000/svg" version="1.1" xmlns:xlink="http://www.w3.org/1999/xlink" xmlns:svgjs="http://svgjs.com/svgjs"><defs id="SvgjsDefs1208"></defs><g id="SvgjsG1209"><svg xmlns="http://www.w3.org/2000/svg" data-name="Layer 1" viewBox="0 0 1000 1000" width="288" height="288"><path d="M573.75 474.08C569 408 566.27 341.79 562.3 275.65c-1-16.28-9.41-28.41-24.33-35.36-14.66-6.84-28.72-4.91-42.06 4-1.52 1-2.38 3.54-6.36 2.18 0-10.52.42-21.44-.09-32.32a41.25 41.25 0 00-28.38-37.26 41.85 41.85 0 00-45.16 12.85c-1.36 1.58-2.75 3.13-4.62 5.26-.45-6.21-.65-11.41-1.21-16.56-2.48-22.83-20.58-38.41-43.65-37.68-21.46.67-38.72 18.22-39.58 40.32-.17 4.25 0 8.52 0 13.41-1.77-.92-2.33-1-2.61-1.38-13.3-16.26-29.88-22-47.39-16.3s-28.32 21.33-29.24 41.75c-3.75 83.59-7.68 167.16-11.3 250.76-.8 18.61-5.86 36.27-9.79 55.49-2-2.87-3.23-4.51-4.36-6.21C209 499 196 479.23 182.62 459.78c-10.62-15.44-25.7-22.72-44.27-20.33C118.82 442 106 453.51 99.59 472.17c-.48 1.4-.06 3.2-1.83 4V494.9c2.2 4.86 4.26 9.79 6.62 14.57 14.22 28.8 28.76 57.45 42.73 86.38 17.69 36.6 37.65 72.15 53 109.84 10.48 25.76 26.62 46.14 50.53 60.18 3.73 2.19 4.84 4.4 4.79 8.47-.21 16.37-.14 32.74-.08 49.12.09 21.55 13.49 35 35 35q102.91.06 205.82 0c21.51 0 35-13.48 35.07-35q.1-21.83 0-43.66c0-3 .45-5 3.58-6.72 29.82-16.22 43.33-41.79 43.09-75.39C577.37 623.15 579.08 548.59 573.75 474.08zm-19.3 225.83c-.1 35.26-23.4 58.42-58.73 58.43q-62 0-124 0c-4.19 0-8.32-.07-11.61 3.24-3.71 3.73-4.69 8.1-2.73 12.84 2.26 5.45 6.82 7.36 12.55 7.35 28.06-.09 56.13-.06 84.2-.12 15.85 0 31.7-.06 47.55-.39 4.42-.09 6.46.56 6.28 5.78-.42 12.2 0 24.42-.17 36.64-.08 8.14-3.21 11.44-11.28 11.45q-103.29.09-206.6.06c-6.4 0-10.95-2.54-11.09-9.23-.33-15.81-.11-31.62-.11-47.82 10.8 1.8 21 3.9 31.44 3.62 9-.23 14.19-4.51 14.08-12-.1-7.18-4.95-11.23-13.7-11.45-42.76-1.07-72.93-22.66-89.13-62.07-17.14-41.72-39.25-81.11-58.77-121.72-12.46-25.91-25.6-51.49-38.19-77.33-7.47-15.36-.73-30.51 14.82-34.24 9.58-2.31 18.46 1.59 25.12 11.48q28 41.65 55.84 83.45c2.51 3.77 5.12 7.24 9.86 8.21 6.34 1.3 12.07-3 13.88-10.62 9.91-41.72 16.58-83.73 17.77-126.86 2-70.11 6-140.17 9.28-210.25.58-12.38 8.39-20.32 19.25-20.06s17.61 8.17 18 21q2.88 87.26 5.87 174.52c.47 13.37 11.79 20.62 22.14 14.42 5.73-3.43 7.44-8.93 7.61-15.27q1.6-58.05 3.33-116.11 1.39-46.75 2.91-93.5c.39-11.7 7.47-19.17 18-19.34s18.3 6.82 18.83 18.57c1.58 35.31 2.69 70.63 3.95 106 1.23 34.27 2.37 68.56 3.68 102.83.53 13.84 5.6 20.52 15.05 20.55 9.67 0 14.77-7 15.15-21.24q2.35-86.1 4.65-172.22c.35-12.27 6.88-19.63 17.15-20.18 11.1-.58 19.07 6.61 19.59 18.44 1 22.07 1.65 44.15 2.32 66.22.82 27.28 1.45 54.56 2.29 81.83.37 12 8.11 19.43 17.78 17.39 7.4-1.56 11.71-7.07 11.89-16 .54-27.28.91-54.57 1.35-81.85 0-2.34-.08-4.69.16-7 1-10.22 8.77-17.63 18.37-17.73 9.87-.1 18 7.62 18.66 18.21 2.2 37.09 4.21 74.18 6.33 111.28 2.91 51.1 6.35 102.17 8.57 153.3 1.22 28.28.45 56.64.52 85Q554.54 663.66 554.45 699.91zM896.34 746.34c-.79-21.36-16.74-37.82-37.49-37.81-20.45 0-37 16.79-37.45 38-.13 5.71.28 11.48-.33 17.14-1.31 12.07-10.05 20.14-20.94 19.94-11.07-.2-19.89-8.49-20.15-20.61-.5-23.12-.15-46.26-.24-69.4 0-2.94.84-4.18 4-4.07 12.06.43 22.22-4.23 31.15-12 6.28-5.5 13.32-6.42 21-3.37 3.41 1.36 6.86 2.07 10.61.89 9.38-3 13.22-11.38 9.41-21.9-8.74-24.11-17.67-48.15-26.47-72.23-.88-2.42-2.54-5.29-1.93-7.4 4.13-14.34 1.28-28.93 1.9-43.38a18 18 0 013.6-10.62c17.46-23.59 27.5-50 27.76-79.45.4-46.27.26-92.53.3-138.8a18.62 18.62 0 00-.82-6.15c-1.85-5.15-5.56-8-11.22-7.83s-9.39 3-10.64 8.49a42.36 42.36 0 00-.64 9.3c0 42.1-.17 84.21 0 126.32.13 25.65-6.12 49.22-20.77 70.48-2.77 4-5.79 5.95-10.82 5.93q-63.94-.24-127.88 0c-4.69 0-7.58-1.73-10.22-5.53C653.67 481.5 647 458.48 647 433.4q-.06-56.53 0-113.07c0-39.51-.06-79 0-118.52 0-23.17 14.23-37.68 37.2-37.78q58.09-.24 116.19 0c23.17.08 37.07 14.17 37.34 37.52.14 12.74-.08 25.48.07 38.21.1 9 4.74 14.6 11.67 14.63s11.55-5.48 11.63-14.53c.12-13 .21-26 0-39-.59-36.2-25-60.14-61.24-60.18q-57.32-.06-114.63 0c-36.9 0-61.58 24.58-61.62 61.5q-.11 115.41 0 230.81c0 31.61 8.83 60.39 27.81 85.79 2.86 3.82 3.73 7.58 3.75 12.18.06 12.2-1.43 24.53.82 36.55a25.72 25.72 0 01-1.1 14.78C646 605.81 637.52 629.46 628.8 653c-2.46 6.64-2.39 12.79 2.89 18 4.95 4.88 10.83 5.75 17.24 3.11 8-3.3 15.17-1.87 21.64 3.8 8.06 7.06 17.32 11.77 28.18 11.45 5.55-.16 6.23 1.9 6.18 6.6-.21 21.31-.1 42.63-.09 63.94 0 24.21 7 46 22.77 64.65 2.19 2.59 4.38 5.16 8 5.74 5.07.81 9.37-.47 12.18-4.93 3.4-5.38 2.19-10.5-1.72-15C732.88 795 728 777 728.16 757c.26-24.18.05-48.35.08-72.52 0-8 5-12.08 14.41-12 9.22.08 13.69 3.87 13.73 11.76 0 10.39-.13 20.79 0 31.19.29 17.66-1.33 35.39.81 53 2.89 23.69 22.85 39.73 46.81 38.45 22.19-1.19 40.14-20.34 40.69-43.49.14-6.23-.28-12.5.23-18.7A13.86 13.86 0 01859.15 732c7 .17 13.24 5.38 13.5 12.58.44 12.16 1.08 24.4-2.12 36.41-10 37.52-45.77 59.91-84.34 52.73-10.07-1.88-16.19 1.36-17.44 9.21-1.11 7 3.84 12.32 13.46 13.87 40.53 6.56 73.07-6.81 97.21-39.91C894.77 795.81 897.27 771.51 896.34 746.34zM679.7 532.41c4.2-4.44 13.25-1.35 20.16-1.38 33-.15 66 .05 99-.19 5.48 0 8.1.81 7.46 7-.71 6.94 2.12 16.09-1.37 20.37-3.68 4.5-13.16 1.29-20.09 1.4-14.29.22-28.58.07-42.87.07-18.71 0-37.42-.2-56.12.12-5.51.09-8.24-.9-7.52-7.14C679.13 545.81 675.55 536.8 679.7 532.41zm49.7 118.53c-6.37 1.81-11.44 5.93-16.61 9.87-9.52 7.27-16.63 7.42-26 0-9-7.12-18.57-12.33-31.56-11.67 7.95-21.7 15.46-42.09 22.83-62.52 1.12-3.12 3.18-3.53 6-3.52q58.48.07 117 0c3 0 4.77.79 5.83 3.74 7.39 20.43 14.89 40.82 22.72 62.22-13.54-.65-23.66 5.42-33.36 13.15-7.88 6.3-15.61 5.67-24.7-1.86C759 649.89 745.1 646.47 729.4 650.94z" fill="#6e90e8" class="color000 svgShape"></path><path d="M400.33 627.48c0 10.13.08 20.26 0 30.39-.08 8.56-4.4 13.55-11.53 13.62S377 666.57 377 658.12q-.15-30.76 0-61.54c0-8.41 4.62-13.71 11.55-13.8s11.69 5.2 11.79 13.54C400.42 606.71 400.33 617.1 400.33 627.48zM338.35 658.56c-.11 7.09-2.88 11.41-9.13 12.63-6.06 1.18-11.39-.92-13-7-5.34-19.72-10.47-39.51-14.82-59.47-1.34-6.17 2.83-11.1 9.42-12.15 6.82-1.09 11.57 2.07 13.32 8.88 4.19 16.27 8.24 32.59 12.33 48.9C337.19 653.34 337.84 656.37 338.35 658.56zM466.26 592.11c7.6.28 13.16 6.8 11.66 14q-5.87 28.14-12.46 56.12c-1.64 7-7.52 10.38-14.14 9-6.21-1.32-10.13-7.27-8.63-14.32 3.93-18.49 8.12-36.92 12.34-55.35C456.43 595.45 460.75 592.6 466.26 592.11z" fill="#6e90e8" class="color000 svgShape"></path></svg></g></svg>