<svg id="SvgjsSvg1154" width="288" height="288" xmlns="http://www.w3.org/2000/svg" version="1.1" xmlns:xlink="http://www.w3.org/1999/xlink" xmlns:svgjs="http://svgjs.com/svgjs"><defs id="SvgjsDefs1155"></defs><g id="SvgjsG1156"><svg xmlns="http://www.w3.org/2000/svg" data-name="Layer 1" viewBox="0 0 1000 1000" width="288" height="288"><path d="M587.41,623.26a57,57,0,0,0-2.87-19c-7.95-22.75-27.54-36.43-53-36.75-10.65-.14-21.29,0-31.93-.07-1.06,0-2.74.84-3.06-1.15-.56-3.56,2.7-7.36,6.47-7.65,11.17-.87,19.28-8.36,20.6-19.44a83.43,83.43,0,0,0,.3-13c-.51-13.31-9.66-22.11-23-22.15-19.35-.06-38.7,0-58.05,0-8.54,0-12,3.43-12,12.06q-.09,19.83,0,39.67a25.51,25.51,0,0,0,1,8.1c1.18,3.39-.08,3.7-3,3.7q-61-.09-121.91,0c-2.67,0-3.65-.44-3.21-3.45,2.45-16.73,4.65-33.5,7-50.24,1.57-11.07-5.32-19.39-16.45-19.57-6-.09-11.93,0-17.9,0-1.21,0-2.47.37-3-1.53-1.69-6.19.24-8.87,6.66-8.89,1.45,0,2.9,0,4.35-.08a33.22,33.22,0,0,0,30.12-24c2.18-7.41,1.91-15,1.11-22.55-.58-5.48-4.24-9.52-9.62-10.13-7.8-.88-15.81-1.34-23.51,1-3.47,1.06-7.33,4.73-9.88,3.87s-3.27-6.12-5.24-9.17c-5.14-8-13.05-11.93-21.87-14.44H218.54c-5.31,2.68-9.21,6.41-9.19,12.85,0,7.09-.26,14.21.31,21.26a32.62,32.62,0,0,0,31.8,29.87c4.67.14,9.35.19,14,0,2.69-.11,3.72.64,3.6,3.48-.21,5-.21,10,0,15,.13,2.87-1,3.55-3.62,3.47-5.32-.18-10.64-.11-16,0-11.22.14-18.36,8.25-16.89,19.28,2.19,16.44,4.3,32.9,6.89,49.28.64,4-.07,4.77-4,4.74q-32.16-.26-64.33-.05c-31.81.24-55.67,22.39-55.91,53.1q-.66,83.68,0,167.38c.24,28.39,23.71,51.17,52,51.93,7.72.2,15.45,0,23.55,0-2.57,13.56-5.07,26.66-7.54,39.77-2.53,13.47,7.27,25,20.54,23.92,10.34-.88,17.13-6.71,20.7-16.34,5.25-14.16,10.56-28.3,15.58-42.54,1.25-3.54,2.73-5.09,6.77-4.86,7.4.43,14.83.2,22.25.08,4.6-.07,7.58-2.88,7.72-6.92.14-4.25-2.89-7.25-7.68-7.53-1.12-.07-2.25,0-3.38,0q-46.92,0-93.85,0c-25.92,0-42.37-16.36-42.38-42.14,0-53,.4-106.11-.21-159.15-.26-22.54,16.54-42.37,42.13-42.32,123.2.23,246.4.06,369.59.13,25.22,0,41.71,16.7,41.73,41.9q.06,79.82,0,159.63a49.29,49.29,0,0,1-.74,10.1c-4.09,19.6-19.77,31.83-40.86,31.85q-116.58.06-233.17,0a28.79,28.79,0,0,0-4.83.09c-4,.69-6.34,3.09-6.48,7.21-.13,3.93,2.76,6.81,7,7.14,1.6.13,3.22.06,4.84.06,51.92,0,103.84.09,155.77-.13,4.92,0,7.27,1.28,8.31,6.05.76,3.42,2.38,6.64,3.62,9.95,4.2,11.3,8.12,22.71,12.71,33.84,4.46,10.83,16.53,16.38,27,13.1,10.23-3.21,15-12.59,12.72-24.77-2.17-11.54-4.14-23.13-6.51-34.64-.63-3.07.16-3.52,2.89-3.44,5.48.16,11,.08,16.45,0,32.61-.23,55.75-23.15,55.82-55.68C587.49,730.65,587.4,677,587.41,623.26ZM501.49,518.47c4.45.22,7.41,2.48,7.79,6.93a79.46,79.46,0,0,1,0,12.05,6.85,6.85,0,0,1-5.11,6.37c-4.64,1.46-5.91.5-5.92-4.39v-8.21c0-3.22.2-6.46-.06-9.66C497.93,518.79,499.14,518.36,501.49,518.47ZM255.86,458c-2.56-.2-5.15,0-7.72,0v0c-2.09,0-4.19.07-6.28,0-9.4-.37-16.83-7.06-17.73-16.46-.5-5.27-.16-10.61-.35-15.92-.09-2.24.9-2.67,2.87-2.63,4.34.11,8.69,0,13,.05,10.94.15,18.84,7.75,19.29,18.7.18,4.33-.09,8.69.09,13C259.18,457.13,258.46,458.15,255.86,458Zm-68.2,425c2.36-13.63,5.12-27.2,7.57-40.81.44-2.47,2-2.07,3.54-2.08,5.64,0,11.27,0,17.85,0-5.62,15.11-11,29.69-16.5,44.24a7.75,7.75,0,0,1-4.87,4.41C190.56,890.44,186.81,887.83,187.66,882.93Zm95.87-439.62a19.8,19.8,0,0,1,10.6-2.1c1.92,0,3.22.1,4.49,0,2.27-.23,3.14.56,3,2.95-.19,4.64.27,9.31-1.7,13.76-3.82,8.67-17.09,14.69-25.28,11.4a1.79,1.79,0,0,1-1.13-1.3C270.72,459.48,275.56,447.49,283.53,443.31Zm12.9,69.37c-2.29,15.75-4.31,31.54-6.47,47.31-.79,5.83-2.63,7.45-8.53,7.48q-14.73.07-29.45,0c-5.93,0-7.5-1.64-8.32-7.64-2.1-15.45-4.16-30.91-6.48-46.33-.54-3.66.27-4.9,4.08-4.8,8.53.22,17.06.07,25.59.07,8.69,0,17.39.06,26.08,0C295.81,508.71,296.9,509.46,296.43,512.68Zm187.28,27.08c0,5.63.08,11.26,0,16.89-.12,6.55-3.9,10.53-10.44,10.77-5.78.21-11.59.2-17.37,0-6.36-.24-10.27-3.92-10.41-10.32-.27-11.9,0-23.81-.16-35.71,0-2.46,1-2.92,3.15-2.9,10.78.07,21.56.09,32.33,0,2.31,0,3,.62,3,3C483.61,527.53,483.71,533.64,483.71,539.76Zm19,348.67c-3,1.75-5.6.61-8-1.22a6.37,6.37,0,0,1-2.15-2.56C487,870,481.56,855.24,475.9,840c6.55,0,12.48.11,18.4-.06,2.49-.07,2.76,1.22,3.13,3.17,2.36,12.81,4.87,25.6,7.3,38.4C505.22,884.14,505.5,886.79,502.73,888.43Z" fill="#007CAA" class="color000 svgShape"></path><path d="M545.41,660.37c-4.59-.07-7.39,3.4-7.42,9.33,0,7.74-.15,15.48.06,23.21.08,3-.78,3.76-3.77,3.75q-88.53-.13-177,0c-3,0-3.78-.88-3.77-3.81q.17-37.49,0-75c0-2.69.62-3.56,3.43-3.53,17.25.12,34.51.08,51.76,0,2.19,0,3.17.26,3.61,3,2,12.39,11.32,20.58,24,21,9.67.32,19.36.31,29,0,12.48-.39,22.21-8.66,24-20.43.45-3,1.36-3.6,4.11-3.57,11.45.14,22.9,0,34.35.08,7,0,10.14,3.32,10.24,10.5,0,3.71-.24,7.45.18,11.11.45,4,3,6.44,7.13,6.48,3.68,0,6.6-2,6.89-5.49.54-6.55,1.18-13.24-.53-19.71-2.92-11-11.86-17.4-24.24-17.41q-90.45,0-180.92,0-90.71,0-181.4,0c-15.37,0-25,9.71-25,25.08q0,79.1,0,158.18c0,14.63,10,24.62,24.59,24.63q181.65.06,363.29,0c14.6,0,24.51-10,24.54-24.69q.09-56.83,0-113.68C552.48,663.66,549.9,660.45,545.41,660.37Zm-116-46c7.06.14,14.13,0,21.19,0s14.14.14,21.2-.06c3.61-.11,3.75,1.21,2.34,3.89a10.1,10.1,0,0,1-9.4,5.63c-9.31.11-18.63.13-27.94,0a10,10,0,0,1-9.53-6.16C426.12,615.23,426.47,614.29,429.4,614.35Zm-202.06,0c7.22.19,14.45.06,21.67.06,6.91,0,13.81.12,20.71-.06,3.07-.08,3.13,1.06,2.1,3.34a9.93,9.93,0,0,1-9.52,6.16c-9.31.15-18.62.13-27.94,0a10.09,10.09,0,0,1-9.42-5.6C223.53,615.59,223.78,614.25,227.34,614.34Zm-72.79,11.78c0-8.79,2.85-11.7,11.44-11.71,13.22,0,26.43,0,39.64,0,2.31,0,3.68.12,4.17,3.08,2,12.46,11.22,20.48,24,20.89q14.49.45,29,0c12.54-.43,21.43-8.1,23.92-20.51.56-2.79,1.42-3.53,4.22-3.5q22.23.24,44.47,0c3.11,0,3.66,1,3.65,3.81q-.17,37.23,0,74.45c0,3.66-1.37,4.09-4.48,4.08-29.33-.11-58.66-.06-88-.06-29,0-58-.12-87,.12-4.44,0-5.19-1.27-5.16-5.34C154.65,669.63,154.53,647.87,154.55,626.12Zm117.24,88.32c-1.62,3.53-4.37,5.81-8.17,5.89-10.3.2-20.61.11-30.91,0a8.61,8.61,0,0,1-4.45-1.63c-2.28-1.57-4.73-3.84-3.8-6.65.67-2,3.69-.82,5.64-.86,6.11-.13,12.24,0,18.36,0,7.09,0,14.18.12,21.27-.06C272.88,711,272.81,712.23,271.79,714.44Zm62.64,78.94c-28.21-.15-56.43-.08-84.65-.08H166.59c-9.24,0-12-2.83-12.05-12.18,0-21.93.07-43.86-.08-65.78,0-3.26.62-4.36,4.14-4.31,15.63.21,31.27.11,46.91.07,2.2,0,3.75-.12,4.28,3,2.15,12.65,11,20.46,24,20.94,9.66.35,19.35.36,29,0,12.73-.48,21.44-8,24-20.46.57-2.81,1.46-3.52,4.25-3.49,14.67.15,29.35.2,44,0,3.59-.06,4.11,1.19,4.1,4.38q-.19,36.75,0,73.52C339.12,792.7,337.93,793.39,334.43,793.38Zm138.29-82.31c2.61,0,2.57,1.2,1.81,3a9.85,9.85,0,0,1-9.39,6.43c-9.51.15-19,.24-28.53,0-5.95-.16-9-3.34-9.82-9.37C442.13,711.11,457.43,711.14,472.72,711.07ZM537.92,784c0,6-3.82,9.26-10.52,9.28-20,.05-40,0-59.94,0H442.8c-28.2,0-56.4-.08-84.59.09-3.88,0-4.8-1.08-4.77-4.83q.24-36.49,0-73c0-3.5.66-4.61,4.42-4.55,16.75.23,33.51.14,50.27,0,2.59,0,3.7.32,4.2,3.42,1.94,12,11.32,20,23.9,20.5q14.49.56,29,0c13.09-.47,21.9-8.35,24.17-21.31.36-2.09,1-2.62,3-2.61,14.34.06,28.68.08,43,0,2.25,0,2.61.88,2.61,2.84C538,737.27,538,760.63,537.92,784Z" fill="#007CAA" class="color000 svgShape"></path><path fill="#007CAA" d="M799.63,446.08c-1.78,1.51-3.57,1.27-5.35,0Z" class="color191919 svgShape"></path><path d="M903.46,658.72c-.52-9-4.63-16.49-11.48-22.34a7.19,7.19,0,0,1-2.59-4.83c-3.76-23.43-7.62-46.84-11.44-70.26-1-5.89-3.69-8.75-7.93-8.2s-6.28,3.91-5.34,9.9c2.16,13.77,4.47,27.52,6.71,41.28,1.29,8,2.57,15.94,3.88,24.09-1.9-.27-3.23-.39-4.54-.64-49.11-9.43-98.64-12.13-148.52-9.44-7.41.4-14.81,1-22.2,1.68-4.43.39-7,3.3-6.71,7.27.28,3.78,3,6,7.35,6,1,0,2.09,0,3.12-.14A604.78,604.78,0,0,1,791,631.49a584.1,584.1,0,0,1,81.66,10.11c11.47,2.25,17.69,10,17.77,21.6q.06,9.59,0,19.16a20.67,20.67,0,0,1-6,14.86c-4.84,4.93-10.91,6.08-17.53,6.07q-111.84-.06-223.68,0c-1.49,0-3,0-4.45-.17-10.84-1-18.65-9.09-19-19.92q-.32-10.7,0-21.39a20.16,20.16,0,0,1,16.9-19.57c11.25-1.92,22.54-3.65,33.83-5.4,5.1-.79,7.93-3.57,7.49-7.6-.46-4.18-3.66-6.39-8.87-5.71-6.91.91-13.79,2.06-20.68,3.14-4.76.75-9.51,1.54-14.48,2.35,6.28-38.57,12.64-76.45,18.56-114.4,4.86-31.19,31-54.69,62.64-55.05,26.29-.3,52.59-.56,78.87.07,25.55.61,44.47,12.83,56.51,35.49,5.85,11,6.65,23.27,8.76,35.2,1,5.69,3.85,8.43,8.29,7.58,4.07-.77,5.85-4.31,4.94-9.87-.84-5.12-1.62-10.26-2.56-15.36-5.68-30.92-23.16-52-52.83-62.61-5.06-1.81-10.47-2.66-15.72-4h-1.78a6.81,6.81,0,0,1-5.35,0H706.94c-.19.7-.75.75-1.35.85C671.5,452.27,645.92,476.31,640,510c-7,39.57-13.08,79.3-19.51,119-.64,4-1.54,7.43-4.86,10.43-5,4.45-7.57,10.5-8.63,17.15-1.28,8-.58,16-.61,24-.07,21.41,13.66,35.48,35,35.87,3.12.06,3.68.86,3.22,3.79-2.61,16.55-5,33.14-7.55,49.71q-9,59.16-18,118.34a11.65,11.65,0,0,0,5.66,12.18,17.31,17.31,0,0,0,25.86-9.41c12.78-42.54,25.68-85,38.18-127.66A20,20,0,0,1,698.26,751a30.58,30.58,0,0,1,17.42-5c24.8.35,49.61.53,74.4-.05,9.66-.22,18,1.54,25.63,7.45,2.11,1.63,3.62,3.17,4.33,5.75,1.74,6.28,3.56,12.54,5.58,18.73a6.41,6.41,0,0,0,8,4.48c3.7-1.07,5.55-4.35,4.65-8.31-.24-1-.55-2-.85-3-5.07-16.87-10.06-33.76-15.3-50.58-1.09-3.52-.35-4.22,3.17-4.1,7.27.26,14.56.32,21.83,0,3.78-.18,4.62,1.36,5.1,4.69,3,20.69,6.18,41.36,9.32,62q7.75,51,15.44,102.07c.16,1.12,2,3.28-1,3.82-2.33.42-3.39-.57-4-2.81-2-7.27-4.25-14.49-6.42-21.72q-9.31-31.07-18.69-62.1c-1.42-4.7-4.72-6.66-8.62-5.4s-5.5,4.55-4.21,8.89q13.05,43.62,26.21,87.2c1.89,6.24,6,9.16,12.55,9.29,2.07.05,4.16.08,6.23,0a12.34,12.34,0,0,0,12-14.5q-2.07-14.08-4.2-28.17-10.51-69.06-21.15-138.11c-.64-4.12.41-5,4.48-5.15,18.56-.84,31.74-12.72,33.38-30.58A183.62,183.62,0,0,0,903.46,658.72ZM687.93,720.5q-18,59.49-35.83,119-7,23.18-13.89,46.35c-.48,1.61-.62,3.41-3.25,3.25-2.13-.12-2.58-.84-2.14-2.23,2.3-15.24,4.53-30,6.78-44.85q7.8-51.45,15.63-102.89c1-6.45,2-12.89,2.82-19.36.33-2.58,1.38-3.4,4-3.34,7.71.19,15.44.27,23.15,0C689,716.3,688.77,717.73,687.93,720.5Zm105.82,12.38c-27.74-.08-55.48,0-83.22-.06-4.47,0-8.85,0-13.48,3.52,2-6.46,3.61-11.66,5.06-16.92.55-2,1.26-3,3.55-2.95q49.4.1,98.79,0c2.28,0,3,.94,3.57,2.94,1.44,5.26,3.1,10.45,5,16.58C806.64,731.67,800.09,732.9,793.75,732.88Z" fill="#007CAA" class="color000 svgShape"></path><path fill="#007CAA" d="M819.45 174.69l-.18-1.08H899.4c-.08 1.95-.25 3.9-.25 5.84q0 91.07-.06 182.11c0 1.84.88 3.89-.73 5.55-2.55-2.88-1.72-6.42-1.72-9.71q-.09-85.42 0-170.85c0-10.13 0-10.13-10.32-10.13-19.57 0-39.14 0-58.71 0C824.78 176.38 821.81 176.88 819.45 174.69zM803.24 173.61c-1 5.21 1 10.63-1.08 15.76-2.23-2.35-1.64-5.34-1.71-8.11-.08-3.37-1.63-4.84-4.91-4.81-1.95 0-3.91 0-5.86 0q-76.51 0-153 0c-3.31 0-6.81.67-9.74-1.7l0-1.07z" class="color0f0f0f svgShape"></path><path d="M626.91,174.68c56.2,0,112.4.09,168.6-.14,5.52,0,7.37,1.49,6.65,6.84a57.58,57.58,0,0,0,0,8c-1.95.11-3.89.3-5.84.3q-74.22,0-148.45-.07c-4,0-5.35.7-5.33,5.1q.27,75.86,0,151.71c0,4.5,1.27,5.49,5.64,5.48q114.54-.21,229.08,0c4.63,0,5.93-1,5.91-5.8q-.3-75.6,0-151.18c0-4-.78-5.42-5.16-5.35-18.15.27-36.31,0-54.47.2-3.55,0-4.62-1-4.3-4.41s.18-7.11.24-10.67c24,0,48,.15,72.08-.13,5.25-.06,6.88,1.08,6.86,6.68-.23,59.64-.14,119.29-.14,178.93,0,2.31.07,4.63.11,6.94h0c-1.86.94-3.85.47-5.77.47q-129.87,0-259.73,0c-1.92,0-3.91.51-5.75-.51a26.55,26.55,0,0,1-.48-3.63q0-92.79,0-185.59C626.63,176.79,626.81,175.73,626.91,174.68Z" fill="#007CAA" class="color000 svgShape"></path><path fill="#007CAA" d="M627.12,367.06l271.25,0c-1.28,1.51-3,.74-4.48.74q-131.17.07-262.36,0C630.07,367.83,628.34,368.69,627.12,367.06Z" class="color0f0f0f svgShape"></path><path d="M863.93,214c0-4.3-1.23-5.21-5.32-5.19-31.85.17-63.7.09-95.56.09-32.2,0-64.41.07-96.62-.09-3.78,0-4.65,1-4.64,4.71q.21,56.88,0,113.75c0,4.15,1,5.34,5.25,5.33q95.82-.22,191.65,0c4.36,0,5.24-1.31,5.22-5.38Q863.69,270.63,863.93,214ZM681.48,224.9q81.16.1,162.33,0c3.46,0,4.11,1.13,4.05,4.27-.18,10-.16,19.94,0,29.91a6.12,6.12,0,0,1-3,5.69c-10,7-20.87,8.32-32.54,5.52C797,266.6,783,259.55,768.37,254.19c-16.83-6.14-33.84-10.85-52.09-8a90.58,90.58,0,0,0-34.17,12.73c-1.16.72-2.31,1.46-4.2,2.66,0-11.77.1-22.45-.07-33.12C677.8,225.53,678.76,224.9,681.48,224.9Zm161.38,91.68c-26.7-.18-53.41-.09-80.11-.09-26.53,0-53-.09-79.58.09-4.08,0-5.57-.86-5.37-5.23.37-8.35.24-16.74,0-25.1a7.75,7.75,0,0,1,3.18-6.79c20.63-16.86,43.52-22.35,69.34-14.4,14.62,4.5,28.47,10.95,42.81,16.16s28.59,8.77,43.78,4.64c1.71-.46,3.41-1,5.07-1.6,5.79-2.18,5.78-2.2,5.78,3.77,0,7.83-.23,15.68.1,23.5C848.06,315.55,846.88,316.61,842.86,316.58Z" fill="#007CAA" class="color000 svgShape"></path><path fill="#f0f0f0" d="M373.5,402.68c-2.21-1.67-2.75-3.91-2.7-6.59.12-7.43,0-14.86,0-22.3a18.24,18.24,0,0,1,.08-2.34,4.18,4.18,0,0,1,4.2-4.07,4.05,4.05,0,0,1,4.45,4.07c.13,9,0,18,.07,27,0,2-1.5,3-2.61,4.25Z" class="color020202 svgShape"></path><path d="M332.08 354.12a5.44 5.44 0 01-1.56 3.45c-6 6-12 12.09-18.12 18.09-2.19 2.16-4.62 2.22-6.51.38s-1.84-4.4.23-6.51c6.05-6.15 12.17-12.24 18.29-18.32a4.17 4.17 0 015.09-1A4.52 4.52 0 01332.08 354.12zM441.72 377.34a5.21 5.21 0 01-3.67-1.72c-5.95-6-11.94-11.92-17.87-17.92-2.24-2.27-2.29-4.89-.32-6.74s4.32-1.67 6.51.51c6 5.92 11.94 11.92 17.91 17.88 1.53 1.52 2.19 3.26 1.31 5.32A4.37 4.37 0 01441.72 377.34zM465.24 289.14a88.66 88.66 0 00-6.75-34.06q-16-38-55.1-51.43c-2-.68-2.84-1.46-2.7-3.66a80.49 80.49 0 000-9.7c-.37-6.25-3.61-10.57-9.28-13.18-2.88-1.32-5.93-1.27-8.95-1.08-2.16.12-2.83-.45-2.81-2.72.13-11.09.06-22.17.06-33.26v-5c0-9.61 0-19.23 0-28.84 0-3.06-1.78-4.88-4.35-4.9s-4.26 1.79-4.44 4.81c-.05.88 0 1.77 0 2.65v60.92c0 6.15 0 6.15-6.2 6.29a15 15 0 00-14.81 14.52 79.11 79.11 0 000 9.11c.17 2.38-.6 3.4-2.9 4.12a86.93 86.93 0 00-31.79 18.36c-1.7 1.51-2.57 3.22-1.69 5.46 1.27 3.25 4.73 3.57 8 .79q30.65-26.24 70.3-18.75c32.47 6.2 59.11 34.35 63.66 67 1.69 12.12.72 24.29 1 36.44.05 2-.94 2.52-2.74 2.49-3.43-.07-6.87-.06-10.3 0-3.13 0-5.14 1.86-5.07 4.48s2 4.27 5 4.32c3.53.06 7.06 0 10.59 0 7.07 0 11.32-4.27 11.35-11.36C465.28 305 465.31 297.09 465.24 289.14zm-75-88.85a89.84 89.84 0 00-30.12 0c-1.23.21-1.56-.16-1.53-1.31.06-2.84-.07-5.69.12-8.52a6 6 0 016-5.64c3.53-.1 7.06 0 10.59 0h0c3.33 0 6.66-.05 10 0 3.95.08 6.39 2.44 6.55 6.39.1 2.54 0 5.09.06 7.64C392 200.16 391.59 200.52 390.25 200.29zM422.21 315.54c-1-.06-2 0-2.94 0q-60.76 0-121.54.05c-2.86 0-3.76-.83-3.69-3.68.18-7 .11-13.93 0-20.9a82 82 0 0113.14-46.21c1.87-2.89 1.56-5.46-.7-6.95s-4.79-.72-6.66 2.12a90.46 90.46 0 00-9.37 18.87c-4.75 13-5.7 26.56-5.23 40.27v13.25c0 7.93 4 12 11.88 12 13.35 0 26.69.06 40 0 2.05 0 2.8.58 3.33 2.53a34.16 34.16 0 0012.95 18.74 36.18 36.18 0 0056.61-18.92c.53-1.78 1.23-2.49 3.18-2.35a75 75 0 009.12 0 4.25 4.25 0 004.14-4.46A4.3 4.3 0 00422.21 315.54zM374.77 344c-12.1-.2-23.53-8.89-25.58-19.53h52.17C398.91 335.67 387.25 344.17 374.77 344z" fill="#007CAA" class="color000 svgShape"></path></svg></g></svg>
