<svg id="SvgjsSvg1105" width="288" height="288" xmlns="http://www.w3.org/2000/svg" version="1.1" xmlns:xlink="http://www.w3.org/1999/xlink" xmlns:svgjs="http://svgjs.com/svgjs"><defs id="SvgjsDefs1106"></defs><g id="SvgjsG1107"><svg xmlns="http://www.w3.org/2000/svg" data-name="Layer 1" viewBox="0 0 1000 1000" width="288" height="288"><path d="M452.17 902.62q-14.09-13.05 3.72-21.14c46.68-21.13 86.27-51.21 116.44-93 10.4-14.37 18-30.1 20.11-48.07 1.23-10.69-2.63-15.2-13.34-15.2H200c-10.81 0-15.9-3.36-15.77-10.37.13-6.8 5-9.94 15.43-9.94 12.64 0 25.3-.44 37.9.18 6.38.32 7.25-1.92 7.18-7.53-.27-20.08-.39-40.17.18-60.24 1.33-46.86 11.62-91.42 39.84-129.72 41-55.66 96.54-78.06 165-67.79 10.25 1.54 13.2 8.92 7.78 17.74-10.38 16.87-13.92 35.46-13 55 .37 7.61-2.68 12.77-8.94 13.39-5.84.58-10.17-3.44-11.06-11-2.06-17.38 1.13-34.18 7.2-50.35 2.36-6.28.27-7.07-5.1-7.17-54-1-96.59 20.55-127.44 64.64-23.06 33-32.11 70.66-33.81 110.22-1 22.53-.32 45.12-.59 67.68 0 3.57.5 5.19 4.64 5.06q15.23-.46 30.46 0c4.33.13 5.79-.92 5.71-5.52-.29-16.46-.07-32.94-.13-49.41 0-4.42 1.43-7.94 5.43-10.11a9.33 9.33 0 0110.23.6c4.05 2.7 4.69 6.86 4.67 11.32 0 15.79.11 31.59-.09 47.38-.05 4.06.51 5.86 5.32 5.77 18.49-.32 37-.13 56.31-.13-13.21-25.69-8-47 15-64.51-27.37-19.21-49.08-42.88-59-76.45-8.25 13.22-12 27.24-14.41 41.7-.53 3.13-1 6.28-3.26 8.69a9.59 9.59 0 01-11.15 2.48c-4.8-1.92-6.78-5.83-6.08-10.86 3.27-23.32 10.1-45.3 25.43-63.73 3.29-4 5-7.6 4.06-12.72a40.31 40.31 0 01-.41-9.45c.34-6.44 4.32-10.38 10.13-10.39s9.76 3.65 10 10.35c.57 14.92 1.83 29.71 6.87 43.9 9.22 26 27.56 44.5 49.66 59.81 5.37 3.72 10.89 7.23 16.51 10.54 4.74 2.81 7.66 6.48 6.41 12.14s-5.68 7.54-11.07 8.11c-14.84 1.55-24.69 10.69-25.41 23.31a25.45 25.45 0 0024.59 26.88c13.28.58 26.61.09 39.92.27 2.61 0 4.15-1.26 5.82-2.8q54-49.68 126.88-57.7a165.69 165.69 0 0135.13-.66c4.16.43 6.45-.56 8.31-4.54 10-21.43 19.4-43 24-66.43 3.12-15.79-1.22-28.34-13.79-38.32-9.22-7.33-19.3-13.22-29.53-19-3.2-1.8-4.4-1.17-5.76 2.11-4.82 11.61-11.69 21.83-21.88 29.49-6.33 4.76-12.3 4.53-16.13-.43S575.8 536 582 531.19c7.72-6 12.45-14.05 16.39-22.78 1.41-3.1.31-4.21-2.41-5.34-7.27-3-14.38-6.4-21.67-9.35-5.32-2.14-8.25-5.55-9-11.45-1.2-10-3-20-7.43-29.31-2.58-5.48-6.12-7.46-11.83-5-12.21 5.18-24.4 10.41-36.66 15.46-6 2.49-12.27 4.76-18.93 4.5-5.68-.23-9.28-3.49-9.84-9.22-.54-5.46 2.33-9.78 7.49-10.51 13.94-2 25.72-9.29 38.39-14.38 6.27-2.52 12.46-5.09 19.11-6.52 12.2-2.63 21.16 2 27.7 12.06 5.89 9 8.88 19.2 10.37 29.73.78 5.55 3.33 8.2 8.53 10.37 20.14 8.4 40 17.57 58.41 29.37 33.93 21.69 41.79 41.66 31.71 80.72-4.68 18.15-11.72 35.43-20 52.18-2.19 4.42-1.08 5.62 3.25 6.36a172.78 172.78 0 0129.23 8.08c7.38 2.66 10.61 7.81 8.53 13.6s-7.66 8-15.08 5.51C634 656.85 581.09 660.08 529.68 685.74A177.06 177.06 0 00499.43 705h9.18c24.14 0 48.28-.05 72.43 0 20.12 0 33.67 15.13 31.82 35.21a112.29 112.29 0 01-7.71 31.1c24.38-6.94 47.41-5.68 69.66 5.24a93.53 93.53 0 0125 18.22q44 44 88.05 88.08c7.82 7.83 7.43 13.06-1.28 19.8h-6.77c-3.8-1.07-6.62-3.53-9.35-6.27q-42-42.14-84.15-84.18c-22.43-22.38-48.54-29-78.65-18.06a57.61 57.61 0 00-25.43 18.41c-29.11 36.05-65.18 63.2-106.23 84.16-5.05 2.57-10.39 4.17-15.7 5.94zM377.29 284.1c-4.93-43.93-39-74.62-83.06-74.66-60-.05-119.94.07-179.91-.12-6.21 0-10.94 1.48-14.15 6.88V223c3.22 5.39 8 6.9 14.17 6.88q89.66-.28 179.32-.09c33.64 0 58.51 21.62 63.21 54.65 1.74 12.26-2.14 16.83-14.36 16.84q-42 0-83.91 0c-10.89 0-13.89-3.08-14-14.14-.15-24.78-12.37-37.05-36.93-37.05-31.12 0-62.25.13-93.38-.12-6.21-.05-11 1.48-14.16 6.89v6.77c3.22 5.38 7.94 6.93 14.16 6.88 32-.25 64-.14 96-.1 9.5 0 13.61 4.09 14 13.48 0 1.58 0 3.16 0 4.73.17 20.71 12.59 32.95 33.49 33q42.94 0 85.89 0C366.29 321.53 379.8 306.44 377.29 284.1zM100.17 711.72c3.11-5 7.38-7.07 13.46-6.89 12.84.39 25.7.07 38.55.14 7.31 0 11.73 4 11.7 10.14s-4.44 10-11.8 10.12c-8.11.11-16.25.38-24.34-.09-5.61-.33-7.48.81-7.45 7.08.32 52.08.1 104.16.3 156.24 0 6.21-1.53 10.92-6.89 14.16h-6.76a8.41 8.41 0 01-6.77-6.77z" fill="#007CAA" class="color000 svgShape"></path><path fill="#007CAA" d="M100.17,895.85l6.77,6.77Q98.35,904.44,100.17,895.85Z" class="colorececec svgShape"></path><path fill="#007CAA" d="M244.64,424c0-23.47-.06-46.93,0-70.4,0-8.24,5.12-13,12.1-11.48,6.12,1.34,8.13,5.89,8.16,11.61.05,9.47,0,18.95,0,28.43q0,55.15,0,110.33a31.81,31.81,0,0,1-.55,7.38c-1.29,5.33-5,8-10.42,7.6s-8.88-3.54-9.11-9c-.35-8.34-.19-16.69-.2-25Q244.62,448.73,244.64,424Z" class="color010101 svgShape"></path><path d="M311.34 401.72c0 15.31.05 30.63 0 45.94 0 7.84-3.9 12.36-10.27 12.3s-10-4.54-10-12.52q0-46.62 0-93.24c0-7.9 3.79-12.32 10.23-12.25s10 4.49 10.05 12.48C311.38 370.19 311.34 386 311.34 401.72zM793.34 728.87a9.94 9.94 0 01-5.7 8.73 9.2 9.2 0 01-10.71-1.18 91.22 91.22 0 01-7.28-7c-13.53-14-28.11-26.62-44.82-36.68-2.54-1.53-5-3.24-5.86-6.24-1.27-4.2-.69-8.08 2.79-11.07 3.91-3.36 8.1-3.37 12.46-.77a206.91 206.91 0 0135.12 26.18c6.76 6.29 13.18 12.94 19.78 19.39C791.44 722.46 793.24 725 793.34 728.87z" fill="#007CAA" class="color000 svgShape"></path><path fill="#007CAA" d="M357.67 386.9c0 11.05.08 22.11 0 33.16-.07 7.62-3.72 11.7-10.08 11.67-6.2 0-10.13-4.32-10.17-11.78q-.15-33.17 0-66.33c0-7.44 4-11.68 10.26-11.66s9.91 4.08 10 11.77C357.74 364.79 357.67 375.84 357.67 386.9zM481.88 539.47c-7.95.21-13.6-8.38-9.36-14.74 6.29-9.45 11.39-19.18 14.39-30.22 1.37-5.05 6.25-7.17 11.5-5.71 5.46 1.52 8.47 5.64 7.5 11.24-2.31 13.35-8.31 25.11-16.8 35.61A11.41 11.41 0 01481.88 539.47z" class="color010101 svgShape"></path><path fill="#007CAA" d="M546.93,342.16a3.74,3.74,0,0,1,.58,3.52h-.31l-.27-.12Z" class="color585858 svgShape"></path><path d="M847,175.38q22.54-27.56,44.91-55.27c5.57-6.88,5.5-15.1.13-21.09-2.28-2.54-5.32-3.66-8.23-5.08h-6.14c-3.64.31-6.53,2.08-9.33,4.33q-30.17,24.18-60,48.74c-11.2,9.26-22.45,18.46-33.53,27.85-12.64,10.72-25.39,21.31-37.93,32.14-3.1,2.68-3.23,2.57-6.09-.3l-40.25-40.24L635.09,111c-6.8-6.8-14.73-10.35-24.58-9.07-7.08.91-12.41,4.85-17.21,9.61-14.45,14.3-28.77,28.74-43.18,43.09a14.79,14.79,0,0,0-3.19,4.73v4.09c2.14,4,5.51,4.82,9.25,2.23a23.14,23.14,0,0,0,3-2.75q13.62-13.62,27.25-27.23c.85-.85,1.67-2.32,3-1.84a9.21,9.21,0,0,1,4.63,4.33c1,1.7-.87,2.62-1.84,3.6q-13.93,14-27.94,28a12.75,12.75,0,0,0-3.14,4,5.41,5.41,0,0,0,1.6,6.47,5.26,5.26,0,0,0,6.88.56,20.53,20.53,0,0,0,3.28-3c9.33-9.31,18.69-18.59,27.94-28,2-2,3.49-2.25,5.25,0a6.25,6.25,0,0,0,1.21,1.2c2.35,1.74,2,3.17,0,5.13-9.41,9.23-18.68,18.6-28,27.92-.81.81-1.65,1.57-2.37,2.45a6.34,6.34,0,0,0-.22,7.85,6,6,0,0,0,7.78.84,20,20,0,0,0,3.3-2.94q13.86-13.86,27.72-27.72c2.62-2.6,2.75-2.57,5.67.36s2.94,3,.27,5.65q-13.49,13.51-27,27a24.59,24.59,0,0,0-3.37,3.83c-1.78,2.75-1.68,5.36.29,7.49a6,6,0,0,0,7.5,1,15.47,15.47,0,0,0,3.65-3q13.76-13.74,27.5-27.47c.85-.85,1.63-2.31,3-1.89,2.12.66,3.56,2.48,4.67,4.28s-.8,2.62-1.77,3.59q-13.94,14-27.94,28a14.61,14.61,0,0,0-2.86,3.36,5.58,5.58,0,0,0,1.22,7.11,5.4,5.4,0,0,0,7.18.43,24.65,24.65,0,0,0,3-2.77c9.32-9.32,18.68-18.6,27.93-28,1.94-2,3.48-2.29,5.27,0a8.23,8.23,0,0,0,1.45,1.44c2.08,1.57,1.81,2.86,0,4.63-9.47,9.33-18.84,18.77-28.24,28.17-.8.81-1.64,1.58-2.37,2.45a6.32,6.32,0,0,0-.27,7.84,6,6,0,0,0,7.76.89,18.89,18.89,0,0,0,3.32-2.93l27.48-27.48c2.91-2.9,3-2.88,5.93.07,3.32,3.3,3.32,3.31,0,6.68L638,242c-.72.72-1.46,1.43-2.15,2.18-2.86,3.13-3.13,6-.81,8.43s5.6,2.45,8.66.18a29.22,29.22,0,0,0,3-2.79q13.5-13.5,27-27c.85-.85,1.66-2.31,3-1.83a9,9,0,0,1,4.63,4.32c1,1.68-.88,2.61-1.85,3.59-9.45,9.52-19,18.94-28.4,28.49-3.76,3.81-4.08,7-1.31,9.81s5.75,2.36,9.66-1.54q13.65-13.59,27.25-27.23c4.24-4.24,4.18-4.19,8.38.18,1.53,1.58,1.64,2.66,0,4.18-4.46,4-9,8-13.56,11.92-14.52,12.7-29.08,25.37-43.15,38.58-5.11,4.8-5.22,6.1-1.31,11.81a33.24,33.24,0,0,1-1.56,40.26,159,159,0,0,1-19.35,19.65,34.94,34.94,0,0,1-48-1.32c-11-10.71-13.47-29.51-5.5-42.13,9.66-15.3,26-21.32,42.09-15.44a34.8,34.8,0,0,1,14.74,10.05c3.49,4.05,9,3.5,10.85-1,1.18-2.89-.36-5.09-2-7.12a45.32,45.32,0,0,0-10.73-8.87,46.7,46.7,0,0,0-52,1.79c-10.64,7.88-17.19,18.15-18.67,31.44v9.55c.8,1.07,0,2.42.58,3.52C550,368.19,573.82,392,606.8,383.32c-.22.92-.4,1.76-.61,2.6a46,46,0,0,0,55.24,55.88c33.37-7.82,46.66-48.1,24.46-74.39-1.79-2.12-1.71-3.14.08-5.15,19.21-21.53,38.28-43.19,57.45-64.77,1.78-2,3.27-5.66,5.56-5.46,2.1.19,3.85,3.52,5.92,5.28,1.53,1.3,1.32,2.1,0,3.43-7.69,7.57-15.29,15.23-22.93,22.87-2.81,2.81-5.66,5.58-8.42,8.45-2.48,2.57-2.62,5.36-.53,7.55s5.11,2.1,7.83-.41c.58-.54,1.13-1.13,1.69-1.69l26-26c5.31-5.32,5.22-5.22,10.69.12,1.74,1.71,1.33,2.53-.14,4-9.93,9.83-19.79,19.74-29.68,29.63a20.09,20.09,0,0,0-2.11,2.22c-1.7,2.32-1.69,4.74.35,6.78s4.42,2.16,6.75.35a26,26,0,0,0,2.23-2.1q13.14-13.12,26.29-26.27c1.76-1.75,3.61-4.74,5.43-4.75s3.5,3.17,5.41,4.74c1.72,1.41,1.59,2.31,0,3.86-10.2,10-20.29,20.21-30.41,30.34-1,1-2.09,1.85-2.43,3.22-.61,2.42-.09,4.57,2.2,5.89,2.52,1.46,4.75.82,6.74-1.18q13.73-13.76,27.49-27.48c1.76-1.77,3.51-4.84,5.36-4.91,2.18-.08,3.65,3.32,5.68,4.92,1.71,1.35,1.47,2.22,0,3.67-10,9.9-20,19.9-29.92,29.87a22.09,22.09,0,0,0-2.1,2.23,4.67,4.67,0,0,0,.39,6.74,4.75,4.75,0,0,0,6.51.49,16.89,16.89,0,0,0,2.25-2.07q13.88-13.84,27.73-27.72c4.16-4.15,4.16-4.15,8.23-.07,3.23,3.23,3.23,3.23-.08,6.54-9.81,9.81-19.64,19.58-29.41,29.42-3.39,3.41-2.64,8,1.42,9.26,2.54.78,4.33-.53,6-2.22q12.88-12.92,25.81-25.78c2.24-2.21,4.42-6.39,6.82-6,2.6.4,4.69,4.24,7.41,7a27,27,0,0,0-2.65,2.08q-14.62,14.55-29.18,29.16c-.41.4-.81.8-1.2,1.21-2.56,2.69-2.79,5.62-.63,7.81s5.19,2,7.8-.58q13.79-13.69,27.5-27.46c1.76-1.75,3.8-5,5.31-4.77,2.1.3,3.76,3.3,5.74,5,1.48,1.25,1.44,2.07,0,3.43-6.91,6.76-13.7,13.63-20.53,20.46-3.69,3.7-7.44,7.35-11.06,11.12-2.31,2.4-2.35,5.16-.35,7.29s5,2.16,7.58-.14c.59-.52,1.13-1.11,1.7-1.67l26.27-26.28c5.34-5.33,5.25-5.25,10.68.08,1.67,1.64,1.48,2.46,0,4-10,9.81-19.81,19.73-29.69,29.62a18.09,18.09,0,0,0-2.3,2.5,4.76,4.76,0,0,0,.47,6.51,4.68,4.68,0,0,0,6.49.6,20.13,20.13,0,0,0,2.51-2.3l44.36-44.36c12.53-12.54,12.52-27.3,0-39.8Q830,307.31,781.58,259c-2.24-2.23-2-3.43-.12-5.61Q814.63,214.74,847,175.38ZM598.36,126.43c-1.75-1.74-1.69-2.66.09-4.16,2-1.69,3.7-3.69,5.59-5.49a14.44,14.44,0,0,1,9.64-4.1c5.71,0,9.47,2.24,12.83,5.61q29.94,30.08,60,60c12.37,12.38,24.7,24.79,37.17,37.06,1.91,1.88,1.69,2.68-.25,4.26-5,4.08-9.9,8.35-14.7,12.69-1.74,1.58-2.7,1.81-4.57-.07Q651.37,179.25,598.36,126.43Zm274,237.77a16.27,16.27,0,0,1,5,12,15.33,15.33,0,0,1-5.25,11c-2.15,2-4.11,5.56-6.39,5.76s-4.3-3.55-6.37-5.62Q808.7,336.72,758.05,286.14c-2-2-2.32-3.11-.23-5.31,4.52-4.79,8.74-9.86,12.95-14.93,1.29-1.56,2-1.4,3.31,0Q823.19,315.08,872.39,364.2ZM691.53,340.77c-1.87,2.09-3,1.82-4.83.36A18.89,18.89,0,0,1,679.24,329c-.6-3.64-3-5.46-6.06-4.83s-4.54,3.22-3.92,6.79c1.48,8.4,5.86,14.88,13.29,19.72-2.94,3.37-5.82,6.64-8.67,9.93-3.44,4-3.22,6.08.69,9.75,10.17,9.55,14.23,21.23,11,34.86s-12,22.66-25.67,26.37a35.65,35.65,0,0,1-37.19-56.51c5-6.34,11-11.84,16.86-17.33,16.19-15.1,18.85-38.72,8.46-55.66-1.36-2.2.31-2.77,1.36-3.73,20.65-18.84,41.71-37.22,62.83-55.51Q787.56,177.58,865.13,115c.7-.57,1.46-1.06,2.19-1.59a1.19,1.19,0,0,1,.11,1.7c-1.47,1.56-2.9,3.16-4.42,4.67Q770.82,212,678.62,304.18c-.64.65-1.31,1.26-1.93,1.93-2.32,2.49-2.47,5.49-.4,7.58s5.16,2,7.57-.35c7.28-7.19,14.48-14.44,21.71-21.67q84.49-84.49,169-169a7.21,7.21,0,0,1,1-.94c.47-.3.65-1.38,1.5-.73,1.14.87-.08,1.37-.45,1.84q-6.47,8.15-13,16.2Q780,242,691.53,340.77Z" fill="#007CAA" class="color000 svgShape"></path><path fill="#007CAA" d="M867.43,115.08c0-.57-.07-1.13-.11-1.7a9,9,0,0,1,3.6-2.6C870.44,113,868.81,113.94,867.43,115.08Z" class="colorfefefe svgShape"></path><path fill="#007CAA" d="M878.66,118.69l2.16-2.37.62.56A3.18,3.18,0,0,1,878.66,118.69Z" class="colorc8c8c8 svgShape"></path><path d="M593.45 313.54a25.57 25.57 0 1025.07 25.73C618.57 325.33 607.21 313.66 593.45 313.54zM593 354.46a15.33 15.33 0 1115.32-15.06A15.38 15.38 0 01593 354.46zM650.6 371.51a25.57 25.57 0 1025.83 25.65A25.73 25.73 0 00650.6 371.51zm0 40.88a15.33 15.33 0 01.17-30.65 15.33 15.33 0 11-.17 30.65z" fill="#007CAA" class="color000 svgShape"></path></svg></g></svg>
