<svg id="SvgjsSvg1098" width="288" height="288" xmlns="http://www.w3.org/2000/svg" version="1.1" xmlns:xlink="http://www.w3.org/1999/xlink" xmlns:svgjs="http://svgjs.com/svgjs"><defs id="SvgjsDefs1099"></defs><g id="SvgjsG1100"><svg xmlns="http://www.w3.org/2000/svg" data-name="Layer 1" viewBox="0 0 1000 1000" width="288" height="288"><path d="M759.36 501.33c30.38-21.63 27.94-59.64-5-77.12-4.33-2.3-5.78-3.84-4.18-9.31 7.19-24.55.3-44.61-19.42-57-4.8-3-5.8-6.25-5.78-11.36q.24-70.8.06-141.62c-.07-26.9-16.9-43.5-43.84-43.51q-107.79 0-215.57 0c-28 0-44.2 16.31-44.22 44.51 0 44.32-.29 88.65.21 133 .11 9.35-2.67 15.88-8.75 22.9-43.41 50.06-67.74 109-77.34 174-3.05 20.7-8.24 40.31-19 61-2.2-3.16-3.55-5.82-5.55-7.84-10.12-10.22-14.86-10.21-24.94-.23q-25.72 25.47-51.4 51c-10.82 10.74-10.85 15.39-.09 26.06Q319.4 750 404.29 834.2c9.72 9.65 14.79 9.72 24.44.17q26-25.73 51.94-51.53c10.16-10.09 10.42-14.58.43-24.93-3.11-3.22-2.48-4.77.41-7.33 7.93-7 17-12.2 26.61-16.42 20.49-9 42.42-13.09 63.9-18.71 26.53-7 53.58-14.47 72-35.72 11.89-13.67 24.12-17.43 41-16.6 17.32.86 29.84-8.78 36.7-24.62 2.17-5 4.58-8.46 9.56-11.14 20.56-11.09 27.17-30.9 17.42-52.08-1.91-4.15-1.6-5.84 1.81-8.83 18.64-16.33 21.37-37.91 7.31-58.19C755.24 504.5 756.21 503.57 759.36 501.33zm-33.1-93.21c-1.63 5.44-4.8 8.61-10.51 8.77s-11.49 0-17.24 0v-.22c-6 0-12 0-18 0a20.44 20.44 0 01-3.89-.45c-11.48-2.29-20.68-11-21.26-20.18s7.46-18.53 19.61-21.35a73.52 73.52 0 0132.7-.13C724.22 378.3 731.17 391.73 726.26 408.12zM449 193.47c4-5.82 9.86-6.95 16.53-6.94q105 .15 209.91.06c3.14 0 6.29 0 9.43 0a15 15 0 0110.51 4.59c2.74 2.7 5.06 6.3 4 9.74s-5.46 1.66-8.3 1.67c-39.31.12-78.61.08-117.92.08q-59.76 0-119.5-.05c-2.2 0-5.26 1.31-6.46-1.13C445.81 198.82 447.35 195.88 449 193.47zm4.55 34.32q119.57.24 239.13 0c6 0 7.4 1.67 7.35 7.47q-.39 53.1 0 106.19c.05 5.72-1.8 7.13-7.15 6.84-13-.71-25.59.59-37.29 7-25.55 14.06-32.49 41.27-16.53 65.27 1.2 1.81 3.32 2.88.28 5.61-29.56 26.55-30.93 43.89-6 73-17.09 15.51-21.87 33.75-11 56.08H533c-26.49 0-53-.13-79.45.11-5.12 0-7.25-.7-7.18-6.61.25-19.64-.16-39.29-.42-58.94 0-2.62 1.47-4.4 2.6-6.4a359 359 0 0135.23-51c12.61-15.32 22.81-31.93 27.05-51.63 5.87-27.28-9.95-50.38-36.69-53.56-9.38-1.11-18 1.89-26.37 5.42-1.82-1.31-1.21-3-1.21-4.42 0-31.21.12-62.41-.16-93.61C446.39 229 448.24 227.78 453.55 227.79zm.74 545.83q-17.27 16.64-34 33.83c-2.84 2.9-4.51 2.88-7.42 0q-75.75-75.49-151.7-150.79c-1.94-1.92-4.8-3.35-1.26-6.76 12.06-11.66 23.86-23.59 35.76-35.41.74-.73 1.56-1.38 2.65-2.33 1.71 1.56 3.44 3 5.05 4.62Q366.73 679.63 430 742.52c8 8 15.93 16 24.09 23.73C457 769 457.39 770.63 454.29 773.62zm120-84.94c-25.1 7.17-51 11.53-75.18 21.92-12.33 5.3-24.13 11.6-33.86 20.91-4.33 4.13-6.55 4.31-10.91-.08-32.16-32.36-64.62-64.4-97-96.54-5.58-5.54-10.95-11.33-16.84-16.52-3.45-3-3.47-5.52-1.54-9.36 3.27-6.53 5.6-13.53 8.87-20.06 10.68-21.33 11-45 15.68-67.72 10.75-52.47 32.05-99.89 66.42-141.18 7.91-9.5 16.61-18.23 27.72-24.06 5.65-3 11.56-5.16 18-2.65 6.67 2.59 10.71 7.1 10.95 14.68.27 8.39-2.43 16-5.89 23.34-5 10.77-12.3 20-19.73 29.19a365.56 365.56 0 00-54.87 92c-5.11 12.49-1.43 18.9 11.89 20.33 5.29.56 3.15 4 3.17 6.25q.23 40.5.07 81c0 7.43.65 14.72 4.29 21.32 8.05 14.55 20.45 22 37.13 22q75.88.06 151.78 0h10.75C609.43 677.23 592.19 683.58 574.32 688.68zm107.13-50.41q-108.45.11-216.9 0c-12.44 0-17.81-5.28-17.94-17.55-.12-11.53.14-23.06-.11-34.58-.09-4.34 1.06-5.86 5.68-5.85q88 .23 176 0c4.26 0 5.39.67 3.87 5.22-4.79 14.32-.12 26.25 10.7 36 9 8.13 20 12.2 32 13.57 4.79.55 9.63.64 14.77 1C687.24 639.48 684.08 638.26 681.45 638.27zm42.93-36.54c-2.3 2.07-4.93 4.17-7.78 5.13-16.87 5.66-33.9 5.77-50.7-.19-5-1.76-10.15-5-10.24-10.8-.09-6.26 5.5-9 10.55-11.41 10.35-4.9 21.46-3.88 32.42-3.52 6.28 0 12.56-.17 18.83.06 4.13.15 8 1.61 9.15 6.06C727.85 592.11 729 597.58 724.38 601.73zM735.5 546.5A29 29 0 01715.76 555c-8.11.23-16.23 0-24.35 0v.18c-7.07 0-14.15 0-21.22 0a34.3 34.3 0 01-12.31-2.15c-10.24-3.95-16.47-11.54-16.33-19.91s6.54-15.62 16.9-19.49a40.21 40.21 0 0113.89-2.14c12.84-.11 25.67-.09 38.51 0 9.16 0 17.66 2.16 24.52 8.7C743.52 528 743.6 538.68 735.5 546.5zm-3.46-61c-11.21.84-22.53.17-33.8.17v.6c-7.6 0-15.21.06-22.81 0a91.57 91.57 0 01-11-.65c-12.74-1.74-22.78-11.1-22.88-21.13s9.75-20.31 22.56-21.25a484.5 484.5 0 0168.37-.05c12.72.86 22.88 11 23 21C755.59 474.32 745.14 484.54 732 485.53zM843.5 292.72c-.45 28.39-8.93 53.8-26.23 76.16-5.14 6.65-11.89 8.07-17.46 3.75-5.77-4.49-6.15-10.85-1-17.77 28.74-39 28.68-85.23-.18-124.3-4.81-6.51-4.47-13.15.89-17.48s12.55-3 17.57 3.41C834.72 238.88 843 264.54 843.5 292.72z" fill="#6e90e8" class="color000 svgShape"></path><path d="M301.65,291.36a122.42,122.42,0,0,1,27.18-75.88A11.81,11.81,0,0,1,341.27,211c4.51.9,7.06,4.06,8.31,8.25,1.31,4.38-.48,8-3.11,11.42-15,19.16-22,40.91-21.32,65.2.53,20.43,7,38.82,18.63,55.47,1.28,1.84,2.78,3.53,4,5.41,3.69,5.65,2.61,12.05-2.58,15.94a11.13,11.13,0,0,1-15.62-1.81,111,111,0,0,1-16.9-27C305.39,327.63,301.8,310.57,301.65,291.36Z" fill="#6e90e8" class="color000 svgShape"></path><path d="M348.49 288.27a82 82 0 0114.34-43.07c5-7.42 11.41-9.12 17.58-4.91 5.59 3.82 6.19 10.79 1.74 17.89q-21.63 34.54 0 69.12c3 4.81 4.36 9.61 1.27 14.7-2.6 4.27-6.71 5.72-11.61 5.08-3.6-.47-6.14-2.5-8.13-5.4A84.61 84.61 0 01348.49 288.27zM796.56 288.56c.85 18.48-3.57 35.54-13.76 51-5 7.59-11.91 9.83-17.87 5.81s-6.59-10.9-1.73-18.31a61.27 61.27 0 0010.44-34.37 60 60 0 00-10.83-34.79c-3-4.36-3.95-8.92-1.54-13.71 4.1-8.13 14.46-8.29 20.22-.14a80.75 80.75 0 0114.85 40.56C796.45 286 796.49 287.26 796.56 288.56z" fill="#6e90e8" class="color000 svgShape"></path></svg></g></svg>