<svg id="SvgjsSvg1423" width="288" height="288" xmlns="http://www.w3.org/2000/svg" version="1.1" xmlns:xlink="http://www.w3.org/1999/xlink" xmlns:svgjs="http://svgjs.com/svgjs"><defs id="SvgjsDefs1424"></defs><g id="SvgjsG1425"><svg xmlns="http://www.w3.org/2000/svg" data-name="Layer 1" viewBox="0 0 1000 1000" width="288" height="288"><path d="M99.8,707.44c6.39-9.73,15.39-10.25,26-8.73,32.82,4.7,65.73,8.75,98.64,12.82,8.55,1.05,15.79-2.29,21.89-8.33,13.56-13.42,27.26-26.71,40.8-40.15,8.56-8.5,17.52-16.44,28.89-22-4.79-4.79-9.22-9.43-13.86-13.84-36.94-35.11-74.63-69.47-110.74-105.41-63.26-62.95-85-139.15-60.83-224.74,24.28-85.8,82.78-140.5,169.92-160,78.64-17.63,148.25,3.82,206.81,59.42,5,4.74,6.72,2.45,10.25-.81,64.8-59.81,139.81-77.66,224.69-54.26,11.14,3.07,15.88,10.89,13.23,20.27-2.58,9.16-11.08,13-22.09,9.69C697.78,160.73,662,159.74,626,169.19c-39,10.23-71.59,30.85-98.12,61.11-11.65,13.29-19.52,13-31.35.14C442.05,171,374.76,148.85,297.25,170.18c-77.67,21.36-125.88,74.48-140.78,154-12.91,68.88,8.21,128.51,58.72,177.14,43.48,41.87,87.57,83.11,131.25,124.79a15.11,15.11,0,0,0,11.66,4.52q72.91-.35,145.84-.16c38.25.12,64.7,27,64.79,65.37v4c18.25-7.54,36-14.79,53.65-22.27,2.06-.87,3.67-2.87,5.37-4.47q92-87,184-174c66.77-63.31,79-167.25,29.08-245.39-1.12-1.76-2.37-3.44-3.44-5.23-5-8.29-3.5-17.27,3.59-22.2,7.54-5.24,16.7-3.43,22.49,4.9,12.27,17.67,22.2,36.68,28.18,57.31,26.12,90,6.59,168.89-60.16,234.83-40.61,40.13-82.8,78.66-125.35,118.93,12.29-2.57,23.17-4.86,34.53-2.72,28.82,5.43,50.6,27.18,54,54.56,4,32-10.51,59.18-38.86,71.5-34.39,14.94-69,29.35-103.55,43.95-38.62,16.33-77.29,32.54-115.88,48.93a255.25,255.25,0,0,1-101.27,20.49q-157.6-.21-315.21.09c-9.45,0-16.13-2.88-20.07-11.51V858c2.54-9.23,9.28-12.66,18.15-13.12,3.4-.17,6.8-.1,10.19-.1,101.94,0,203.88-.27,305.81.15a224.82,224.82,0,0,0,89.3-17.57q108.76-45.76,217.34-92c17.09-7.31,24.83-23.17,20-40.06-4.67-16.27-20.69-26-37.19-22.16-12.55,2.91-24,8.92-35.83,13.74q-63.16,25.74-126.28,51.62a214.49,214.49,0,0,0-22.71,10.58,71.71,71.71,0,0,1-36,9.27c-33.2-.25-66.39-.08-99.59-.09-4.44,0-8.89.09-13.18-1.43-7.92-2.8-13.1-10.33-12.37-18,.79-8.39,6.32-14.34,14.87-15.93a55.74,55.74,0,0,1,10.17-.47q50.18,0,100.36,0c13.53,0,23.75-5.08,29.46-17.94,8-18-3.3-39.38-23-39.82q-78-1.76-156,.06c-14.93.35-28,7.78-38.78,18.59C302,696,289.14,708.29,276.84,721.11c-18.33,19.07-39.75,27.39-66.47,22.9-30.91-5.19-62.15-8.25-93.22-12.4-8.44-1.12-15-4.28-17.35-13.19Z" fill="#6e90e8" class="color000 svgShape"></path><path fill="#6e90e8" d="M800.54,203.92a15.82,15.82,0,0,1-15.29-15.56c0-8.72,7.37-16,15.9-15.7s15.77,8,15.37,16.39A15.86,15.86,0,0,1,800.54,203.92Z" class="color010101 svgShape"></path><path d="M379.43 331.61h-32v37.87H321.23V275.15h26.22v35.46h32V275.15h26.22v94.33H379.43zM480.32 354.09H446.87l-5.09 15.39H414.22l34.39-94.33h30.23l34.26 94.33H485.4zm-16.73-50.58l-10 30.51h20.2zM609 275.15v94.33H582.81l-34.92-52.72v52.72H521.66V275.15h26.23l34.92 53.38V275.15zM710.59 322.25c0 27.29-19.13 47.23-49.24 47.23H624V275.15h37.33C691.46 275.15 710.59 294.55 710.59 322.25zm-51.24 24.08c15.12 0 24.61-8.56 24.61-24.08s-9.49-24.36-24.61-24.36h-9.1v48.44zM321.23 435.71h31.71L376.62 497l23.15-61.28h31.57V530H405.12V478l-17.8 52H365.38l-17.93-52.45V530H321.23zM506 514.66H472.56L467.47 530H439.91l34.39-94.33h30.23L538.79 530h-27.7zm-16.73-50.58l-10 30.51h20.2zM633.92 482.81c0 27.3-19.13 47.23-49.24 47.23H547.35V435.71h37.33C614.79 435.71 633.92 455.11 633.92 482.81zm-51.24 24.08c15.12 0 24.62-8.56 24.62-24.08s-9.5-24.35-24.62-24.35h-9.1v48.43zM706 456.72H671.92v15.39H702V492H671.92v17H706v21H645.7V435.71H706z" fill="#6e90e8" class="color000 svgShape"></path></svg></g></svg>