<svg id="SvgjsSvg1289" width="288" height="288" xmlns="http://www.w3.org/2000/svg" version="1.1" xmlns:xlink="http://www.w3.org/1999/xlink" xmlns:svgjs="http://svgjs.com/svgjs"><defs id="SvgjsDefs1290"></defs><g id="SvgjsG1291"><svg xmlns="http://www.w3.org/2000/svg" data-name="Layer 1" viewBox="0 0 1000 1000" width="288" height="288"><path d="M528.94,439.23c-14.48,25.31-28.41,49.7-42.37,74.07-8,13.9-17,14.19-25.46.84-8.2-13-16.34-26-25.34-40.29-5.58,9.23-11.44,17.39-15.68,26.33-5.45,11.49-13.46,15.4-26.09,14.74-19.76-1-39.62-.24-59.43-.28-9.82,0-15-4.24-14.9-11.95.11-7.44,5.1-11.47,14.53-11.49,18.51-.05,37-.35,55.53.17,6.41.18,9.73-2.11,12.7-7.43,6.61-11.8,13.8-23.27,20.8-34.84,7.74-12.78,16.63-12.76,24.73,0q12.29,19.44,24.51,38.93c3-.71,3.32-3.37,4.4-5.25q20.07-34.81,40-69.71c2.93-5.16,5.94-9.84,12.88-9.63,6.56.21,9.31,4.86,12,9.76q26.79,48.92,53.62,97.82c1.49,2.71,3,5.38,5.13,9,9.52-16,18.9-31.06,27.57-46.53,4.34-7.75,9.84-10.83,18.85-10.68,29.45.5,58.92.18,88.38.19,10,0,15.17,4,15.22,11.58s-5.21,11.86-15,11.87c-27.12,0-54.23.15-81.35-.11-4.81-.05-7.35,1.48-9.72,5.59-10.53,18.25-21.38,36.32-32.21,54.4-7.7,12.85-17.29,12.62-24.54-.55Q560.81,497,534,448.05C532.54,445.34,530.94,442.69,528.94,439.23Z" fill="#6e90e8" class="color000 svgShape"></path><path d="M730.53,111.13a131.9,131.9,0,0,0-56.68,26.59c-5.87,4.69-7,11.22-3.25,16.5,4,5.64,10.59,6.52,17.2,2.26,1.1-.7,2.1-1.54,3.16-2.31,25.38-18.44,53.6-25.76,84.74-21.48,65.33,9,110.37,71.81,97.61,136.14-13,65.35-77.95,106.82-141.82,90.48-70.52-18-106.35-93.47-76.61-161.25,3.92-8.91,2.24-15.36-4.79-18.42-6.74-2.92-12.29,0-16.43,8.64a136.23,136.23,0,0,0-13.12,58.93c0,3.68-.32,6.16-4.42,7.67-31.86,11.77-59,30.86-82.18,55.32-5.65,5.95-8.44,5.05-13.54-.29-23.49-24.62-50.72-44.11-82.88-55.69-57.64-20.76-112.89-18.3-163.93,19a127.85,127.85,0,0,0-19.18,17.2c-5.28,5.81-5.32,12.69-.35,17.37s11,4.44,16.74-.69c1.36-1.22,2.56-2.61,3.87-3.88,28.52-27.65,62.9-40.12,102.27-38.09,45.61,2.36,84.23,21.25,117.37,52.07,6.68,6.22,13,12.85,19.84,18.84,9.54,8.32,16.67,8.26,26.32-.06,5.52-4.76,10.65-10,15.85-15.1a203.49,203.49,0,0,1,61.75-41.76c4.11-1.8,5.73-1.91,7.19,3.37,23.3,84.14,112.32,126.38,191.92,91.12,4.66-2.06,6.48-1.8,8,3.23,21.85,74.15,10.52,142-42.7,199.12S673.76,687.72,619.26,743.45c-1.44,1.47-3,3.6-4.71,3.89-16.39,2.72-32.44,9.15-49.24,7.3-38.59-4.23-76.4-13.27-114.62-19.8a15.38,15.38,0,0,1-12.91-17.7c1.65-9.36,8-14.12,18-12.93,18.37,2.17,36.69,4.7,55,6.88,14.46,1.71,28.89,3.92,43.53.81,32-6.79,49.23-36.86,36.91-65.52-9-21-26.44-32.34-47.88-37.63-12.86-3.18-26.07-4.94-39.11-7.42-25.63-4.88-51.24-9.13-77.56-5.88-37.49,4.64-74.37,12.86-111.7,18.42-4.21.63-6.69-.13-9.47-3-11.17-11.69-22.84-22.91-33.77-34.8-41.91-45.57-57.55-99.64-51-160.62A186.9,186.9,0,0,1,240,351.51c2.52-5,3-10-.73-14.62-3.13-3.84-7.38-4.69-12-3.65-4.88,1.08-6.94,5.05-8.95,9.08-41.42,82.94-25.12,187.09,39.81,253.4,7.43,7.59,15.52,14.55,24.85,23.24-18.29,3.08-33.61,5.67-48.94,8.23-2.15.36-3.6.29-4.61-2.56-4.19-11.91-8.12-14.53-20.59-14.54-29.72,0-59.45.21-89.16-.13-10.21-.11-17.71,3.1-21.91,12.69V837c3.65,7.17,8.93,12.29,17.41,12.33q48.5.18,97,0c7.95,0,14.64-3.79,16.62-11.7,1.38-5.5,3-5.63,7.81-4.31,65.17,17.92,130.51,35.22,195.57,53.51,31.65,8.9,63.22,13.61,95.43,4.59,22-6.16,43.79-13.16,65.57-20.12q87.24-27.87,174.37-56.08c17.66-5.73,31.17-16.72,38.37-34.21,10.3-25-2-50.52-27.95-58.24a67.48,67.48,0,0,0-27.82-2.22c-15.55,1.91-30.41,6.94-45.82,9.52s-30.45,5.78-47.86,9.13c3.14-3.28,4.68-4.93,6.26-6.54,43.72-44.76,87.81-89.18,131.1-134.35,64.51-67.3,79.76-145.91,51.57-233.81-1.5-4.68-1.16-7.09,2.76-10.38,31.12-26.14,48.63-59.68,50.31-100.25C902.3,161.7,820.85,92.78,730.53,111.13ZM199.7,826.05q-36-.48-72,0c-5.81.08-6.62-1.91-6.6-7.06q.26-89.57,0-179.12c0-5,1.07-6.54,6.31-6.48q36.36.47,72.74,0c5.31-.07,6.33,1.63,6.29,6.54-.21,30-.1,60-.1,89.95,0,29.72-.14,59.45.12,89.17C206.54,824.41,205.3,826.12,199.7,826.05Zm527.88-76.8c8.16-1.61,16-4.4,24.39-5.33a51.81,51.81,0,0,1,16.3.56c16,3.26,22.18,16.15,14.54,30.55a35.62,35.62,0,0,1-21.26,17.4C681.6,817.9,602.18,845,521.6,868.54c-24.19,7.05-48.36,5-72.45-1.6q-106.36-29.22-212.87-58c-4.8-1.3-6.64-3-6.57-8.26.31-23.72.13-47.44.13-71.17,0-24,.08-48-.07-71.94,0-4.28.76-6.21,5.71-7q90.53-14.82,181-30.32c28.84-5,57.05-1.33,85.26,4.47,12.23,2.51,24.57,4.48,36.79,7a45.46,45.46,0,0,1,26.8,16.31c12.45,15.51,6.51,34.24-12.6,40-13.2,4-26.42,1.13-39.56-.35-18.37-2.06-36.66-4.75-55-6.93-22.13-2.63-39.36,10.35-43.18,32.27-3.59,20.61,9,40.16,30.06,44.25,38.56,7.47,77,15.45,116,20.58,17,2.23,33.11-2.61,49.41-5.73C649.51,764.72,688.54,756.94,727.58,749.25Z" fill="#6e90e8" class="color000 svgShape"></path><path fill="#6e90e8" d="M756.93,112.73c-.57.79-1.37.47-2.11.45-.14-.11-.18-.21-.13-.31s.11-.14.17-.14Z" class="color505050 svgShape"></path><path fill="#6e90e8" d="M894.6 240.57c-.79-.55-.46-1.35-.47-2.08.17-.23.32-.21.47 0zM894.15 252c0-.73-.34-1.53.45-2.09V252C894.46 252.18 894.31 252.2 894.15 252zM768.33 113.17c-.58.07-1.19.23-1.57-.44h1.55c.17.09.22.19.18.29S768.39 113.17 768.33 113.17z" class="color454545 svgShape"></path><path fill="#6e90e8" d="M754.86,112.73a2.28,2.28,0,0,1,0,.45c-.42,0-.87.16-1-.45Z" class="color7a7a7a svgShape"></path><path fill="#6e90e8" d="M768.33,113.17c0-.14,0-.29,0-.44h1c.16.09.22.18.17.28s-.09.16-.14.16Z" class="color585858 svgShape"></path><path fill="#6e90e8" d="M769.38,113.17a3.25,3.25,0,0,1,0-.44h1C770.26,113.36,769.8,113.23,769.38,113.17Z" class="color7a7a7a svgShape"></path><path fill="#6e90e8" d="M894.15,237.44c0-.42-.19-.89.45-1v1C894.44,237.71,894.29,237.69,894.15,237.44Z" class="color8d8d8d svgShape"></path><path fill="#6e90e8" d="M894.15 237.44a3.4 3.4 0 00.45 0v1a3.69 3.69 0 01-.47 0C894.14 238.14 894.15 237.79 894.15 237.44zM894.15 252l.45 0v1c-.13.22-.28.22-.44 0z" class="color606060 svgShape"></path><path fill="#6e90e8" d="M894.16,253a3.15,3.15,0,0,1,.44,0v1C894,253.92,894.11,253.45,894.16,253Z" class="color8d8d8d svgShape"></path><path d="M836.77,224.29c0-5.66-2.15-7.81-7.82-7.81-11.9,0-23.8,0-35.71,0-1.93,0-2.44-.48-2.43-2.42.1-12,.06-24,.05-36,0-5.62-2-7.56-7.65-7.56H741c-5.82,0-7.69,1.89-7.69,7.77,0,11.82-.06,23.64,0,35.45,0,2.1-.42,2.76-2.64,2.74-11.9-.12-23.81-.07-35.71-.05-5.65,0-7.6,2-7.6,7.6q0,21.09,0,42.18c0,5.86,1.86,7.72,7.73,7.73,11.82,0,23.64.08,35.45-.06,2.38,0,2.8.69,2.78,2.88-.11,11.9-.07,23.8,0,35.71,0,5.32,2,7.36,7.3,7.38,7.16,0,14.32,0,21.48,0q10.49,0,21,0c5.86,0,7.76-1.88,7.77-7.7,0-11.9,0-23.8-.05-35.7,0-2.05.54-2.57,2.57-2.56,11.81.1,23.63.06,35.45.05,6.16,0,7.94-1.81,7.94-8Zm-11,35.61c0,2-.45,2.6-2.53,2.58-12-.11-24-.05-36-.05-5.87,0-7.94,2.05-7.94,7.88,0,12,0,24,0,36,0,1.59-.26,2.2-2.06,2.18q-15.13-.15-30.27,0c-1.66,0-2.15-.4-2.13-2.11.07-12,0-24,0-36,0-5.88-2-7.95-7.88-7.95-11.9,0-23.8,0-35.7,0-1.8,0-2.5-.24-2.47-2.32.14-9.91.12-19.83,0-29.75,0-1.89.38-2.43,2.36-2.42,11.9.11,23.8.06,35.71.06,5.89,0,7.95-2,8-7.87,0-11.9,0-23.8,0-35.7,0-1.78.2-2.51,2.3-2.48,10.09.14,20.18.11,30.27,0,1.77,0,2.33.37,2.29,2.23-.13,6.2-.05,12.41-.05,18.62,0,5.95,0,11.91,0,17.86,0,5.19,2.12,7.3,7.4,7.31,12,0,24,.06,36-.05,2.14,0,2.71.53,2.68,2.69Q825.55,245.28,825.73,259.9Z" fill="#6e90e8" class="color000 svgShape"></path></svg></g></svg>