<svg id="SvgjsSvg1371" width="288" height="288" xmlns="http://www.w3.org/2000/svg" version="1.1" xmlns:xlink="http://www.w3.org/1999/xlink" xmlns:svgjs="http://svgjs.com/svgjs"><defs id="SvgjsDefs1372"></defs><g id="SvgjsG1373"><svg xmlns="http://www.w3.org/2000/svg" data-name="Layer 1" viewBox="0 0 1000 1000" width="288" height="288"><path d="M230.64 174.56c7 .14 10.79 3 13.1 7.74a11.77 11.77 0 01-1.89 13.79c-7 7.58-14.33 15-22 21.91-5.32 4.79-12.72 4-17.55-.9-4.68-4.73-5.4-12.51-.73-17.6 7-7.63 14.49-14.79 21.93-22A10.39 10.39 0 01230.64 174.56zM304.52 127.89a15 15 0 01-4.38 10.17c-6.22 6.23-12.33 12.57-18.68 18.65-6.08 5.81-14.16 6-19.41.73-5.48-5.47-5.37-13 .65-19.33 6.26-6.54 12.71-12.91 19.23-19.19 4.37-4.21 9.62-4.8 15.05-2.34C302 118.83 304 123.19 304.52 127.89z" fill="#6e90e8" class="color000 svgShape"></path><path fill="#6e90e8" d="M271.29,174.78a14.06,14.06,0,0,1,10,4.28c6.25,6.16,12.56,12.26,18.58,18.64s6,13.85.56,19.3-13,5.33-19.28-.69q-9.8-9.36-19.13-19.18c-4.14-4.35-5-9.58-2.26-15A13,13,0,0,1,271.29,174.78Z" class="color010101 svgShape"></path><path d="M244.52 147.44c-.05 5.62-2.3 9.8-7.18 12.18s-9.87 2.36-13.82-1.31c-7.58-7-15-14.32-21.93-22a12.24 12.24 0 01.59-16.93c4.75-4.85 10.85-6.14 16.18-2.23 9.18 6.73 16.86 15.23 24.26 23.89C244.21 142.93 244.25 145.36 244.52 147.44zM782.82 473.37c4.39 0 8.78-.2 13.15.05 7.59.43 12.64 5.61 12.81 12.77s-4.7 13.11-12.07 13.46c-9.52.45-19.09.44-28.61 0a13.1 13.1 0 01-12.24-13.49c.23-6.9 5.66-12.35 13-12.74C773.53 473.17 778.18 473.37 782.82 473.37z" fill="#6e90e8" class="color000 svgShape"></path><path fill="#6e90e8" d="M835.29,446.19c0,4.9.27,9.81-.07,14.69-.48,7.13-5.67,12.3-12.42,12.34-7,0-12.32-3.55-13.27-10.51a109.48,109.48,0,0,1,.11-32.33c1.11-6.88,6.4-10.33,13.59-10,6.55.33,11.42,5,12,11.86.36,4.61.06,9.28.06,13.92Z" class="color010101 svgShape"></path><path d="M861.67,499.8c-4.38,0-8.78.22-13.15-.05-7.68-.48-13.25-6.45-13-13.58a13.15,13.15,0,0,1,13-12.73c9-.29,18.06-.29,27.07,0,7.57.24,12.66,5.59,12.84,12.73.2,7.47-5,13.1-12.84,13.58C871,500,866.31,499.8,861.67,499.8Z" fill="#6e90e8" class="color000 svgShape"></path><path fill="#6e90e8" d="M835.28,526.68c0,4.64.26,9.3-.06,13.92-.51,7.17-4.72,11.25-11.74,12.1-6.77.82-13.13-3.47-14-10.45a128.1,128.1,0,0,1,0-31.61c.83-7,7.26-11.29,13.89-10.73s11.53,5.51,11.95,12.84c.27,4.63.05,9.28.05,13.93Z" class="color010101 svgShape"></path><path d="M897.22,146.9c-12.23-26-31.69-41.9-60.65-45.27H814.79c-21.74,4.59-38.67,16.25-53.45,32.86-41.16,46.28-83.21,91.75-124.75,137.69-3.17,3.5-5.41,4.12-9.76,2.07a87.52,87.52,0,0,0-58.34-6.12c-26.68,6.17-47.42,21.06-61.34,44.82-1.68,2.87-3.9,3-6.26,3.63-21.48,5.7-42.78,12.31-64.52,16.71-16.62,3.37-24.58,13.6-29.33,28.27-6,18.49-5.53,37.32-2.55,56.13,15.16,95.54,98.32,173.73,194.36,182.84,20.77,2,40.81.16,58.8-12.09a24.83,24.83,0,0,0,10.83-15.3c5.95-23.55,12.26-47,18.45-70.5.63-2.36.25-5.14,3.6-6.23,9.35-3,15.06-10.77,21.42-17.47a92,92,0,0,0,17.59-101.55c-2.18-4.89-1.58-7.39,2.41-11q71-64.06,141.63-128.51c10.53-9.55,18.89-20.45,23.82-33.94,1.65-4.52,1.63-9.57,4.5-13.66V168.52C900.37,161.31,900.51,153.87,897.22,146.9ZM661.5,495.28c-6.15,22.16-12,44.42-17.64,66.71-1,3.91-2.68,6.44-6.43,7.89-18.49,7.18-37.19,4.79-55.89,1.3-4.52-.85-1.85-4.26-1.35-6.2,3.53-13.77,7.41-27.45,11.07-41.18,2.5-9.38-.93-16.15-9.07-18.29-7.56-2-13.8,2.19-16.37,11.33-3.78,13.43-7.49,26.89-10.94,40.41-1.08,4.23-2.56,5.1-6.69,3.28a217.66,217.66,0,0,1-48.29-29.26c-3.91-3.13-4.34-4.94-.52-8.62,12.7-12.21,25-24.83,37.51-37.25,3.58-3.56,6.63-7.3,6.26-12.77s-3.11-9.45-8-11.41c-5.52-2.2-10.67-1-15,3.33-12.46,12.46-25,24.88-37.38,37.39a87,87,0,0,0-5.69,7,197.5,197.5,0,0,1-34.8-55.36c-2.16-5.08,2.05-4.32,4.21-4.93,13.17-3.75,26.43-7.18,39.6-10.91,9.83-2.79,14-8.86,11.87-16.71-2.24-8.28-9-11.37-19.16-8.64q-20.22,5.43-40.39,11c-3.88,1.08-5.78.79-6.62-4.1-2.79-16.22-4.38-32.29.09-48.49,1.79-6.51,4.87-10.35,12.12-12,21.39-5,42.6-10.74,63.76-16.63,4.61-1.28,7.47-.76,10.88,2.67q69.93,70.26,140.19,140.21C662,488.22,662.73,490.88,661.5,495.28Zm23.79-26.78c-2.13,1.95-3.67,2.64-5.63.1a23.92,23.92,0,0,0-2.19-2.2q-70.08-70.09-140.24-140.08c-3.88-3.86-4.67-5.8-.28-10.18,32-31.87,70.59-32.12,102.63-.21q25.6,25.51,51.12,51.1c13.23,13.25,20.33,29.1,20.32,51.73C711.28,437.08,701,454.06,685.29,468.5ZM858.85,215.23c-30.69,28.26-61.69,56.17-92.56,84.23-16.68,15.16-33.46,30.22-49.94,45.6-4,3.69-6.13,4.39-10.36,0-15.61-16.25-31.66-32.1-47.78-47.86-3.42-3.34-4-5.29-.49-9.17Q723,216.6,788,144.89c10.13-11.12,23-16.41,35.68-16.74,22.37.19,41,13.22,48.39,32.36C879.37,179.22,874.48,200.83,858.85,215.23Z" fill="#6e90e8" class="color000 svgShape"></path><path d="M649.91,636.64a12.63,12.63,0,0,0-12.8-11.15c-8.6-.09-13.5,5.67-13.5,16.23q-.06,91,0,182c0,14.25-.15,28.51.1,42.77.07,4.11-1.12,5.31-5.22,5.17a235.19,235.19,0,0,0-26.42.07c-6.93.53-8.45-1.65-8.42-8.43.2-39.39.84-78.82-.6-118.17-1.42-39-36-71.3-74.89-72.56-46.87-1.52-83.37,33.6-83.65,80.86-.22,36.81-.24,73.62.14,110.42.06,6.66-1.82,7.88-8.1,7.87q-118.21-.36-236.41,0c-6.59,0-7.9-1.7-7.9-8q.3-211.14-.05-422.27c0-7.31,2.27-8.23,8.67-8.2,59.1.24,118.2.14,177.3.13a59.23,59.23,0,0,0,8.54-.27c6.42-.93,10.24-4.86,11-11.23.8-6.74-2.24-11.43-8.58-14-3.25-1.32-6.62-1-10-1H133.55c2.73-2.15,3.81-3.05,4.94-3.89q127.11-94,254.13-188.08c4.58-3.4,7.18-2.68,11.27.39q40.07,30.09,80.49,59.7c7.71,5.68,15,5,19.91-1.36,4.81-6.2,3.51-14.2-3.74-19.6q-43-32-86.24-63.68c-11-8-22.14-7.83-33,.22q-131.22,96.93-262.34,194c-4.46,3.3-8.17,7.17-10.26,12.38-7,17.49,5.59,38.43,27.72,36.38,7.82-.73,9.71,1.62,9.69,9.53q-.42,211.9-.2,423.82c0,21.55,9.82,31.47,31.17,31.47H618.76c21.57,0,31.34-9.73,31.35-31.23q0-111.59,0-223.18A52.42,52.42,0,0,0,649.91,636.64Zm-99.08,235q-47-.35-94,0c-4.82,0-6-1.25-6-6,.21-37.54-.11-75.09.19-112.63.25-30.67,23.72-54.13,53.34-54,29.46.09,52.21,23.08,52.74,53.73.31,18.12.06,36.24.06,54.37,0,19.42-.19,38.84.13,58.25C557.39,870.51,555.81,871.69,550.83,871.66Z" fill="#6e90e8" class="color000 svgShape"></path><path d="M371.42 489c0-10.77-4.91-15.6-15.73-15.61q-64.11-.08-128.23 0c-10.38 0-15.17 4.7-15.19 15.25q-.18 64.11 0 128.23c0 11 4.59 15.54 15.64 15.56q63.72.11 127.45 0c11.4 0 16-4.7 16.08-16 .06-21.24 0-42.48 0-63.72S371.51 510.21 371.42 489zM277.28 604.46c-3.82 4.33-12.63 1.26-19.26 1.34-6.15.08-14.11 2.66-18-1s-.94-11.75-1.2-17.88c-.22-5.17.23-10.38-.13-15.54-.3-4.27 1.37-5.33 5.32-5.09 4.9.31 9.84.07 15.94.07 5.17.75 13.63-2.89 17.32 1.41 3.11 3.63 1.05 11.82 1 18C278.34 592.17 280.53 600.77 277.28 604.46zm-.44-65.86c-3.89 3.23-12.32 1.12-18.74 1.14-19.3.07-19.33 0-19.28-19 0-6.69-2.35-15.73 1-19.45 4-4.36 13.14-1.17 20-1.35 5.89-.15 13.8-2 17.17 1 4 3.55.83 11.63 1.31 17.72 0 .26 0 .52 0 2C277.54 526 281.46 534.78 276.84 538.6zm67 66.06c-3.73 3.89-11.74.8-17.86 1.23-.25 0-.51 0-.77 0v-.46c-6.44 0-15.05 2.53-18.75-.66C302.05 601 305 592.16 305 585.53c-.18-19.2-.06-19.24 19.06-19.18 6.69 0 15.42-2.21 19.51 1.13 4.33 3.53 1.23 12.6 1.3 19.24C344.92 592.86 347.51 600.82 343.81 604.66zm1-84.55c0 6.35 3 14.77-1.33 18.46-3.65 3.13-11.8 1.06-18 1.18-5.17.09-10.35-.21-15.51.09-4.2.24-5.4-1.47-5.18-5.42.27-4.9.06-9.82.06-15.91.58-5.2-2.76-13.52 1.23-17.47s12.27-1 18.67-1.14 15-2.25 18.7 1C347.85 504.7 344.86 513.51 344.83 520.11zM371.42 688.09c0-10.78-4.91-15.61-15.72-15.63q-63.72-.08-127.45 0c-11.37 0-16 4.53-16 16q-.12 63.35 0 126.68c0 12.05 4.38 16.33 16.43 16.37 21 .06 42 0 62.94 0 21.51 0 43 .09 64.51 0 10.42-.06 15.27-4.87 15.29-15.2Q371.53 752.2 371.42 688.09zm-131.27 12c3.56-3.28 12.25-1.27 18.66-1.11s14.82-2.87 18.53 1.27c3.12 3.49.9 11.77 1 17.93 0 .26 0 .52 0 1.94-.62 5.21 2.81 13.51-1.26 17.49s-12.32 1.19-18.71 1.12-14.8 3-18.48-1.4c-3.12-3.7-1.18-11.85-1.07-18C239 712.72 236 703.93 240.15 700.12zM276.89 804c-3.73 3.24-12.32 1-18.76 1-6.17 0-14.4 2-18-1.11-4.22-3.72-.67-12.16-1.51-18.39.7-6.52-2.62-14.85 1.35-18.81s12.29-1.15 18.69-1.11 14.81-2.91 18.53 1.25c3.14 3.51 1.22 11.78 1.08 17.94C278.15 791.36 281.24 800.18 276.89 804zm29.18-103.74c3.9-4.09 12.23-1.2 18.6-1.18 6.61 0 15.41-3 19.22 1.33 3.24 3.71 1.17 12.29 1 18.7s2.88 14.65-1.25 18.6-12.32.65-18.84 1.32c-6.26-.79-14.47 2.68-18.56-1.43s-1.15-12.27-1.21-18.65S302.21 704.26 306.07 700.23zm37.74 103.43c-3.57 4-11.65.84-17.75 1.33-.26 0-.52 0-2 0-5.39-.83-14.17 3.06-18-1.52-3.23-3.87-1.12-12.32-1.14-18.74-.07-19.3 0-19.34 19-19.29 6.71 0 15.67-2.34 19.52 1 4.48 3.94 1.22 13.12 1.42 20C345 792.38 346.82 800.26 343.81 803.66zM523.54 115a46.32 46.32 0 1046.61 46.3A46.25 46.25 0 00523.54 115zm-.3 66.1a19.73 19.73 0 1120.22-19.21A19.8 19.8 0 01523.24 181.11zM749.25 566.38a46.29 46.29 0 1046.56 46.26A46.24 46.24 0 00749.25 566.38zm.09 66a19.71 19.71 0 1119.87-19.6A19.78 19.78 0 01749.34 632.35z" fill="#6e90e8" class="color000 svgShape"></path><path fill="#6e90e8" d="M530.41,791.89c0,4.89.33,9.82-.08,14.68-.61,7.25-5.35,11.23-12.18,11.7-6.54.46-12-2.86-13.15-9.53A97.22,97.22,0,0,1,505,775c1.26-7,6.86-10.07,13.94-9.31,6.76.73,10.79,4.77,11.37,11.55C530.75,782.07,530.41,787,530.41,791.89Z" class="color010101 svgShape"></path></svg></g></svg>