<svg id="SvgjsSvg1119" width="288" height="288" xmlns="http://www.w3.org/2000/svg" version="1.1" xmlns:xlink="http://www.w3.org/1999/xlink" xmlns:svgjs="http://svgjs.com/svgjs"><defs id="SvgjsDefs1120"></defs><g id="SvgjsG1121"><svg xmlns="http://www.w3.org/2000/svg" data-name="Layer 1" viewBox="0 0 1000 1000" width="288" height="288"><path d="M838,669.64c0-23.6-15.75-39.11-39.51-39.16-29.46-.06-58.93-.26-88.38.17-7,.1-8.73-1.71-8.71-8.72q.36-173.68.16-347.36c0-25.89-15-41.09-40.7-41.09q-157.77,0-315.54,0c-25.65,0-40.7,15.2-40.71,41.07,0,50.4-.08,100.8.11,151.2,0,5-1.25,6.38-6.32,6.34-29.46-.25-58.92-.13-88.38-.12-27,0-41.87,14.76-41.87,41.48q0,194.24,0,388.45c0,26.73,14.91,41.5,41.87,41.5H502.27q148.08,0,296.16,0c23.79,0,39.51-15.55,39.54-39.13Q838.08,766.95,838,669.64ZM454.16,297.11c5.24-11.48,11.37-22.54,16.78-33.94,1.82-3.83,4.05-5,8.28-5,60.71.16,121.42.09,182.13.13,11,0,15.35,4.39,15.36,15.57q.06,50,0,100c0,33.84-.12,67.69.12,101.54,0,5.09-1.33,6.35-6.35,6.31-32.55-.23-65.11-.32-97.65.05-6.44.08-8.06-1.46-7.94-7.93.4-22.24-10.51-37-29.75-41.06a56.24,56.24,0,0,0-11.55-.77q-93.39-.08-186.78.1c-5.9,0-7.66-1.24-7.61-7.44q.5-55,0-110.07c0-5.29,1.06-6.88,6.64-6.83,33.59.29,67.17-.05,100.76.28C445.31,308.12,450.58,305,454.16,297.11ZM676.83,625c0,4.34-1.11,5.58-5.52,5.56q-50.38-.29-100.77,0c-4.35,0-5.62-1.1-5.56-5.51.24-18.86.1-37.73.1-56.6s.14-37.73-.1-56.59c-.05-4.35,1.11-5.58,5.52-5.56q50.38.29,100.77,0c4.35,0,5.58,1.1,5.56,5.51Q676.56,568.42,676.83,625ZM329.19,275.52c.65-13.53,3.92-17.23,17.74-17.24h97.79c.11,1.14.23,1.42.14,1.62-10.25,23.19-10.25,23.19-35.49,23.19-24,0-48-.21-72,.15C331.23,283.33,328.87,282.36,329.19,275.52ZM192.76,524.34c.48-17.29.13-34.6.18-51.9,0-11.27,4.24-15.64,15.26-15.64q158.42,0,316.83,0c10.66,0,15.17,4.43,15.22,14.91.08,17.82-.22,35.65.17,53.46.11,5.38-1.77,6.16-6.52,6.14q-83.65-.22-167.32-.09c-55.52,0-111-.09-166.56.13C194.47,531.37,192.59,530.39,192.76,524.34ZM491.55,660.09a54.81,54.81,0,0,0-.86,11.54c-.06,50.12-.15,100.24.11,150.36,0,5.83-1.4,7.13-7.15,7.12Q360,828.8,236.41,829a45.23,45.23,0,0,0-7.73.16c-6.68,1.17-10.72,5.25-10.8,12.1s3.91,11,10.54,12.33c2.49.5,5.15.21,7.73.21,82.16,0,164.31.12,246.46-.19,7,0,9,1.89,8.11,8.46-.74,5.37.55,10.7,1.69,16.55H210.79c-14.29,0-17.86-3.55-17.86-17.75q0-148.44-.14-296.86c0-6.11.93-8.15,7.71-8.13q166.25.38,332.49,0c6.23,0,7.53,1.76,7.42,7.62-.37,19.89-.42,39.79,0,59.68.14,6.23-1.74,7.52-7.62,7.44C510.34,630.31,495.77,640.88,491.55,660.09ZM813.18,861.85c0,12.72-4,16.73-16.55,16.73q-132.49,0-265,0c-12.06,0-16.15-4.14-16.15-16.33q0-95.32,0-190.64c0-12.21,4.06-16.32,16.14-16.32q66.26,0,132.51,0h132.5c12.6,0,16.56,4,16.56,16.71Q813.2,766.93,813.18,861.85Z" fill="#6e90e8" class="color000 svgShape"></path><path d="M651.92,370c0,7.73.1,15.46,0,23.19-.14,8.48-4.95,13.86-12.22,14s-12.44-5.28-12.52-13.64q-.21-23.57,0-47.14c.08-8.34,5.27-13.71,12.57-13.57s12,5.49,12.17,14C652,354.5,651.92,362.22,651.92,370Z" fill="#6e90e8" class="color000 svgShape"></path><path fill="#6e90e8" d="M763.57 729.7c-4.11 0-8.24.19-12.34-.05-7.33-.41-12.31-5.41-12.43-12.14a12.07 12.07 0 0112-12.49c8.47-.34 17-.34 25.46 0a12.1 12.1 0 0112.06 12.47c-.11 6.73-5.09 11.75-12.41 12.17C771.82 729.89 767.69 729.7 763.57 729.7zM763.72 779.28c-4.38 0-8.77.27-13.12 0-7.15-.53-12-6-11.8-12.72a12 12 0 0111.87-11.86c8.73-.33 17.5-.37 26.23 0A12 12 0 01788.33 767a12.26 12.26 0 01-11.5 12.25C772.49 779.57 768.09 779.28 763.72 779.28zM763.83 804.19c4.12 0 8.25-.22 12.35 0 7.25.46 12.2 5.66 12.15 12.41a12 12 0 01-11.55 12.17c-8.73.4-17.5.38-26.23 0a12 12 0 01-11.75-12c-.17-6.74 4.74-12.11 11.92-12.6C755.07 804 759.46 804.19 763.83 804.19z" class="color010101 svgShape"></path><path d="M367.44,481.59c19.34,0,38.69,0,58,0,9.82,0,15.42,4.51,15.5,12.27s-5.55,12.51-15.26,12.52q-59.19.06-118.4,0c-9.64,0-15.28-4.85-15.11-12.67.17-7.51,5.65-12.08,14.86-12.11C327.19,481.55,347.31,481.59,367.44,481.59Z" fill="#6e90e8" class="color000 svgShape"></path><path fill="#6e90e8" d="M242.26 481.63c4.38 0 8.77-.24 13.12.06 7.17.49 12.1 5.88 11.93 12.6a12.09 12.09 0 01-11.76 12c-8.48.37-17 .33-25.47 0-7.3-.26-12.25-5.49-12.3-12.24s4.88-11.94 12.14-12.4C234 481.41 238.15 481.62 242.26 481.63zM490.42 506.35c-4.37 0-8.77.29-13.11-.08A12.21 12.21 0 01465.89 494a12 12 0 0111.47-12.21c8.73-.41 17.5-.38 26.23 0a12.06 12.06 0 0111.82 11.91c.21 6.7-4.73 12.16-11.87 12.67C499.19 506.61 494.8 506.36 490.42 506.35z" class="color010101 svgShape"></path><path d="M627.12 568.42c0-8-.15-16 0-24s5.12-13.09 12.16-13.2 12.42 5 12.52 12.83q.31 24.35 0 48.69c-.11 7.76-5.52 13-12.54 12.83s-11.95-5.34-12.14-13.24S627.12 576.4 627.12 568.42zM366.73 605.67c-54.76-.22-99.33 44.41-99.36 99.49 0 54.05 44.36 98.74 98.31 99 55.13.25 100-44 100.13-98.73A99.28 99.28 0 00366.73 605.67zM296.21 729.49a74.76 74.76 0 010-48.37c.89-2.67 1.9-3.38 4.91-3 11.65 1.61 15.81 6 15.86 17.49 0 3.34 0 6.68 0 10 0 2.83 0 5.66 0 8.49 0 12.12-3.26 15.92-15.09 18.22C299 732.94 297.34 732.91 296.21 729.49zm121.72 29.64c-30.53 28.47-79.79 26.56-105.29-4.08 22.88-9.64 29.15-19.19 29.15-44.41 0-3.62-.2-7.25 0-10.85 1.42-22.29-7.22-38-29.38-44.91 26.3-31 75.66-32.63 106.07-3.69C449.1 680.31 448.84 730.31 417.93 759.13zM713.92 695.06c0-10.51-4.54-14.94-15.18-14.95q-71.65-.06-143.31 0c-10.66 0-15.13 4.42-15.14 15q-.07 71.65 0 143.32c0 11 4.39 15.33 15.56 15.35q35.63.07 71.26 0c24 0 48 .05 72 0 10.11 0 14.74-4.58 14.75-14.6Q714 767.11 713.92 695.06zM689.23 823.52c0 4.37-1.14 5.56-5.53 5.54q-56.58-.25-113.18 0c-4.36 0-5.56-1.14-5.54-5.53q.27-56.6 0-113.18c0-4.37 1.14-5.61 5.53-5.55 19.12.24 38.25.1 57.37.1 18.6 0 37.21.14 55.81-.1 4.37-.06 5.56 1.15 5.54 5.53Q689 766.93 689.23 823.52z" fill="#6e90e8" class="color000 svgShape"></path><path fill="#6e90e8" d="M913.24,289.05a6.41,6.41,0,0,1,1.35,8.53" class="color040404 svgShape"></path><path fill="#6e90e8" d="M851.68,299.7c-2.56-2-3.58-4.56-2.46-7.73" class="color030303 svgShape"></path><path fill="#6e90e8" d="M771.21,614.16a8.54,8.54,0,0,1-8.55,8.93,8.83,8.83,0,0,1-9-8.56,9.06,9.06,0,0,1,8.68-9A8.82,8.82,0,0,1,771.21,614.16Z" class="color010101 svgShape"></path><path d="M446.56,230.09c11.68-4.51,20.32-14.91,21.42-27.39.7-7.95-1.62-15.53-7.71-22.44-5.69-6.45-7.16-12.63-6.58-20.3a16.65,16.65,0,0,0,0-3.8c-.6-3.89.89-4.95,4.84-4.92,26.42.19,52.85.14,79.27,0,3,0,4.79.45,6.13,3.74,3.62,8.88,10.8,13.55,20.26,13.64q37.1.36,74.2,0c8.88-.09,16.07-4.22,19.6-12.61,1.74-4.16,4.07-4.81,8-4.79,27.48.15,55,.23,82.45,0,5.48-.06,7.36,1,7.33,7-.28,52.21-.17,360.35-.16,412.57a40.61,40.61,0,0,0,.07,5.06c.5,3.83,2.65,6.2,6.63,6.33s6.24-2.28,7-6a30.9,30.9,0,0,0,.16-5.7V149.7c0-10.56-1.56-12.15-12-12.15-30.66,0-61.31-.09-92,.1-4.3,0-5.48-1.18-5.15-5.57a96.9,96.9,0,0,0,0-16.69c-.49-5,.68-6.32,5.42-6.28,30.44.22,60.88,0,91.32.14,20.49,0,35.13,14.63,35.29,35.05.11,14.8,0,29.6,0,44.4,0,56.44,0,368.8-.05,425.25,0,5,1.08,9.32,6.72,9.55,5.16.21,7.2-3.44,7.19-8.41,0-72.3.22-400.52-.23-472.81-.12-19-9.84-33.27-27-41.9-4.21-2.12-8.86-3.36-13.31-5H443.55c-.46.35-.87.9-1.38,1-21.26,4.83-34.87,19-38.52,40.23-1.26,7.34-.49,14.76-.6,22.15-.15,9.29,1.69,19.07-.6,27.78-3.19,12.16-3.3,23.1,3.64,34.58C406.09,221.13,422.21,239.51,446.56,230.09Zm7.45-29a20,20,0,0,1-20.22,20,20.33,20.33,0,0,1-20.3-20c-.09-11,9.71-20.7,20.71-20.44A20.4,20.4,0,0,1,454,201.12Zm82.06-63.44c-28.08-.28-56.16-.14-84.24-.13-10.42,0-12,1.57-12,12.13v2.53c0,4.65,1.46,10.16-.55,13.69s-8,.19-12.08,1.7c-3.14,1.16-6.39,2-10.29,3.19,0-10.24-.39-20.18.09-30.07.81-16.59,15.18-31.09,31.68-31.32,29.77-.42,59.54-.1,89.31-.25,3.48,0,4.27,1.23,4.16,4.41a169.11,169.11,0,0,0,0,17.73C542.54,136.12,541.27,137.73,536.07,137.68Zm110.49,7.69c-.07,6.59-3.07,9.49-9.84,9.55-11.83.09-23.66,0-35.49,0-11.63,0-23.25.05-34.87,0-7.61,0-10.45-2.71-10.56-10.19-.14-10.35.05-20.7-.08-31.05,0-3,.33-4.57,4-4.55q41.52.23,83,0c3,0,3.94.84,3.89,3.89C646.48,123.82,646.67,134.6,646.56,145.37Z" fill="#6e90e8" class="color000 svgShape"></path></svg></g></svg>