<svg id="SvgjsSvg1021" width="288" height="288" xmlns="http://www.w3.org/2000/svg" version="1.1" xmlns:xlink="http://www.w3.org/1999/xlink" xmlns:svgjs="http://svgjs.com/svgjs"><defs id="SvgjsDefs1022"></defs><g id="SvgjsG1023"><svg xmlns="http://www.w3.org/2000/svg" data-name="Layer 1" viewBox="0 0 1000 1000" width="288" height="288"><path d="M166.15,383.82a21.31,21.31,0,0,1,10.25-8.74q160.16-71.67,320.23-143.5c2-.89,3.95-1.81,5.92-2.72h5.3Q670,301.64,832.28,374.27c8.67,3.87,12.25,8.9,12.15,18.55-.43,41-.28,82.1-.06,123.14,0,5.2-.74,7.79-6.62,6.92-5.16-.78-12.1,2.21-15.14-1.21-2.56-2.88-.9-9.63-.9-14.66,0-35.54-.11-71.07.08-106.6,0-4.32-1.06-6.58-5.16-8.41q-153.6-68.65-307-137.63a9.52,9.52,0,0,0-8.65-.06Q347.47,323.25,193.9,392c-4,1.79-5.34,3.87-5.31,8.32.21,38.84,0,77.68.24,116.52,0,5-1.15,6.53-6.14,6.11-5.48-.46-11,0-16.54,0Z" fill="#007CAA" class="color000 svgShape"></path><path d="M505.43,477.57c-43.26.23-79.24-35.57-79.4-79-.16-42.79,34.93-78.69,77.75-79.22a83,83,0,0,1,24.12,3.39c2.89.84,3.69,1.83,2.46,4.47-.18.39-.24.85-.39,1.26-1.89,5.15-2.44,11.79-6.05,15s-9.84-.91-15-1.38c-28.85-2.63-56.52,20.8-59.64,49.9-3.11,28.9,16.09,54.46,43,61.36,31.19,8,66.08-15.95,68.66-47.87.26-3.28,1-6.71.39-9.83-1.12-5.4.46-7.89,6-7.83a14.7,14.7,0,0,0,2.63-.29c14.76-2.46,14.76-2.47,14.4,12.53A79.59,79.59,0,0,1,505.43,477.57Z" fill="#007CAA" class="color000 svgShape"></path><path d="M576.85 321.94c4.48 4.89 8.61 9.77 13.15 14.24 3.39 3.33 0 4.56-1.54 6.16q-22.82 23-45.78 45.83c-9.19 9.19-18.34 18.43-27.6 27.55-7.21 7.1-12.59 7-19.88-.1-6-5.86-11.78-11.91-17.83-17.69-2.13-2.05-2.68-3.35-.14-5.58A141.47 141.47 0 00488 381.62c2-2.2 3.55-2.13 5.25.12a3.41 3.41 0 00.45.48c3.82 3.59 7.58 10 11.48 10.06 4.63.1 8-6.65 11.9-10.49C536.74 362.21 556.31 342.52 576.85 321.94zM640.6 715.68c-.2-27.5-14.7-46.18-41.15-54.91-4.18-1.39-4-3.82-4-7q0-46.66 0-93.35c0-24.09-13.61-37.65-37.68-37.65q-154.26 0-308.5 0c-24.4 0-38 13.67-38.05 38.11q0 46.68 0 93.35c0 3.38-.28 5.4-4.34 6.63-20 6.08-33 19.43-38.82 39.64-.38 1.31 0 3.25-2 3.82V899c3.06 4.94 7 8.11 13.29 8 13.89-.22 27.8 0 41.7-.12 8.38-.09 12.53-4.33 12.67-12.72.15-8.6.47-17.24-.11-25.81-.4-5.84 1.73-6.69 7-6.67 43.25.22 86.5.13 129.75.13 65.1 0 130.2.1 195.29-.17 6.34 0 7.62 1.92 7.28 7.63-.47 7.92-.22 15.88-.09 23.83.16 9.5 4.41 13.74 13.82 13.81q20.19.13 40.38 0c9.28-.07 13.56-4 13.57-13.2C640.78 834.41 641 775 640.6 715.68zM233.85 561.21c0-12.12 3.72-15.84 15.77-15.84H557.44c11.86 0 15.44 3.53 15.44 15.28 0 30.67-.1 61.35.13 92 0 4.76-1.34 6.17-5.88 5.63-5.4-.65-12.61 2.32-15.79-1.2-2.68-3-1-10-1-15.27-.08-9.71.15-19.42-.1-29.13-.46-18.08-13.27-32.13-31.32-33-24.24-1.13-48.54-1.13-72.77 0-17.76.84-30.55 14.57-31.1 32.43-.42 13.67-.31 27.37-.07 41 .08 4.18-1.22 5.48-5.23 5.08-5.64-.56-13.14 2.39-16.44-1.2-2.8-3-.87-10.43-1-15.89-.33-11 .77-22.07-.71-33.06-2.05-15.14-14.33-27.76-29.52-28.26-24-.78-48.1-1-72.12-.32-20.2.56-33 14.69-33.41 35.21-.26 12.8-.21 25.6 0 38.4.08 4-.81 5.59-5.05 5.14-5.65-.59-12.9 2.26-16.6-1.11-3.47-3.16-1-10.43-1-15.88C233.78 614.62 233.83 587.92 233.85 561.21zm203.7 53.26c.09-8.1 4.08-12.39 12.15-12.47q33.07-.3 66.16 0c7.66.08 11.74 4.45 11.84 12.14.18 13.23-.13 26.47.16 39.7.09 4.18-1.66 4.49-5 4.45-13.45-.16-26.9-.07-40.36-.07-13.23 0-26.47-.2-39.69.12-4.46.1-5.45-1.31-5.36-5.51C437.67 640.06 437.4 627.26 437.55 614.47zM279.11 616c.11-10 4.14-14 14.11-14.06q31.09-.15 62.19 0c10.07 0 14.08 4 14.2 13.95.16 12.57-.11 25.15.13 37.72.08 4-1.39 4.75-5 4.7-13.67-.17-27.35-.07-41-.07-13 0-26-.11-39 .08-3.95 0-5.91-.47-5.76-5.27C279.32 640.71 279 628.35 279.11 616zM188.57 764.74c.39-15.65.08-31.33.15-47 .1-22.57 14.1-36.84 36.77-36.85q178.06-.15 356.12 0c22.49 0 36.28 14 36.48 36.31.14 16.11-.22 32.22.17 48.32.12 5.32-1.8 6-6.44 6q-104.25-.19-208.51-.09-103.92 0-207.85.13C190 771.59 188.43 770.27 188.57 764.74zM611.33 884.56c-15.81-.35-15.81-.11-15.81-15.6 0-5.74.12-11.48 0-17.21-.24-8.15-4.22-12.11-12.22-12.45-1.54-.06-3.09 0-4.63 0H228.48c-14.07 0-17.2 3.09-17.21 17 0 8-.17 15.9.08 23.83.1 3.45-.85 4.73-4.4 4.41-5.87-.52-13.44 2.37-17.2-1.12-3.5-3.24-1-10.84-1-16.51-.12-22.28.14-44.57-.19-66.85-.08-5.14 1.42-6.06 6.22-6q104.58.25 209.16.12c69.06 0 138.12.08 207.17-.15 5.85 0 7.23 1.38 7.15 7.17q-.54 38.38 0 76.78C618.35 883.58 616.66 884.68 611.33 884.56zM844.25 752.76q0-39.06 0-78.12c0-12.92-3.5-16.39-16.57-16.39H682c-15.9 0-18.64 2.69-18.64 18.32V822.88c0 16.61 0 16.42 17 16.53 4.7 0 5.89-1.35 5.83-5.91-.25-18.76.05-37.52-.21-56.28-.07-4.58 1.1-5.9 5.79-5.88q62.24.27 124.46 0c5 0 5.65 1.69 5.57 6-.25 15-.19 30 0 45 0 5.45-2.4 12.55 1 15.91s10.5.44 15.91 1.09c4.79.57 5.76-1.3 5.72-5.82C844.14 806.61 844.25 779.69 844.25 752.76zm-27.69-3.88c-20.94-.19-41.88-.09-62.82-.09-20.72 0-41.44-.11-62.16.09-4.26 0-5.68-1-5.62-5.5.25-19 .19-37.91 0-56.87 0-4 .61-5.79 5.34-5.77q62.82.3 125.64 0c3.76 0 4.83 1.08 4.8 4.82-.18 19.39-.21 38.8 0 58.19C821.84 748 820.52 748.91 816.56 748.88zM808.92 562.06q-10.32-31.66-21-63.21c-2.61-7.74-6-10.06-14.23-10.11q-19.85-.14-39.69 0c-8.33.06-11.65 2.42-14.25 10.1q-10.53 31.23-20.88 62.52c-3.64 11 1.06 17.64 12.66 17.88 8.59.18 17.2.24 25.79-.05 3.95-.14 5.4.79 5.2 5-.36 7.92-.33 15.88 0 23.81.17 4-.84 5.31-5 5.17-5.65-.19-13.22-2.58-16.51.91-3.55 3.77-.63 11.32-1.17 17.19-.32 3.54 1 4.5 4.42 4.42 9.7-.21 19.41-.07 29.11-.07 9.92 0 19.85 0 29.77-.06 1.65 0 4.48 1.27 4.49-2.09 0-6.58 1.4-13.85-1-19.45-1.31-3.06-9.36-.63-14.36-1a14.55 14.55 0 00-2.64 0c-3.27.41-4.73-.58-4.61-4.27.26-8.37.24-16.76 0-25.13-.1-3.59 1.24-4.51 4.59-4.45 9 .17 18.09.25 27.13 0C807.62 578.91 812.29 572.39 808.92 562.06zm-29.83-5.41c-8.37-.21-16.75-.07-25.12-.07-8.16 0-16.32-.11-24.47 0-3.71.08-5.24-.39-3.68-4.73 4.37-12.2 8.39-24.53 12.31-36.88.9-2.83 2.23-3.82 5.14-3.75 7.93.19 17.17-2.4 23.43.85s6 13.78 8.75 21.06c2.39 6.37 4.27 12.94 6.59 19.34C783.19 555.68 782.64 556.74 779.09 556.65z" fill="#007CAA" class="color000 svgShape"></path><path fill="#010101" d="M753.45,726.13c-5.73,0-11.47-.29-17.17.09-4.27.29-5-1.32-5.06-5.23-.12-17.53-.25-17.53,17.23-17.53,7.7,0,15.42.24,23.12-.09,4.24-.18,5.38,1.36,5,5.31a60.94,60.94,0,0,0,0,11.22c.48,4.74-.76,6.8-6,6.34C764.94,725.74,759.18,726.13,753.45,726.13Z" class="color010101 svgShape"></path><path d="M220.65,355.27V113.54a13.79,13.79,0,0,1,13.79-13.8H761.89a20.69,20.69,0,0,1,20.69,20.69v240.4L753.83,348V140.32a9,9,0,0,0-9-8.95H266.66a13.79,13.79,0,0,0-13.79,13.79V351.48Z" fill="#007CAA" class="color000 svgShape"></path><path d="M402.24 190.72h-23V218H360.35v-67.9h18.87V175.6h23V150.08h18.87V218H402.24zM464.46 218.65c-19.26 0-34.87-14.44-34.87-34.86S445.2 149 464.46 149s34.76 14.35 34.76 34.77S483.72 218.65 464.46 218.65zm0-17.53c9.72 0 15.6-6.83 15.6-17.33 0-10.69-5.88-17.43-15.6-17.43s-15.6 6.74-15.6 17.43C448.86 194.29 454.63 201.12 464.46 201.12zM504 150.08h54.89v15H540.73V218H521.86V165.11H504zM609.31 165.2H584.75v11.08h21.67v14.35H584.75v12.23h24.56V218H565.87v-67.9h43.44zM637.53 150.08v53.45h21.09V218h-40v-67.9z" fill="#007CAA" class="color000 svgShape"></path></svg></g></svg>
