<svg id="SvgjsSvg1190" width="288" height="288" xmlns="http://www.w3.org/2000/svg" version="1.1" xmlns:xlink="http://www.w3.org/1999/xlink" xmlns:svgjs="http://svgjs.com/svgjs"><defs id="SvgjsDefs1191"></defs><g id="SvgjsG1192"><svg xmlns="http://www.w3.org/2000/svg" data-name="Layer 1" viewBox="0 0 1000 1000" width="288" height="288"><path fill="#00c6ff" d="M901.33,550.32c-2-1-1.57-2.08,0-3.13Z" class="color414141 svgShape"></path><path d="M901.33,517.51c-1.22-.34-1.33-1.31-1.45-2.37q-7.57-65.83-53.9-113.23c-4.37-4.48-5.93-8.85-6-15-.07-17.92,2.08-36-2-53.71-8.91-38.78-41.06-63.59-82.48-63.78q-66-.29-132,.11c-6,0-7.41-1.59-7.15-7.32.48-10.65.31-21.35.1-32-.88-45.39-33-79.23-77.64-80.06-46.33-.86-92.7-.71-139,.15-34.41.64-63.43,25.24-72.16,58.68-4.56,17.45-2.37,35.21-2.6,52.83-.07,5.82-1.11,7.8-7.49,7.76q-66-.48-132-.11c-49.58.31-84.19,35.37-84.21,84.94q-.06,177.3,0,354.59c0,48.8,34.28,84,83.07,84.43,54.67.48,109.35.13,164,.09,9.89,0,15.25-4.25,15.32-11.72s-5.29-11.58-15.16-11.69c-2.08,0-4.16,0-6.24,0-52.34,0-104.67.15-157-.06-36.24-.14-60.55-24.83-60.57-61q-.07-112.47,0-224.94c0-2.09-1.21-4.6,1.1-6.42,25.49,34.1,54.6,51.75,96.81,58,5.27.78,6.14,2.59,6.08,7.21-.17,13.27-.52,26.59.33,39.82a43.67,43.67,0,0,0,44.38,40.56A44.18,44.18,0,0,0,317,579.85c.23-12.23.38-24.48-.08-36.7-.21-5.74,1.79-6.74,7.05-6.72q91,.27,182,0c5.3,0,7,1.23,7.19,6.76.75,28.72,7.8,55.87,20.48,81.74,3.94,8,14.16,15.54,11,23.85s-12.86,13.89-19.6,20.77c-1.76,1.8-3.41,2.67-6.12,2.22-9.2-1.55-16.72,1.79-23.2,8.29-31.07,31.16-62.31,62.14-93.29,93.39-19.94,20.12-20.26,49.82-1.16,69.27,18.84,19.18,49.37,19.29,69.3-.37,31.51-31.09,62.65-62.55,94-93.82,4.57-4.56,9.15-10.24,8.08-16.24-1.9-10.65,4.91-15.48,10.85-21.39,3.32-3.31,6.86-6.43,9.86-10,2.75-3.28,4.78-2.93,8.3-.81,69.56,41.9,139.43,42.1,209.51,1.2,1.64-.95,3-3.17,5.43-2,4.41,43.35-24.17,73.36-68,71-24.4-1.31-48.94-.23-73.41-.23q-49.22,0-98.42,0c-9.52,0-14.43,4-14.49,11.46-.08,7.65,5.08,11.91,15,11.92,59.88,0,119.77.29,179.65-.07,38.49-.23,69.5-23.26,79.86-58.12,4.84-16.29,3.35-33,3.37-49.63,0-4.73,1.19-8.11,4.64-11.6,27-27.31,44.59-59.72,52.56-97.38,1.31-6.18.73-12.81,4-18.56v-7.81a2,2,0,0,1,0-3.13ZM349.4,219.29c4.71-25.92,25.51-45.27,51.74-45.65,46.31-.66,92.65-.74,139,0,29.42.48,51.35,23.6,52.83,54,.59,12.2,1.61,24.68-.25,36.62-1.72,11.07-12.09,3-18.24,5-3.75,1.22-6.74.3-6.47-5.31.5-10.64.2-21.33.13-32-.15-21.18-12.33-33.52-33.35-33.62-21.34-.12-42.68,0-64,0s-42.68-.08-64,0c-21,.11-33.27,12.49-33.35,33.6,0,10.93-.16,21.86.08,32.79.08,3.79-1.15,4.66-4.83,4.8-20.26.8-20.39.92-20.2-19.05C348.51,240.06,347.51,229.64,349.4,219.29Zm47.35,11.93c-.08-6.49,2.73-9.55,9.34-9.54q64.44.1,128.87,0c7.08,0,9.84,3.23,9.76,10-.14,10.67-.34,21.36.09,32,.21,5.27-2,5.86-6.4,5.82-22.64-.18-45.3-.08-67.94-.08-22.13,0-44.27-.18-66.39.13-5.52.07-7.83-.82-7.46-7.08C397.23,252.07,396.89,241.63,396.75,231.22ZM252.24,523.7c-.2-6.76-.28-13.54.1-20.28.69-12.4,9.31-20.61,21-20.44s19.94,8.86,20.25,21.18c.14,5.46,0,10.92,0,16.39H293c0,7.22,2.79,16.78-.76,21-3.72,4.41-13.63,1.24-20.82,1.25-6.16,0-14.15,2.72-18-1.13S252.42,529.86,252.24,523.7Zm41.26,57.15a21,21,0,0,1-20.38,18.9A20.58,20.58,0,0,1,252.61,582c-2.28-15.45-2.08-15.68,13.16-15.68h14.84C295,566.33,295,566.33,293.5,580.85Zm221.92-73.49c-.71,4.71-2.39,5.85-6.92,5.84q-92.55-.21-185.1.06c-6,0-6.46-2.27-6.46-7.19,0-22-11.71-38.77-30.81-44.7-28.44-8.83-56.39,11.42-57.1,42.07-.18,8.06-1.56,9.64-9.81,8.21-52.43-9-93.38-55.86-94.34-109-.31-16.92-.18-33.84-.06-50.76C125,319.49,148,295.2,180.4,293c2.6-.18,5.21-.17,7.81-.17q282.72,0,565.45,0c31.05,0,53.82,16.16,61,43.29,3.45,13,1.62,26.19,2.19,40.59-14.94-9.27-29.23-17-44.66-22.41C657.28,313.75,533.45,387.46,515.42,507.36Zm.72,256.49c-20.74,20.48-41.29,41.14-61.91,61.74-5.19,5.19-11.32,8.2-18.84,7.95-10.68-.27-18.47-5.42-22.63-15-4.47-10.32-2.29-20,5.63-28q25.25-25.53,50.79-50.78c4.94-4.88,9.49-13.8,15.14-13.32,5.41.46,10.21,8.68,15.2,13.57,5.57,5.46,10.92,11.16,16.64,16.46C519.15,759.25,519.05,761,516.14,763.85Zm21.16-21.74c-3.28,2-4.95-2.59-6.95-4.51-8.78-8.46-17.21-17.28-26-25.73-2.81-2.71-3.32-4.34-.18-7.31,13.78-13,9.06-12.35,21.38-.46,7.09,6.85,14,13.91,20.92,20.91,1.24,1.25,2.26,2.71,4.51,5.45C546.38,734.49,542.28,739,537.3,742.11Zm38-56.18c-4.87,4.65-9.71,9.36-14.3,14.29-2.28,2.46-4,2.81-6.12.09a5.84,5.84,0,0,0-.51-.59c-13.79-12.75-13.76-12.72-.72-25.89,2.54-2.57,4.77-5.44,7.72-8.84,5.21,5.51,9.44,10.44,14.18,14.83C578.37,682.4,577.55,683.82,575.34,685.93ZM877.73,546.19c-4.32,93.31-85.45,166.38-179.54,161.71-92.13-4.57-165.29-84.76-161.92-175.66,3.48-93.83,81.15-168.19,175.85-165.72C809.21,370.91,882.19,450.08,877.73,546.19Z" fill="#007CAA" class="color000 svgShape"></path><path d="M706.84,396.59A140.32,140.32,0,0,1,843.92,504.88c2,8.3-1,14.32-7.89,16-7.15,1.7-12.24-1.8-14.61-10.24-13.5-48.17-44-79.07-93.5-88.43C655.48,408.46,589.6,464.34,590,537.91c.32,57.87,43.63,108.08,99.58,115.41,60.7,8,115.27-28,130.77-86.08.47-1.76.88-3.54,1.47-5.25,2.31-6.79,8.21-10.15,14.61-8.38,6.14,1.7,9.47,7.82,7.86,14.84-5.32,23.24-15.47,44.21-31.65,61.71C774,672,726.11,687.38,671.13,672.85c-55.67-14.72-90.11-52.39-102-108.64C551,478.17,618.38,396.85,706.84,396.59Z" fill="#007CAA" class="color000 svgShape"></path><path d="M624.28 511.44h16v38.07c0 13.21-7.66 20-19.73 20-12.63 0-21.44-7.17-21.44-21.19h15.82c.08 5 2 6.76 5 6.76 2.69 0 4.4-1.55 4.4-5.54zM677.35 569.48c-16.3 0-29.51-12.23-29.51-29.51s13.21-29.42 29.51-29.42 29.43 12.14 29.43 29.42S693.65 569.48 677.35 569.48zm0-14.83c8.23 0 13.21-5.79 13.21-14.68 0-9.05-5-14.75-13.21-14.75s-13.2 5.7-13.2 14.75C664.15 548.86 669 554.65 677.35 554.65zM742.4 568.91H714V511.44h27.56c11.65 0 18.83 5.38 18.83 14.92 0 6.93-4.08 11.49-9.7 13a13.94 13.94 0 0111 13.86C761.64 563 754.71 568.91 742.4 568.91zM738 524.16h-8.07v10.11H738c3.91 0 6-1.63 6-5S741.91 524.16 738 524.16zm1.14 21.44h-9.21V556h9.29c4 0 6-1.63 6-5S743.06 545.6 739.14 545.6zM790.34 569.48c-12.8 0-22.75-6.11-23.4-18.42h17c.32 4.32 2.85 5.79 5.79 5.79s5.05-1.47 5.05-4.16c-.08-9.21-28-4.89-27.72-24.86 0-11.25 9.38-17.28 21.52-17.28 13.21 0 21.85 6.43 22.42 17.85H793.68c-.16-3.59-2.37-5.22-5.3-5.22a3.81 3.81 0 00-4.24 4.08c0 8.56 27.63 5.78 27.63 24.21C811.77 561.57 804 569.48 790.34 569.48z" fill="#007CAA" class="color000 svgShape"></path></svg></g></svg>
