<svg id="SvgjsSvg1036" width="288" height="288" xmlns="http://www.w3.org/2000/svg" version="1.1" xmlns:xlink="http://www.w3.org/1999/xlink" xmlns:svgjs="http://svgjs.com/svgjs"><defs id="SvgjsDefs1037"></defs><g id="SvgjsG1038"><svg xmlns="http://www.w3.org/2000/svg" data-name="Layer 1" viewBox="0 0 1000 1000" width="288" height="288"><path d="M619 359.41c-8.17-.16-16.34 0-24.5 0-9 0-15.36 4.14-18.7 12.37-1.64 4-4.06 5.43-8.28 5.41-30.41-.11-60.82-.06-91.23 0a23.26 23.26 0 01-10.57-2.37c-18.06-9-35.71-18.7-53.89-27.41a6.14 6.14 0 01-3.89-6.16c0-1.74 0-3.48 0-5.22q0-61.51 0-123c0-3.69.05-7.24 2.87-10.21a56.14 56.14 0 0012.56-22c1.12-3.5 3-5 6.75-5 28.5.06 57 0 85.49.06 4.61 0 4.9.67 2.33 4.73C502.35 205 486.93 229.57 471.23 254a22.18 22.18 0 00-3.85 12.7c.14 10.77 0 21.55.07 32.32a36.29 36.29 0 0036.14 36.24q36.75.19 73.51 0c18.87-.09 34.93-16.12 35.13-34.91.13-11.64 0-23.29.06-34.93a19 19 0 00-3.24-10.74q-23.46-37-46.8-74c-.8-1.28-2.57-2.61-1.82-4.06.92-1.79 3.14-.82 4.77-.83 18.94-.06 37.88 0 56.82 0a41.21 41.21 0 007.28-.34c6.56-1.17 9.52-5 9.06-11.75-.39-5.68-3.47-8.28-10.26-8.61-2.08-.1-4.17 0-6.26 0q-93.57 0-187.14 0c-11.28 0-9.11-.61-12.2-8.33-12.47-31.25-39-41.34-69.53-33.21-16.91 4.51-27.76 17.21-33.85 33.65-2.9 7.84-2.84 7.88-11.45 7.88H120c-2.26 0-4.52 0-6.78 0-4.6.14-8.09 1.79-9.27 6.67v6.26c1.1 4.71 4.41 6.8 8.89 7.48a42.06 42.06 0 006.25.27q28.67 0 57.33 0c1.77 0 3.74-.63 5.29.7-.09 1.56-1 2.45-1.65 3.46-15.69 25-31.57 49.92-47.37 74.87a19.1 19.1 0 00-3.16 10.77c.1 11.64-.06 23.28.06 34.92.2 18.51 16.24 34.66 34.73 34.77q37 .24 74 0a36.2 36.2 0 0036-35.8c.13-11.12 0-22.24.05-33.36a19.73 19.73 0 00-3.32-11.28c-15.86-24.5-31.27-49.28-46.88-73.94-.8-1.26-2.43-2.51-1.6-4.12s2.81-1 4.29-1c28 0 55.94 0 83.91-.09 4.28 0 6.63 1.32 7.95 5.58a53.49 53.49 0 0012 21.12 11.73 11.73 0 013.19 8.51q0 67.24 0 134.48c0 5.23-1 6.36-6.27 5.43-8.59-1.52-17-.2-25.39 1-23 3.32-42.83 13.84-61 27.79a31.18 31.18 0 01-19.68 6.95c-15.81 0-31.62-.09-47.43.05-4 0-6.41-1-7.72-5.15-2.23-7-7.34-11.22-14.63-12.58-10.17-1.89-20.44-1.44-30.64-.61-8.94.74-15.32 5.19-17.24 14.57V507.92c2 9.07 8 13.51 16.8 14.41a130.58 130.58 0 0028.57-.09c7.77-.92 13.87-4.37 16.68-12.17 1-2.77 2.92-2.95 5.44-2.37 16.23 3.7 31.29 10.22 45.67 18.52 3.74 2.16 4.46 4.31 2.44 8.37-11.72 23.51 9.38 47.57 28.65 45.61 4.76-.49 7.39 1.36 9.73 5.73 6.55 12.22 17 18.48 31.11 17.6 3.24-.2 4.75 1.05 6 3.71 6.16 13.46 16.94 19.7 31.51 19.66 2.22 0 3.58.58 4.43 2.69 3.68 9.11 10.54 14.29 20.14 16h10.43c9.8-.75 15.94-6.73 20.8-14.55.83-1.33 1.71-2.63 2.41-4 1.87-3.75 4.16-4 7.41-1.47 6.33 4.87 13 9.35 19.34 14.17 13.51 10.21 38.93 6.57 44.36-14.29.9-3.45 3-5 6.52-5.66 13-2.5 21.44-10.42 25-23 1.32-4.65 3.14-6.75 8.13-7.6 17.92-3 29.39-19.69 26.22-37.6-.68-3.8.68-5.66 3.63-7.58 13.48-8.76 18.29-20.4 14.84-36.23-.84-3.86.47-5.43 3.87-6.43a120.27 120.27 0 0124.55-4.52c3.61-.29 5.66.57 7.1 4.22 3.27 8.24 9.62 12.51 18.58 12.57 8.17.06 16.34.13 24.5 0 12.45-.22 19.57-7.55 19.58-20q0-57.09 0-114.17C638.36 366.68 631.6 359.66 619 359.41zm-25.58-83.06c-.3 7.28 0 14.58-.13 21.87-.22 10.74-7.34 17.91-18.08 18q-35.13.17-70.28 0c-11-.05-18.13-7.4-18.24-18.36-.08-7.29.21-14.59-.11-21.86-.16-3.65 1.22-4.17 4.4-4.14 16.31.14 32.63.06 48.94.06s32.62.12 48.93-.09C592.45 271.74 593.53 272.68 593.37 276.35zM540 181.67l45.55 72c-8.3.74-86.09.54-90.92-.24zm-284.7 94.15c-.25 7.46 0 14.93-.11 22.39-.15 10.56-7.44 17.91-18.11 18q-35.15.18-70.28 0c-10.79-.05-18-7.15-18.2-17.83-.16-7.63.12-15.28-.12-22.91-.09-3.15 1.14-3.63 3.91-3.61 16.48.11 33 .05 49.45.05s33 .09 49.46-.08C254.51 271.77 255.39 272.62 255.28 275.82zm-7.81-22H156.24l45.59-72.13zm-98.88 245.9c0 2.78-.93 3.59-3.61 3.53-6.42-.14-12.86-.22-19.28 0-3.19.12-4.09-.78-4.06-4 .17-17.9.08-35.8.08-53.7s.09-35.8-.07-53.7c0-3.33.73-4.53 4.25-4.36 6.24.3 12.51.2 18.76 0 2.83-.07 4 .64 3.94 3.74Q148.45 445.45 148.59 499.68zM371 129.4a35.55 35.55 0 11-35.59 35.82A35.58 35.58 0 01371 129.4zM353.18 217a6.38 6.38 0 01.39-1.36 57.22 57.22 0 0035.11-.16V220c0 39.44-.06 78.87.09 118.31 0 3.8-.84 4.83-4.76 5-9.39.46-17.85 4-25.38 9.65-1.29 1-2.46 1.95-4.2 1.43-2-.6-1.25-2.26-1.25-3.49Q353.14 283.94 353.18 217zm-94 339.31c-2.25 3.54-6 5.09-10.28 5.1-9.71.1-16.7-9.78-12.19-18.4 5.52-10.55 11.92-20.67 18.45-30.63 3.78-5.76 11.3-6.79 17.13-3.33s8.56 11 5.14 17.1C271.71 536.36 265.49 546.35 259.2 556.28zM297 579.5c-3.62 5.6-11.61 6.53-17.21 3-5.83-3.63-8.26-11.2-4.77-17.26 7.16-12.43 14.69-24.66 22.22-36.88a12.48 12.48 0 0110.26-5.83c10.29.06 17.25 10.31 12.61 18.77C313 554.38 305.11 567 297 579.5zm39.25 21.63c-3.56 5.65-9.37 7.66-15.34 5.88a13.45 13.45 0 01-9.41-12.43 14 14 0 012.35-7.86c5.28-8.76 10.51-17.55 15.94-26.22 4.35-7 12-9.13 18.35-5.49 6.63 3.79 8.68 11.81 4.52 19Q344.73 587.7 336.28 601.13zm44-3.93c-5 8.31-10 16.66-15.05 24.93-3.51 5.73-8.34 7.34-13 4.55s-5.62-7.9-2.24-13.6c5.23-8.79 10.46-17.58 15.87-26.26 2.33-3.73 5.82-5.4 10.29-4a8.33 8.33 0 016.26 7.54A11.61 11.61 0 01380.26 597.2zm139.25-73.14c-4.38 6-12.3 7.11-19 2.4-8.37-5.9-16.54-12.09-24.84-18.09-5.58-4-10.93-3.59-14.12 1-3.07 4.46-1.79 9.29 3.65 13.31 10.87 8 22 15.67 32.58 24.11 6.67 5.33 7.09 13 2.3 18.88s-12.33 6.53-19.1 1.64c-11.68-8.43-23.25-17-34.89-25.51-5.58-4.06-11-3.7-14.17.84s-1.93 9.37 3.48 13.37c8.93 6.61 17.94 13.11 26.91 19.67 7.85 5.75 9.71 13.55 4.81 20.11s-12.81 7.06-20.69 1.38c-5.35-3.86-10.63-7.81-16-11.58-5-3.5-10.25-2.86-13.31 1.44s-1.85 9.39 3.06 13.07c4.44 3.34 9.05 6.45 13.46 9.82 4.59 3.5 5.59 8.7 2.69 12.74s-8.29 5-12.9 1.71c-8.2-5.84-16.22-11.92-24.4-17.79-1.89-1.35-2.1-2.35-1.22-4.64 6.87-17.86-2.73-34.29-21.77-37.3-2.38-.38-3.51-.82-4-3.48-2.89-15-13.44-24.41-28.7-25.44-3.43-.23-4.21-1.34-4.64-4.43a30.49 30.49 0 00-40.72-24.59c-3.1 1.13-4.21.64-5.87-2.11-12.07-19.9-39.49-20.38-52.68-1.13-2.23 3.25-3.24 8.75-6.74 9.26-2.94.44-6.47-3.42-9.79-5.3A171.88 171.88 0 00171 488c-3.75-.74-4.82-2.25-4.79-6.07.21-23.81.25-47.62 0-71.43-.05-4.57 1.38-5.28 5.51-5.23 17.72.24 35.45 0 53.18.13a40.22 40.22 0 0026.81-9.54c25.57-21.14 55-29.18 88.86-24.94-13.82 14.55-27.07 28.52-40.33 42.5-7.37 7.77-10.85 16.87-9 27.59 2.1 12.14 9.06 20.64 20.62 24.68 11.74 4.09 22.68 1.8 32-6.6C354.78 449.18 365.5 439 376.32 429c3.57-3.31 7.27-6.49 10.67-9.95 1.8-1.83 3.08-2 5.24-.51q61.89 43.25 123.84 86.37C522.85 509.6 524.13 517.76 519.51 524.06zm56.12-122c-.44 11.62-.14 23.27-.14 34.91 0 12-.12 24 .08 36 0 3.18-.81 4.05-4 4.17a118.21 118.21 0 00-44.8 10.33c-3.2 1.46-4.89-.18-6.95-1.62Q461.11 444.9 402.4 404c-10.59-7.37-18-6.82-27.42 2q-21.19 19.68-42.36 39.38c-4.3 4-9.21 5.49-14.83 3.56-5-1.72-7.93-5.43-8.93-10.6a13.12 13.12 0 013.69-12c17.8-18.79 35.5-37.68 53.55-56.22 9.72-10 23.71-12 36.5-5.68q28.18 13.89 56.16 28.21a34.19 34.19 0 0016 3.76c31.61-.09 63.22 0 94.83-.14C574.07 396.25 575.81 397 575.63 402zm41.22 92.36c-6.43-.14-12.87-.25-19.29 0-3.41.14-4.39-.85-4.36-4.3.18-17.9.08-35.81.08-53.71s.07-35.8-.06-53.71c0-3 .51-4.32 3.93-4.17 6.59.29 13.2.19 19.8 0 2.51-.06 3.21.7 3.2 3.2q-.1 54.75 0 109.5C620.16 493.88 619.23 494.43 616.85 494.38zM886.82 808.45c-13.5-11.67-26.92-23.43-40.36-35.15q-59.65-52-119.34-104c-1.78-1.55-1.86-2.37-.44-4.2 4.77-6.15 5.8-13.15 3.71-20.53-1.83-6.49-6.2-11.06-12.42-14.62a86.55 86.55 0 006.48-6.12c2-2.32 4.09-2.93 7.08-2.29 5.06 1.08 10 .14 14.83-1.64 21.48-8 27.11-34.84 10.66-51.48-19.2-19.4-38.58-38.63-57.89-57.92-3-3-6-6.15-9.16-8.95a31 31 0 00-50.83 28.79 4.54 4.54 0 01-1.42 4.7Q592.79 579.85 548 624.77a4.57 4.57 0 01-4.7 1.43A31 31 0 00508.08 648c-.36 1.17 0 2.64-1.26 3.51V662.4a29 29 0 008.37 17.06q32.59 32.71 65.33 65.3a32.39 32.39 0 0022.21 9.68c18.28.8 34.63-15.16 32.89-33.72-.45-4.79.69-7.8 4-10.86 2.17-2 3.2-2.76 5.59 0 9.38 10.84 20.5 12.43 32.88 5 2-1.21 2.91-.47 4.18 1 7.56 8.49 14.9 17.19 22.41 25.73q19.7 22.44 39.25 45 19.73 22.68 39.44 45.36c11.58 13.4 23.37 26.62 34.82 40.12 8.7 10.25 18.73 18.09 32.68 19.44h12.43c.36-.73 1.07-.57 1.68-.66 22.08-3.31 39.24-22.88 39.45-45.11C904.53 830.48 898.2 818.29 886.82 808.45zM655.45 518.78c2.28-5.75 8.19-9.41 15.64-9.33a14.78 14.78 0 019.54 4.55q32.94 32.91 65.82 65.86a15.47 15.47 0 11-21.84 21.91Q691.58 569 658.75 536C653.87 531.05 652.94 525.1 655.45 518.78zM614.83 733.49c-6.22 6.31-15.84 6.24-22.51-.4q-30.11-30-60.08-60.07c-2.1-2.1-4.34-4.1-6.22-6.39-4.15-5.06-4.91-10.77-2-16.66 2.79-5.72 7.58-8.6 14-8.69a15.28 15.28 0 0111.39 5q32.5 32.52 65 65C620.89 717.84 621 727.24 614.83 733.49zm12.84-34.65c-1.61 1.61-2.4 1.44-3.91-.07q-30.93-31.07-62-62c-1.51-1.5-1.68-2.34-.08-3.93q42.18-42 84.23-84.22c1.45-1.45 2.27-1.34 3.66.06q31.08 31.2 62.23 62.33c.54.53 1 1.1 2.33 2.48a10.44 10.44 0 00-2.52 1.38Q669.58 656.8 627.67 698.84zm42.59 1.24c-2.61 2.61-5.61 3.64-9.14 2.13a7.21 7.21 0 01-4.61-7 7.92 7.92 0 012.75-6.16q21.39-21.36 42.77-42.74c3.54-3.52 8.23-3.71 11.4-.7s3.24 8-.44 11.66Q691.68 678.75 670.26 700.08zM776.9 795.37c-1.7 1.72-2.43 1.31-3.81-.28q-39.9-46-80-91.84c-1.58-1.8-1.52-2.68.16-4.3q9.48-9.16 18.64-18.66c1.72-1.79 2.62-1.51 4.31 0q45.66 40 91.43 79.84c.74.65 1.75 1.1 2.15 2.81a10.07 10.07 0 00-1.68 1.16C797.7 774.48 787.24 784.86 776.9 795.37zm16.73 23.33a68.1 68.1 0 00-6.61-7.58c-1.84-1.79-1.28-2.75.28-4.29q16.25-16.05 32.3-32.31c1.73-1.76 2.79-1.94 4.56-.15 2.36 2.37 5 4.43 7.53 6.67.53.48 1.39.78 1.34 2-.41.44-.91 1-1.45 1.54-11.41 11.42-22.85 22.79-34.19 34.26C795.84 820.37 795 820.53 793.63 818.7zm92.94 37.77c-4.79 11.69-16.56 19.53-30.9 19.44A29.09 29.09 0 01835 866c-9.41-10.5-18.55-21.24-27.89-31.81-1.22-1.39-1.17-2.14.13-3.43q18.18-18 36.22-36.25c1.45-1.47 2.31-1.31 3.72-.07 10.58 9.33 21.36 18.43 31.78 27.92A30.23 30.23 0 01886.57 856.47zM598 841c-2-1.3-3.12-1.94-1.51-4.8 12.89-22.78-2.67-49.4-28.89-49.45q-79.32-.13-158.63 0c-25.87.06-41.35 26.83-28.61 49.32 1.4 2.46 1.16 3.31-1.24 4.85C367.38 848.43 359.92 859 357.82 873c-.93 1.51.29 3.38-.84 4.85v15a8.57 8.57 0 006.57 6.57H613.42c2.94-2 6.1-4 6.43-8C621.55 870.74 616.46 852.93 598 841zM410.1 805.5q39.19 0 78.38 0h77.9c9.56 0 16 5.62 16 13.94s-6.33 14.21-15.77 14.22q-78.37 0-156.76 0c-9 0-15.4-6-15.3-14.21S401 805.52 410.1 805.5zM597 880.74c-36.16-.17-72.32-.1-108.48-.1s-72.32-.07-108.47.09c-4 0-4.67-1.07-3.95-4.72 2.75-13.9 13.92-23.51 28.1-23.53q84.3-.09 168.59 0c14.21 0 25.31 9.56 28.11 23.51C601.59 879.59 601 880.75 597 880.74z" fill="#007CAA" class="color000 svgShape"></path><path d="M647.72,568.41A8,8,0,0,1,655,580.54a16.21,16.21,0,0,1-2.6,3.09q-15.75,15.79-31.53,31.56c-1.64,1.65-3.3,3.29-5.68,3.68-3.71.6-6.75-.68-8.61-4-2-3.45-1.44-6.83,1.3-9.67,4.22-4.38,8.56-8.65,12.86-13Q631,582,641.36,571.63C643.23,569.76,645.24,568.24,647.72,568.41Z" fill="#007CAA" class="color000 svgShape"></path><path fill="#010101" d="M590.4,642a7.89,7.89,0,0,1-7.85-8.42,8,8,0,0,1,8.21-7.71,8.27,8.27,0,0,1,8,8.08A8.17,8.17,0,0,1,590.4,642Z" class="color010101 svgShape"></path></svg></g></svg>
