<svg id="SvgjsSvg1357" width="288" height="288" xmlns="http://www.w3.org/2000/svg" version="1.1" xmlns:xlink="http://www.w3.org/1999/xlink" xmlns:svgjs="http://svgjs.com/svgjs"><defs id="SvgjsDefs1358"></defs><g id="SvgjsG1359"><svg xmlns="http://www.w3.org/2000/svg" data-name="Layer 1" viewBox="0 0 1000 1000" width="288" height="288"><path d="M900.58,346.53c-7.92-19.32-26-30.63-48.28-30.3Q744,317.85,635.73,319.41c-2,0-4,.28-6-.36-12.91-4.11-19.55-13.6-22-26.24-1.46-7.45,3.16-14.1,10.46-16.5L717,243.85q27.38-9,54.75-18c4.73-1.56,6-3.5,5.66-8.41-.25-3.9-.61-7.79-.92-11.68q-3.66-46-7.3-91.91c-.45-5.82-2.12-7.69-7.84-7.85q-52.14-1.43-104.29-2.76c-5.19-.13-6.86,1.2-8.25,6.31q-21.1,77.87-42.16,155.73a14.34,14.34,0,0,1-3.73,6.75,25.81,25.81,0,0,0-7,13.94c-1.62,8.76.37,16.9,5,24.21,8.63,13.75,20.38,21.89,37.59,21.43,35.27-.93,70.55-1.21,105.83-1.76q54-.77,108.1-1.53c28.85-.42,48.3,27,37.8,53.41-6.12,15.38-20.39,24.49-38.55,24.5-44.73,0-89.47-.1-134.21.06-24.46.09-35.62,20.2-31.8,43.33a5,5,0,0,0,5.33,4.43,5.49,5.49,0,0,0,5.81-4.37c.92-3.1.71-6.27.47-9.38-1-13.3,8.81-22.24,21.75-22.12,44.23.42,88.46.2,132.69.14,14.05,0,26.9-3.6,37.39-13.51C904.11,390.59,908.82,366.62,900.58,346.53ZM633.08,259l-.45-.43q22.56-23.88,45.13-47.76c11.06-11.71,22.15-23.4,33.13-35.2,1.86-2,2.9-2.51,5.19-.3,13.66,13.22,27.51,26.24,41.28,39.34.71.67,1.69,1.15,2,2.57Zm125-132.21c2,25.62,3.95,51.11,6,77.56-14.06-13.32-27.3-25.87-40.56-38.4-1.09-1-1.88-1.71-.39-3.25,11.35-11.78,22.6-23.66,33.9-35.49C757.19,127,757.48,127,758.1,126.75Zm-8.79-9.06-6.18,6.51Q729.08,139,715,153.74c-1.21,1.27-2,2.27-3.81.49-13.16-12.62-26.43-25.11-40.56-38.48Zm-91,3.64c1.59.07,2.14,1.2,2.92,1.93,13.81,13.07,27.56,26.21,41.44,39.2,1.94,1.82,1.87,2.69.07,4.58q-38,39.75-75.81,79.64c-.91.95-1.53,2.38-3.36,2.47Q641,185.15,658.35,121.33Z" fill="#007CAA" class="color000 svgShape"></path><path fill="#007CAA" d="M166.91,313.88c.18,7.48-7.28,15.47-14.52,15.54a12.19,12.19,0,0,1-12.5-12.11c-.12-7.26,7.51-15.61,14.47-15.84C160.64,301.26,166.76,307.31,166.91,313.88Z" class="color010101 svgShape"></path><path d="M683.45,736.52c-12.28-7.34-24.72-14.4-37-21.74-16.52-9.87-34.48-14.25-53.57-14.73-52.4-1.32-104.79.4-157.19.26-5.85,0-8.48-1.19-10.09-7.31q-35.91-136.12-72.48-272.08c-1.56-5.82-.81-7.65,5.39-9.24,35-8.93,69.87-18.45,104.75-27.85,10.54-2.84,15.31-9.2,13-16.8-2.42-7.89-9.14-10.41-20-7.47-7,1.9-14.2,3.38-21,5.88-5.49,2-7.43.37-9.44-4.75-12.42-31.53-27.45-61.75-46.62-89.8a215.76,215.76,0,0,0-37.3-42.35c68.42-5.5,156.86,28.35,205.27,106.93-12.68,3.37-24.74,6.52-36.77,9.78-8.36,2.26-12.79,8.29-11.3,15.15,1.64,7.52,7.93,11.27,17,9.45A434.79,434.79,0,0,0,568.8,356c9.6-3.22,12.54-10.83,7.64-19.74-9.82-17.87-21.09-34.83-35.28-49.48-76-78.39-166.61-102.26-271.14-71.2-33.83,10-63.54,28.36-89.94,51.84-7.22,6.42-7.07,15.89.29,20.62,6.24,4,11.76,2.21,17-2.43a216.36,216.36,0,0,1,45.93-31.47c-2.09,7.57-4.33,14.45-5.87,21.48-9.92,45.27-7.17,90.69-.9,136.05.74,5.38-.2,7.14-5.32,8.41-16.91,4.17-33.69,8.85-50.52,13.32-20.26,5.39-40.51,10.75-61.22,16.25,0-2-.06-3.31,0-4.57a227.77,227.77,0,0,1,19.09-79.23c3.16-7.27.57-14.38-5.69-17.23-6.94-3.15-14-.46-17.27,7.17-3.17,7.39-6,15-8.57,22.58C97.56,406,93.57,434.47,93.83,463.6c.11,11.9,5.76,16.35,17.51,14.14,3.32-.62,6.61-1.46,9.87-2.33Q220.63,448.76,320,422c4.82-1.3,7.48-1.64,9.12,4.58q35.49,133.81,71.67,267.45c1.7,6.27-.68,6.13-5.27,6.11-26.08-.13-52.15,0-78.22-.1a59.71,59.71,0,0,1-10.09-.8c-16.81-3-28.54-12.67-36.94-27.28-25.63-44.67-51.27-89.33-77.36-133.73-14.15-24.09-43.44-31.94-67.19-18.9S92.05,562.12,105.32,586c23,41.35,47.14,82.09,70.77,123.1,2.07,3.59,4.94,6,9.09,6.65,5.07.75,9.34-.83,12.3-5.07,3.36-4.81,2.9-9.71,0-14.66-11-18.86-22.09-37.71-32.93-56.67-12.65-22.13-26.44-43.62-37.47-66.63-7.09-14.79,3.38-32.4,19.71-34,12.5-1.22,20.58,4.85,26.54,15.32q37.47,65.76,75.26,131.33c15.21,26.42,38.19,39.69,68.69,39.77q30.51.07,61-.1,96.58-.57,193.16-1.3c29.94-.27,57.9,5.52,82.32,24.08,5.15,3.91,11,6.91,16.61,10.2,8.52,5,15.64,3.8,19.62-3.18C693.71,748.3,691.29,741.19,683.45,736.52ZM265.74,411.1c-3.71,1-4.42,0-4.83-3.32-2.73-22-5.27-43.95-5-60.68,0-31.86,1.9-58,11.2-83a65.67,65.67,0,0,1,9.09-17.15c9-11.8,19.34-14.55,32.94-8.78,10,4.26,18.29,10.94,25.77,18.62,31.47,32.29,50.72,71.95,67.75,112.93,1.42,3.41.17,4.33-3.09,5.2Q332.61,392.8,265.74,411.1Z" fill="#007CAA" class="color000 svgShape"></path><path d="M772.54,875.35c-8.23-.05-16.45,0-25.4,0,1.09-.8,1.42-1.22,1.83-1.32,21.31-5.44,35.91-21.19,38.85-42,2.85-20.13-7-39.74-25.48-50.56-10.1-5.9-20.33-11.59-30.55-17.28-8.75-4.87-15.78-3.71-19.73,3.08s-1.35,13.72,7.13,18.65c10.33,6,20.91,11.63,31.09,17.91,9.3,5.74,13.18,14.45,11.55,25.35a24.76,24.76,0,0,1-19,20.49c-8.21,2-15.21-1-22.18-5q-57-33.09-114.18-65.86c-3.79-2.18-7.78-3.93-12.49-3.9-45.61.23-91.23.57-136.84.38-51.6-.22-103.2.89-154.81-1.08-30.77-1.18-55.46-14-76.82-35-7.19-7.07-14.16-7.73-19.81-2-5.5,5.55-4.82,12.73,2.15,19.91,20.34,21,44.83,34.49,73.56,39.89,4.95.94,6.16,2.77,6.11,7.55-.26,21.11-.36,42.23,0,63.34.12,6.1-1.47,7.63-7.59,7.6-58.13-.25-116.26-.15-174.39-.14a61,61,0,0,0-7,.11c-6.8.78-11.68,6.14-11.31,12.66.38,6.92,4.35,11,11.08,12.1a47.24,47.24,0,0,0,7.81.15H421.31q175.56,0,351.13,0c9.88,0,15.56-4.62,15.6-12.45S782.42,875.41,772.54,875.35ZM332,875.46c-19.55.22-19.55.38-19.55-18.9V837c0-10.69.15-21.38-.09-32.06-.08-3.76,1.05-4.68,4.78-4.82,20.34-.77,20.34-.89,20.34,19.67,0,16.69-.15,33.37.1,50.05C337.67,874.27,336.43,875.41,332,875.46Zm34.45-.06c-3,0-4-.87-4-3.95.11-22.39.15-44.78,0-67.17,0-3.77,1.61-4.11,4.65-4.09,19.27.1,38.53,0,57.8.08,1.9,0,4.11-.71,4.92,2.36,6.35,24,12.81,48,19.41,72.71C421.1,875.34,393.79,875.3,366.47,875.4Zm154.32,0c-13.79-.12-27.58,0-41.37,0-1.95,0-3.68.36-4.5-2.72-6.39-24-13.1-47.93-19.85-72.41,22.49,0,44.33,0,66.17,0,2.94,0,4.08.71,4.07,3.87q-.18,33.57,0,67.13C525.35,874.82,524,875.43,520.79,875.4Zm49,.06c-19.55.22-19.55.38-19.55-18.9V837.79c0-10.95.15-21.9-.09-32.84-.08-3.76,1-4.68,4.78-4.82,20.35-.77,20.34-.89,20.34,19.67,0,16.69-.15,33.37.1,50.05C575.48,874.26,574.25,875.41,569.83,875.46Zm35.25-.09c-2.83,0-4.85.07-4.82-3.91.18-22,.09-44.06.09-67,42.42,23.22,82.16,49.21,125.8,70.89C685.23,875.34,645.16,875.33,605.08,875.37Z" fill="#007CAA" class="color000 svgShape"></path></svg></g></svg>
