<svg id="SvgjsSvg1213" width="288" height="288" xmlns="http://www.w3.org/2000/svg" version="1.1" xmlns:xlink="http://www.w3.org/1999/xlink" xmlns:svgjs="http://svgjs.com/svgjs"><defs id="SvgjsDefs1214"></defs><g id="SvgjsG1215"><svg xmlns="http://www.w3.org/2000/svg" data-name="Layer 1" viewBox="0 0 1000 1000" width="288" height="288"><path d="M179.64,160.83c5.19,3.43,6.33,8.39,6.27,14.34-.21,24.5,0,49-.19,73.49,0,4,1.52,6.2,4.4,8.49Q240.34,297,290.35,337.07c3.86,3.1,6.34,2.69,9.89-.23,11.44-9.42,23.11-18.55,34.73-27.75,6.16-4.87,11.36-4.89,15.31-.22s2.81,10.42-3.4,15.42q-18.08,14.54-36.32,28.85c-10.6,8.29-20.44,8.25-31-.14q-54.21-43.1-108.25-86.41c-4.67-3.76-7.61-3.5-12,.11-32.09,26.18-43.95,69.82-29.13,108.15a95.11,95.11,0,0,0,94.53,60.9A90,90,0,0,0,271.63,420c16.05-11.08,31.48-10.94,47.8-.24,59.65,39.11,138,3.77,147.19-66.94,4.63-35.67-8.58-65.21-36.81-87.84-3.36-2.69-5.71-2.37-8.92.26C408.6,275.3,396.12,285.14,383.65,295c-5.61,4.43-10.41,4.53-14.43.56-4.32-4.26-3.74-10.61,1.7-15,10-8.15,20-16.25,30.24-24.08,3.21-2.46,4.52-5,4.48-9.06-.21-24.28,0-48.57-.21-72.85-.06-5.85,1.6-10.32,6.29-13.69h6.45c5.05,2.73,6.88,6.85,6.81,12.66-.27,21.27,0,42.54-.17,63.8,0,3.81,0,6.35,5,6.61,4.54.24,8.32,3.15,11.95,5.91,64.71,49.43,58.6,148.76-11.82,189.72-4.24,2.47-5.1,4.91-4.76,9.6,2.89,40.06,7.27,79.94,13.64,119.6q6.38,39.71,15.79,78.8c1.79,7.48-.46,12.31-6.32,13.84s-10.36-1.58-12.23-9C425.51,610.52,418.44,568,413.1,525.22c-2.9-23.22-5.3-46.5-6.64-69.87-.19-3.33-.5-5.18-4.8-3.92a98.69,98.69,0,0,1-37,3.43c-4.46-.4-4.91,1.06-4.26,4.89,5,29.59,9.74,59.24,17.62,88.26,2.13,7.85-.32,12.77-6.59,14.3-5.83,1.43-10.19-1.78-12.17-9.3-8.19-31.15-13.75-62.83-18.33-94.67-.81-5.57-2.59-8.5-8.26-10.23a86.4,86.4,0,0,1-25.06-12.85c-7.95-5.72-15.68-5.6-23.8-.13q-43.26,29.12-93.92,16.27c-3.77-.95-4.75-.12-5.06,3.68-1.56,19.26-3.4,38.5-5.16,57.74-.69,7.49-4.57,11.78-10.35,11.46-6.12-.33-9.77-5.28-8.9-13,2.3-20.71,4-41.45,5.75-62.21.4-4.77-.67-7.17-4.86-9.57C90.56,398.93,85,297.05,150.77,249c3.16-2.3,6.45-4.56,10.41-4.66,5.1-.14,5.42-2.93,5.39-7.06-.18-21.27.08-42.54-.19-63.8-.07-5.82,1.75-9.94,6.82-12.66Z" fill="#6e90e8" class="color000 svgShape"></path><path d="M457 794.05c-3.84.31-8.06-.78-12.15-1.93-7.45-2.1-13 .17-17.42 6.19-1.91 2.59-3.89 5.14-5.95 7.61-9.95 11.88-24.75 15.47-38.91 9.18-9.19-4.09-18.25-8.5-27.31-12.89a15.88 15.88 0 00-15.34.22c-9.08 4.81-18.41 9.16-27.49 14-11.34 6-22.5 6-33.83 0-8.89-4.71-18-9.1-26.85-13.83a16 16 0 00-15.9-.13c-8.6 4.33-17.37 8.33-26.16 12.28-15.23 6.85-29.9 3.31-40.37-9.59-1.76-2.17-3.51-4.35-5.14-6.61-4.55-6.27-10.24-8.44-18-6.29-13.7 3.82-26.57 2.5-36.67-8.69-9.58-10.62-11.26-23-5.69-35.95 15.16-35.36 26.32-72 35.06-109.39 6-25.7 10.85-51.62 14.94-77.69.23-1.48.42-3 .74-4.44 1.47-6.61 5.63-10.07 11-9.23 5.78.92 8.89 5.61 7.86 12.52-7 46.72-16.5 92.86-30.55 138-6.12 19.64-13.32 38.87-21.25 57.86-4.56 10.91 2.58 20.4 14 19.46 3.8-.32 5.47-2.31 7.07-5.44 15.89-31.23 27.59-64.09 38.14-97.4 14.51-45.8 25.9-92.42 35.89-139.39 1.62-7.64 5.78-11.18 11.5-10.06 6.24 1.22 8.87 6.23 7.26 14C220.8 606.7 203 676.16 175.94 742.93c-3.7 9.12-7.91 18-12 27-.91 2-2.28 3.61 1.1 4.92 7.29 2.84 12 8.74 16.63 14.76 8 10.45 11.43 10.15 23.6 6.12 17-5.61 25.37-16.53 29.57-33.6 5.2-21.19 12.42-41.89 16.9-63.31 1.75-8.4 5.93-12 12.29-10.67 6 1.29 8.28 6.63 6.52 15.05-5.13 24.58-12.28 48.6-20.24 72.38-1.39 4.14-.92 5.26 3.46 7.09 11.23 4.71 22 10.49 32.81 16.2 6.07 3.22 11.51 3.06 17.69.07 12.68-6.15 24.42-14.39 38.36-17.78 3.94-1 1.65-3.19 1.22-4.86-7.23-27.8-14.34-55.61-20.44-83.69q-7-32.07-12-64.5c-1.24-8 1.54-12.91 7.71-13.81 6.35-.92 10.24 2.77 11.44 10.82 8 53.32 21.15 105.47 35.05 157.47.62 2.33 1.59 4.11 4.15 5.22 6.69 2.87 13.13 6.3 19.78 9.26 7.32 3.26 12.39 1.93 17.68-4.36 1.93-2.3 3.69-4.74 5.57-7.08 9.05-11.2 20.5-15.82 34.77-12.61 1.89.43 3.77.85 5.66 1.22 5.58 1.11 10.76.62 14.7-4.06 4.06-4.83 4-10.15 1.61-15.69-7.66-17.47-14.08-35.4-20-53.54a45 45 0 01-1.77-6.16c-.93-5.51 1.9-10.28 7-11.4 5.35-1.19 9.41 1 11.29 6.09 2.87 7.84 5.16 15.89 8.08 23.71 4.56 12.24 9.64 24.28 14.14 36.53C496.4 771.81 480.75 794.19 457 794.05zM833.35 492.05a52.9 52.9 0 01-10.65-10.43 4.56 4.56 0 01-.92-4.25A78.69 78.69 0 00823.85 463c1.69-24-3-46.88-11.84-69.07-.69-1.74-1.6-3.33-.54-5.43 3.11-6.19 5.84-12.57 9-18.74a512.54 512.54 0 0127.75-47.88c2.2-3.38 1.82-5.76-1.21-8.49q-5.43-4.87-11-9.57c-3.48-2.94-6.15-2.72-9.26.79-2.72 3.05-5.32 6.21-7.92 9.38-18.16 22.13-34.76 45.31-47.78 70.89-1 1.93-2.39 2.34-4.24 2.65-32 5.28-61 17.2-85.37 39.32-3.47 3.17-7.64 3.43-11.86 1.72-4.37-1.77-7-5-7.45-9.83s-.61-9.71-1.29-14.52c-3.8-27.13-14.77-51.33-30.45-73.55-1.14-1.63-2.11-2.95-1.29-5.18a225.08 225.08 0 007.14-25.14 462.55 462.55 0 0010.84-70.51c.42-5.07-1.37-7.07-6.41-7.49-4.46-.37-8.93-.66-13.39-1-5.06-.35-6.68.91-7.77 5.83a530.25 530.25 0 01-19.85 68.27 13.15 13.15 0 01-7.95 8.33c-24.19 10.34-45.53 24.84-61 46.43-4.38 6.13-9 7.33-15.36 7-2.16-.11-4.31-.48-6.47-.76-4.14-.54-6.27.79-7.4 4.86-5.74 20.75-11.39 41.53-17.22 62.26a7.64 7.64 0 001.82 7.72A157.45 157.45 0 00503.65 449c32 27.55 68.53 43.17 111.3 41.74 19.63-.66 35.64 6 48.76 20.61 14.62 16.25 32.43 28.12 51.95 36.47a178.81 178.81 0 0080.62 13.06 7.55 7.55 0 006.74-4.16c10.66-18.71 21.48-37.33 32.2-56C837.32 497 836.83 494.63 833.35 492.05zM800.27 356.91a434.33 434.33 0 0130.18-40.12c.9-1.07 1.79-2.53 3.18-.73 1.11 1.44 4.39 1.79 2.33 4.95a460.47 460.47 0 00-33.23 61c-1.07 2.36-2.31 3.14-4.87 3.06-4.81-.15-9.64.13-14.88.25C788.35 375.31 794.21 366.05 800.27 356.91zM694 430c22.93-18.27 49.29-28 78-32.22a180.19 180.19 0 0126.76-2c1.37 0 2.55-.08 3.27 1.76 9.24 23.53 13.73 47.7 10.13 73-2.15 15-11.1 26.32-21.47 36.37-17.94 17.38-40.12 20.59-64.79 10.23-29.25-12.29-43.93-39.56-39.7-73.07A19.84 19.84 0 01694 430zM634.11 232.64c2.36-.23 1.73 1.51 1.64 2.84-1.7 23.57-8.57 60.07-15.46 81.76-4-4.21-7.77-8.18-11.59-12.09-1.21-1.23-.49-2.35-.06-3.51a496.38 496.38 0 0015.9-49.34c1.51-5.82 3.1-11.63 4.24-17.53C629.55 230.78 632.19 232.83 634.11 232.64zM553.83 340.46a148.5 148.5 0 0143.64-27.6c1.34-.57 2.45-1.38 4 .25 25.62 26.59 43.3 57.16 49.16 94.19 1.63 10.22-1.14 17.71-7.95 24.81-15.4 16.05-33.31 25.82-56.26 23.73a62.59 62.59 0 01-20-5.31c-30.55-12.8-43.29-38.83-36.49-72.15C533.23 362.4 542.5 350.92 553.83 340.46zM822.62 500.93q-11.14 19.53-22.4 39a6.22 6.22 0 00-.81 1.3c-2.47 8.48-8.5 9.6-16.46 9.33-36.94-1.28-70.65-11.27-99.5-35.22a159.55 159.55 0 01-14.05-13.59c-14.14-15-31.53-22.43-52.18-21.77-48.51 1.56-87.44-18.61-120.31-52.72-1.56-1.62-1.67-3-1.08-5.12q7.17-25.35 14-50.78c.68-2.5 1.45-4.29 4.56-3.46 2.3.62 5.58-1.2 6.78.72.85 1.36-.88 4.29-1.33 6.55-3.58 18.26-3.48 36.19 5.33 53.2 7.25 14 18.82 23.44 32.74 30.19 39.65 19.22 73.77 3.64 96.13-23.38.81-1 1.6-2 2.51-3.09 4.81 5.3 10.59 8.22 17.71 8 3-.08 1.32 2.09 1.22 2.95a91.78 91.78 0 001.57 32c6.73 28.82 25.33 46.36 53 55 20 6.28 39.23 4.82 57.12-6.83 10.58-6.89 18.79-16.12 25.64-26.63 1.12-1.71 2.18-3.47 3.41-5.43 2.25 2.15 4.38 4.31 6.65 6.31C824.38 498.91 823.17 500 822.62 500.93z" fill="#6e90e8" class="color000 svgShape"></path><path d="M899.87,582.57c-2.13-6.75-3.89-13.61-5.81-20.43s-3.9-13.36-5.62-20.1-6.52-8.76-12-4.34c-36.67,29.78-78.63,49.45-123.09,64.24a477.12,477.12,0,0,1-87.61,20.24c-30.55,4.06-61.11,5.16-91.74,1.13-8.15-1.07-11.67,3.05-9.45,11,3.61,12.94,7.45,25.81,10.83,38.8,1.37,5.26,4.15,7.69,9.53,8.31a374.21,374.21,0,0,1,50.19,9.46c53.09,13.71,95.8,41.43,122.69,90.62,2.11,3.86,5.14,4.91,9.66,3.66,8.82-2.43,17.63-4.93,26.44-7.44,5.21-1.48,6.86-3.73,6.64-9.33-1.75-45.19,12.11-85.13,40.17-120.39C857,627.51,876,609.74,896.42,593.44,900.15,590.45,901.33,587.18,899.87,582.57Zm-16.88,3c-14.86,12.26-29.07,25.17-41.93,39.55-24,26.81-41.77,57-50,92.27a180.72,180.72,0,0,0-5,43.77c0,2.78-.73,4.12-3.57,4.68a78,78,0,0,0-10.92,3.07c-2.55.92-3.78.25-5.11-2a175.3,175.3,0,0,0-45.24-51.53c-23-17.59-49-29-76.68-37a373.67,373.67,0,0,0-52.14-10.88c-2.41-.34-3.45-1.17-4.07-3.55-2.1-8.13-4.48-16.18-6.87-24.67,43.81,4.13,86.61-.55,129.93-10.08-4.36,4.71-8.21,8.68-11.83,12.84-3.94,4.53-2.7,10.25,2.51,12.3,3.42,1.33,6.09.16,8.5-2.42,8.06-8.64,16.24-17.16,24.26-25.83a4.24,4.24,0,0,1,5-1.44c11.36,3.24,22.79,6.25,34.17,9.39,3.5,1,6.58.59,8.8-2.54A7.31,7.31,0,0,0,778.88,620c-5.56-1.66-11.18-3.07-17.77-4.86A484.4,484.4,0,0,0,821.93,590a351.77,351.77,0,0,0,55.63-34.2c2.55,9.07,5,17.73,7.45,26.36C885.61,584.24,884,584.71,883,585.55Z" fill="#6e90e8" class="color000 svgShape"></path></svg></g></svg>