<svg id="SvgjsSvg1247" width="288" height="288" xmlns="http://www.w3.org/2000/svg" version="1.1" xmlns:xlink="http://www.w3.org/1999/xlink" xmlns:svgjs="http://svgjs.com/svgjs"><defs id="SvgjsDefs1248"></defs><g id="SvgjsG1249"><svg xmlns="http://www.w3.org/2000/svg" data-name="Layer 1" viewBox="0 0 1000 1000" width="288" height="288"><path d="M705.86,251.94a120.26,120.26,0,0,1,75.12,25A11.59,11.59,0,0,1,785.65,289c-.79,4.45-3.83,7-7.92,8.34-4.27,1.38-7.91-.28-11.28-2.8-19.16-14.26-40.67-20.62-64.51-19.46-20,1-38,7.69-54,19.54-1.77,1.3-3.4,2.81-5.21,4.06-5.47,3.74-11.78,2.84-15.72-2.18a10.92,10.92,0,0,1,1.43-15.37A109,109,0,0,1,654.54,264C670.33,256.42,687,252.51,705.86,251.94Z" fill="#6e90e8" class="color000 svgShape"></path><path d="M706.12 207.56c33.92-.21 66.23 9.77 94.74 31.51 5.2 4 7 9.08 5.88 15.28-1 5.61-4.83 8.85-10 10.52-5.38 1.74-10-.36-14.23-3.53-24.16-18-51.29-26-81.36-24.55-25.28 1.23-47.87 9.7-68.16 24.64-2.24 1.65-4.29 3.55-6.58 5.12-6.9 4.73-14.85 3.58-19.82-2.74-4.7-6-4.23-14 1.81-19.39a137.68 137.68 0 0133-21.7C661.3 213.22 682.32 208.29 706.12 207.56zM709.94 291.06a80.43 80.43 0 0142.62 13.12c7.4 4.71 9.21 11 5.21 17.15-3.62 5.57-10.45 6.31-17.53 2.1Q705.84 303 672.38 325c-4.65 3.08-9.34 4.5-14.4 1.58-4.25-2.46-5.77-6.46-5.26-11.28.38-3.55 2.33-6.09 5.13-8.12A83.18 83.18 0 01709.94 291.06zM365.12 759.8c-28.08 0-56.15-.15-84.23.13-5.77.05-8.08-1-7.94-7.49.38-17.6 0-17.61 17.9-17.61 52.77 0 105.54.11 158.31-.13 6.09 0 8.5.85 8.29 7.77-.54 17.32-.14 17.33-17.46 17.33zM387.08 819.41c-21 0-42-.11-63 .1-4.53 0-6.22-.83-6.25-5.88-.11-19.18-.33-19.18 18.61-19.18 37.87 0 75.75.13 113.63-.14 5.73 0 7.48 1.23 7.38 7.21-.28 17.89 0 17.89-18.19 17.89z" fill="#6e90e8" class="color000 svgShape"></path><path fill="#6e90e8" d="M387.86,699.83c-21.28,0-42.58-.13-63.86.09-4.71.05-6.15-1.2-6.2-6.07-.17-19-.36-19,18.87-19,37.65,0,75.29.14,112.94-.13,6.07-.05,7.93,1.47,7.8,7.71-.35,17.4-.05,17.41-17.36,17.41Z" class="color010101 svgShape"></path><path d="M891.44,636.76c-6.23-7.23-13.76-12.77-22.93-15.47-4.14-1.22-5-3.23-5-7.15.2-14.55.11-29.11.07-43.67,0-13.55-6.24-18.41-19.21-15.13-8.79,2.23-17.69,4.13-26.33,6.86-4.42,1.39-6.93.63-10-2.84A127.68,127.68,0,0,0,775.35,532c-5.69-3.25-6.84-7.15-6.82-13.09.2-49.4.12-98.8.11-148.19,0-15.09-3.1-18.2-18.2-18.2H123.36c-12.58,0-16.43,3.75-16.44,16q0,259.33,0,518.67c0,11.83,4.18,16.14,15.76,16.15q315.09,0,630.2,0c11.56,0,15.74-4.35,15.76-16.16,0-22.61.09-45.23-.07-67.85,0-3.72.79-6.09,4.24-8.12a143.36,143.36,0,0,0,32.66-26.3c2.76-3,5.12-3.26,8.83-2.17Q830,787.33,845.9,791c11.28,2.63,17.59-2.48,17.68-14.1.11-14.56.27-29.13-.1-43.68-.14-5.19,1.28-7.41,6.41-9.25,20.78-7.46,31.24-22.93,31.24-44.78,0-5.46-.48-11,.1-16.37C902.35,652.39,897.89,644.25,891.44,636.76ZM131.69,450.29c.5-21.83.46-43.68,0-65.51-.13-6.37,1.93-7.45,7.75-7.44q270.24.23,540.48.12c19,0,38,.19,56.93-.13,5.21-.08,7.07.92,7,6.63-.36,22.35-.41,44.72,0,67.07.12,6.09-1.75,7.09-7.35,7.08q-149.35-.25-298.71-.12-148.95,0-297.92.14C133.66,458.15,131.53,457.07,131.69,450.29ZM738.84,878.44a29.69,29.69,0,0,0-3.89,0q-297.17,0-594.32.15c-6.86,0-8.95-1.38-8.94-8.69q.39-189.14,0-378.27c0-7.21,1.91-8.82,8.92-8.81q297.17.3,594.32,0c7,0,9.56,1.51,8.91,8.81-.69,7.69-.16,15.5-.16,24-18-5.93-35.73-9.61-54-9.83a165,165,0,0,0-166.49,147,159.82,159.82,0,0,0,9.58,75.72,20,20,0,0,1,.65,12.77c-6.69,26.66-13,53.41-19.4,80.14-3.27,13.67,3.49,20.7,17.24,17.81q41.13-8.62,82.2-17.53c2.84-.62,5.36-1,8.28.23,39.16,16.86,79,17.86,119.32,4.61a19.75,19.75,0,0,1,2.64-.48c0,16.05-.11,31.89.08,47.74C743.82,877.63,742.47,878.9,738.84,878.44Zm-25.73-70.29c-29.13,5.42-57.43,2.28-84.35-10.52-5.82-2.77-11.38-2.48-17.36-1.17-22.73,5-45.5,9.76-69.39,14.85,5.88-24,11.29-46.68,17-69.28A27.14,27.14,0,0,0,557.81,724c-39.73-96.09,34.5-199.75,138.38-193.05,33.81,2.19,63.1,15.46,88.55,39.87-18.77,5-36.64,9.67-54.51,14.37-13.28,3.49-26.6,6.88-39.86,10.47a124.63,124.63,0,0,1-29.08,4.55c-35.37,1.05-60.37,25.93-61.77,61.21-.5,12.67-1.35,25.47,1.93,38,6.56,25.06,28,45,53.83,45.88,21.46.73,41.26,7.19,61.58,12.11C738,762.5,759,768.35,781,774.14,761,792.3,738.54,803.41,713.11,808.15ZM662.47,673.2c0,14-.22,28,.13,42,.12,4.93-1.18,6.25-6,5.54-16.88-2.46-30.59-16.19-31.83-33.35a198.15,198.15,0,0,1,.07-29.54c1.27-16.51,14.51-29.71,30.77-32.48,5.29-.9,7.24-.27,7,5.75C662.16,645.16,662.47,659.18,662.47,673.2ZM790,750.58c-33-8.6-65.51-17.16-98.12-25.51-3.87-1-4.56-2.92-4.54-6.47.12-30.41.07-60.82.07-91.23,0-2.82-.46-5.33,3.68-6.37,32.41-8.2,64.75-16.68,97.11-25a6,6,0,0,1,1.8.18Zm48.26,12.55c-6.7-1.68-12.92-3.43-19.22-4.77-3.37-.71-3.83-2.63-3.82-5.56q.09-79.87,0-159.76c0-3,.56-4.6,3.84-5.3,6.31-1.36,12.5-3.25,19.22-5Zm25.46-63.25V646.26c9.73,5.1,14.51,12.73,15.49,22.82C880.49,681.94,876.37,692.33,863.75,699.88Z" fill="#6e90e8" class="color000 svgShape"></path><path fill="#6e90e8" d="M272.83 435.46a17.8 17.8 0 01-17.56-17.93 17.89 17.89 0 1117.56 17.93zM372.69 417.84a17.62 17.62 0 01-17.93 17.63 17.88 17.88 0 1117.93-17.63z" class="color010101 svgShape"></path><path d="M209.11 417.72a17.79 17.79 0 11-17.73-18A18 18 0 01209.11 417.72zM464.33 538.75c0-11.13-4.41-15.6-15.64-15.61q-127.14-.07-254.27 0c-11.16 0-15.55 4.55-15.57 15.71q-.07 37 0 74.1c0 12.2 4 16.15 16.45 16.15q63.18 0 126.36 0 63.57 0 127.14 0c11.32 0 15.52-4.21 15.54-15.48Q464.41 576.19 464.33 538.75zm-92.26 65.5c-27-.2-54.07-.1-81.1-.1-26.78 0-53.56-.14-80.33.12-5.17.05-7.18-.83-7-6.59.46-14.55.35-29.12 0-43.67-.11-4.81 1.22-6.07 6.06-6q81.11.27 162.21 0c4.48 0 6.48.74 6.36 5.88q-.53 22.21 0 44.45C378.43 603.38 376.64 604.28 372.07 604.25zm62.65 0c-9.09-.27-18.2-.23-27.29 0-3.48.08-4.38-1.12-4.35-4.46q.23-23.38 0-46.79c0-3.59.87-5.09 4.79-5 8.83.27 17.68.32 26.51 0 4.35-.17 5.2 1.55 5.07 5.41-.24 7.53-.07 15.08-.07 22.61 0 7.8-.18 15.61.08 23.4C439.58 603.09 438.54 604.35 434.72 604.24zM334.86 209.6c18.6-11.61 27.79-28.58 28.49-48.9a70 70 0 00-1.11-13A58.78 58.78 0 00314.29 101c-23.47-4.13-47.5 7.05-60.09 28-.87 1.46-1.41 1.78-3.08 1A25.28 25.28 0 00222 134.92c-8.83 8.65-17.6 17.36-26.21 26.23-9.7 10-10.06 24.47-1 35 1.25 1.45 1 2.15-.06 3.38Q156.29 246 117.87 292.49c-9.25 11.18-8.68 25 1.53 35.37 5.24 5.32 10.53 10.61 15.81 15.9 11 11 24.61 11.64 36.61 1.72q46.16-38.16 92.34-76.27c1.54-1.28 2.37-1.63 4.17-.08a25 25 0 0034.12-1.08q13.68-13.32 27-27A24.52 24.52 0 00334 212.68C333.19 211.06 333.42 210.5 334.86 209.6zm-82.13 47.55Q207 294.73 161.39 332.41c-2 1.65-4 3.31-6.67 3.18a8.14 8.14 0 01-6.36-2.55c-5.84-5.77-11.69-11.53-17.44-17.38-3.72-3.79-3.73-8-.15-12.35Q154.4 274.77 178 246.23c9.58-11.57 19.19-23.12 28.72-34.74 1.18-1.44 1.78-1.75 3.26-.25q21.33 21.51 42.84 42.85C254.14 255.36 254.22 255.93 252.73 257.15zM316.85 230c-8.32 8.26-16.58 16.57-24.88 24.84-5.12 5.11-9.44 5.13-14.48.08Q243 220.47 208.57 186c-1.95-1.95-3.54-4-3.46-6.79a8.16 8.16 0 012.52-6.35c8.74-8.75 17.45-17.53 26.24-26.22 3.89-3.84 8.79-3.57 12.95.58L311.61 212c1.89 1.89 3.85 3.73 5.66 5.69C320.79 221.53 320.54 226.33 316.85 230zm5.95-33.35a2.58 2.58 0 01-3.56-.62q-25.86-26-51.85-51.83c-1.28-1.27-1.34-2.22-.58-3.77 8.1-16.53 27.27-25.94 45.56-22.28s32.43 19.49 33.57 37.91c.07 1 .13 2 .19 3C345.57 176.08 338.06 188.76 322.8 196.64z" fill="#6e90e8" class="color000 svgShape"></path><path d="M247.46,174.86c.48.45.88.81,1.27,1.19q19.54,19.53,39.12,39c1.15,1.14.78,1.68-.13,2.58-3.1,3-6.2,6.06-9.17,9.2-1.13,1.18-1.73,1-2.81-.06q-19.29-19.4-38.7-38.69c-1.13-1.13-1.42-1.76-.08-3,3.1-2.88,6-5.95,9-8.94C246.44,175.74,246.92,175.34,247.46,174.86Z" fill="#6e90e8" class="color000 svgShape"></path></svg></g></svg>