<svg id="SvgjsSvg1352" width="288" height="288" xmlns="http://www.w3.org/2000/svg" version="1.1" xmlns:xlink="http://www.w3.org/1999/xlink" xmlns:svgjs="http://svgjs.com/svgjs"><defs id="SvgjsDefs1353"></defs><g id="SvgjsG1354"><svg xmlns="http://www.w3.org/2000/svg" data-name="Layer 1" viewBox="0 0 1000 1000" width="288" height="288"><path d="M896.61,292.58c-15-45.52-55.82-75-103.73-75.16-63.83-.22-118.91,57.89-106,128.42,5.92,32.42,24.29,56.73,52.82,74.13-19.63,14.62-33.23,33-38.88,56.78-1,4.22-3.23,2.9-5.68,1.25a44.8,44.8,0,0,0-26.44-7.9c-7.79.16-15.59.06-23.38,0-9.68,0-10-.35-10-10.14,0-28.32,0-56.64,0-85a82.78,82.78,0,0,0-7.64-33.94c-10.11-22.58-26.41-38.83-49-49-7-3.16-7.18-4-2.07-9.05,23.34-22.85,33.65-50.84,32.07-83.1-1.54-31.77-15-58-39.56-78.2-16.21-13.3-34.68-21.51-56-22.34h-25c-8.31,1.72-16.93,1.26-25.07,4.45-29,11.4-49.82,31.13-62.49,59.72-16.7,37.67-8.19,86.68,20.6,116.1,8.52,8.71,8.42,8.52-2.47,14.25-34.27,18.05-52.5,46.24-52.84,85.27-.24,27,0,54.06-.07,81.09,0,9.09-.57,9.58-9.81,9.66-8.06.07-16.12.06-24.17,0-8.55-.05-16.67,1.83-23.66,6.66-5.35,3.7-7.2,2.62-8.73-3.44-5-19.84-16.23-35.91-32.05-48.6-5.15-4.14-3.55-5.46.76-8.6,37.95-27.67,54.67-64.92,46.13-111.3C303.1,244.09,241.56,204,179.92,221c-59.84,16.51-91.69,72.65-75.7,136,6,24,20.73,42.76,40.87,57.21,7.95,5.71,8,6.11.66,12.67-23.06,20.46-33.24,45.82-32.84,76.75.77,59.77.46,119.56.11,179.33-.14,23.69,7.25,43.87,24.55,60.09,5.11,4.8,5.37,9,1.8,14.92-11.11,18.49-21.52,37.39-32.54,55.93a43.73,43.73,0,0,0-6.28,23c0,7.8.09,15.59,0,23.39-.15,11.34,4.19,20.5,12.36,28.33,8.32,8,18.17,10.19,29.24,10.18q358.29-.11,716.57.19c19.86,0,38-11.71,41.19-32.2V863.7a59,59,0,0,1,0-29.63v-1.56c-1.69-5.62-1.47-11.63-4.64-17-10.81-18.34-21.39-36.82-32-55.24-6.08-10.5-6.2-10.43,2.24-19C880.43,726.19,888,708,888,686.72q0-94.65,0-189.29c0-25.15-8.6-46.66-26.56-64.36-3.33-3.28-6.54-6.68-10.11-9.71-2.72-2.32-2.42-4.27.54-6.07a76.25,76.25,0,0,0,13-9.87C884.31,389,898.46,367.9,899.09,340v0l-.53,0c-.56-3.36-.88-6.67,1.34-9.64V324c-2.13-3.12-2.84-6.24,0-9.36v-1.56C898.25,306.36,898.84,299.31,896.61,292.58ZM421.05,200.22c1.85-41.68,40.35-76,83-74,45,2.13,78.16,39.45,76.1,85.58-1.84,41.16-40,75.85-81.43,73.95C452,283.61,419,247.24,421.05,200.22ZM394.3,381.83c.16-40.91,28-68.89,68.89-69.2q37.41-.28,74.82,0c40.91.31,68.73,28.29,68.9,69.21.11,28.05-.12,56.11.15,84.17.06,5.21-1.47,6.68-6.46,6.29-6.43-.51-15.09,2.09-18.8-1.17-4.33-3.81-1.36-12.66-1.41-19.31-.16-23.38,0-46.76-.08-70.14,0-10.18-4.73-15.71-13.1-15.76s-13.41,5.7-13.43,15.6c-.08,27.8-.26,55.6.14,83.39.09,6.37-1.9,7.58-7.73,7.43-15.31-.4-30.65-.13-46-.13-15.06,0-30.14-.27-45.2.13-5.83.16-7.81-1.07-7.72-7.43.4-27.79.21-55.6.15-83.4,0-8.52-3.83-14-10.35-15.34-9.23-2-16.14,4.17-16.18,14.73-.1,26.24,0,52.48,0,78.72,0,12.59,0,12.59-12.49,12.59-14.11,0-14.11,0-14.11-14C394.28,432.75,394.19,407.29,394.3,381.83ZM128,323.92c1-44.2,37.73-78.84,82.47-77.85,43,1,78,37.68,77.11,80.78-.95,44.88-37,79.63-81.58,78.57A79.8,79.8,0,0,1,128,323.92Zm13.69,364c-.38-24.68-.22-49.36-.24-74,0-37.93-.24-75.87.07-113.8C141.8,464,166.35,436.5,201,432.77c37.49-4,71.25,24.49,73.17,62.15.56,10.83.09,21.72.09,35.11-3.23-5.46-5.37-9-7.44-12.61-3.87-6.75-7.57-13.59-11.56-20.26-4.53-7.57-11.68-9.91-18.42-6.3-7,3.74-9.06,11.52-4.63,19.38q19.29,34.21,38.94,68.2c5.6,9.68,14.5,13.67,25.42,13.67,22.87,0,45.73.06,68.6,0,7.91,0,14.14,3,18.45,9.59,8.16,12.47.16,29.4-15,29.69-33,.63-66,.47-99-.1-11.27-.2-18.84-7.65-24.28-17.22q-22.09-38.85-44.32-77.65c-1-1.8-2-3.66-3.1-5.39-4.58-6.94-11.62-9-18.1-5.44-6.78,3.75-9,11.37-4.81,18.82,13.21,23.5,26.42,47,40.21,70.15,3.66,6.15,3.49,10.49-.11,16.57-17.32,29.2-34.1,58.72-51.08,88.12-1.14,2-2.42,3.88-3.88,6.22C148.59,715.18,141.91,703,141.68,687.91ZM873.17,849c1.51,13-2.2,20.33-10.61,22.08-3,.63-6.21.39-9.32.39q-295.85,0-591.7,0-57.68,0-115.37,0c-14.78,0-22.4-10.27-18.28-24.3.6-2,1.71-2.25,3.31-2.26,2.08,0,4.16,0,6.24,0H501.5q180.09,0,360.16.23C865.38,845.11,872.23,840.8,873.17,849Zm-9.92-31.06H138l99.41-172.36c12.45,9.81,26.16,13.07,41.23,12.9,29.37-.35,58.74.11,88.11-.17,24.54-.24,44.21-17.74,46.5-40.69,2.41-24.13-13.18-45.67-37.24-51.06a58.09,58.09,0,0,0-12.38-1c-21.05-.09-42.11,0-63.16-.06-9.1,0-13-6.94-8.36-14.94,8.13-14.16,16.46-28.22,24.41-42.48,3.7-6.64,8.83-9.38,16.43-9.38q167.63.19,335.26,0c7.6,0,12.76,2.69,16.47,9.31,8.12,14.47,16.59,28.74,24.84,43.13,4.21,7.35,0,14.34-8.63,14.37-22.61,0-45.23-.28-67.83.16s-42.75,19-45.06,40.91c-2.48,23.51,11.94,44.36,34.83,50.44,4.84,1.28,9.77,1.31,14.69,1.31,28.59,0,57.18-.21,85.77.11,14.82.17,28.24-3.27,40.58-12.87C796.9,702.86,829.84,760,863.25,817.9Zm-3.84-322.23c.66,63.9.28,127.81.17,191.72,0,13.33-5.59,24.55-14.46,34.33-2.91,3.2-4.55,3.88-7.11-.6q-27-47.28-54.42-94.26c-2.11-3.6-1.18-5.93.59-9q20-34.71,39.66-69.55a52.13,52.13,0,0,0,3.26-6.18,13,13,0,0,0-5.32-16.27,12.73,12.73,0,0,0-16.85,2.84,41.68,41.68,0,0,0-4.18,6.53q-22.59,39.46-45.12,79c-5.93,10.41-14.36,17.27-26.68,17.37q-47.54.38-95.08,0a19.23,19.23,0,0,1-19.37-16.81,20.07,20.07,0,0,1,14.1-21.6,31.75,31.75,0,0,1,9.2-1c21.82-.09,43.64-.18,65.47,0,12.91.11,22.18-5.09,28.53-16.54,12.07-21.75,24.6-43.25,37-64.82,2.93-5.11,3.8-10.23.43-15.39a12.6,12.6,0,0,0-12.64-6c-5.44.59-8.64,4.09-11.18,8.63-5.64,10-11.46,20-17.2,30-.73-16.24-3.22-32.2,1.42-47.89,9.43-31.84,39.23-51.05,73.16-47C833.58,436.74,859.08,463.79,859.41,495.67Zm-65.8-90.19A79.74,79.74,0,1,1,793.13,246c44-.08,80,35.63,80.12,79.51S837.69,405.29,793.61,405.48Z" fill="#007CAA" class="color000 svgShape"></path></svg></g></svg>
