<svg id="SvgjsSvg1198" width="288" height="288" xmlns="http://www.w3.org/2000/svg" version="1.1" xmlns:xlink="http://www.w3.org/1999/xlink" xmlns:svgjs="http://svgjs.com/svgjs"><defs id="SvgjsDefs1199"></defs><g id="SvgjsG1200"><svg xmlns="http://www.w3.org/2000/svg" data-name="Layer 1" viewBox="0 0 1000 1000" width="288" height="288"><path d="M899.5,690c-10.62-37.69-34.67-64.08-69.34-80.95-28.83-14-59.5-18.63-91.31-14.48-5.58.72-7.71-1.33-10.61-5.87-10.28-16.07-9-33.74-8.82-51.4,0-3.09.84-4.28,4.09-3.45,19,4.83,38.44,2.36,57.67,2.42,15.21.05,26.47-10.82,26.71-25.08q.57-35.22,0-70.45c-.2-12.12-9.79-23.51-21.73-24-20.52-.82-41.24-2.64-61.61,1.58-4.81,1-5.12-.16-5.12-4.12,0-13.3.34-26.65-.65-39.89-.94-12.66-7.14-23.75-18.66-28.92-9.89-4.43-14.45-11.39-17.72-20.6a133.85,133.85,0,0,0-6-13.55c-3.2-6.54-5.76-11.95.82-19.11,7-7.58,3.76-18.47,3.88-28,.23-18.65-7.51-27.74-25.78-31.11-17.67-3.25-35.61-5.52-52.95-10.07-15.65-4.1-31.54,7.35-31.69,25.05-.09,9.66-.18,19.31,0,29,.28,17.77,10.58,27.86,28.53,28,14.35.09,28.7,0,43.06.05,2.41,0,5.26-1.05,6.71,2.32,4.48,10.45,9.07,20.85,13.46,30.93-.67.74-.82,1.05-1,1.05-19.3.06-38.61,0-57.91.15-19.88.17-34.07,13-35.18,31.43-1.12,18.84,11.82,34.25,31.31,36.22,14.78,1.5,29.67,2,44.5,3,2.37.15,5.51-.88,5.47,3.45-.09,11.27,0,22.53,0,34.12-7.07-3.51-12.92-7-19.15-9.4-37.55-14.7-76.2-16-115.34-8.44-24.37,4.69-47.48,12.88-65.25,31.08-5.52,5.65-10.72,7.45-18.19,7.34-26.35-.38-52.71-.23-79.07-.11-10,.05-15.86,7.12-13.1,15.56,2.14,6.52,7.29,8.11,13.57,8.09,25.58-.09,51.16.14,76.73-.17,5.93-.07,8.13,1.16,7.92,7.6-.5,15.38-.5,30.8,0,46.18.21,6.56-1.7,8.19-8.2,8.17-91.08-.22-182.16-.13-273.24-.19a74.12,74.12,0,0,1-13.24-1c-9.65-1.75-16.14-8.28-16.31-17.28-.36-18.25-.26-36.53,0-54.79.09-7,3.8-12.77,10.76-13.5,18.18-1.89,36.84-5.78,51.06,11.85a34,34,0,0,0,26.64,13c27.66.15,55.33.07,83,.09,5.82,0,10.05-2.38,11.95-8.12,2.78-8.38-3-15.42-13.14-15.47-24.27-.12-48.55-.41-72.81.16-8.84.2-15.92-2.08-21.56-8.53-12.7-14.54-28.64-20.13-47.62-18a91.86,91.86,0,0,1-9.39,0c-26.49.15-42.4,15.81-42.66,42.28-.17,16.7-.21,33.41.06,50.1.3,18.53,10.69,32.75,28.09,39.3,7.94,3,16.21,3.73,24.6,3.74,23,0,45.93,0,68.89.06,1.87,0,4.33-1.16,5.57,1.28,2.26,4.45-3.75,14.47-8.68,14.74-21.81,1.2-42.81,5.86-62.56,15.32-31.9,15.28-54.31,38.29-59.74,74.73-1.84,12.3-1.38,24.42,9.28,32.88,3.9,3.08,4.07,5.63,3.46,9.79a117.67,117.67,0,0,0,1.39,43.54c12.61,55.52,60.47,96,115.34,97.67,58.87,1.8,108.63-34.45,125-91.31,1.22-4.22,2.86-5.72,7.41-5.63,15.65.3,31.31.17,47,0,7.34-.09,12.27-4.8,12.51-11.3.25-6.69-5-11.8-12.53-12.22-1-.06-2.09,0-3.13,0l-124.49.08h-8.29c1.61-6.45,3.5-11.66,4.11-17,.71-6.27,3.47-7.8,9.6-7.78,63.42.24,126.84-.21,190.25.36,19,.18,32.53-6.6,43.52-22.17,27.82-39.38,56.55-78.13,85-117.05,1.72-2.34,2.66-5.95,6.62-5.95h35.87L529.9,730.64c-.8,1-1.64,2-2.5,3-7.58,8.72-16.73,13.62-28.72,13.17-12.51-.46-25.05-.11-37.57-.1-11.93,0-17.68,3.76-17.86,11.64s5.61,12,17.4,12c12,0,24-.45,36,.09,22.34,1,39.11-8.53,52.31-25.83q52.2-68.42,104.55-136.69C655,606,656,603.46,659,602.29c1.63,3.35,2.89,6.82,4.88,9.81,3.72,5.6,2.53,8.81-2.94,13C638.85,642,624,664,619,691.66c-2.49,13.73.2,26.2,13.69,33.63,3.57,2,2.6,4.53,2.42,7.25-3.3,49.33,15.41,88.52,56.82,115C733.14,874,777,875.12,819.38,850.73c44-25.35,64.46-65,62.32-116-.11-2.74-2.42-6.47,1.81-8.27,9.19-3.89,13.48-11.68,16.68-20.41V690.35C900,690.24,899.55,690.18,899.5,690ZM725.58,442.88c4.42-1.6,8.85-3,13.6-3,13,0,26,.12,39.05-.14,4.81-.1,6.41,1.6,6.29,6.33-.26,10.15-.08,20.31-.08,30.46s-.13,20.31.06,30.45c.07,3.89-1.13,5.85-5.24,5.77-14.83-.26-29.7.19-44.48-.81-13.13-.88-15.32-4.05-15.32-16.82,0-14.32.23-28.64-.13-43C719.2,447.08,721.13,444.5,725.58,442.88ZM640.1,281.37H626.05c-8.59,0-17.18-.17-25.76.07-4.26.12-6.16-1.09-6-5.68.28-8.32.13-16.65.06-25,0-3.45.45-5,4.83-4.12,17.55,3.57,35.2,6.7,52.85,9.82,4,.7,5.54,2.26,5.64,6.6C658.08,281.37,658.25,281.37,640.1,281.37ZM237.47,770.45c10,.21,20.07,0,30.53,0-9,14.32-29,20.67-46.62,15.37-24.75-7.44-38.1-35.4-28-58.75,1-2.24,1.4-5.77,4.88-5s1.35,3.87,1.19,5.83C197.45,752.11,213.27,769.94,237.47,770.45ZM122.06,689.7c1.73-14.05,6.69-26.66,16.33-37.23,18.41-20.2,42.23-29.74,68.49-34,15.58-2.51,15.62-2.13,12.4,13.14-4.25,20.09-8.74,40.14-12.52,60.32-1,5.42-3.14,6.59-8.13,6.45-11.46-.33-22.93-.1-34.39-.1s-23-.44-34.38.16C122.68,698.84,121.32,695.71,122.06,689.7Zm171.31,87c2.66-4.75,5.31-6.71,10.73-6.4,8.53.47,17.11.12,26.53.12-6.49,22.51-18.51,40.39-36.94,53.37-34.75,24.48-71.85,27.55-108.76,6.45s-53.13-54.49-50.3-96.92c.76-11.37,1-11.35,12.17-11.35,5.74,0,11.51.36,17.21-.1,6.34-.51,5,2.76,4.15,6.61-4.74,22.66.17,43,15.63,60.34C214.82,823.5,270.61,817.34,293.37,776.68Zm-41.85-44.51a30.77,30.77,0,0,1-1.38,4.47c-2.85,7.2-9.83,11.29-16.71,9.83s-10.69-7.12-10.33-17.5c3.22-15.47,6.85-33.05,10.55-50.62,6.6-31.32,13.36-62.61,19.73-94,1.13-5.56,3.17-7.87,9.09-7.3a145,145,0,0,0,18.76.07c3.9-.13,5.63.41,4.55,5.12Q268.49,657.18,251.52,732.17Zm32-34.27c4.77-21,9.49-41.7,14.51-63.77,24.35,15.53,39.38,35.86,44.6,63.77Zm22.53-86.25c-2.28-1.22-2.38-2.76-1.79-5.14q3.1-12.5,5.64-25.13c.74-3.72,2.87-4.23,6.13-4.22,34.69.08,69.38.05,106,.05l-70.94,76.58C339.42,635.6,324.65,621.56,306.1,611.65ZM501,685.51c-6.18,9.1-13,15.56-23.12,13h-3.4c-12,0-14.75-4.8-9-15.75,6.52-12.4,23.35-15.93,34.08-7.27C503.31,678.5,504.13,680.85,501,685.51Zm77.2-106.35c-11.27,16.35-11.27,16.35-31.08,16.35-17.48,0-35-.15-52.42.12-7.3.11-12.23,5.16-12.35,11.53-.13,6.58,5.06,11.53,12.74,12,2.6.16,5.21,0,7.82,0h46L518.8,660.7c-11.88-10.41-25.12-15.83-41-13-21.91,3.87-37.92,21.61-38.19,43.86-.07,6.26-2,7.13-7.45,7-20.08-.31-40.16-.23-60.24,0-4.1,0-4.84-1.35-6.34-5.2-5-12.92,0-21.15,9-30.34,25.44-26.16,49.89-53.3,74.54-80.22,3.6-3.94,7.18-5.75,12.69-5.71,36.51.26,73,.13,109.53.13h7.5A16.59,16.59,0,0,1,578.15,579.16Zm71.6-83.77c-.69,17.18-.37,34.41,0,51.61.09,5.12-1.27,6.59-6.45,6.55-29.46-.24-58.93-.12-88.39-.12-29,0-57.89-.15-86.83.13-5.57.06-7-1.62-6.88-7,.32-19,.35-38.07,0-57.1-.1-5.62,2.14-9.37,5.9-12.86,14.88-13.83,33.32-20.11,52.65-23.74,32.76-6.14,65.3-5.46,97.19,5.46a84.84,84.84,0,0,1,16.19,7.62C644.2,472.59,650.3,481.68,649.75,495.39Zm8.14-108.22c-18-1.24-35.94-2.17-53.91-3.23-5.35-.31-9.63-2.19-11.45-7.73-2.21-6.73,1.68-12.89,9.21-13,26.62-.25,53.24-.26,79.85.15,8.79.14,13.9,7,14,17.52.19,20.09.06,40.19.06,60.28q0,16.83,0,33.66c0,30.53.06,61.06,0,91.59a34.12,34.12,0,0,0,3.41,15Q732.69,653.16,766.13,725c.88,1.88,1.76,3.77,2.62,5.66,2.61,5.73,2.59,10.85-4.1,13.59-6.15,2.52-10.67,1.33-13.87-5.46-12.94-27.53-26.31-54.87-39.49-82.3-11.82-24.61-23.53-49.29-35.46-73.85a26.42,26.42,0,0,1-2.72-12q.14-83.37.06-166.74C673.16,391.53,670.12,388,657.89,387.17Zm139,342.36c4.86-.18,4.35,3.54,4.84,6.45A43.89,43.89,0,0,1,758,787.68c-28-.15-49.18-26.34-42.87-53,.45-1.9-.1-4.58,2.72-5,3.25-.49,3.53,2.5,4.51,4.48,3,6.06,5.73,12.25,8.89,18.23C738.44,766,753.08,772.06,768.5,768s25.24-16.46,25.57-31.55C794.12,734.2,790.77,729.75,796.86,729.53ZM642.29,695.17c3.58-17.68,12.53-32.41,25.36-44.87,3-2.89,6.28-5.44,10.23-8.84,10.48,21.86,20.45,42.65,30.88,64.38-20.74,0-40.45.11-60.16-.05C641.2,705.72,641.24,700.33,642.29,695.17Zm124,148.25c-50.56,5-98.69-32.69-106.92-83.82a88,88,0,0,1-.65-25.73c.33-2.46.29-4.46,3.8-4.39,9.61.21,19.23.07,28.89.07-3.3,35.16,9.09,61.18,36.09,74.41,23.92,11.73,47.72,10.43,69.56-5s31.38-37,28.28-63.64c-.62-5.28.82-6.2,5.5-5.89,5.46.37,10.95.09,16.43.09,10.57,0,10.57,0,10.9,10.91C859.8,794,820.38,838.14,766.3,843.42ZM867.19,705.88c-13.28.18-26.57,0-39.86.06-13,0-26.05-.13-39.07.1-3.65.06-5.49-1.17-7-4.44q-18.1-39.26-36.51-78.36c-1.41-3-3.44-5.68,2.28-6.1,43.69-3.17,95.49,11.71,121.21,58,3.41,6.14,6.45,12.45,7.79,19.45C877.67,703.11,875.8,705.76,867.19,705.88Z" fill="#6e90e8" class="color000 svgShape"></path><path d="M398.17,270c-5.87-37.67-24.72-68-55.46-90.37-33.08-24.12-70.12-31.49-110.23-23.73-1.51.29-2.09,0-2.44-1.44-.86-3.5-2-6.94-2.7-10.47-1.32-6.62-4.94-11.09-11.46-13.07H210.6c-4.64.76-8.94,2.57-13.3,4.25a138.64,138.64,0,0,0-12.74,5.9,4.68,4.68,0,0,1-3.9.54c-5.34-1.82-10.28-.88-15.1,2-13.34,7.91-25.69,17-35.9,28.79a151.56,151.56,0,0,0-18.57,26.93,14.58,14.58,0,0,0-1,11.38,7.22,7.22,0,0,1-.6,5.83c-4.14,8.06-7.91,16.29-9.78,25.24v5.28c2,6.51,6.45,10.14,13.08,11.46,3.53.7,7,1.83,10.47,2.7,1.41.35,1.75.94,1.43,2.44a135.13,135.13,0,0,0-1,51.83c6.51,37.14,25.12,67,55.46,89.13,29.41,21.48,62.57,29.83,98.72,25.43,37.11-4.51,67.61-21.59,91-50.56C394.88,347.48,404.5,310.62,398.17,270ZM114,246.61c-2.27-.56-2.71-1.63-2-3.81a155.21,155.21,0,0,1,11.3-25.94c1.69-3.07,2-5.85-.51-8.59-1.15-1.27-1-2.59-.18-4A123.93,123.93,0,0,1,173,153.8c1.55-.85,2.92-1,4.29.24,2.66,2.38,5.38,2.08,8.33.45a161,161,0,0,1,25.93-11.32c2.36-.8,3.39-.21,4,2.13q3.81,14.55,7.81,29.06c.44,1.61,0,2.18-1.49,2.72q-55.74,20.08-76,75.81c-.28.76-.14,2.18-2.56,1.58l-14.41-3.86C123.92,249.27,119,247.87,114,246.61Zm102.76-43.13a38.11,38.11,0,0,1-6.63,4.78,98.54,98.54,0,0,0-33,33,31.64,31.64,0,0,1-6.49,8.22,15,15,0,0,1-12,3.45c9.69-28,35.5-53.6,63.13-63.14C222.49,195.27,220.61,199.74,216.71,203.48ZM344.86,387.79c-20.31,17.56-43.67,28.44-70.36,30.87-45.82,4.18-83.87-11.66-113-47.24-21.23-25.91-29.82-56.18-27.6-89.53A121.05,121.05,0,0,1,136,266.53c.3-1.51.85-1.69,2.13-1.31,1.68.5,3.42.83,5.09,1.34a7.58,7.58,0,0,0,6.51-.67c2.38-1.57,4.7-1.57,7.39-1.29,13,1.37,22.12-4.72,28.72-15.32A89.43,89.43,0,0,1,218,217.1c7.65-4.76,13.4-11,15.14-20.21a31.53,31.53,0,0,0,0-10.79c-.13-.85-.57-1.69.09-2.52,3.1-3.87,2.7-8.07,1.33-12.47-1.12-3.56-1-3.62,2.68-4.28a131.57,131.57,0,0,1,23.6-2.17c56.07.47,104.13,35.63,121.48,88.85C397.81,300.94,382.59,355.2,344.86,387.79Z" fill="#6e90e8" class="color000 svgShape"></path><path d="M190.55 296.83c.2-46.26 35.47-78.49 76.66-74.89A70.44 70.44 0 01290.38 356c-2.34 1.07-4.66 1.57-6.94 0a5.57 5.57 0 01-2.47-5.58c.33-2.64 2.1-4 4.35-5a59 59 0 0023.73-19.88c24.95-35.38 3.05-85.6-39.88-91.43C231.61 229 199.3 259.18 202.55 297c1.85 21.5 13 37.38 32.15 47.48 1.2.64 2.49 1.14 3.62 1.89a5.81 5.81 0 012.06 7.25 5.66 5.66 0 01-6.54 3.2 15.16 15.16 0 01-3.53-1.36C204.62 342.1 191.69 320.72 190.55 296.83zM375.05 297.55c0 4.17-4.26 7.25-7.95 5.29-6.88-3.64-13.59-7.61-20.24-11.66-2.66-1.62-3.1-4.85-1.57-7.5a5.52 5.52 0 017.34-2.39c6.83 3.74 13.54 7.71 20.23 11.7A5.05 5.05 0 01375.05 297.55zM175.21 347.36c-3.51 0-7 .06-10.53 0-3.69-.07-6.29-2.6-6.23-5.94a5.91 5.91 0 016.14-5.75c7.12-.07 14.24-.08 21.35 0 3.62 0 6 2.45 6 5.8s-2.4 5.82-6.21 5.88C182.23 347.41 178.72 347.36 175.21 347.36zM177.24 297.46c0 4.32-4.29 7.37-8.13 5.32-6.78-3.62-13.41-7.53-20-11.52a5.49 5.49 0 01-1.69-7.52c1.44-2.55 4.69-3.91 7.32-2.48 6.84 3.73 13.55 7.68 20.24 11.67A4.93 4.93 0 01177.24 297.46zM325.6 201a5.54 5.54 0 01-2.93 5.06c-6.3 3.69-12.6 7.39-19 11a5.82 5.82 0 01-5.82-10.08c6.36-3.8 12.74-7.56 19.26-11.07A5.69 5.69 0 01325.6 201zM351.94 356.79a5.58 5.58 0 01-5.05-3c-3.63-6.23-7.26-12.45-10.78-18.74A5.8 5.8 0 01338.2 327a5.68 5.68 0 017.88 2.13c3.8 6.35 7.56 12.73 11.07 19.24A5.72 5.72 0 01351.94 356.79zM316.19 377.65c0 3.51 0 7 0 10.53-.06 3.83-2.38 6.25-5.85 6.24s-5.81-2.45-5.84-6.27c-.06-6.93-.05-13.85 0-20.77 0-3.73 2.45-6.38 5.74-6.46s5.92 2.6 6 6.5C316.22 370.83 316.19 374.24 316.19 377.65zM202.31 389.06c-3-.18-4.94-1.46-5.83-4.05s-.22-5.06 2.05-6.45q9.84-6 20-11.57a5.56 5.56 0 017.53 2.49 5.63 5.63 0 01-1.78 7.53c-6.59 4-13.31 7.71-20 11.5A7.9 7.9 0 01202.31 389.06zM272.2 381.38a6.86 6.86 0 01-1.23 3.86c-3.35 5.82-6.68 11.66-10.08 17.46-2 3.43-5.41 4.5-8.38 2.76s-3.75-5.14-1.76-8.65c3.42-6 6.86-12 10.37-18 1.61-2.72 4.05-3.71 6.67-3A5.75 5.75 0 01272.2 381.38zM255.28 208.43a5.69 5.69 0 01-5-8.36c3.55-6.61 7.37-13.07 11.24-19.49a5.58 5.58 0 017.68-2 5.7 5.7 0 012.32 7.83c-3.57 6.47-7.32 12.86-11.07 19.24A5.39 5.39 0 01255.28 208.43zM346.67 248.42c-3.61 0-7.22.07-10.82 0s-6.08-2.48-6.12-5.72a5.7 5.7 0 015.69-5.86c7.4-.19 14.82-.2 22.22 0a5.53 5.53 0 015.59 6.16c-.17 3.19-2.48 5.34-6 5.43S350.18 248.42 346.67 248.42z" fill="#6e90e8" class="color000 svgShape"></path><path fill="#6e90e8" d="M225.35 265.75a5.71 5.71 0 015.81 5.66 5.93 5.93 0 01-5.85 6 6 6 0 01-5.85-6.05A5.82 5.82 0 01225.35 265.75zM234.56 256.6a5.82 5.82 0 015.86-6 6 6 0 015.82 5.78 5.93 5.93 0 01-5.94 5.92A5.72 5.72 0 01234.56 256.6zM225.46 306.81a5.69 5.69 0 015.69 5.77 5.92 5.92 0 01-6 5.9 6 6 0 01-5.74-5.86A5.8 5.8 0 01225.46 306.81zM275.62 256.59a5.83 5.83 0 015.86-6 6 6 0 015.82 5.81 5.92 5.92 0 01-5.95 5.9A5.75 5.75 0 01275.62 256.59zM214.05 292.06a5.67 5.67 0 015.65-5.79 5.88 5.88 0 016 5.8 6 6 0 01-6 5.88A5.86 5.86 0 01214.05 292.06zM302.31 286.28a5.87 5.87 0 015.51 6 6 6 0 01-6.24 5.64 5.84 5.84 0 01-5.41-6.38A5.69 5.69 0 01302.31 286.28zM255.1 356.5a5.68 5.68 0 015.72-5.72 5.87 5.87 0 015.95 5.88 6 6 0 01-5.8 5.8A5.85 5.85 0 01255.1 356.5zM260.75 245.22a5.88 5.88 0 016 5.8 6 6 0 01-5.74 5.87 5.88 5.88 0 01-5.94-5.88A5.68 5.68 0 01260.75 245.22zM255.09 333a5.68 5.68 0 015.77-5.68 5.84 5.84 0 015.91 5.9 6 6 0 01-5.84 5.77A5.91 5.91 0 01255.09 333zM296.46 306.8a5.67 5.67 0 015.77 5.67 5.86 5.86 0 01-5.81 6 6 6 0 01-5.85-6.05A5.84 5.84 0 01296.46 306.8zM240.45 333.41a5.68 5.68 0 01-5.88-5.86 5.85 5.85 0 015.72-5.8 6 6 0 016 5.93A5.82 5.82 0 01240.45 333.41zM281.3 333.41a5.68 5.68 0 01-5.67-6.06 5.84 5.84 0 015.91-5.6 6 6 0 015.77 5.84A5.87 5.87 0 01281.3 333.41zM302.22 271.56a5.86 5.86 0 01-5.65 5.87 6 6 0 01-6-5.9 5.87 5.87 0 016-5.79A5.68 5.68 0 01302.22 271.56zM149 224a5.92 5.92 0 01-5.84 6 6 6 0 01-5.86-5.75 5.87 5.87 0 015.89-6A5.75 5.75 0 01149 224zM198.8 174.32a5.94 5.94 0 01-5.66 5.9 5.76 5.76 0 01-6-5.76 5.86 5.86 0 015.89-5.94A6 6 0 01198.8 174.32z" class="color010101 svgShape"></path><path d="M260.94,268.67a23.45,23.45,0,0,0-.1,46.89,23.45,23.45,0,1,0,.1-46.89Zm0,35.16a11.74,11.74,0,0,1-11.68-11.75,11.54,11.54,0,0,1,11.66-11.68,11.71,11.71,0,0,1,11.77,11.65A11.93,11.93,0,0,1,260.9,303.83Z" fill="#6e90e8" class="color000 svgShape"></path></svg></g></svg>