<svg id="SvgjsSvg1148" width="288" height="288" xmlns="http://www.w3.org/2000/svg" version="1.1" xmlns:xlink="http://www.w3.org/1999/xlink" xmlns:svgjs="http://svgjs.com/svgjs"><defs id="SvgjsDefs1149"></defs><g id="SvgjsG1150"><svg xmlns="http://www.w3.org/2000/svg" data-name="Layer 1" viewBox="0 0 1000 1000" width="288" height="288"><path d="M852.71,497.9c-.49,60.29-13,113-38.14,162.6-6.13,12.1-18,17.53-29.84,14a25.23,25.23,0,0,1-18.12-26.08c.32-4.25,2-8,3.88-11.76C830.37,514.24,805.28,373.73,706,281c-50-46.69-109.7-72.52-178-78.58-134.9-12-259,68.11-307,192.3-49.92,129.24-.74,282.78,115.73,357.75,111.88,72,249.84,65.29,354.16-17.29,4.92-3.89,9.76-7.79,16.4-8.39,12-1.08,22.06,4.68,26.4,15.24s1.35,21.67-8.05,29.45a343,343,0,0,1-65.84,43.1C472,908.18,246.72,819.4,173.31,622.81c-59.19-158.52,5.94-339.38,152.61-424.09,59.49-34.37,123.56-49.92,192.11-47.4,158.62,5.81,298.31,126,327.94,282.14,2,10.73,3.77,21.57,4.79,32.45C851.9,478.09,853.14,490.31,852.71,497.9Z" fill="#6e90e8" class="color000 svgShape"></path><path d="M501.82 466.87a35.35 35.35 0 11-35.27 35.2A35.46 35.46 0 01501.82 466.87zM306.16 502.3a34.91 34.91 0 0135-35.43 35.36 35.36 0 11-35 35.43zM698.05 502.26a35.37 35.37 0 11-35-35.39A35.18 35.18 0 01698.05 502.26z" fill="#6e90e8" class="color000 svgShape"></path></svg></g></svg>