<svg id="SvgjsSvg1457" width="288" height="288" xmlns="http://www.w3.org/2000/svg" version="1.1" xmlns:xlink="http://www.w3.org/1999/xlink" xmlns:svgjs="http://svgjs.com/svgjs"><defs id="SvgjsDefs1458"></defs><g id="SvgjsG1459"><svg xmlns="http://www.w3.org/2000/svg" data-name="Layer 1" viewBox="0 0 1000 1000" width="288" height="288"><path fill="#6e90e8" d="M398.91,479.19c0,11.92,0,11.92-12.39,11.92-12.71,0-12.71,0-12.71-12.38,0-12.71,0-12.71,12.39-12.71C398.91,466,398.91,466,398.91,479.19Z" class="colorfefefe svgShape"></path><path d="M821 716.65c-91.21.92-182.42.21-273.63.5-7.83 0-13.1-.88-15.53-9.33-1-3.52-4.26-6.49-6.79-9.46-21.22-24.82-42.6-49.51-63.71-74.43-4.43-5.22-9.35-7.49-16.24-7.45-42.33.21-84.67 0-127 .27-6 0-7.29-1.58-7.14-7.3.38-14.42-3.46-18-17.91-18H127.58c-13.41 0-17.27 3.84-17.28 17.16q0 66.63 0 133.27V873.63c0 15.87 3.18 19 19.38 19h86.24c16.78 0 19.82-2.71 19.71-19.31 0-5 1.49-6 6.14-5.89 16.46.28 32.93.11 49.39.11 16.86 0 19.86-2.68 19.77-19.26 0-4.95 1.33-6 6.08-5.95 24.3.25 48.61.19 72.91 0a17 17 0 0110.11 3.2c21.21 14.28 42.59 28.31 63.74 42.67 5.33 3.61 10.31 4.77 16.83 3.34q138.26-30.44 276.61-60.42c39.73-8.67 79.42-17.54 119.16-26.2 6.59-1.44 11.13-4.76 11.81-11.67C893.35 740.26 855.16 716.3 821 716.65zm-617.35 151c-20.64-.41-41.29-.34-61.94 0-5.12.07-6.41-1.3-6.4-6.41q.25-119.19 0-238.37c0-5.09 1.25-6.5 6.39-6.42q31.37.45 62.73 0c5.12-.08 6.44 1.3 6.41 6.41-.22 39.73-.12 79.45-.12 119.18 0 39.47-.14 78.94.15 118.4C210.88 866.29 209.52 867.81 203.62 867.69zm82.45-30.8c0 4.36-1 5.76-5.55 5.65-12.8-.3-25.62-.35-38.42 0-5.07.14-6.48-1.2-6.45-6.38.25-35.8.13-71.61.13-107.42 0-35.28.11-70.56-.12-105.85 0-5 1.14-6.62 6.36-6.46 12.8.41 25.62.32 38.42 0 4.39-.1 5.64 1.1 5.63 5.57Q285.86 729.48 286.07 836.89zm570-52.84Q775.35 801.26 694.74 819q-105.48 23-210.91 46.24c-5 1.1-8.8.58-13.09-2.36-20.24-13.85-40.79-27.25-61.09-41a25.56 25.56 0 00-15.34-4.61c-25.36.21-50.72-.09-76.07.23-5.66.07-7.43-1-7.34-7.11.39-27.18.17-54.36.17-81.55 0-26.92.13-53.84-.11-80.76 0-4.95 1-6.55 6.31-6.51q60.38.36 120.76 0c4.16 0 6.6 1.47 9.15 4.47q29.42 34.66 59.17 69.05C514.93 725 512 736 510.54 747c-.39 2.89-3 4.79-5.63 6.15-8.24 4.2-25.4 1.52-32.06-5.12-15.91-15.88-31.9-31.67-47.59-47.78-3.7-3.79-6-4.58-9.66-.11-3.75 4.63-11.11 8.5-11.47 13.12-.38 4.89 7.27 8.77 11.46 13 13.77 14 27.58 27.87 41.58 41.59 14.32 14 46.23 16.8 62.85 5.6a36.63 36.63 0 0016.51-26.39c.51-3.85 1.39-5.1 5.46-5.1 94.89.14 189.78 0 284.67.21 18.19 0 33.1 14 36.3 32C864 780.31 862.21 782.74 856.06 784.05zM888.2 503.92c-.1-7.81-5-12.44-12.93-12.75-5.48-.22-11-.61-16.44.08-7.13.92-8.36-1.8-8.34-8.47q.36-132.11.15-264.22c0-25.59-15.41-41.09-40.81-41.12-26.4 0-52.79-.1-79.19.08a12.75 12.75 0 01-10.18-4.24q-15.26-15.78-31-31.09c-6.62-6.46-13.15-6.34-19.9 0-3.24 3-6.36 6.21-9.43 9.42-1.61 1.67-2.87 2-5.36 1.07-16.86-6.19-16.9-6.08-17.45-23.85 0-.26 0-.52 0-.78-.42-8.34-5-13.21-13.22-13.32q-24.32-.3-48.62 0c-8.66.1-13.18 5-13.42 13.87a102.67 102.67 0 00.07 12.53c.36 3.64-1.54 4.6-4.31 6.13-10.78 6-19.65 7.05-28.1-4.74-5.52-7.7-13.21-6.81-20.19 0-10.07 9.88-20.19 19.73-29.88 30-3.57 3.78-7.23 5-12.25 4.95-26.4-.22-52.8-.17-79.2-.08-23.46.08-39.36 15.92-39.46 39.31-.1 22-.34 43.91.16 65.85.16 6.74-1.83 7.92-8.15 7.9-71.09-.24-142.18-.16-213.27-.15-13.33 0-17.17 3.86-17.18 17.25q0 70.58 0 141.13c0 13.37 3.88 17.27 17.18 17.27H333.7c3.66 0 7.32.15 11 0 2.93-.15 3.87.72 4.15 3.86 1.88 21.28 2 21.27-18.83 21.28-1.31 0-2.62 0-3.92 0-10.31.17-14.9 4.59-15 14.74-.1 14.37 0 28.75 0 43.12 0 27.69 14.85 42.51 42.58 42.52H694.74c51.75 0 103.5.08 155.25 0 20.61-.05 37.35-15.19 38.09-35C888.74 539 888.42 521.43 888.2 503.92zM718.44 202.61c31.61-.17 63.21-.21 94.82 0 8.11.06 12.26 5.56 12.27 15q.08 63.47 0 126.94v7.05c0 44.14-.12 88.28.15 132.42 0 5.83-1.3 7.36-7.2 7.24-18-.36-18-.07-18-18.18V245.85c0-14.81-3.49-18.23-18.56-18.23-19.07 0-38.14-.14-57.2.11-4.05.05-6.08-1.09-7.22-5a95.14 95.14 0 00-4.39-10.83C710.68 206.38 712.49 202.64 718.44 202.61zM424 474.42c-.35-4.88-.31-8.66 6-10.35 4.81-1.28 6.57-6.32 6.57-11.43q0-74.49 0-149c0-5.42-2-10.29-7.31-11.76-5.07-1.42-5.37-4.29-5.27-8.45.2-8.35.27-16.73 0-25.08-.16-4.22.78-5.73 5.43-5.79 19.76-.25 19.75-.43 19.75 19.61 0 5.75-.13 11.51 0 17.25.26 8.38 4.86 13 13.11 13.44a8.8 8.8 0 002.35 0c11.6-2.47 18 2 21 13.68 1.28 5 2.61 8.39-2.15 11.8-2.31 1.66-4.14 4-6.14 6-7.37 7.65-7.37 13.9.22 21.58q15.72 15.88 31.62 31.6c7.35 7.25 14.78 8.11 20.78.21 8-10.53 15.93-11.12 26.73-5.09 4 2.25 5.82 4.05 5.43 8.51a85.32 85.32 0 000 11.75c.4 7.82 5.06 12.68 12.92 12.78q24.71.35 49.4 0c7.83-.11 12.39-5 12.9-12.84a5.5 5.5 0 000-1.57c-3-12.78 2.72-19.3 14.89-22.54 4.3-1.14 6.61-1.42 9.89 1.9 17.06 17.21 18 17.09 35.39-.32 8.31-8.32 16.71-16.55 24.93-25 6.81-7 7.67-14.74 0-20.21-11.92-8.46-10.44-17.4-4.71-28.13 1.52-2.85 2.61-4.64 6.18-4.24a86.37 86.37 0 0010.18.08c11.85-.07 16.17-4.27 16.22-15.89 0-9.67.15-19.34-.06-29-.08-3.78.57-5.32 5-5.43 20.17-.49 20.17-.67 20.17 19.2 0 70.31-.09 140.62.15 210.93 0 6.48-1 8.67-8.23 8.62-55.94-.38-111.88-.21-167.82-.21s-111.88-.08-167.81.12c-5.74 0-8.78-.88-7.73-7.41A41 41 0 00424 474.42zm78.32-232.85a102.65 102.65 0 0110.78-26.7c5.6-9.69 5-13.32-2.89-21.34-8.08-8.17-8.08-8.17-.19-16.06 9.59-9.6 9.71-9.71 19.34-.25 5.67 5.57 11.48 6.5 18.31 2.39a101 101 0 0125-10.82c12.8-3.58 15-6 14.28-19.21-.47-8.21 2-11.33 10-9.8a4.06 4.06 0 00.78 0c14.11 0 14.27 0 14.42 13.75.09 8.08 4 12.58 11.58 14.42a101.5 101.5 0 0126.67 10.86c9.29 5.35 13 4.75 20.7-2.78 8.56-8.37 8.56-8.37 17.18.35 8.79 8.89 8.93 9-.3 18.22-5.86 5.85-6.9 11.84-2.48 18.93a99.65 99.65 0 0111.06 25.76c3.22 11.34 5.88 13.38 17.6 13.41 11 0 11 0 11 11 0 13.85 0 14.05-13.33 14.05-8 0-12.89 3.53-14.75 11.16A97.28 97.28 0 01685.52 317c-4.37 7.11-3.38 13.08 2.47 18.94 9.26 9.27 9.13 9.41.32 18.22s-8.67 8.67-17.2.35c-7.72-7.53-11.4-8.15-20.7-2.76A109.45 109.45 0 01626 362.06c-12 3.47-13.78 5.77-13.8 18.06 0 10.61 0 10.61-10.56 10.61-14.17 0-14.34 0-14.47-13.7-.07-7.65-3.56-12.42-10.78-14.28a106.34 106.34 0 01-24.69-9.53c-13.53-7.41-15.08-7.23-26.17 4-1.77 1.8-2.81 4.32-5.18 8.08-4.31-5.2-6.6-8.41-9.33-11.18-8.88-9-8.95-8.92-.28-17.78 7.11-7.28 7.74-11.22 2.63-20.09a110.7 110.7 0 01-10.62-25.11c-3.21-11.3-5.88-13.35-17.62-13.38-11 0-11 0-11-11 0-13.81 0-14 13.36-14C495.55 252.76 500.41 249.18 502.29 241.57zM373.83 218c0-11.16 4.42-15.44 15.77-15.47 14.88 0 29.75 0 44.63 0s29.76-.06 44.64 0c8.42 0 9 2.6 7.16 10.35-3.18 13.3-11 15.87-23.38 15-16.11-1.14-32.35-.34-48.53-.26-10.7.05-15.14 4.52-15.19 15.26-.07 14.09-.15 28.19.07 42.28.06 4-.89 5.21-5.11 5.3-20.08.44-20.08.59-20.08-19.23C373.81 253.51 373.77 235.76 373.83 218zM142.47 441.07c-5.85 0-7.28-1.34-7.23-7.21q.45-55.68 0-111.35c-.05-5.87 1.38-7.25 7.23-7.21 43.65.28 87.3.15 131 .15s87.3.13 131-.15c5.85 0 7.27 1.35 7.22 7.22q-.45 55.67 0 111.34c.05 5.87-1.38 7.22-7.22 7.21Q273.42 440.76 142.47 441.07zM863.34 524.6c-.57 9.1 0 18.28-.17 27.42-.14 9.63-4.82 14.15-14.56 14.37-1.31 0-2.62 0-3.92 0H354.84c-15.36 0-18.67-3.35-18.67-18.9 0-8.36.35-16.74-.13-25.07-.31-5.29 1.52-6.34 6.48-6.32 51 .18 101.89.11 152.84.11H599.6c85.17 0 170.33.11 255.5-.21C862.3 516 863.76 518 863.34 524.6z" fill="#6e90e8" class="color000 svgShape"></path><path d="M599.4,190c-41.3.05-75.16,34.07-75,75.33a75.52,75.52,0,0,0,76,75.22c41.15-.14,74.76-34.28,74.58-75.75S640.92,189.93,599.4,190ZM599,315.44c-27.28-.25-49.56-22.91-49.46-50.3A50.17,50.17,0,1,1,599,315.44Z" fill="#6e90e8" class="color000 svgShape"></path></svg></g></svg>