<svg id="SvgjsSvg1329" width="288" height="288" xmlns="http://www.w3.org/2000/svg" version="1.1" xmlns:xlink="http://www.w3.org/1999/xlink" xmlns:svgjs="http://svgjs.com/svgjs"><defs id="SvgjsDefs1330"></defs><g id="SvgjsG1331"><svg xmlns="http://www.w3.org/2000/svg" data-name="Layer 1" viewBox="0 0 1000 1000" width="288" height="288"><path d="M808.91,359h-302c-30.72,0-61.44-.11-92.15.12-4.82,0-6.19-1.22-6-6,.38-8.24.32-16.52,0-24.77-1.21-33.07-25.38-58.36-58.29-59.42-28.36-.91-56.8-.82-85.16.1-26.63.87-48.11,19.68-54.77,45.62-2.55,9.93-1.67,20-1.77,30-.15,14.21,0,14.21-13.84,14.31-26.7.2-46,19.16-46,45.77q-.11,227.27-.07,454.51A43.77,43.77,0,0,0,154,880.82c9.61,17.31,24.78,24.18,44.27,24.14q152.55-.3,305.1-.1,152.94,0,305.87,0c30.88,0,49.06-18.23,49.06-49q0-223.77,0-447.54C858.34,377,840.28,359,808.91,359ZM221.2,332.35c0-25.42,13.12-43.35,35.82-49.8,5.3-1.5,10.7-1.61,16.11-1.62q35.61-.07,71.23,0C376.5,281,396.5,301,396.5,333.13q0,228.39,0,456.78c0,31.39-20.43,51.88-51.74,52-23.49.11-47,.05-70.46,0-33.24-.05-53.09-19.74-53.11-52.81q-.08-113.82,0-227.62Q221.17,446.94,221.2,332.35ZM809,892.46q-152.54,0-305.08,0-152.92,0-305.86,0c-19.47,0-32-8.74-35.76-25.21a52,52,0,0,1-.88-11.51c0-149.18.16-298.35-.24-447.52-.06-23.32,14.43-40.28,44.45-36.91,2.26.26,3.28,1,3.2,3.26-.08,2.06,0,4.13,0,6.2,0,136,.33,272-.21,408-.15,37.4,24.29,58.32,46.07,63.49a82.38,82.38,0,0,0,19.17,2.07c23.23,0,46.46,0,69.69,0,39.7-.08,65.39-25.71,65.4-65.33q0-204.79-.18-409.58c0-7,1.86-8.24,8.44-8.23q195.9.32,391.8.16c24.52,0,37,12.52,37,37.15q0,223.38,0,446.75C846,879.89,833.51,892.45,809,892.46Z" fill="#6e90e8" class="color000 svgShape"></path><path d="M801 455.83c0-21.3-11.61-32.88-33-32.91q-45.64-.07-91.31 0-97.5 0-195 0c-21.15 0-32.63 11.38-32.75 32.29q-.09 17.4 0 34.82c.12 20.76 11.3 31.87 32.13 31.88q72 .06 143.93 0 72.74 0 145.48 0c18.53 0 30.37-12 30.51-30.46C801.11 479.56 801.06 467.7 801 455.83zM788.64 488c0 16.33-5.3 21.53-21.9 21.54q-71.18 0-142.36 0t-142.36 0c-15.07 0-20.58-5.43-20.66-20.32q-.09-16.63 0-33.27c.07-14.8 5.82-20.61 20.63-20.61q91.31-.06 182.59 0 51.06 0 102.13 0c16.18 0 21.91 5.72 21.93 21.74Q788.66 472.52 788.64 488zM801 667.52c-.14-11.44-6.26-17.35-17.9-17.44-10.06-.07-20.12 0-30.17 0-10.32 0-20.63-.09-31 0-10.73.13-16.88 6.07-17 16.65-.17 11.6-.15 23.2 0 34.8.13 10.78 6 16.93 16.66 17q31.32.26 62.66 0c10.56-.08 16.58-6.31 16.74-17C801.16 690.21 801.14 678.87 801 667.52zm-18.76 38.76c-9.79-.19-19.59-.06-29.4-.06s-19.6-.16-29.39.07c-4.76.12-6.34-1.73-6.24-6.38.24-10.31.21-20.63 0-30.95-.08-4.39 1-6.63 6-6.58 19.86.2 39.72.16 59.58 0 4.36 0 5.94 1.69 5.88 6-.17 10.57-.22 21.15 0 31.72C788.82 704.91 786.78 706.37 782.25 706.28z" fill="#6e90e8" class="color000 svgShape"></path><path fill="#6e90e8" d="M672.84,570.79c-.22-10.63-6.35-16.45-17.14-16.59-10.31-.14-20.63,0-30.94,0-10.06,0-20.11-.08-30.17,0-11.06.11-17.55,6.12-17.81,16.94-.28,11.59-.26,23.21,0,34.8.24,10.34,6.06,16.7,16.21,16.86q32.09.53,64.19,0c10-.19,15.45-6.23,15.65-16.4Q673.21,588.59,672.84,570.79ZM660.56,605c.05,3.94-1.6,5.62-5.49,5.61q-30.18-.06-60.35,0c-3.81,0-5.65-1.73-5.63-5.63.06-10.83.11-21.67,0-32.49-.06-4.9,2.44-6.06,6.81-6,9.8.19,19.6.06,29.4.06,9.54,0,19.09.14,28.62-.07,4.42-.09,6.77,1.07,6.68,6C660.38,583.32,660.43,594.16,660.56,605Z" class="color010101 svgShape"></path><path d="M801 571.27c-.17-10.85-6.52-16.95-17.59-17.08-10-.12-20.11 0-30.17 0-10.31 0-20.63-.11-31 0-11.13.14-17.22 6.17-17.35 17.24-.14 11.34-.12 22.69 0 34 .12 10.92 5.63 17.18 16.37 17.35q31.71.51 63.43 0c10.28-.16 16.09-6.49 16.26-16.72Q801.26 588.68 801 571.27zm-12.26 2.88c-.34 9.79-.28 19.61 0 29.41.13 4.85-1.35 7.12-6.51 7.09q-29.4-.21-58.83 0c-4.71 0-6.27-2-6.16-6.57.25-10.31.28-20.64 0-30.95-.15-5.16 1.89-6.77 6.83-6.63 9.8.26 19.61.08 29.42.08 9.29 0 18.59.29 27.86-.11C787.28 566.19 788.94 568.56 788.74 574.15zM801 763.08c-.14-11.05-6.15-17.12-17.33-17.2q-30.95-.25-61.89 0C711 746 705.09 752 705 762.73q-.24 17.4 0 34.81c.14 10.57 6.28 16.72 16.87 16.9 10.31.17 20.63 0 30.94 0s20.63.12 31 0c11-.15 17.16-6.28 17.3-17.32Q801.22 780.1 801 763.08zm-12.26 32.19c.2 5.7-2.28 7-7.4 6.89-9.53-.27-19.08-.07-28.63-.07s-19.09-.19-28.63.07c-4.89.14-7-1.36-6.87-6.57.3-10.31.32-20.64 0-31-.17-5.36 2.2-6.53 6.95-6.49 19.09.16 38.18.19 57.27 0 5.14 0 7.53 1.31 7.33 7C788.38 775.15 788.39 785.23 788.74 795.27z" fill="#6e90e8" class="color000 svgShape"></path><path fill="#6e90e8" d="M545.08 570.83c-.29-10.47-6.76-16.49-17.32-16.63-10.31-.14-20.62 0-30.94 0-10.05 0-20.11-.09-30.16 0-11.32.11-17.43 5.83-17.65 16.9q-.35 17.38 0 34.8c.2 10.94 5.75 16.81 16.74 17q31.32.45 62.65 0c10.31-.15 16.37-6.27 16.67-16.44C545.42 594.56 545.42 582.68 545.08 570.83zm-12.23 2.89c-.24 10-.18 20.11 0 30.17.07 4.42-1.38 6.75-6.15 6.73q-29.79-.12-59.57 0c-4.35 0-5.87-1.9-5.81-6.11q.24-15.85 0-31.72c-.08-4.62 1.65-6.43 6.38-6.31 9.79.25 19.59.08 29.39.08 9.54 0 19.09.23 28.62-.09C531.19 566.28 533 568.46 532.85 573.72zM545 665.21c-.4-9.3-6.94-15-16.29-15.09q-31.71-.23-63.42 0c-9.87.08-15.91 5.93-16.16 15.85q-.46 18.15 0 36.34c.23 10.42 6.1 16.07 16.57 16.25 10.3.19 20.62 0 30.93.05 10.57 0 21.14.14 31.71 0 9.85-.16 16.37-5.86 16.73-15.48C545.46 690.47 545.49 677.81 545 665.21zm-19.56 41.1c-9.53-.29-19.07-.09-28.61-.09s-19.09-.19-28.62.08c-4.88.14-7-1.31-6.89-6.52.28-10.3.2-20.62 0-30.93-.08-4.43 1.2-6.53 6.13-6.47q29.38.3 58.78 0c5.23-.06 6.72 2.09 6.63 6.89-.19 10-.27 20.12 0 30.16C533 705.05 530.52 706.46 525.39 706.31z" class="color010101 svgShape"></path><path d="M672.86,666.91c-.2-10.88-6.09-16.74-16.83-16.8q-30.93-.18-61.87,0c-10.63,0-17.07,6-17.35,16.48q-.49,17.77,0,35.57c.29,10.45,6.69,16.29,17.4,16.44,10,.13,20.11,0,30.16,0,10.32,0,20.63.09,30.94,0,11.47-.13,17.34-5.68,17.55-16.88Q673.19,684.31,672.86,666.91Zm-12.29,33.52c.07,4.33-1.66,5.88-6,5.85q-29.77-.19-59.55,0c-4.34,0-6-1.73-6-6,.11-10.57.15-21.14,0-31.71-.08-4.69,1.87-6.33,6.49-6.22,9.79.24,19.59.07,29.39.07s19.6.2,29.39-.08c4.81-.14,6.33,1.78,6.25,6.35C660.39,679.29,660.41,689.87,660.57,700.43Z" fill="#6e90e8" class="color000 svgShape"></path><path fill="#6e90e8" d="M672.82 762.23c-.21-10.46-6-16.11-16.48-16.34-10.31-.22-20.63 0-30.94 0-10.57 0-21.15-.16-31.71 0-10.29.19-16.56 6-16.87 16.17q-.54 18.15 0 36.34c.3 9.69 6.71 15.91 16.29 16q31.71.3 63.42 0c9.88-.09 16-6 16.24-15.83C673.1 786.46 673.08 774.34 672.82 762.23zM660.58 796c.1 4.84-2 6.15-6.54 6.11q-29-.24-58 0c-4.87.05-7.09-1.44-7-6.59.22-10.31.24-20.63 0-30.93-.13-5.28 2.35-6.59 7.08-6.49 9.8.22 19.6.07 29.4.07 9.54 0 19.08.15 28.62-.07 4.55-.1 6.56 1.36 6.45 6.18C660.36 774.89 660.38 785.47 660.58 796zM545.1 762.82c-.26-11-6.5-16.8-17.7-17-10.06-.15-20.11 0-30.17 0-10.57 0-21.14-.17-31.71.06s-16.24 5.87-16.48 16.34q-.39 17.79 0 35.58c.22 10.72 6.24 16.54 17.08 16.61q30.93.21 61.87 0c10.48-.07 16.84-6.26 17.12-16.8C545.4 786 545.39 774.41 545.1 762.82zM532.81 796.2c0 4.22-1.71 6-6 5.94q-29.77-.2-59.56 0c-4.39 0-6-1.74-5.9-6 .13-10.57.18-21.15 0-31.72-.09-4.65 1.59-6.44 6.31-6.32 10.05.24 20.11.07 30.17.07 9.54 0 19.09.14 28.62-.06 4.62-.1 6.52 1.68 6.45 6.33C532.67 775.06 532.72 785.63 532.81 796.2z" class="color010101 svgShape"></path><path fill="#6e90e8" d="M662.73,223.46a2.7,2.7,0,0,1,0,3.27Z" class="color101010 svgShape"></path><path fill="#6e90e8" d="M663.15,215.49c.05.53.17,1.08-.42,1.43v-1.4Q662.91,215.21,663.15,215.49Z" class="color424242 svgShape"></path><path fill="#6e90e8" d="M774.85,341.66c.29-.73.88-.38,1.38-.39.17.08.23.16.18.25s-.1.14-.15.14Z" class="color6d6d6d svgShape"></path><path fill="#6e90e8" d="M776.26,341.66l0-.39h.94c.16.08.22.16.17.26s-.1.14-.15.14Z" class="color4e4e4e svgShape"></path><path fill="#6e90e8" d="M777.19,341.66c0-.13,0-.27,0-.4a.78.78,0,0,1,1,.4Z" class="color383838 svgShape"></path><path fill="#6e90e8" d="M786.53,341.66a.81.81,0,0,1,1-.4c.14.1.18.19.13.28s-.1.12-.15.12Z" class="color373737 svgShape"></path><path fill="#4d4d4d" d="M787.47,341.66c0-.13,0-.27,0-.4h.93c.14.1.18.19.13.27s-.1.13-.15.13Z" class="color4d4d4d svgShape"></path><path fill="#656565" d="M788.4,341.66c0-.13,0-.27,0-.4.39-.05.78-.11.92.4Z" class="color656565 svgShape"></path><path d="M900.58,204.18c-3.75-25.56-14.56-47.93-33-66-33.51-32.74-73.43-43.2-118.66-31-44.45,12-78.48,51.55-84.9,97.12-.35,2.46-.09,5.07-1.29,7.39v1.87c.58.11.44.53.39.91h0l0,.93H663v.06c-.06.46.15,1-.24,1.36v6.54a4.83,4.83,0,0,1,0,3.27v4.67c.5,2.59.29,5.24.64,7.84a113.59,113.59,0,0,0,15.33,43.52,10.78,10.78,0,0,1,.78,10.87c-4.76,11.25-9.16,22.66-13.69,34-1.74,4.38-.72,8,3,10.74,2.72,2,5.68,1.78,8.69.81,13-4.16,26-8,39-12.25a9.75,9.75,0,0,1,8.43.64,118.18,118.18,0,0,0,37.76,13.1c3.3.56,6.64.38,9.92,1h2.33c.4-.4.9-.18,1.36-.24h.86c.36,0,.76-.08,1,.24h8.41c.28-.3.65-.22,1-.24h.81c.35,0,.72-.07,1,.24h1.4c.15-.5.57-.41.94-.43a114.09,114.09,0,0,0,26.27-5C874.19,318.91,909.22,263.05,900.58,204.18Zm-69.14,118c-34.22,16.61-68.66,15.52-102.39-2.15-4.89-2.56-9.39-3.23-14.68-1.48-12.81,4.24-25.75,8.12-38.63,12.13-.58.18-1.16.34-2.17.63l13.65-34.16c.4-1,.77-2,1.23-3,2.18-4.7,1.64-9.09-1.08-13.49-11.79-19-17.16-39.78-16.66-62.13.95-43.09,29-84,69.16-99.61s78.11-10.3,112.27,16.18c21.93,17,35.2,39.83,40,67.19C900.84,252.07,876.76,300.18,831.44,322.17Z" fill="#6e90e8" class="color000 svgShape"></path><path d="M798.76,119.74a100.67,100.67,0,0,1,21,5.68,104,104,0,0,1,38.16,25.7c2.2,2.34,2.14,5-.14,6.6-1.82,1.24-3.64.95-5.57-1.07a98,98,0,0,0-22.87-17.89,96.81,96.81,0,0,0-31.21-11.08c-2.63-.46-4-2.13-3.69-4.51A3.91,3.91,0,0,1,798.76,119.74Z" fill="#6e90e8" class="color000 svgShape"></path><path fill="#6e90e8" d="M786.29,122.34a4,4,0,1,1-7.92,0,4,4,0,0,1,7.92,0Z" class="color010101 svgShape"></path><path d="M852.22,256.8q-12.33-7.76-24.71-15.43c-5.56-3.45-11.07-2.85-15.72,1.7-2.78,2.72-5.56,5.46-8.25,8.27a4.8,4.8,0,0,1-5.08,1.43q-36.81-10-46.83-46.76a4.94,4.94,0,0,1,1.52-5.27q4.32-4.11,8.43-8.42a11.77,11.77,0,0,0,1.6-15.17q-7.84-12.69-15.83-25.3c-3.67-5.8-9.86-7.49-16-4.44q-12.63,6.26-25.2,12.6a12.11,12.11,0,0,0-6.85,13.08,144.59,144.59,0,0,0,3.45,17.37c6.09,22.71,17.29,42.67,32.69,60.31C754.85,273,778,290,806.27,299.37a131.15,131.15,0,0,0,26.35,5.87c5.54.06,9.46-2.42,11.81-7.1q6.23-12.39,12.37-24.79C860.07,266.76,858.39,260.69,852.22,256.8Zm-2.56,13q-6,12.09-12.08,24.15c-1.58,3.17-2.63,3.62-6.14,3.11-31-4.47-57-18.77-79.29-40.24-18.33-17.64-32.22-38.17-40-62.58a137.19,137.19,0,0,1-5-22A4.56,4.56,0,0,1,710,167c8.14-4,16.24-8.11,24.36-12.15,3.16-1.57,4.76-1.12,6.63,1.86q7.56,12,15.08,24.12c1.74,2.79,1.56,4.19-.81,6.58-2.62,2.65-5.26,5.3-7.93,7.92a12,12,0,0,0-3.44,12.38c7.45,28,25.28,45.62,53.28,52.95a14.29,14.29,0,0,0,2.32.31,12.2,12.2,0,0,0,9.44-3.73c2.76-2.75,5.5-5.52,8.26-8.26,2.18-2.15,3.63-2.34,6.21-.74q12.27,7.64,24.51,15.32C850.65,265.25,851.11,266.9,849.66,269.82Z" fill="#6e90e8" class="color000 svgShape"></path></svg></g></svg>