<svg id="SvgjsSvg1043" width="288" height="288" xmlns="http://www.w3.org/2000/svg" version="1.1" xmlns:xlink="http://www.w3.org/1999/xlink" xmlns:svgjs="http://svgjs.com/svgjs"><defs id="SvgjsDefs1044"></defs><g id="SvgjsG1045"><svg xmlns="http://www.w3.org/2000/svg" data-name="Layer 1" viewBox="0 0 1000 1000" width="288" height="288"><path fill="#007CAA" d="M555.94,105c1.22.84,2.46,1.66,3.66,2.54,6,4.38,8.58,10.17,6.42,17.48a15.16,15.16,0,0,1-15.12,10.92c-7.2-.36-12.18-4.14-14.33-10.94-2.29-7.25.32-13.09,6.39-17.47,1.21-.87,2.45-1.69,3.67-2.53Z" class="color010101 svgShape"></path><path fill="#007CAA" d="M802.55,105a1.55,1.55,0,0,0,.2,1.37c-2.82.49-5.6.84-8-1.37Z" class="color5f5f5f svgShape"></path><path fill="#007CAA" d="M102.9 229.25l-.68-.25-.72.07v-7.75C103.89 223.62 103.34 226.45 102.9 229.25zM101.5 384.16a1.65 1.65 0 001.4-.18c.44 2.8 1 5.63-1.4 7.93z" class="color565656 svgShape"></path><path d="M896.28,393.7c0-11.87-1.3-23.61-6.09-34.84a122.09,122.09,0,0,0-35-46.64c-6.74-5.6-6.65-5.53-.13-11.13,23.14-19.9,39.44-43.51,41-75.23,1.17-23.25.23-46-12.63-66.58-18.56-29.65-42.89-50.72-79.53-53.48-3-.38-6.2.85-9.12-.8H616.43c-4,1.6-8.22,2.43-10.59,7-5.45,10.44-.11,22.6,11.63,25.56,4.06,1,8.22.79,12.35.79,52.47,0,104.95-.45,157.42.19,31.91.39,55.66,15.87,68.46,45,22,50.21-14.44,105.15-69.32,105.2q-244.27.22-488.54,0c-1.64,0-3.58.8-4.93-1,34.35-41.4,40.34-98.59.12-148.57,2.94-1.59,6.1-.83,9.12-.83q84.53-.07,169.05,0a89.25,89.25,0,0,0,10.85-.28c9.42-1.13,15.71-7,16.76-15.59,1-8.39-3.18-14.19-12.67-17.47H194.56c-5.36,2-11.2.91-16.61,2.7-24,7.94-43.72,22-58.31,42.66-10.06,14.27-16.86,30-18.14,47.69v23.27c1.62,2.44.43,5.17.8,7.74-.1,10.21,2.57,19.64,6.76,29,8.11,18.11,20.41,32.67,35.95,44.61,4.11,3.16,4.17,5-.07,7.91a89.55,89.55,0,0,0-19.53,18.58c-12.88,16-23.1,33.5-23.11,55.07-.37,2.55.82,5.27-.8,7.69V590.42c3.38,9.72,7.13,12.57,17.4,13.13,3.35.18,6.72.09,10.07.09H413.52c11.08,0,11.3.23,11.31,11.24q0,50,0,100c0,10.75-.47,11.16-11.52,11.19-20.16,0-40.32-.2-60.47.1-13.72.2-20.77,7-20.92,20.51-.34,31-.68,62,.08,93,.73,29.68,25.17,60.31,61.55,60.22,147.56-.35,295.14-.14,442.71-.16,6.19,0,12.51-.1,18.37-2.16,22.89-8,41.86-29.07,41.82-57.37Q896.17,617,896.28,393.7ZM363.07,323.59c34.73,5,62.7,36.22,63.84,71.45.83,25.79.18,51.64.37,77.45,0,3.64-.87,4.81-4.68,4.8-44.92-.13-89.85-.08-135.21-.08,42-51.67,42.23-103.07-.18-155.23C312.76,323,338,320,363.07,323.59Zm-230.53-110A77.73,77.73,0,0,1,210.39,136c42.46.14,77.17,35,77.2,77.45a77.77,77.77,0,0,1-77.85,77.59C167.29,290.93,132.56,256.07,132.54,213.61Zm77.72,108.53a77.53,77.53,0,1,1-.4,155.05c-42.45-.1-77.25-34.9-77.32-77.35A77.73,77.73,0,0,1,210.26,322.14ZM427.31,764.91c-.29,12.39-.1,24.79-.11,37.19,0,11.36.11,22.73,0,34.09-.22,18.18-13.6,31.82-31,31.82s-30.85-13.7-31-31.86c-.14-23.76.08-47.52-.14-71.28,0-4.43,1.24-5.57,5.57-5.5q25.58.36,51.14,0C426.16,759.3,427.41,760.53,427.31,764.91Zm.08-249.49c-.55,16.26-.33,32.55-.09,48.82.07,4.41-.57,6.16-5.72,6.15q-141.82-.27-283.65-.09c-3.42,0-5.58,0-5.54-4.73.25-29.41.13-58.83.13-90,25.62,24.93,55.18,33.26,88.73,32.87,66.12-.78,132.26-.17,198.4-.35C425.3,508.09,427.61,509,427.39,515.42ZM829.19,868H449.72c9.81-15.87,8.52-32.76,8.52-49.47,0-135.41-.37-270.81.24-406.22.15-34-7.44-64.23-32.91-90.22h8.72q174.06,0,348.11,0c49.18,0,82.17,32.89,82.18,81.94q0,214.35,0,428.69C864.58,855.79,852.3,868,829.19,868Z" fill="#007CAA" class="color000 svgShape"></path><path d="M210.25 167.06a46.51 46.51 0 1046.32 47.07A46.58 46.58 0 00210.25 167.06zm-.08 62a15.47 15.47 0 1115.36-16A15.6 15.6 0 01210.17 229zM209.69 353.16a46.59 46.59 0 00-46.13 47.25c.3 25.31 21.41 45.92 46.87 45.76a46.51 46.51 0 10-.74-93zm-.3 62A15.48 15.48 0 11225.53 400 15.64 15.64 0 01209.39 415.13zM802.41 462.46a8.85 8.85 0 00-2.94-7c-9.25-9-18.35-18.23-27.47-27.4q-20-20-39.87-40.11H517.86c0 1.62.13 3.23.13 4.84q0 202.52-.07 405c0 3.33.73 4.21 4.13 4.2q73-.18 145.93-.09c43.38 0 86.77 0 130.15.11 3.74 0 4.29-1.09 4.28-4.47Q802.28 630 802.41 462.46zM739 430.27l20.87 20.87c-6.33 0-12.71 0-19.08 0-1.43 0-1.81-.68-1.8-2C739 442.92 739 436.65 739 430.27zm35.31 347.45q-114-.12-228 0c-3.33 0-4.18-.76-4.18-4.15q.18-89.33.09-178.64 0-89.12-.09-178.24c0-3.62.82-4.61 4.55-4.6q81.84.19 163.69 0c3.37 0 4.48.56 4.44 4.27-.24 18.32 0 36.64-.2 55 0 3.44 1 4.16 4.26 4.13 18.46-.16 36.92 0 55.37-.15 2.9 0 3.88.54 3.88 3.71q-.15 147.51 0 295C778.17 777.29 777.16 777.72 774.31 777.72z" fill="#007CAA" class="color000 svgShape"></path><path d="M753.88,516.45c0-2.93-.4-4.1-3.82-4.09q-89.91.18-179.82,0c-2.93,0-3.82.56-3.81,3.69q.17,71.92,0,143.86c0,3.32,1,3.89,4.05,3.88,29.9-.1,59.8-.06,89.7-.06s59.81,0,89.71.07c3.09,0,4-.67,4-3.92Q753.73,588.17,753.88,516.45ZM609.4,639.35c4.9-5.08,9.72-10,14.47-15,1.14-1.21,1.77-.42,2.52.37l14.06,14.64Zm42.88-31c-4,3.86-4,3.85-8.08-.17-5.77-5.66-11.61-11.25-17.26-17-1.63-1.67-2.45-1.49-4,.06-10.4,10.34-20.92,20.57-32.15,31.57V587.53c0-15.76.07-31.52-.06-47.27,0-2.73.52-3.63,3.46-3.63q66.08.15,132.14.07c1.75,0,3.34-.38,3.32,2.49-.12,19.92-.06,39.84-.06,60.82l-34.14-33.38C680.93,580.66,666.61,594.53,652.28,608.38Zm77.12,30.1c-.51,2-2.75.95-4.18,1-15,.08-29.9,0-44.85.11-3,0-5.41-.57-7.36-3-2.13-2.67-6.75-4.59-6.5-7.5.22-2.56,4.3-4.8,6.72-7.14,7.33-7.11,14.68-14.2,23.47-22.7,10.53,11.22,20.9,22.36,31.43,33.34A5.81,5.81,0,0,1,729.4,638.48Z" fill="#007CAA" class="color000 svgShape"></path></svg></g></svg>
