<svg id="SvgjsSvg1282" width="288" height="288" xmlns="http://www.w3.org/2000/svg" version="1.1" xmlns:xlink="http://www.w3.org/1999/xlink" xmlns:svgjs="http://svgjs.com/svgjs"><defs id="SvgjsDefs1283"></defs><g id="SvgjsG1284"><svg xmlns="http://www.w3.org/2000/svg" data-name="Layer 1" viewBox="0 0 1000 1000" width="288" height="288"><path d="M751.39,282.15c-5.29.11-10,2.21-14.83,4.07-25.14,9.72-50.53,18.8-75.62,28.65-4.17,1.64-4.5.15-4.46-3.39.14-12.19,0-24.38.08-36.58,0-1.26-.57-2.75.82-3.73,1.15.05,1.93.79,2.84,1.25a27.47,27.47,0,0,0,39-16.54c3.75-12.21-.5-23.71-12.07-31.7-27.26-18.83-54.68-37.44-82-56.17-22.66-15.52-45.27-31.13-68-46.51-8.5-5.74-16.11-13.57-27.3-14.36h-8.25c-6.34.51-11.6,3.43-16.74,7q-18.82,13.1-37.83,26c-36.51,24.83-72.84,49.92-109.35,74.76-5.81,4-11.95,7.52-17.19,12.26-11.22,10.15-13.07,24-5,36.22,7.61,11.52,21.91,15.39,35.1,9.54,1.18-.53,2.24-1.7,3.79-1,.79,1.65.44,3.39.44,5.08q0,17.79,0,35.57c0,6,0,6-5.44,3.88-26.95-10.8-54-21.4-80.85-32.44-12-4.95-27.59.13-27.47,18.68.48,78,.2,156,.2,234,0,1.37-.08,2.75,0,4.12.53,6.74,3.58,12.16,10,14.36,10.88,3.73,21.6,3.35,31.31-3.8,5-3.71,7.65-9.14,10.38-14.53,4.29-8.5,5.43-8.73,13.61-3.89,2.2,1.3,3.19,2.92,3,5.45-.2,2.22-.13,4.46-.11,6.7a28.13,28.13,0,0,0,32.93,27.62c3.51-.59,5.58.19,7.72,3.23,7.86,11.21,18.62,16.41,32.45,14.18,2.66-.43,4.61,0,6.08,2.5,7,12.14,17.75,17.21,31.53,16,3.14-.27,5.24.72,6.78,3.46a23.27,23.27,0,0,0,6.43,7.3c11,8.19,23.9,8.08,35.2-.79,3.19-2.51,5.44-2.64,8.45,0,4.27,3.73,9.24,6.72,13.14,10.77,7.8,8.07,30.59,8.56,39,.78a38.14,38.14,0,0,0,8.24-11c1.05-2.06,2.09-3.63,5-3.62,16,.07,24.08-5.47,30.19-20.52a5.51,5.51,0,0,1,5.35-3.87c14.62-1.16,24.64-8.67,29.87-22.37,1.09-2.86,2.52-4,5.72-3.67,4.77.54,9.6.71,14.33-.65,18.34-5.29,28.45-21.48,25.19-41-.64-3.8.16-5.62,3.69-7.08,14.62-6,29.26-12,43.76-18.27,3.3-1.44,5.4-.81,7.17,2.41q5.46,9.93,10.87,19.89c2.54,4.69,5.06,9.35,9.27,12.88,6.81,5.7,14.8,6.66,23.26,6.36,10.45-.39,16.22-4.86,18.63-14.82V295.84C767.28,286.42,761.25,281.93,751.39,282.15Zm-403-30.33c-1.27.87-2.52,1.77-3.81,2.61-5.26,3.41-10.13,2.9-13.2-1.35s-1.92-9.53,3.38-13.17q43.26-29.7,86.58-59.31,38.42-26.31,76.84-52.59c6.47-4.43,8.47-4.48,14.83-.14Q594.58,183.64,676.1,239.4c3.13,2.14,5.48,4.67,5.57,9.08-.13,5.7-6.46,9.82-12.1,7.39a29.72,29.72,0,0,1-4.81-2.93L514.42,150.15c-8.12-5.55-9.24-5.55-17.38,0Zm201.35,51.81c0-13.64-6.67-20.39-20.11-20.42q-24,0-47.94,0c-13.45,0-20.08,6.77-20.1,20.42,0,16.5-.25,33,.11,49.49.17,8.08-6.24,12.65-8.83,19.18-.17.42-1.15.68-1.78.72-12.9.76-25.24,5.05-38,6.3s-24.22-3.51-35.68-8.19c-2.72-1.11-1.32-2.63-.6-4.08,2.94-6,6-12,5.55-19A25.24,25.24,0,0,0,376,332.13a8.64,8.64,0,0,1-2.32-6.44q.12-33,0-66c0-2.94,1-4.56,3.35-6.18Q439.51,210.9,501.85,168c2.77-1.91,4.57-2.22,7.57-.15q62.28,42.95,124.82,85.52a7,7,0,0,1,3.51,6.63c-.15,21-.09,41.92,0,62.89,0,2.44-.3,4.4-2.2,6.41-7.46,7.93-8.72,18.31-3.69,28.1,2.8,5.46,5.78,10.82,8.84,16.51-8.78,3.22-17.21,6.59-25.83,9.39s-16.61.81-23.82-4.51c-12.7-9.38-25.35-18.83-38.14-28.09a6.84,6.84,0,0,1-3.14-6.39C549.85,330.78,549.79,317.2,549.77,303.63Zm-17.61,32.59c-18.45-8.33-35.74-7-52.93,3.9,0-12.69,0-24.6,0-36.51,0-2.36,1-2.84,3.08-2.83,15.6.05,31.19.1,46.79,0,3.14,0,3.14,1.57,3.13,3.84C532.13,314.86,532.16,325.14,532.16,336.22ZM274.93,531c-1.33,2.64-2.67,5.15-5.55,6.47-6.54,3-10.07.91-10.07-6V300.72c17.08,6.9,33.55,13.54,50,20.22q23.81,9.65,47.57,19.35c8.29,3.39,9.87,7.63,5.82,15.71Q318.82,443.48,274.93,531Zm82.59-4.2c-3.43,7.24-6.79,14.52-10.54,21.6a9.91,9.91,0,0,1-13.57,4.43,10.05,10.05,0,0,1-4.87-13.46c3.22-7.33,6.69-14.57,10.35-21.7a10,10,0,0,1,11.73-5.15c4.49,1.12,7.66,5.37,7.69,11.2A12.33,12.33,0,0,1,357.52,526.76Zm31.59,35.72c-3.83,8-11.76,11.18-18.63,7.75s-9.07-11.15-5.43-19c4.72-10.27,9.41-20.55,14.4-30.69A12.94,12.94,0,0,1,395,513.57c5.42,1.5,9.63,7.32,9.59,13.26a15.65,15.65,0,0,1-1.93,6.86C398.16,543.28,393.72,552.92,389.11,562.48Zm50.51-5.05c-3.55,8.53-7.45,16.92-11.5,25.23a12.61,12.61,0,0,1-11.73,7.05,13.47,13.47,0,0,1-12.1-18.36c3.5-8.54,7.53-16.89,11.81-25.08a12.65,12.65,0,0,1,16.79-5.65A12.83,12.83,0,0,1,439.62,557.43Zm30.1,19.7c-3.39,8-7.09,15.91-10.87,23.75-2.12,4.38-7,6.37-10.66,4.84-4.82-2-7.87-7.56-5.93-12.15,3.53-8.33,7.43-16.51,11.43-24.62,1.45-3,4.29-4.33,7.7-4.15C468.22,564.82,472.41,570.76,469.72,577.13ZM631.65,540.4c-6.13,7.16-16.34,7.81-23.95,1.22-16.48-14.28-32.84-28.71-49.26-43.08-.51-.45-1-.92-1.54-1.36-4.86-4.13-10.08-4.23-13.71-.27s-3.09,9,1.89,13.4q19.51,17.22,39.12,34.33c4.76,4.17,7.19,9.21,5.58,15.55-2.87,11.27-16.25,15-24.87,6.76-7.71-7.34-15.1-15-22.64-22.55-3.76-3.76-7.52-7.54-11.3-11.29-5.16-5.11-10.37-5.69-14.33-1.62s-3.39,8.84,1.68,13.93q16.36,16.44,32.8,32.81c3,3,4.44,6.47,3.1,10.73a9.32,9.32,0,0,1-7.33,6.5c-3.88.9-7-.63-9.76-3.34-5.21-5.23-10.37-10.52-15.65-15.68-4.54-4.44-9.92-4.68-13.61-.8-3.54,3.72-3.16,8.8,1.09,13.23,3,3.1,6.15,6,9,9.18,4.13,4.57,4.21,10.07.46,14.45s-9.64,5.47-14.38,2.1c-7.55-5.36-14.73-11.24-22.13-16.82-1.67-1.25-1.34-2.47-.63-4,1.53-3.25,3.11-6.49,4.49-9.8,7.58-18.23-4.84-37.07-24.56-37-2.9,0-3.58-.76-4.36-3.34A30.09,30.09,0,0,0,425.11,522c-3.1.25-3.51-.69-4.19-3.29-5.79-22.05-31-30.4-49.07-16.26-2,1.54-2.8,1.83-4.87-.08-14.89-13.64-36.29-9.28-45,9-3.06,6.4-3.06,6.4-9.54,3.33-7.81-3.71-7.81-3.71-3.93-11.43q28.35-56.49,56.61-113c1.78-3.59,3.18-4,6.84-2.52,14.14,5.91,28.61,11,44.29,9,8.82-1.15,17.5-3.31,27.54-5.26-4.9,11-9.55,21.18-14,31.46-6.25,14.41-2.32,30,9.6,38.73,12.7,9.3,31.1,7.45,42.12-4.52q16.25-17.62,32-35.67c2.24-2.54,3.46-3.07,6.3-.54q54.36,48.6,109,96.93C635.78,524.1,637,534.14,631.65,540.4Zm62.7-60c-17.47,7-34.93,14.07-52.31,21.33-2.94,1.23-4.37-.16-6.18-1.76q-61.22-53.7-122.45-107.37c-5-4.36-8.95-4.85-12.87-1.68a8.22,8.22,0,0,0-3.22,6.7,7.71,7.71,0,0,0,3,6.78c2.2,1.71,2.5,2.92.41,5.19-10.81,11.77-21.39,23.74-32.12,35.59-4.17,4.61-9.27,6.21-15.36,4.26-5.37-1.71-8-5.62-8.92-10.9-.58-3.2.43-6.13,1.7-9q10-22.25,20.15-44.45a84.62,84.62,0,0,1,18.37-25.87c12.9-12.5,29.95-13.83,44.51-3.32C545.8,368,562.51,380.07,579,392.4c14.42,10.77,29.77,13.13,46.54,6.57,6.86-2.69,13.87-5,20.69-7.74,2.51-1,3.6-.42,4.8,1.82q22.41,41.64,45,83.18C697.5,478.87,696.58,479.52,694.35,480.42Zm57.74-174.08V514.53c0,6.72,0,6.67-6.8,6-4.43-.46-6.83-3.18-8.84-6.9Q697,440.33,657.3,367.13c-3.1-5.73-6.26-11.41-9.25-17.2-2.63-5.1-1.32-9.15,4-11.23q49.3-19.11,98.7-38a4.37,4.37,0,0,1,1.31,0Z" fill="#6e90e8" class="color000 svgShape"></path><path d="M505.61 195.07a35.24 35.24 0 1035.21 35.42A35.28 35.28 0 00505.61 195.07zm-.25 52.83a17.6 17.6 0 1117.89-17.38A17.55 17.55 0 01505.36 247.9zM442.4 800.5c-2.51-.35-7.06-.5-11.31-1.71-3.89-1.11-6.35-.44-9.24 2.47-18.11 18.27-36.55 36.21-54.63 54.5-5.29 5.35-11.16 8.51-18.66 8.63a10.32 10.32 0 00-2.78.32c-14.7 4.62-25.09-1.8-33.86-12.91-5.56-7-5.7-16.92.44-23.51 5.22-5.58 10.75-10.87 16.24-16.18a16.16 16.16 0 0111.59-4.8c3.22 0 4.09-1.16 3.91-4.25-.26-4.55 1.92-8.31 5-11.42 6.92-6.9 12.95-15.31 24.46-14.67 2.38.14 1.81-1.93 1.78-3.28a18.06 18.06 0 016.29-14.35c2.33-2.08 2.75-4 2-7.26-9.08-39.29 20.53-76.9 60.31-76.86 6.68 0 10.66 3.16 10.83 8.59s-3.93 9.08-10.85 9.3c-32.45 1-52.85 32.73-40.37 62.71.14.35.37.65.52 1 3.22 7.51 3.28 7.71-4.39 10.28-4.42 1.48-6.06 4.33-6.41 8.67-1 12.3-6.74 18-18.95 19.16-5.05.48-12.05 7.46-12.35 12.31-.61 10.15-5.84 16.24-16.16 17.37-9.69 1.07-12.84 9.95-19.32 14.81-1 .78 0 1.63.57 2.28 3.37 3.68 6.36 6.91 12.59 6.07 7.87-1.06 14.08-3.39 19.8-9.36 16.36-17.1 33.39-33.56 50.24-50.19 3-2.92 5.75-5.86 6.75-10 .71-2.94 1.92-3.42 4.61-2 14 7.36 28.24 8.47 43 2a8.67 8.67 0 0111.74 4.34c2 4.65.1 9.73-4.94 12.07C462.48 798.51 453.59 800.34 442.4 800.5z" fill="#6e90e8" class="color000 svgShape"></path><path d="M525.85,663.23c-2.92-.64-4.06-28.31-3.94-31.4l-17.76-1.13c.18,3.47-.58,31.73-4.46,32.69-25.6,6.38-42.4,22.45-47.8,48.31s3.38,47.41,24.51,63.36c4.63,3.5,9,6.09,7.78,12.87a6.67,6.67,0,0,0,1.59,5.2c6.15,5.79,4.45,10.6.07,16.94-4.11,6-1.52,13.81-1.85,20.82-.27,5.86,6.48,9.9,6,14-.51,4.55-6,8.59-6,14.42,0,7.46-.19,14.92,0,22.37.29,9.46,7.77,16.36,17.17,17.36,13.8,1.47,25.08-1.74,32.13-14.71a26.74,26.74,0,0,1,3.41-4.42c4-4.6,5.5-9.86,5.47-16-.16-26.28,0-52.57-.17-78.86,0-3.83,1.27-5.8,4.42-7.84,18.11-11.72,28.14-28.54,29.09-50.08C576.89,696.16,556.24,669.83,525.85,663.23Zm6.78,101.27c-6.35,2.92-8.75,6.46-8.65,13.51.41,28.32.18,56.64.25,85,0,7.64-6.56,11.24-10.14,16.63-2.17,3.26-6.25.93-9.42,1.49-2.13.37-2.92-.53-2.87-2.76.14-5.58.14-11.18,0-16.76-.06-2.43,1.63-3.64,2.85-5.2,6.52-8.36,6.31-17-.68-24.74-2.84-3.16-3.08-13-.41-16.51,8.71-11.35,8.71-16.67-.43-28.08-2.07-2.59-1.34-5.36-1.2-8,.53-9.78.58-9.92-8.44-14.34-16.4-8.05-26.52-24.85-25-43.21,1.52-18.76,11.51-31.77,29-38.92,2-.82,4.07-1.85,6.67-1.48,0,9.33,0,18.63,0,27.94,0,6.93,3.54,11.05,9.14,10.91,5.42-.13,8.69-4.1,8.74-10.77,0-8,.19-16-.07-24-.12-3.84.62-4.67,4.53-3.43,17.12,5.44,29.85,21.13,31.24,39.07C559.1,739.18,549.39,756.81,532.63,764.5Z" fill="#6e90e8" class="color000 svgShape"></path></svg></g></svg>