<svg id="SvgjsSvg1405" width="288" height="288" xmlns="http://www.w3.org/2000/svg" version="1.1" xmlns:xlink="http://www.w3.org/1999/xlink" xmlns:svgjs="http://svgjs.com/svgjs"><defs id="SvgjsDefs1406"></defs><g id="SvgjsG1407"><svg xmlns="http://www.w3.org/2000/svg" data-name="Layer 1" viewBox="0 0 1000 1000" width="288" height="288"><path fill="#6e90e8" d="M105.56,897.82a1.49,1.49,0,0,1,.23,1.46q-9.92,2.1-7.81-7.8C100.67,893.4,101.4,897.66,105.56,897.82Z" class="colorefefef svgShape"></path><path fill="#6e90e8" d="M388.36,693.93a11.67,11.67,0,0,1-11.64,11.83,11.67,11.67,0,1,1,11.64-11.83Z" class="color020202 svgShape"></path><path d="M897.26,345.83a18.18,18.18,0,0,0-3.13-10.94q-29.43-43.11-58.58-86.43c-10.18-15.15-23.61-25.45-41.8-28.67-4.61-.82-5.6-2.73-5.56-7.14.24-24.19.15-48.38.11-72.57,0-25.87-14.15-39.91-40.07-39.91q-250.54,0-501.08,0c-26.4,0-40.49,14-40.54,40.29q-.06,36.28,0,72.57c0,3.22.23,5.72-4.34,6.5-20,3.38-33.95,15.23-44.94,31.84C137.88,280.79,117.8,309.79,98,339v65.56c2.47,1,1.84,3.54,2.47,5.33,7.32,21,21.93,33.55,43.63,37.82,10.13,2,20-.18,30.29-3.12V747.17c0,2.6-.15,5.22.1,7.8.66,6.69,4.64,10.44,11.19,10.73,6.27.28,10.3-3.34,11.76-9.3.66-2.71.35-5.69.35-8.54q0-154.12,0-308.25v-8.78c31.1,23.92,53.2,23.59,81.89-.94,2.9-2.49,3.67-.85,5.41.8,25.08,23.82,55.06,23.82,80.29-.16,2.54-2.42,3.65-2.52,5.93.09a48.58,48.58,0,0,0,21.8,14.5c24.18,7.86,44.39,1.06,61.31-17.14,26.89,29.36,64.69,25,86.09.06a2.37,2.37,0,0,1,.68.32c27.54,26.34,55.23,27.05,83,1.78,3.22-2.92,4-.94,5.91.88,23.75,23.07,56.24,23.33,79.24.33,3.34-3.34,4.5-2.92,7.57.15,21.33,21.39,52.29,22.56,75.41,3.27,1.37-1.15,2.13-3.71,4.93-2.92V648a48.12,48.12,0,0,0,.17,7.79c1,6.18,4.89,9.81,11.09,10s10.33-3.24,11.83-9.23c.62-2.46.31-5.17.32-7.77q0-97.93,0-195.87v-8.56c1.79.38,2.82.53,3.8.82,38,11.45,72.44-13.83,72.69-53.38C897.31,376.53,897.18,361.18,897.26,345.83Zm-713.08,14c-.37,11.67.1,23.37-.24,35a30.84,30.84,0,0,1-30.63,30c-17,.19-31.18-12.77-31.79-29.73-.43-11.92,0-23.88-.2-35.82-.08-3.73,1-4.89,4.78-4.79,9.08.26,18.17.09,27.26.09,8.31,0,16.62.17,24.92-.08C182.3,354.43,184.34,355,184.18,359.85Zm6.26-32c-1.27,2.42-2.7,3.37-5.4,3.36-17.31-.1-34.63,0-53.15,0,7.51-11.17,14.38-21.41,21.29-31.64,8.71-12.9,17.48-25.76,26.16-38.68,8.45-12.58,20-19.24,35.36-18.87,6.67.17,13.35,0,20.93,0C220.26,271.15,205.29,299.47,190.44,327.85Zm80,31.63c-.24,6.22-.07,12.46-.07,18.69h-.09c0,5.44.24,10.91-.05,16.34-.93,17.23-13.82,30-30.33,30.36-17,.34-31.09-12.07-32.14-29.37-.74-12.15-.1-24.39-.3-36.58-.06-3.51,1.28-4.37,4.53-4.35,17.91.12,35.83.17,53.74,0C269.59,354.5,270.54,355.89,270.4,359.48ZM276,326.62c-1.1,3-2.2,4.68-5.89,4.64-17.93-.22-35.86-.1-55.13-.1,13.94-26.23,27-51.27,40.53-76,4.95-9,12.94-13.79,23.8-13.21,7.78.41,15.61.16,23.41,0,3.53-.05,5.23.07,3.46,4.63C296,273.18,286,299.9,276,326.62Zm80.55,67.23c-.76,18-14.23,31-31.4,31s-30.53-12.93-31.3-31.05c-.48-11.39.06-22.84-.23-34.25-.12-4.38,1.69-5.12,5.5-5,8.82.22,17.65.07,26.47.07,8.57,0,17.14.15,25.7-.07,3.79-.1,5.6.64,5.49,5C356.52,371,357.07,382.45,356.59,393.85Zm3.31-67c-.75,3.39-2.37,4.43-5.86,4.39-17.93-.19-35.87-.09-54.69-.09,7.15-19.1,14.08-37.69,21.08-56.27,2.92-7.75,5.72-15.58,9.07-23.15,2.93-6.61,7.53-10.48,15.77-9.92,11.09.74,22.26.18,33.63.18C372.46,270.72,366.13,298.78,359.9,326.86ZM443,359.81c-.26,11.15.09,22.32-.14,33.47-.38,18.13-14.06,31.67-31.62,31.6-17.25-.07-30.49-13.36-31-31.23-.15-5.45,0-10.9,0-17.8.69-5.94-3.32-15.83,1.54-20,4.2-3.64,13.82-1.12,21-1.16,11.69-.08,23.37.16,35-.12C442,354.43,443.06,355.77,443,359.81Zm7.32-112.42q-3.33,38-5.75,76.1c-.36,5.64-1.42,8.39-7.92,7.83-7.74-.67-15.57-.16-23.37-.16-8.31,0-16.63-.19-24.93.08-4,.13-5.56-.7-4.54-5.08,5.89-25.23,11.62-50.5,17.35-75.77,1.36-6,4-9.1,11.12-8.59,10.85.77,21.81.34,32.71.13C449.1,241.85,450.71,242.47,450.28,247.39ZM529,359.91c-.36,11.41.06,22.84-.19,34.25a31.25,31.25,0,0,1-62.49.17c-.25-11.67.08-23.36-.15-35-.08-3.79,1.15-4.84,4.84-4.74,9.08.24,18.17.08,27.25.08,8.31,0,16.62.19,24.92-.08C527.33,354.41,529.19,355.17,529,359.91Zm-61.43-33.48q3.31-39.6,6.11-79.22c.31-4.52,2-5.39,6.13-5.3,11.68.26,23.39.42,35.07-.06,5.28-.21,6.42,1.84,6.74,6.47q2.7,38.85,5.88,77.68c.33,4-.52,5.43-4.8,5.26-8.3-.34-16.63-.1-24.94-.1-8.58,0-17.16-.19-25.72.09C468.22,331.37,467.28,330.28,467.61,326.43ZM497.5,218.59c-86.37,0-172.75-.09-259.12.17-6.86,0-9-1.54-8.52-8.51.66-8.79.27-17.67.1-26.51-.06-3.3.91-4.87,4.39-4.52,1.8.18,3.64,0,5.46,0q195.12,0,390.25,0a42.23,42.23,0,0,0,10.8-.92c5.74-1.55,8.53-5.93,8-11.77s-3.82-9.59-9.78-10.4a64.17,64.17,0,0,0-8.56-.28q-195.92,0-391.81.17c-7.26,0-9-1.94-8.91-9,.44-22.1,1.45-23.42,23.46-23.42H746.58c15.07,0,18.28,3.19,18.3,18.18,0,14.07,0,14.07-14.33,14.07-17.43,0-34.86-.05-52.29,0-9.12,0-14.55,4.45-14.57,11.52s5.54,11.77,14.49,11.83c20,.12,40.07.26,60.09-.11,5.65-.11,7,1.59,6.74,7a210,210,0,0,0,0,25c.38,6.05-1.37,7.76-7.6,7.73-54.9-.26-109.79-.15-164.69-.15Zm53.4,107.46q-2.92-40-6.09-80c-.25-3.13.54-4.13,3.63-4.11q19.48.16,39,0c4.89,0,5.14,3.83,5.87,6.82,4.18,17.11,8.13,34.27,12.09,51.43,2.33,10.08,4.55,20.18,7,31-19.33,0-38-.11-56.67.08C551.55,331.29,551.13,329.25,550.9,326.05ZM615,394.34c-.51,17.35-14,30.44-30.87,30.54a31.13,31.13,0,0,1-31.61-30c-.48-11.92,0-23.87-.23-35.81-.1-4.11,1.69-4.61,5.08-4.54,8.83.17,17.66.06,26.48.06s17.66.16,26.48-.08c3.68-.1,5,.95,4.87,4.76C614.92,371,615.3,382.67,615,394.34Zm20.19-68.16C629,298.36,622.69,270.55,616.29,242c13.16,0,26.09-.22,39,.11,5.76.14,8.3,5.17,10.3,9.55,3.44,7.52,6.19,15.37,9.11,23.13,7,18.59,14,37.22,21.14,56.33-18.75,0-36.69-.17-54.61.12C637.09,331.35,635.91,329.64,635.15,326.18Zm66.4,33.69c-.24,11.16.24,22.33-.19,33.48-.71,18.55-14.1,31.65-31.65,31.53s-30.68-13.64-31.15-32.1c-.28-10.89.15-21.81-.17-32.7-.14-4.59,1.5-5.69,5.79-5.54,8.82.29,17.65.09,26.47.09,8.57,0,17.14.21,25.7-.09C700.55,354.39,701.64,355.88,701.55,359.87Zm18.06-32c-10.62-28.29-21.21-56.59-32.14-85.79,11.57,0,21.95-.16,32.32,0,8.93.18,15.39,5.28,19.37,12.54C752.83,279.56,766,304.78,780,331.15c-19.69,0-38.21,0-56.73,0C720.79,331.19,720.23,329.5,719.61,327.84Zm68.22,31.8c-.3,11.41.2,22.85-.2,34.26-.63,17.79-14.27,31-31.46,31S725.58,411.8,725,393.8c-.38-11.41.1-22.85-.21-34.26-.13-4.41,1.68-5.08,5.46-5,8.82.22,17.65.07,26.48.07,8.56,0,17.13.16,25.69-.08C786.3,354.45,787.94,355.32,787.83,359.64Zm16-33.23Q781.92,284.86,760,243.26c29.23-3.77,43.42-1.11,57.51,20.24,14.7,22.27,29.81,44.27,45.6,67.66-18.63,0-36-.13-53.31.1C806,331.31,805.1,328.91,803.79,326.41Zm70.1,33.37c-.24,11.68.19,23.37-.19,35a31.25,31.25,0,0,1-62.46-.37c-.28-11.68,0-23.37-.17-35-.07-3.66.9-5,4.75-4.87,9.08.27,18.17.09,27.25.09,8.57,0,17.15.24,25.7-.1C873,354.36,874,355.82,873.89,359.78Z" fill="#6e90e8" class="color000 svgShape"></path><path d="M474.74,875.66q-7,.06-13.93.25c-4.29.11-6-.95-5.72-5.52.38-7,.34-14,0-21.06-.46-10.44-6.68-18.15-16.22-18.74-6.15-.38-6.86-2.76-6.84-8.05.19-50.2.11-100.41.1-150.61a44.78,44.78,0,0,0-.2-7.78c-1-5.81-4.77-9.26-10.58-9.73-5.46-.44-9.37,2.22-11.64,7.35-1.33,3-1,6.13-1,9.22,0,50.72-.09,101.45.09,152.17,0,5.17-.94,7.1-6.68,7.07q-67.51-.37-135,0c-5.19,0-6.5-1.51-6.49-6.6q.22-132.27,0-264.54c0-5.63,1.58-7.77,7.53-7.74q66.72.3,133.45,0c5.39,0,7.3,1.59,7.19,7.13-.31,16.12-.12,32.25-.1,48.38,0,10.53,4,16,11.56,16.17s11.83-5.42,11.84-15.76q0-24.59,0-49.16c0-19.83-10.33-30.05-30.43-30.06Q335,528,268.26,528c-20.73,0-30.89,10.34-30.91,31.33q0,48.78,0,97.54,0,83.11,0,166.21c0,3.5,1,6.84-5,7.33-11.58.94-17.3,8-17.53,19.74-.13,6.5-.55,13.06.1,19.5.85,8.39-4.9,6-9,6.1s-8.53,1.65-8.29-6c.6-19.23.24-38.49.18-57.74,0-9.22-4.26-14.37-11.59-14.47-7.49-.1-11.77,4.92-11.79,14.12-.06,19.25-.19,38.5.09,57.74.08,5-1.14,6.6-6.36,6.51-18-.34-35.91.14-53.85-.27-7.19-.17-12.64,1.68-16.29,8v7.8c1.15,4.31,3.52,6.82,7.37,7.14a1.22,1.22,0,0,1,0-.27c.05-.35.12-.53.21-.53q42.91,0,85.82-.09l283.36,0Zm-58,.16c-57.16,0-114.32-.1-171.48.15-5.87,0-7.36-1.41-7.22-7.24.38-15.22.07-15.23,15.45-15.23h81.84c29.88,0,59.77.13,89.64-.12,5.4,0,7,1.36,6.95,6.87C431.7,875.81,432,875.82,416.74,875.82Z" fill="#6e90e8" class="color000 svgShape"></path><path fill="#6e90e8" d="M899.77,781.16c-.3-1.56-.41-3.09.77-4.39V781l-.4,0Z" class="color424242 svgShape"></path><path d="M566.48 813c6.86 18.57 13.54 36.62 20.22 54.67q3.39 9.18 6.78 18.35 3.15 8.5-2.92 10.71c-3.92 1.44-7.07-.75-9.2-6.48l-24.93-67.4c-3.11-8.42-5.44-10.05-14.52-10.05H522.28c-8.2 0-11 2-13.49 9.57q-11.15 33.72-22.28 67.42c-.26.81-.51 1.63-.82 2.42-1.55 4-4.87 5.8-8.32 4.58s-5.09-4.6-3.76-8.67q9.19-28.11 18.52-56.16c2.09-6.32 4.19-12.63 6.35-19.15-11.87-1.65-21.51-7-28.34-17A36.35 36.35 0 01463.51 775q-.11-56.53 0-113.09a19.68 19.68 0 1139.35-.39c.12 4.4.12 8.82 0 13.22-.12 4.12-2.55 6.56-6.26 6.59s-6.3-2.45-6.48-6.47 0-8.25-.08-12.37c-.1-4.59-2.91-7.62-6.88-7.58s-6.83 3.16-6.84 7.69c0 37.41-.13 74.83.06 112.24.07 14 11.39 24.93 25.52 25 22.75.14 45.51.06 68.27 0 5 0 8-2.6 8-6.81s-3-6.89-8-6.9q-32.66 0-65.3 0c-10.41 0-14.84-4.39-14.85-14.71q0-32.22 0-64.44c0-4.75 1.87-7.44 5.36-8 4.32-.68 7.4 2.12 7.45 7.05.08 9.1 0 18.2 0 27.31 0 12.09.11 24.18-.07 36.27-.05 3 .76 3.77 3.75 3.75 20.77-.14 41.54.3 62.3-.21 12.49-.31 22.06 8.34 22.2 19.64.14 11.58-9.28 20-22.31 20.12zM900.54 658.11c-.89-.29-.65-1.11-.84-1.75a19.59 19.59 0 00-23.25-13.71c-9.41 2.07-15.32 9.77-15.33 20.27 0 35-.09 70 .08 105 0 4.24-.74 5.67-5.38 5.61-21-.29-42.09-.18-63.14-.1a19.67 19.67 0 00-19.33 15.53c-1.88 9.64 2.69 18.1 11.77 22.15 3.83 1.71 7.87 1.89 12.34 2-2.24 6.11-4.35 11.93-6.5 17.74-7 19-14.11 38-21.1 57-1.5 4.06-.08 7.44 3.39 8.81s6.83-.38 8.55-4.24c.41-.9.68-1.87 1-2.8q12.72-34.27 25.46-68.54c2.28-6.12 5.35-8.23 11.88-8.26 7.39 0 14.79 0 22.18 0s10.43 2.19 12.8 9.36q6.95 21 13.84 42c3.12 9.42 6.18 18.86 9.41 28.24 1.31 3.81 4.67 5.54 8 4.49 3.57-1.12 5.19-4.49 4.08-8.53-.22-.82-.51-1.62-.78-2.42q-12-36.48-24.09-73c18.83-3.74 31.6-15.65 34.17-31.76.86-1.36-.26-3.06.77-4.39zM887.7 772.65c0 16.16-11.11 27.25-27.28 27.27q-33.27 0-66.54 0c-5.15 0-7.84-2.47-7.81-6.9s2.85-6.79 8-6.8q25.15-.06 50.32 0c5.55 0 11.09.06 16.64 0 7.84-.11 12.76-4.89 12.88-12.77.15-9 0-17.92 0-26.87q0-41.37 0-82.74c0-2.62.05-5.18 2.25-7a6.47 6.47 0 017.13-1.26 6.79 6.79 0 014.38 6.67c0 7.68 0 15.36 0 23v34.12Q887.71 746 887.7 772.65z" fill="#6e90e8" class="color000 svgShape"></path><path d="M813.44,712.55C808,700,798.32,692.19,784.76,689.62c-8.6-1.63-17.32-.54-26-.67-2.59,0-3.46-.63-3.32-3.32.24-4.39.18-8.82,0-13.22a4.59,4.59,0,0,1,2.85-4.93,18,18,0,0,0,10-16.19c.12-3.41.16-6.84,0-10.24-.24-5.64-3.76-9.36-9.39-9.56q-9.81-.35-19.63,0c-5.55.2-9.2,4-9.47,9.55-.15,3.27-.14,6.55,0,9.82.3,7.37,3.58,13.1,10.11,16.63,2,1.09,2.89,2.14,2.78,4.49-.21,4.54-.22,9.11,0,13.65.13,2.6-.56,3.35-3.25,3.31q-16.86-.26-33.72,0c-2.94,0-3.78-.68-3.74-3.7.18-13.66-.07-27.32.14-41A24.12,24.12,0,0,0,697,628.44a86.09,86.09,0,0,0-7.07-8,6.09,6.09,0,0,1-2-4.82c.13-6.68.1-13.37,0-20.06,0-4.59-2.57-7.45-6.4-7.48s-6.36,2.85-6.4,7.41c-.06,5.69-.29,11.4.08,17.07a11.31,11.31,0,0,1-4.12,9.95c-7.22,6.52-10.8,14.51-10.4,24.58.51,12.79.06,25.61.17,38.41,0,2.44-.33,3.45-3.16,3.41-11.52-.19-23.05-.13-34.57,0-2.16,0-3-.49-2.89-2.8.17-4.83.12-9.67,0-14.51a3.58,3.58,0,0,1,2.36-3.91,17.41,17.41,0,0,0,9.61-11.38c1.59-5.53,1.42-11.3.61-16.94-.69-4.77-4.25-7.74-9.2-7.89q-9.81-.32-19.63,0c-5.47.19-8.94,3.62-9.39,9.13a84.1,84.1,0,0,0-.05,10.65A18.57,18.57,0,0,0,605,667.72c1.71.9,2.55,1.81,2.49,3.86-.16,4.83-.17,9.67,0,14.51.08,2.31-.77,2.86-2.94,2.83-6.68-.12-13.38-.3-20,0-15.33.75-26.76,8-33.75,21.67-6.55,12.79,1.32,25.19,15.72,25.21q35.87,0,71.71,0c8.82,0,9.34,0,8.71,8.74-1.29,17.56,8.81,26.6,24.69,24.78,3.07-.35,3.73.84,3.72,3.76q-.16,39.69,0,79.39a5.56,5.56,0,0,1-2.37,5c-8.94,7-17.75,14.23-26.6,21.37-4.55,3.68-5.86,7.22-4.35,11.81,1.46,4.43,4.82,6.48,10.76,6.48q28.8,0,57.62,0c6.28,0,9.42-1.89,11.07-6.61,1.58-4.51.38-7.87-4.43-11.75-8.73-7.07-17.46-14.13-26.31-21A6.34,6.34,0,0,1,688,852c.1-24.19,0-48.38.09-72.56,0-3.23-1.38-7.31.65-9.44,1.89-2,5.94-.5,9-.62,10.68-.44,18.31-8.12,18.51-18.88.11-6.12,0-12.24,0-18.36,0-7.45-1.76-9.15-9.38-9.15H567.35c-6.21,0-7.66-2.48-4.47-7.94,5.17-8.84,13-13.29,23.21-13.31q47.8-.08,95.61,0t95.61,0c10.23,0,18,4.58,23.18,13.39,3.2,5.46,1.74,7.86-4.56,7.86-17.93,0-35.86,0-53.78,0-5,0-7.93,2.4-8,6.31s2.93,6.49,7.8,6.5c18.78,0,37.56.1,56.34,0C810.81,735.71,818.46,724,813.44,712.55ZM703,884H660.35c6.91-5.57,13.3-10.68,19.64-15.86a2.16,2.16,0,0,1,3.27,0C689.6,873.34,696,878.44,703,884ZM662.61,735.77c6.38.15,12.77.05,19.16.05,6.11,0,12.22.18,18.32-.07,2.93-.12,3.58.91,3.42,3.58-.22,3.54,0,7.1-.08,10.65-.11,4.23-2,6.45-6.18,6.51q-15.54.21-31.09,0c-4.14-.06-6.22-2.29-6.33-6.41-.11-3.83.1-7.67-.08-11.5C659.64,736.33,660.39,735.72,662.61,735.77Zm-48.76-78.62c-4.2.05-6.62-3.2-6.52-9.06.09-4.48-1.05-3.8,6.78-3.86,2,1.06,6.69-2.59,6.32,3.77C620.08,653.85,618.07,657.11,613.85,657.15Zm72.82,31.77c-3.55-.17-7.11-.13-10.66,0-1.88.06-2.4-.63-2.4-2.46.07-14.21-.07-28.43.12-42.63a16.84,16.84,0,0,1,4-10.14c2.34-3,5-3,7.49-.13a17.12,17.12,0,0,1,4,11.38q0,10.23,0,20.47c0,7-.07,13.92,0,20.89C689.31,688.31,688.77,689,686.67,688.92Zm61.88-31.79c-4.62-.51-8.3-8.3-5.78-12.23.57-.9,1.48-.64,2.29-.66a59,59,0,0,0,6,0c3.52-.42,5.54.42,4.58,4C755.54,654.31,752.81,657.6,748.55,657.13Z" fill="#6e90e8" class="color000 svgShape"></path></svg></g></svg>