<svg id="SvgjsSvg1258" width="288" height="288" xmlns="http://www.w3.org/2000/svg" version="1.1" xmlns:xlink="http://www.w3.org/1999/xlink" xmlns:svgjs="http://svgjs.com/svgjs"><defs id="SvgjsDefs1259"></defs><g id="SvgjsG1260"><svg xmlns="http://www.w3.org/2000/svg" data-name="Layer 1" viewBox="0 0 1000 1000" width="288" height="288"><path d="M866.13,818.37c0-6.21,1-12.36-.87-18.6q-38.25-124-76.34-248.06c-.95-3.07-.64-4.35,2.15-6,17.09-9.9,25.14-25.18,25.16-44.61q.12-176,0-351.9c0-30.16-21.25-50.79-51.51-50.8q-262.35-.06-524.7,0c-30.64,0-51.42,20.76-51.65,51.47-.13,18.77,0,37.54,0,56.3q0,146.24,0,292.47c0,17.42,4.66,33.08,19.51,42.84,8.08,5.31,7.92,9.42,5.39,17.56C188.46,638.46,164.27,718,140,797.53A37.78,37.78,0,0,0,138,809c.24,25.28.48,50.56.37,75.84,0,5.85,1.32,10.6,5.83,14.34H860.43c4.5-3.75,5.89-8.49,5.82-14.35C866,862.68,866.17,840.52,866.13,818.37Zm-659-318.58q-.06-174.36,0-348.74c0-21.7,12.23-33.87,33.88-33.87q261.15,0,522.3,0c22.13,0,34.2,12.09,34.21,34.35q0,173.6,0,347.18c0,22.78-11.84,34.51-34.69,34.51H240.5C219.32,533.22,207.11,521.12,207.1,499.79ZM158.33,801.2Q194.71,683.15,230.66,565c3.82-12.49,4.31-12.75,17.44-12.75H757.05c12.27,0,13,.27,16.51,11.88Q810,682.94,846.4,801.8c1.89,6.13-.83,8.22-5.56,9.38-2.72.66-5.69.4-8.55.4q-165,0-329.92,0H172.45c-2.6,0-5.28.28-7.8-.2C159.06,810.33,156.25,808,158.33,801.2Zm689.18,35.69c-.44,12.76-.29,25.54,0,38.31.08,4.06-1.09,5.8-5.24,5.25a34.91,34.91,0,0,0-4.69,0q-335.4,0-670.8.18c-7.79,0-10.28-1.63-9.72-9.65.79-11.41.44-22.93.09-34.38-.15-5.05,1.13-6.37,6.43-6.36q169.26.3,338.53.15,169.27,0,338.53-.13C846,830.22,847.71,831.28,847.51,836.89Z" fill="#6e90e8" class="color000 svgShape"></path><path d="M748.36 677.67c-6.22-30-12.72-60-18.73-90.13-1.6-8-5.85-10.58-13.57-10.57q-213.81.16-427.62 0c-7.75 0-11.93 2.66-13.53 10.63-5.77 28.81-12.06 57.51-18 86.28-2.8 13.45.16 16.9 14 16.9H732.15c2.08 0 4.17.11 6.25 0C746.47 690.19 750 685.69 748.36 677.67zm-28-5.53q-109.43-.3-218.85-.13c-72.17 0-144.34-.11-216.5.16-7.25 0-8.59-1.33-6.88-8.55 4.85-20.49 8.94-41.16 12.9-61.84 1-4.94 2.94-6.07 7.67-6.06q203.61.18 407.22 0c4.75 0 6.71 1.15 7.65 6.07 4 20.94 8.24 41.85 13.07 62.61C728.15 671 726.73 672.15 720.35 672.14zM626.26 771.66c-4.25-15.53-8.87-31-12.75-46.57-2-8-6.15-10.9-14.31-10.87q-97.25.38-194.51.1c-7.5 0-11.53 2.66-13.4 9.91-4 15.33-8.4 30.54-12.59 45.81-3.47 12.67-.42 16.53 13 16.53H501.84q56.63 0 113.27 0C625.66 786.54 629.08 782 626.26 771.66zm-227.34-4c2.88-10.54 5.77-20.73 8.4-31 1-4 3.84-3.44 6.68-3.44q35.56 0 71.12 0c34.91 0 69.82.08 104.73-.09 4.56 0 6.94.9 8 5.83 2.08 9.35 5 18.51 7.84 28.67zM741.84 158H262.62c-12.17 0-14.57 2.42-14.57 14.72q0 152.46 0 304.91c0 12.75 2.24 15 15.07 15H742.34c11.65 0 14.18-2.5 14.18-14.27q0-152.83 0-305.68C756.52 160.39 754.06 158 741.84 158zm-3.91 307.93c0 6.58-1.66 8.06-8.11 8-75.82-.25-151.63-.16-227.44-.16-75.55 0-151.11-.08-226.66.14-6.65 0-9.14-1-9.11-8.61q.47-139.92 0-279.82c0-7.1 1.73-8.93 8.9-8.92q226.65.33 453.31 0c6.78 0 9.13 1.21 9.11 8.7Q737.51 325.6 737.93 465.89z" fill="#6e90e8" class="color000 svgShape"></path><path d="M454.88 441.14c-4.53-1.61-7.59-4.48-7.78-9.56a9.68 9.68 0 018.57-9.94 9.79 9.79 0 015.14 18.68c-.6.27-1.39.15-1.8.82zM493.91 441.14c-3.67-1.49-6.62-3.65-7.43-7.86a9.78 9.78 0 1113.39 7.05l-1.83.81z" fill="#6e90e8" class="color000 svgShape"></path><path fill="#6e90e8" d="M300.57,420.54l-.2-.06h-.21v-2.29A2.58,2.58,0,0,1,300.57,420.54Z" class="color545454 svgShape"></path><path d="M476.48,329.53a7.56,7.56,0,0,0-1.33-4.51c-12.59-19.31-18.48-40.54-18.33-63.53.08-12.09.11-24.18-.05-36.26a19.49,19.49,0,0,0-36.09-9.84,7.24,7.24,0,0,1-3,2.68q-29.3,15.26-58.6.07a8.39,8.39,0,0,1-3.31-3,18.73,18.73,0,0,0-15.41-9,19.28,19.28,0,0,0-20.51,19.15c-.19,12.39,0,24.79-.07,37.18a115.43,115.43,0,0,1-3.09,27.28,107.91,107.91,0,0,1-16.53,37.07v91.36c.48.74.13,1.56.24,2.34a14.34,14.34,0,0,0,1.4,6.39c4,7.94,10,13,19,14.22H433.76a16.61,16.61,0,0,0,1.5-1,4.67,4.67,0,0,0,1.83-5.06,4.5,4.5,0,0,0-4.16-3.66,21.15,21.15,0,0,0-2.52-.07H348.69c-7.88,0-15.76.07-23.64,0-8.76-.1-15-6.34-15.12-15.09-.07-3.9.12-7.81-.06-11.7-.1-2.12.52-2.63,2.62-2.62q47.75.1,95.49.05c.68,0,1.37,0,2.06,0,3.17-.16,5.27-2.1,5.31-4.88s-2.09-4.8-5.22-5c-.68,0-1.37,0-2.06,0q-47.86,0-95.72.05c-2.07,0-2.51-.55-2.48-2.53q.18-12.17,0-24.33c0-2.12.55-2.63,2.64-2.63q44,.12,87.92.05a25.25,25.25,0,0,0,2.75-.07,4.83,4.83,0,0,0,4.3-4.11,5,5,0,0,0-3-5.17,8,8,0,0,0-3.39-.4q-44.52,0-89.06,0c-1.68,0-2.19-.35-2.16-2.12.12-6.42.06-12.85,0-19.28a4.85,4.85,0,0,1,.75-2.8c13.18-20.95,19.28-43.83,18.91-68.55-.17-11.47-.05-23,0-34.43a9.71,9.71,0,0,1,7.53-9.69c6.47-1.45,12,3.2,12.07,10.2.07,10.33-.21,20.67.13,31,.77,23.12,23.53,40.83,46.21,36.2,19-3.86,31.77-19.34,31.93-38.75.09-9.41,0-18.82,0-28.23a11,11,0,0,1,2.26-7,9.76,9.76,0,0,1,17.36,6.11c.05,13.31-.1,26.63.06,39.94a117,117,0,0,0,15.29,57.13c2.79,4.9,5,9.56,4.38,15.38a4.62,4.62,0,0,0,4.69,5.11c2.78.05,4.9-2.12,5-5.19C476.5,335.19,476.4,332.36,476.48,329.53Zm-59-71.31a17.72,17.72,0,0,1-.74,4c-3.27,13.26-16.09,22.9-29.46,22.18-14.31-.76-25.94-11.09-28-24.81a37.68,37.68,0,0,1-.37-5.71v-25c19.62,8.69,39.09,8.69,58.61.08C417.54,238.87,417.57,248.54,417.51,258.22Z" fill="#6e90e8" class="color000 svgShape"></path><path d="M532.12 324c-2.9-1.18-5.72.32-6.59 3.69q-3 11.64-5.86 23.31c-.36 1.49-.85 2.05-2.52 2-15.61-.09-31.21-.05-46.82-.05s-31.36 0-47.05 0c-4.08 0-6.13 2.6-5.33 6.6q4.68 23.36 9.35 46.71c.85 4.28 2.19 5.44 6.47 5.44h75.28c4.55 0 5.78-1 6.87-5.35q5.21-20.88 10.44-41.75 4.29-17.22 8.56-34.43C535.65 327.27 534.61 325 532.12 324zm-16 41.12q-4.53 17.52-8.79 35.09c-.34 1.41-.84 1.82-2.26 1.82q-33.39-.07-66.79 0c-1.34 0-2-.24-2.3-1.74q-3.47-17.88-7.15-35.71c-.35-1.71.25-1.85 1.68-1.85 14.07 0 28.15 0 42.23 0 13.85 0 27.7 0 41.54 0C516.38 362.7 516.67 363.18 516.16 365.13zM625.91 260.74H558.33c-1.45 0-2.9 0-4.34 0-2.44-.15-4.7-.9-4.76-4.38-.06-3.87 2.33-4.7 5-4.85 1-.06 2.07 0 3.1 0h137a25.42 25.42 0 014.94.28c2 .41 3.35 2 3.27 4.53s-1.43 4-3.54 4.24a44.89 44.89 0 01-5.56.24zM625.72 306.18q-34.1 0-68.2 0a25.7 25.7 0 01-5.54-.45c-1.82-.4-2.81-2-2.79-4.21s.93-3.81 2.82-4.17a30.23 30.23 0 015.54-.44q68.21 0 136.41 0c.83 0 1.66 0 2.48 0 2.7.14 5.91-.11 6.07 4.29.18 4.84-3.1 5-6.1 5q-33.48 0-67 0zM625.24 351.58H557.56a27.24 27.24 0 01-4.95-.22c-2-.37-3.38-1.81-3.36-4.43s1.25-4 3.41-4.27a48.16 48.16 0 015-.19H694.23c1.45 0 2.9 0 4.35.1 2.34.17 4 1.37 4 4.43s-1.74 4.25-4 4.51a45.75 45.75 0 01-5 .08zM626.12 387.87h68.31c1.65 0 3.31 0 5 .18 1.91.2 3 1.62 3.15 3.8.15 2.47-.86 4.32-3 4.76a24.75 24.75 0 01-4.95.22H557.36c-1.25 0-2.49 0-3.73 0-2.65-.07-4.45-1.39-4.37-4.77.08-3 1.86-4.08 4.21-4.13 1.86 0 3.72 0 5.59 0zM626.26 442.18H557.33a34.13 34.13 0 01-5-.18c-2.19-.34-3.21-2.06-3.11-4.59.09-2.2 1.11-3.7 3-4a32.88 32.88 0 015-.21q68.63 0 137.25 0c1.45 0 2.9 0 4.34.08 2.46.19 3.85 1.76 3.72 4.69-.11 2.55-1.43 4-3.6 4.09-1.86.11-3.73.1-5.59.1zM626 215.15h-68.3c-1.65 0-3.31 0-5-.16-2.15-.21-3.42-1.59-3.45-4.22s1.32-4.09 3.35-4.44a32.45 32.45 0 015.58-.23H696.63c2.8 0 5.79.17 5.87 4.55.08 4.56-3 4.49-5.77 4.5q-31.66 0-63.33 0z" fill="#6e90e8" class="color000 svgShape"></path><path fill="#6e90e8" d="M899,368.09c1.56,1.93,1.78,4.29,1.92,6.59a46,46,0,0,0,1.94,10.54C899.66,379.93,899,374.09,899,368.09Z" class="color90a835 svgShape"></path><path fill="#6e90e8" d="M905.72,389.54c4.11,2,8.76,2.77,12.58,5.45C913.35,394.91,909,393.57,905.72,389.54Z" class="color8fa634 svgShape"></path></svg></g></svg>