<svg id="SvgjsSvg1416" width="288" height="288" xmlns="http://www.w3.org/2000/svg" version="1.1" xmlns:xlink="http://www.w3.org/1999/xlink" xmlns:svgjs="http://svgjs.com/svgjs"><defs id="SvgjsDefs1417"></defs><g id="SvgjsG1418"><svg xmlns="http://www.w3.org/2000/svg" data-name="Layer 1" viewBox="0 0 1000 1000" width="288" height="288"><path d="M902.37,872.49q-12.63-164-25.24-328.07C876,529.23,872.59,526,857.52,526q-89.86,0-179.71,0c-4.47,0-7.46.33-7.75-6.2-2.41-54.8-5.36-109.57-8.06-164.36-.68-13.7-4.62-17.59-18.6-17.6-27.43,0-54.86-.16-82.29.13-5.43,0-7-1.29-6.9-6.84q.49-31.47,0-63C553,189.47,476.62,132.8,400.87,154.5a27.86,27.86,0,0,1-16.18-.22c-69.44-19.64-141.61,27.43-151.32,98.77-3.49,25.61-1,51.43-1.35,77.15-.08,6-1,8-7.6,7.89-27.7-.44-55.42-.21-83.13-.17-12.12,0-16.45,4.41-17,16.57q-5.16,104.82-10.42,209.64-8,158.89-16.11,317.79c-.82,16.23,3.31,20.36,19.67,20.36h765c2.52,0,5,.11,7.56,0,8.69-.53,13.81-5.89,13.67-14.7C903.52,882.52,902.76,877.51,902.37,872.49ZM614,364.65c22-.9,21.88-1,22.74,21.32.78,20.09,2,40.17,3,60.25h-.05c1.22,24,2.3,48,3.76,72,.35,5.71-.22,8.28-7.19,8.06-17.23-.54-17.65-.07-18.74-17.47-2.92-46.26-5.41-92.55-8.24-138.82C609,366,609.76,364.83,614,364.65Zm-54.05,0c22.16-1,22-1.15,23.2,20.87,1.08,20.37,2.47,40.72,3.72,61.08h-.09c1.46,24,2.8,48,4.49,72,.38,5.41-.2,8.3-6.72,7.58-6.87-.75-15.62,1.94-20.27-1.42-4.43-3.2-1.65-12.5-2-19.1-2.43-45.21-4.57-90.43-7-135.64C555,366,555.69,364.85,559.93,364.66ZM524.13,246.1c3,11.49,3.47,23.13,3.38,34.89-.13,16.76-.31,33.54.11,50.3.15,5.7-1.7,6.88-7,6.74q-20.53-.54-41.08,0c-4.82.12-6-1.38-5.94-6,.26-17.89-.27-35.79.18-53.67,1-40.13-13-73.64-44-100.93C471.33,173.55,513.25,204.58,524.13,246.1ZM387.74,188.44c3.84-2.26,7-2.19,10.81.06,29.56,17.6,46.16,43.49,48,77.78,1.18,22,.14,44.17.42,66.26.06,4.6-1.48,5.51-5.68,5.46-16.22-.22-32.44-.09-48.66-.09q-23.91,0-47.82,0c-2.64,0-5.68,1-5.51-3.79,1-26.79-2.52-53.8,1.9-80.38C346,224.75,362.49,203.31,387.74,188.44ZM260.23,256.39c7-47.22,47.35-80.61,96.77-79.48-22.33,19.3-36.09,41.94-42,69.29-3.47,16.05-2.33,32.27-2.49,48.44-.13,12.58-.19,25.16.07,37.74.09,4.27-1,5.73-5.49,5.64-14.53-.3-29.07-.13-43.61-.1-2.61,0-4.92.3-4.8-3.68C259.5,308.29,256.44,282.17,260.23,256.39ZM245.06,476.68c8,.37,15.45,8.92,23.32,13.61,3.11,1.84,3.87,4.11,3.85,7.49q-.18,38.19,0,76.36c0,4.08-.65,5.88-5.38,5.76q-21.37-.51-42.79,0c-5.12.13-5.84-1.83-5.75-6.25.27-12.58.09-25.17.09-37.76s.14-25.17-.08-37.76c-.06-3.75.71-6.51,4.36-8a5,5,0,0,0,.69-.47C230.62,485,238.05,476.36,245.06,476.68ZM425.39,816.21c-1.36,17.57-2.77,35.15-3.72,52.74-.27,5-1.56,6.58-6.78,6.57q-141.92-.24-283.81,0c-4.52,0-6.06-.7-5.8-5.87q9.63-186.54,18.83-373.1c2-40.81,4.08-81.62,5.7-122.44.3-7.37,2.35-9.72,10-9.51,21.53.6,43.1.4,64.64.08,5.55-.08,7.64.83,7.54,7.06-.41,24.63-.29,49.26-.05,73.89,0,4.44-1.19,7.09-5,9.46-9.48,5.92-18.6,12.41-28,18.5-5.17,3.35-7.52,7.86-7.51,14,.08,34.71,0,69.42.09,104.12,0,9.81,5.23,14.88,15.17,14.92q38.63.18,77.25,0c9.82-.05,14.95-5.22,15-15.12.11-34.71,0-69.41.08-104.12,0-6.19-2.56-10.63-7.66-14-9.11-6-18-12.28-27.25-18-4-2.47-5.62-5.12-5.56-10q.42-36.93,0-73.89c-.07-5.49,1.41-6.9,6.87-6.85,29.39.28,58.78.13,88.17.13,28.83,0,57.66.15,86.48-.13,5.47,0,7.11,1.34,6.87,6.86-.45,10.62-.24,21.27-.1,31.9.13,9.22,5.43,15,13.35,15.07s13.32-5.8,13.46-15c.15-10.91.25-21.83-.07-32.74-.14-4.63,1-6.21,5.91-6.1,14,.34,28,.47,42,0,5.84-.22,6.94,2.09,7.15,7.07,1,23.77,2.35,47.52,3.52,71.27,1.26,25.44,2.31,50.88,3.81,76.3.32,5.52-1.14,7-6.68,6.91-21.82-.33-43.66-.17-65.49-.13-11.84,0-16.21,4.18-17.1,15.7Q436.08,679,425.39,816.21Zm334.75,59.37c-50.66-.33-101.32-.18-152-.18s-101.32-.13-152,.16c-6.58,0-8.32-1.49-7.78-8.16,4.49-54.93,8.65-109.89,12.88-164.84,3.62-47.15,7.33-94.29,10.64-141.45.43-6.21,1.67-8.4,8.49-8.38q127.64.4,255.27,0c6.6,0,8.16,1.85,8.62,8.25,4.57,62.78,9.54,125.53,14.37,188.3,3,39.33,5.88,78.68,9.12,118C768.31,873.68,767,875.62,760.14,875.58Zm33.12-26.83c-3.46-44-6.8-86.08-10.06-128.12q-6-77.79-12-155.59c-.92-12.13-.8-12.14,10.8-12.14,15.37,0,15.55,0,17.09,15.38,7,70.1,13.13,140.3,21.31,210.27,2.24,19.17-.48,34.72-12.84,49.18C802.57,833.62,798.78,840.57,793.26,848.75Zm14.88,26.37,28.36-42.63c9.6,14.35,18.67,27.89,28.52,42.63Zm62.19-40.26c-20.5-21.84-23.24-49.24-25.62-77.35-4.56-53.73-10.53-107.33-15.92-161-1.28-12.79-2.48-25.58-3.92-38.36-.42-3.78.11-5.66,4.62-5.35,6.68.45,14.61-1.93,19.77.93,5.47,3,2.41,11.73,2.93,17.86,4,47.35,7.53,94.73,11.17,142.1q4.41,57.25,8.7,114.53C872.21,830.63,874.65,833.63,870.33,834.86Z" fill="#6e90e8" class="color000 svgShape"></path><path fill="#6e90e8" d="M870.33,834.86c2.86-1.61.38-4.62,1.73-6.63a8.16,8.16,0,0,1,1.28,7.57C871.89,839.27,871,836.34,870.33,834.86Z" class="color707070 svgShape"></path><path d="M688.72,680.77c-1.06,17.28,2.2,38.66-1.53,59.74-5.18,29.19-29.81,52-59.59,53.75-19.08,1.11-38.56,3.12-57.27-4.21-24.8-9.72-42.35-33.37-42.68-59.88-.45-36.09-.21-72.2-.14-108.3,0-9.28,5.3-15.07,13.23-15.17,8.21-.1,13.56,5.88,13.58,15.69.07,33.87,0,67.73,0,101.59,0,27.31,16.57,43.84,43.86,43.92,7.55,0,15.11.09,22.67,0,23.46-.35,40.77-17.48,40.9-40.93.2-34.71.12-69.41,0-104.12,0-7.12,2.09-12.68,9.12-15.33,9-3.38,17.64,3.26,17.75,13.92C688.86,639.89,688.72,658.37,688.72,680.77Z" fill="#6e90e8" class="color000 svgShape"></path></svg></g></svg>