<svg id="SvgjsSvg1304" width="288" height="288" xmlns="http://www.w3.org/2000/svg" version="1.1" xmlns:xlink="http://www.w3.org/1999/xlink" xmlns:svgjs="http://svgjs.com/svgjs"><defs id="SvgjsDefs1305"></defs><g id="SvgjsG1306"><svg xmlns="http://www.w3.org/2000/svg" data-name="Layer 1" viewBox="0 0 1000 1000" width="288" height="288"><path d="M670.91,525.79c24.82,3.74,48.85-.11,72.05-9,52-19.86,89.58-56.35,115.73-104.52,32.23-59.38,43.37-122,21.09-187.43-16-47-47.23-80-96.53-92.54-40.85-10.4-79-1-114.85,19.37C585,199,534.31,307.77,551.85,401.88c6.75,36.21,21.78,68.34,50.22,92.94,3.6,3.11,2.48,5.47,1,8.69-10.42,22.38-20.7,44.82-31.19,67.16-1.32,2.81-1.63,8.21-5.26,7.48-5.86-1.18-13.09.86-17.49-4.6-7.84-9.74-13.4-20.49-11.84-33.67,2.11-17.75-3.56-33-13.68-47.51C480.43,430.42,437.72,368.16,394.84,306q-36.15-52.4-72.34-104.76c-15.12-21.82-36.1-31.63-62.14-26.68-43.19,8.21-62.54,56.25-37.85,93,19.31,28.74,39.26,57.05,58.92,85.55l61,88.38C231.25,424,145.61,493.41,118,571.8a200.47,200.47,0,0,0,68.88,227.59c35,26.32,74.7,39.65,118.52,39.78,56.69.16,104.85-20.86,145.63-60.89-6.22,45.87,10.75,77.39,47,88.49a70,70,0,0,0,83.34-35.24c8.11-16,10-32.72,5.25-50s-14.78-31.1-30.28-41.14c11.71-.42,26.54,6.83,32.7,15.74C600.67,773,612.28,790,624.1,806.81c2.23,3.18,2.93,5-.42,8.25-8.76,8.62-8.95,19.87-1.36,29.57,11.53,14.74,31.88,21.38,49.1,13.93a131.56,131.56,0,0,0,44.35-31.19c3.37-3.64,5.32-3.46,8.74-1.3q19.93,12.57,42.67,6.18c11.76-3.31,23.62-6.27,35.39-9.54,14.36-4,18.25-15.16,9.6-27.59-8.47-12.18-16.92-24.4-25.76-36.31-3.09-4.16-2.48-5.68,2.13-7.55,16.36-6.65,32.59-13.63,48.85-20.53,15.22-6.46,17.48-18.22,5.71-29.75s-23.46-23-35.36-34.32c-3.07-2.92-3.18-4.27.67-6.63,12.88-7.86,25.56-16,38.23-24.25,13.14-8.5,13.61-20.23,1.25-29.53-7.49-5.64-15.51-10.67-22.51-16.86-15.44-13.64-33.08-16.38-53.08-14.7-43.62,3.68-87.37,6-131.07,8.75-1.09.07-2.56.74-3.47-1.1,7.87-17.11,16-34.23,23.58-51.58C663.45,526,666.16,525.07,670.91,525.79ZM572.05,405.66c-14.87-72,6-135.35,51.17-191.47,23.85-29.64,54-51.24,90.87-61.91,67.65-19.58,129.23,15.6,150.33,85.38a201.81,201.81,0,0,1,8.3,54.19c-6.13,86.93-40.8,157.39-120,200.23-37,20-76.45,23.67-115.44,4C600.1,477.38,580.18,445,572.05,405.66ZM546.48,594.54c3.89-.79,5.21.78,3.86,6.85q-11.76,52.93-22.55,106.09c-1.2,5.9-3.75,7.21-8.88,5.67a81.32,81.32,0,0,1-9.62-3.15c-10.81-4.78-12.23-7.76-9.18-19a192,192,0,0,0,6.5-62.66c-1-15.78,3.62-23.15,18.32-29.34C531.27,596.37,537.93,595.4,546.48,594.54Zm-39,135.72c-9.88,1.59-18.5,5.63-28.07,10.63,3.36-6.57,6-11.63,8.53-16.73,1.12-2.23,1.82-4.11,5-2C497.49,725.15,502.4,727.46,507.51,730.26ZM335.24,466.46c.63-4.73,1.18-6.83,6.93-5.39,8.84,2.21,17.67,4.34,26.25,7.38,6.06,2.14,11.24,1.24,13.56-5s-.93-10.74-7.06-12.53c-3.63-1.06-5.63-3.41-7.58-6.23Q303.27,351.75,239.2,258.87c-14.4-20.9-10.61-45.78,8.79-59.38s44.57-8.46,58.83,12.16Q408.94,359.4,510.89,507.29c5.87,8.49,8.79,17.62,7.8,27.92-1.33,13.86.65,27,8.13,39,1.38,2.21,2.54,3.86-1.44,4.84-8.68,2.14-16.3,6.64-23.78,12.28-3.74-12.25-7.39-24.15-12.63-35.49a200.37,200.37,0,0,0-50.06-67.12c-6.59-5.79-11.52-6.45-15.61-1.75-4.84,5.56-3,10.63,2.1,14.81,2.64,2.15,1.86,3.38-.14,5.37-19.7,19.71-39.31,39.51-59.35,59.68a125.29,125.29,0,0,1-30.36-65.33A122.86,122.86,0,0,1,335.24,466.46Zm146.87,143.4q-58,7.73-102.82-29.51l62.34-62.47c22.56,25,36.91,54.14,43.45,87.24C485.67,608.11,485.23,609.45,482.11,609.86ZM189.79,499.44c35-28.2,74.79-42.29,119.78-41.82,5.72.06,8,1.09,7.18,7.74-5.14,41.42,6,78.29,32.29,110.6,2.45,3,2.66,4.75-.22,7.61-14.06,13.94-27.91,28.11-43.2,43.59-2.8-3.56-4.95-6.9-7.7-9.66q-54.15-54.22-108.54-108.21C185.13,505.09,185.07,503.25,189.79,499.44ZM124.35,638.67v-3.13c1.29-42.59,15.25-80.38,42.51-113.25,3.06-3.7,4.78-4.63,8.74-.64q56.49,56.9,113.47,113.3c3.44,3.41,3.34,5.08-.06,8.36-12.39,11.93-24.62,24.05-36.51,36.48-3.85,4-6,4.29-10.58.68-31.27-24.49-66.77-35.35-106.5-31.57C124.36,650,124.36,650,124.35,638.67ZM167,756.09a187.88,187.88,0,0,1-39.13-80.6c-1.15-5.25-.18-7.68,5.69-7.74,5.7-.06,11.4-1,14.73-1.29,31.42.67,57.5,9.59,80.66,27.19,4.24,3.22,4.71,5.12.55,9.15-18.16,17.6-36,35.51-53.72,53.55C172.16,760,170.35,760.19,167,756.09ZM278.3,803c-1,15.76-1.42,15.91-16.7,12a179.09,179.09,0,0,1-72.84-37.44c-2.59-2.21-4.69-3.42-1-7,19.83-19.56,39.37-39.42,59.4-59.57C269.88,738.05,280.44,768.44,278.3,803Zm144.76-24.63c-32.1,26.24-68.81,40.37-110.26,42.07-17.06.73-16.95.74-16-15.71,2.27-38-8.63-72-32.2-101.76-2.9-3.66-3.78-5.61.11-9.32,12.83-12.22,25.31-24.82,37.68-37.51,3-3.08,4.54-3.35,7.76-.12Q367,713.13,424.23,769.8C428.8,774.31,426.15,775.84,423.06,778.37ZM446,755.64c-3.27,4-5,4.84-9.18.61Q380.66,699.63,324,643.56c-3.45-3.42-3.91-5.24-.14-8.84,12.79-12.26,25.23-24.87,37.66-37.5,2.72-2.78,4.42-3.81,8.09-.82,32.5,26.51,69.78,37.31,111.36,32.27,6.56-.79,7.58,1.35,7.28,6.69-.2,3.64,0,7.29,0,9C486.23,687.44,472.1,723.82,446,755.64Zm124.29,44a51.54,51.54,0,0,1-103.08.43c-.23-28.27,23.17-52,51.36-52A51.77,51.77,0,0,1,570.24,799.64Zm-9.51-78.78c-.5-.15-1-.35-1.49-.45-14.71-2.92-14.62-2.9-11.44-17.64,7-32.26,14-64.5,20.59-96.85,1.22-6,2.92-7.71,9-6.12,12.42,3.23,12.59,2.94,9.88,15.6Q576.52,665.71,565.63,716C565,718.78,565.33,722.23,560.73,720.86Zm63,52.31c13.64,4.21,23.21,11.71,34.82,17-15.43,11.27-15.43,11.27-25.36-3.15C630.4,783.05,627.69,779,623.69,773.17Zm77,43.4c-13.42,9.9-25.25,22.43-42.56,25.95a4.12,4.12,0,0,1-.94.07c-8.21-.39-14.68-3.11-19.68-9.08-2.11-2.53-2.13-4.41.75-6.38,12.21-8.31,24.35-16.74,36.55-25.08.81-.56,2.16-1.35,2.76-1,7.82,4,15.57,8.19,23.28,12.42C702.52,814.37,701.61,815.87,700.66,816.57ZM796.11,805c-12.17,3.25-23.24,6.07-34.24,9.17a32.52,32.52,0,0,1-25.57-2.92Q662,770.8,587.53,730.73c-4.35-2.33-5.23-4.56-3.93-9.13a174,174,0,0,0,4.31-20.6c.81-5.11,2.59-5.78,7.44-4,32.88,12.15,65.88,24,98.84,35.89,19.53,7.07,39,14.3,58.6,21.17a31.46,31.46,0,0,1,16.35,12.5C777.74,779.23,786.71,791.64,796.11,805ZM827,714.75c-17.67,7.5-36.33,15.33-54.89,23.37a12,12,0,0,1-9.6.06Q681,708.39,599.44,678.8c-4.76-1.72-7.05-3.67-4.67-8.89a20.91,20.91,0,0,0,1.47-6.83c.37-4.12,1.88-5.45,6.43-5.11,57.61,4.41,115.23,8.78,172.89,12.48,7.75.5,13,2.94,18,8.37C804.52,690.91,815.79,702.74,827,714.75ZM782.68,593c10.15-.69,18.88,1.78,26.84,8.13,8.27,6.6,16.94,12.69,26.11,19.5-15.83,10-30.93,19.6-46.14,29-4.11,2.55-8.81,2.78-13.59,2.43q-84.09-6.24-168.2-12.3c-5.11-.36-6.71-1.34-5.09-6.83a209.55,209.55,0,0,0,5.06-23.61c.64-3.65,1.91-5.22,5.91-5.47Q698.15,598.62,782.68,593ZM640.46,531.66c-7.09,15.31-14.48,30.5-21.14,46-2.36,5.48-5,7.89-11.3,8-6.93.15-13.36-1.41-20.91-2.89,11-23.87,21.66-46.93,32.2-70.06,1.49-3.27,3.1-3.4,5.91-1.65a78,78,0,0,0,9,4.6C645.48,520.81,645.5,520.79,640.46,531.66Z" fill="#007CAA" class="color000 svgShape"></path><path d="M275.43,251.87c3.8,0,6.28,2.21,8.22,5.13q32.85,49.28,65.63,98.59c3.34,5,3.22,10.09-2,13.65s-10,2-13.4-3.11q-33.09-49.59-66.07-99.24c-2.2-3.31-2.64-6.82-.69-10.3A8.78,8.78,0,0,1,275.43,251.87Z" fill="#007CAA" class="color000 svgShape"></path><path fill="#007CAA" d="M248,233.81c.66-4.79,3.37-8.42,9.37-8.57,5.55-.13,11.13,5.86,11.11,11.91s-3.57,9.09-9.19,9.49C254.19,247,248.11,240.2,248,233.81Z" class="color030303 svgShape"></path><path d="M850.2,261.29c-8.87-37.35-27.54-67.46-64.1-83.26-32.9-14.22-65.27-9.73-96.5,5.66-67,33-112.71,118.9-103.31,193.1,3.46,27.4,12,52.78,30.44,73.93,31.85,36.51,83,46.18,129.83,22.28,71.13-36.26,102.11-98.13,107.82-175C854.05,285.45,853,273.26,850.2,261.29Zm-70.44-40.73c2.52-6.25,5.45-12.35,8.38-18.43.8-1.67,2.31-.74,3.32-.06a87.14,87.14,0,0,1,27.43,29.43,16,16,0,0,1,.88,2.34c-1.47,2.33-.72,7.18-6.42,4.32-10-5-20.22-9.46-30.37-14.13C781.39,223.3,778.88,222.76,779.76,220.56Zm-2.21,21.61c8.9,4.77,18.3,8.59,27.5,12.81,1.52.7,3.32,1.11,3.77,2.91-2.65,5.8-5.11,11.23-7.61,16.64-6.31,13.65-6.36,13.73-20,7.35-8.18-3.81-16.86-6.63-24.32-11.91,3.63-8,7.56-15.91,10.8-24.08C769.79,240.48,772.06,239.24,777.55,242.17Zm1.56,80.09c-6.61,14.45-6.7,14.58-21.07,7.76-7.88-3.74-20.11-5.13-22.32-12-1.93-6,5.86-15.16,9.45-22.88,1.2-2.56,1.66-5.77,4.16-7.09,7.47,3.4,14.16,6.21,20.62,9.47,5.48,2.77,14.09,3.55,15.6,8.69C786.83,310.55,781.58,316.87,779.11,322.26ZM724.16,195a6.69,6.69,0,0,1,5-5.3c10.39-2.8,32.18-1.19,42.4,3.58-3.25,6.74-4.89,16.45-10.23,19.36-5.06,2.76-12.74-4.66-19.35-7.41-4.54-1.88-9-4-13.39-6.22C726.84,198.07,723.27,198.47,724.16,195Zm-21.69,46.68c4.07-8.12,7.79-16.42,11.48-24.72,1.11-2.52,2.27-2.9,4.77-1.72,10.55,5,21.19,9.85,31.84,14.66,1.54.69,2.61,1.45,2.76,2.83-4.62,9.85-8.94,19.29-13.5,28.61-1,2.06-2.8.34-4-.21-10.41-4.69-20.78-9.48-31.18-14.21C702.2,245.8,700.92,244.75,702.47,241.65Zm-19.66,53.93c-2.68-1.21-4.29-2.36-2.66-5.7,3.85-7.91,7.38-16,11.17-23.9.59-1.22.69-3.24,3.23-3.08.89.4,2.06.92,3.23,1.46,9.64,4.4,19.24,8.92,29,13.16,3.39,1.48,5,2.74,2.88,6.74-3.92,7.57-7.41,15.37-10.8,23.21-1.33,3.08-2.79,3.5-5.72,2.11C703.06,304.79,693,300.16,682.81,295.58ZM707,333.14c-3.9,7.32-7.13,15-10.44,22.62-1.32,3-2.74,3.65-5.83,2.17-10.29-4.94-20.75-9.55-31.09-14.4-1.34-.64-3.77-.79-2.37-3.71,4.26-8.89,8.29-17.9,12.46-26.84a2.21,2.21,0,0,1,2.79-1.56c.71.33,1.88.88,3.06,1.41,9.45,4.31,18.86,8.7,28.36,12.89C707.49,327.31,709.3,328.73,707,333.14Zm-18.51-127.7c2.63-1.61,5-2.6,7.78-.52,3.43,2.53.3,4.57-.55,6.55-3.08,7.14-6.61,14.09-9.59,21.26-1.59,3.85-3.36,4.29-7,2.39-5.69-3-11.68-5.47-18.13-8.43A156.55,156.55,0,0,1,688.44,205.44Zm-53.85,53.45c3.88-5.81,7.22-13.85,12.76-16.15,5.71-2.36,12.33,4.64,18.74,7.08,2.41.91,4.66,2.26,7.06,3.22,1.76.69,2.62,1.73,1.8,3.51-4.08,8.94-8.25,17.85-12.35,26.8a2.49,2.49,0,0,1-2.75,1.56l-3.15-1.48c-5.64-2.61-11.27-5.26-16.93-7.82C627.35,270,627.22,269.92,634.59,258.89Zm-21.11,44c5.42-16.13,5.42-16.12,21-8.94,5.16,2.37,10.37,4.65,15.5,7.1,1.24.6,3.12.81,3.11,2.85-2.32,5-4.58,9.95-6.85,14.88-7,15.25-7,15.25-22.16,8.35C607.83,319.76,607.83,319.76,613.48,302.92Zm1,78.4c-4-1.7-9.78-2-9.83-9.06-.07-10.63-.52-21.24.54-32.94,8.14,3.64,15.35,7,22.69,10.08,3.52,1.46,2.78,3.43,1.59,6-3.19,6.78-6,13.73-9.56,20.32C618.7,377.89,619.1,383.28,614.45,381.32Zm47.74,48.91c-3.43,6.69-6.32,13.66-9.62,20.42-.59,1.21-.51,3.22-3,3.51-1.09-.65-2.46-1.36-3.71-2.25a88,88,0,0,1-24.24-26.12c-1.43-2.34-2-4.37-.93-7.22,4.46-11.59,4.33-11.63,15.5-6.47,7.78,3.59,15.47,7.38,23.37,10.66C663.74,424.48,664.13,426.45,662.19,430.23Zm-23.74-37.56c-3.55-1.54-4.64-3-2.63-6.83,3.85-7.34,7.3-14.92,10.52-22.56,1.51-3.57,3-3.93,6.39-2.26,9.78,4.78,19.73,9.24,29.71,13.61,3.3,1.45,4.2,2.82,2.38,6.37-3.91,7.6-7.29,15.48-10.86,23.26-.64,1.39-.88,3.08-3,3.15l-3.46-1.56C657.82,401.43,648.2,396.9,638.45,392.67Zm79.66,61.95c-4.62,11.4-6.6,12.54-24.64,12.3a96.31,96.31,0,0,1-20.78-2.5c-3.45-.79-5.45-1.94-3-6.06s4.17-8.88,6.24-13.33c5.65-12.19,5.65-12.17,18.16-6.3,7.25,3.41,14.47,6.88,21.82,10.06C719,450.12,719.41,451.41,718.11,454.62Zm23.41-50.82c-4.36,9.35-8.73,18.77-13.15,28.16-1.13,2.39-2.64.64-3.85.1-10.64-4.81-21.23-9.74-31.88-14.53-2.68-1.21-3-2.71-1.77-5.27,3.82-7.95,7.46-16,11.15-24,1-2.27,1.8-3.85,5.07-2.26,10.49,5.12,21.2,9.8,31.82,14.65C740.24,401.25,741.84,401.66,741.52,403.8Zm4.65-20.49C736,378.74,726,374,715.82,369.43c-2.83-1.26-4.18-2.32-2.49-5.7,3.94-7.86,7.54-15.89,11.12-23.92,1.12-2.51,1.91-3.73,5.06-2.2,10.47,5.07,21.15,9.73,31.71,14.6,1.28.59,3.14.92,2.73,3-4.43,9.52-8.72,18.94-13.21,28.25C749.46,386.12,747.55,383.94,746.17,383.31Zm33,44.9c-6,5.39-12.32,10.38-18.57,15.46a31.07,31.07,0,0,1-4.1,2.48c-7.49.27-11.35-5.37-8.54-11.51,2.92-6.36,6.19-12.59,8.64-19.13,1.92-5.1,4.34-5.24,8.57-2.82,4,2.32,8.44,4,12.67,5.93C785.42,422.18,785.58,422.37,779.12,428.21Zm36-49.66a175.27,175.27,0,0,1-16.69,27.34c-1.25,1.69-2.81.17-4.15-.45-7.75-3.57-15.4-7.38-23.27-10.63-3.29-1.35-3.71-2.6-2.22-5.64,3.86-7.9,7.5-15.9,11.07-23.93,1.13-2.54,2.21-3.57,5.12-2.17,9.09,4.38,18.32,8.44,27.43,12.75C813.55,376.34,815.65,376.5,815.16,378.55ZM832,329.44c-1.68,9.58-4.49,18.48-7.39,27.38-1.08,3.29-2.55,2.83-5.08,1.61-8.41-4-16.89-8-25.49-11.62-3.88-1.63-4.22-3.42-2.43-7,3.62-7.18,7-14.5,10.12-21.89,1.47-3.44,2.94-4.79,6.75-2.85,6.7,3.41,13.62,6.39,20.46,9.5C831.22,325.64,833.27,326.7,832,329.44Zm2.77-23.58c-1.17,0-1.47.09-1.66,0-6.75-3.63-14.5-5.31-20.44-10.5q6.35-14.2,12.7-28.39c.65-1.46,1.84-1.6,3.24-1.11,2.33.82,4,2,4.43,4.8A148.9,148.9,0,0,1,834.76,305.86Z" fill="#007CAA" class="color000 svgShape"></path></svg></g></svg>
