<svg id="SvgjsSvg1320" width="288" height="288" xmlns="http://www.w3.org/2000/svg" version="1.1" xmlns:xlink="http://www.w3.org/1999/xlink" xmlns:svgjs="http://svgjs.com/svgjs"><defs id="SvgjsDefs1321"></defs><g id="SvgjsG1322"><svg xmlns="http://www.w3.org/2000/svg" data-name="Layer 1" viewBox="0 0 1000 1000" width="288" height="288"><path fill="#007CAA" d="M96.84,423.09a1.2,1.2,0,0,1,1.31-.14l0,69.8-.67.22-.6-.38Z" class="color9e9e9e svgShape"></path><path d="M905.47,426.69c-.1-11.36-7.36-18.62-18.73-19.14a129.24,129.24,0,0,0-15,0c-4.29.3-6.18-.76-5.77-5.49,2.47-28.47-4.22-57.22,4.37-85.69,4.24-14.07,8.5-20.73,23.7-22.79,7.42-1,11.28-5.19,11.44-12.59.15-7.63,0-15.27,0-22.9,0-13.76-3.31-17-17.26-17.05H720.06c-7.37,0-14.75-.17-22.11.15-6.8.29-11.85,5.27-11.64,11.43.22,6.64,4,10.71,10.5,11.86a45.93,45.93,0,0,0,7.88.24q85.29,0,170.58.12c2.26,0,6.09-2.26,6.61,2.86.41,4-2.33,4.41-5.11,5.52-12.29,4.92-21.37,13.47-26.11,25.83-1.74,4.51-3.81,5.73-8.4,5.72q-86.47-.24-173,.05c-6,0-7.27-1.54-7.22-7.33.29-32.91.43-65.81,0-98.71a57,57,0,0,0-57-56.74q-103.85-.42-207.7,0c-28.07.08-51.08,19.65-56.13,47.14-2.63,14.35-1.07,28.89-1,43.33,0,6.62-1.15,8.78-8.44,8.75-72.92-.33-145.84-.13-218.75-.31-7.26,0-12.89,1.67-16.3,8.4v36.33c1.51,6.59,6.14,9.31,12.39,10.19,6.74.94,13.34,3.1,16.36,9.53,4.2,8.93,8.7,18.53,9.46,28,1.73,21.67.58,43.55.54,65.34,0,4.26-2.12,6.16-6.28,6.27-5,.13-10-.28-14.94.61-11.63,2.08-16.36,7.48-16.72,19,.3,22.71-.59,45.43.46,68.15,3,10.93,8.59,15.44,19.55,15.67,3.69.08,7.44.47,11.05-.08,7.48-1.13,9,2,8.88,9-.41,26.84-.15,53.69-.18,80.54,0,5.07,1.29,9.35,6.09,11.91a11.31,11.31,0,0,0,12-.34c5.21-3.22,5.67-8.44,5.67-13.87,0-26.85.08-53.7-.11-80.54,0-4.75.63-6.76,6.25-6.76q334.44.24,668.89,0c5.48,0,6.33,1.8,6.29,6.65-.21,27.11-.12,54.23-.09,81.34,0,9.84,4.37,15.14,12.12,15,7.44-.17,11.53-5.3,11.55-14.76,0-22.38-.08-44.75.07-67.13,0-6.76-2.87-15.43,1.19-19.76,3.74-4,12.44-.89,18.94-1.16,11.85-.48,19.15-7.52,19.25-19.37Q905.72,457.88,905.47,426.69Zm-503-261q49.32,0,98.65,0,50.1,0,100.22,0c23.31,0,37.17,13.92,37.19,37.33q.06,61.15,0,122.31c0,23.71-14,37.56-37.86,37.57q-99.43,0-198.87,0c-24.27,0-38-13.8-38-38.23q0-60.37,0-120.74C363.84,179,377.36,165.66,402.47,165.66ZM125.57,273.2c-2.75-1.09-5.57-1.51-5.07-5.57.62-5,4.44-2.76,6.7-2.76,68.7-.13,137.41,0,206.11-.24,5.43,0,7.08,1.19,7,6.81-.38,18.42-.21,36.85-.12,55.28.17,34.76,25,59.76,59.67,59.82q101.08.16,202.17,0c32.51,0,56.15-20.84,59.89-53,.55-4.73,2.18-5.25,6.17-5.25q84.11.17,168.22-.07c5.67,0,6.21,2.09,6.17,6.76-.2,21.85-.39,43.71.09,65.54.14,6.33-2,7.08-7.49,7.08q-166.63-.24-333.27-.12-165.84,0-331.68.21c-7.9,0-9.35-2.19-9.16-9.51.53-20.79.48-41.6,0-62.38-.15-6.49,2-7.59,7.89-7.56,44.22.23,88.45.14,132.67.12,8.74,0,13.72-3.41,14.79-9.87,1.31-7.94-4.47-13.75-14.07-13.79-22.9-.08-45.81,0-68.71,0-24.48,0-49-.13-73.44.1-4.63.05-6.64-1.27-8.39-5.75C146.88,286.74,137.9,278.11,125.57,273.2ZM882,477.72c.28,6.15-1.7,7.17-7.39,7.16q-186.3-.25-372.61-.13-185.52,0-371,.23c-8.35,0-9.89-2.4-9.5-9.93.62-12.33.47-24.74,0-37.09-.19-5.64,1.63-6.91,7-6.89,53.42.2,106.83.12,160.25.12q292.09,0,584.19-.15c7,0,9.46,1.36,9,8.81C881.33,452.44,881.44,465.12,882,477.72Z" fill="#007CAA" class="color000 svgShape"></path><path d="M865,824.13q0-86.85,0-173.71c0-9.83-4.44-15.47-11.81-15.42s-11.71,5.76-11.86,15.55c0,1.58,0,3.16,0,4.74,0,57.11-.19,114.23.22,171.34.06,7.94-2.25,9.18-9.54,9.15q-113.31-.43-226.63,0c-6.42,0-8.22-1.29-8.2-8,.29-70.54.19-141.08.17-211.62,0-21.42-10.58-32.11-31.85-32.12q-64-.06-127.92,0C415.25,584,405,594.39,405,617c0,70-.14,140,.2,210,0,7.49-2.23,8.76-9.07,8.74q-113.72-.36-227.42,0c-5.95,0-7.88-1.17-7.85-7.58.28-58.43.18-116.86.13-175.3a36.49,36.49,0,0,0-.85-9.36c-1.58-5.84-6-8.77-11.82-8.34s-9.82,3.72-10.65,9.82a64.15,64.15,0,0,0-.32,8.67q0,90.4,0,180.82c0,19.58,5.23,24.83,24.71,24.83H839.58c2.63,0,5.27.07,7.89-.08,10-.59,16.65-6.92,17.33-16.93C865.21,836.25,865,830.18,865,824.13ZM573.67,723.06c0,35.27-.14,70.54.13,105.8.05,5.64-1.6,6.9-7,6.87q-65.55-.33-131.08,0c-6.27.05-7.14-2-7.13-7.57q.29-105.41,0-210.82c0-7.58,2.13-9.92,9.79-9.85q62.78.5,125.55,0c7.49-.06,10,2,9.94,9.71C573.45,652.52,573.67,687.79,573.67,723.06Z" fill="#007CAA" class="color000 svgShape"></path><path d="M377.14 636.59c-.07-17.51-10.17-27.2-27.63-27.24-23.41-.05-46.81 0-70.22 0q-35.51 0-71 0c-18.09 0-27.95 9.67-28 27.56q-.11 61.94 0 123.87c0 18.28 9.95 28.17 28.32 28.19q70.22.09 140.44 0c17.81 0 28-10 28.09-27.73Q377.39 698.92 377.14 636.59zM353.6 757.27c0 5.8-.92 8.25-7.64 8.2-45-.33-90-.26-135-.06-5.4 0-7.15-1.31-7.11-6.95q.36-59.6 0-119.2c0-5.48 1.89-6.37 6.74-6.33 22.63.23 45.26.1 67.89.1 22.37 0 44.75.29 67.1-.17 6.78-.14 8.12 2 8.07 8.37Q353.19 699.25 353.6 757.27zM822.05 636.37c0-17-10.06-27-26.94-27-23.66-.07-47.33 0-71 0-23.94 0-47.87-.05-71.8 0-16.54 0-26.94 9.73-27 26.19q-.39 63.51 0 127c.09 16.33 10.57 26.33 27 26.38q71.4.18 142.81 0c16.8-.05 26.93-10.32 27-27.14Q822.2 699.1 822.05 636.37zm-23.53 122.1c0 5.65-1.73 7-7.13 6.94q-67.89-.3-135.78 0c-5 0-6.87-1.19-6.84-6.55q.3-60 0-120c0-5.2 1.91-6 6.45-5.92 22.89.2 45.79.09 68.68.09 22.37 0 44.74.19 67.11-.13 5.58-.07 7.61.91 7.56 7.15Q798.07 699.26 798.52 758.47zM572 225.14h-44.2c-15.27 0-30.53.13-45.8 0-9.4-.11-14.36-4.55-14.26-12.14.09-6.66 4.29-11.33 11.51-11.37 33.69-.17 67.38-.35 101.06.12 12.65.17 20.73 12.66 16.37 24.85q-11.38 31.84-24 63.23c-4.78 11.81-14.45 17.88-27.22 18q-35.13.33-70.27 0c-14.79-.12-26-9.13-29.26-23.85-4.65-20.76-9.17-41.56-13-62.48-1.33-7.33-4.35-9.75-11.3-8.54a21.14 21.14 0 01-6.3-.08c-6.68-.88-11.07-6-10.58-12.43.51-6.78 4.49-10.58 11.14-11a128.93 128.93 0 0117.36.05c10.25.74 18.27 7.86 20.66 18.69q7.37 33.48 14.06 67.09c1.31 6.63 4.28 9.17 11.17 9.05 21.05-.36 42.11-.18 63.17-.08 3.93 0 7.55-.31 9.13-4.47C558.22 261.88 564.9 244 572 225.14z" fill="#007CAA" class="color000 svgShape"></path><path fill="#007CAA" d="M474.65 341.46c-7.53-.28-12.92-5.5-12.62-12.21.32-6.93 6.46-11.84 14.32-11.45 7.7.38 12.62 5.3 12.38 12.37C488.48 337.45 483.09 341.78 474.65 341.46zM527.16 341.49c-8.35.11-13.59-4.47-13.54-11.86 0-7 5.14-11.7 12.92-11.83s13.84 5 13.78 12C540.26 336.56 534.84 341.39 527.16 341.49zM450.43 709.66c2.68.24 5.38.12 7.87.78 6.61 1.74 9.32 6.45 8.55 13-.81 6.9-5.68 10-15.29 10.09-11.09.12-16.05-2.62-17.08-9.81-.94-6.57 1.67-11.33 8.21-13.25C445.15 709.78 447.87 709.91 450.43 709.66z" class="color020202 svgShape"></path></svg></g></svg>
