<svg id="SvgjsSvg1440" width="288" height="288" xmlns="http://www.w3.org/2000/svg" version="1.1" xmlns:xlink="http://www.w3.org/1999/xlink" xmlns:svgjs="http://svgjs.com/svgjs"><defs id="SvgjsDefs1441"></defs><g id="SvgjsG1442"><svg xmlns="http://www.w3.org/2000/svg" data-name="Layer 1" viewBox="0 0 1000 1000" width="288" height="288"><path d="M878.24,752.79c9.71-6.95,14.42-17.14,18.75-27.66V708c-.9-10.49-5-19.55-13.07-26.3-4.88-4.1-5.32-7.6-2.5-13.32,15.7-31.83-7.08-68.11-42.66-68.31-18.43-.1-36.86,0-55.29,0-19.47-.07-16.65,1.87-16.9-17.16,0-.78,0-1.56,0-2.34-.47-27.7-21.32-48.56-49.13-49-11.67-.18-23.36.11-35-.07-14.55-.22-29,.19-43.44,2.54-33.6,5.51-63.35,19.46-89.42,41.24a57.43,57.43,0,0,1-37.13,13.89c-3.11,0-6.23,0-9.34,0q-50.24,0-100.47,0c-2,0-4.61.78-5.79-1.23s1.06-3.73,2.06-5.45c8.78-15.11,15.57-31.36,26.29-45.37,3.51-4.58,2.88-11.3,6.73-15.63,12.39-14,19.07-31.43,29.36-46.66,9-13.27,10.43-26.3-.39-39.32-2.81-3.38-.88-6.29,1.1-9.14,2.59-3.7,5.46-1.83,8.15-.25,5.61,3.27,11.18,6.62,16.95,9.56,10.91,5.56,22,3.65,29.26-6.12,4.24-5.69,7.66-5.32,12.83-2.09,17,10.57,34.66,19.9,51.83,30.13,6.68,4,13.18,8.37,20.49,11.17a12.71,12.71,0,0,0,15.72-4.92,13.65,13.65,0,0,0-1.36-16.6,23.77,23.77,0,0,0-6.15-4.73c-24.54-14.07-48.88-28.51-73.52-42.39-14.38-8.1-24.07-6.63-35.81,5-3.15,3.1-5.61,3.63-9.46,1.4Q451.46,383.63,411.94,361c-5.08-2.92-5.38-5.76-2.51-10.6,6.21-10.49,12.25-21.09,18.36-31.65,4.57-7.91,4.51-8,12.18-3.61Q557.33,382.78,674.62,450.6c16.31,9.43,17.4,5.06,5.35,25-2.35,3.89-5.12,4.82-9,2.36a92.47,92.47,0,0,0-11-5.87c-7.21-3.3-14.52-1.31-18.3,4.91-3.42,5.62-2.12,12.44,4.16,17.16,6.63,5,13.62,9.62,21.56,12.3,13.32,4.48,24.68.55,32.55-11.11,6.25-9.26,11.59-19.07,16.95-28.86,3.31-6,4.41-12.54.5-18.52-3.65-5.56-2.2-10,.82-15,9.58-16.05,18.76-32.33,28.08-48.52,14.24-24.75,28.61-49.42,42.86-74.16,2.32-4,4.35-8.52,10.16-8.39,10.19.22,16.21-5.92,20.82-13.94,2.85-4.94,5.75-9.86,8.49-14.87,8.22-15,5.52-24.26-9.34-32.91-48.21-28.09-96.67-55.76-144.93-83.77-8.06-4.68-15.9-9.92-24.69-13.19-6.79-2.54-13.28-.09-16.22,5.39-3.37,6.27-1.67,13.46,4.26,17.94a45.82,45.82,0,0,0,4.62,2.89c35.55,21,71.48,41.25,107.15,62C764.28,240,779.07,248.69,794,257c1.14.64,2.18,1.43,3.32,2,4,2.09,4.89,4.93,2.66,9-2.7,4.87-5.52,1.95-8.34.34-41.63-23.91-83.14-48.06-124.73-72-31.48-18.15-63-36.22-94.43-54.46-3.19-1.85-6.7-3.55-3.74-8.34,2.74-4.46,5.91-3,9.27-1.07,4.93,2.87,9.65,6.2,15.15,7.91,6.58,2,12.72-.12,15.67-5.26,3.35-5.81,2.41-13.51-3.23-17.49-10.1-7.12-20.26-14.38-32.68-17.21h-7.79c-3.74,2.06-8.24,3-10.61,7.1-5.1,8.72-10.53,17.27-15.06,26.28-4,8-1.17,16.65,6.35,21.82a46.3,46.3,0,0,0,8.69,5.12c5.15,2.08,4.63,4.56,2.16,8.76q-21.06,35.83-41.55,72c-2.26,4-3.92,4.81-8.15,2.29-9.91-5.88-15.05-4.23-20.87,5.82-8.05,13.89-16.18,27.74-23.93,41.81-2.33,4.23-4.18,5.43-8.51,2.41a134.68,134.68,0,0,0-15.46-8.94c-8.86-4.54-18.18-2.68-23.22,5.71-11.75,19.52-23.17,39.25-34.1,59.24-5.36,9.8-2,20.18,7.36,26.5,4.28,2.88,9,5.11,13.31,8,1.87,1.25,6.83,1.77,3.31,5.75-3,3.34-1.84,11-9.64,9.47-15-3-23.59.83-31.15,13.87-7.24,12.48-14.4,25-21.69,37.45-2.77,4.73-5.33,9.53-5.86,15.07a6.15,6.15,0,0,1-2.32,4.55,48.53,48.53,0,0,0-17,29.57,5.81,5.81,0,0,1-2.76,4.34c-4.71,3.08-7.47,7.78-10.18,12.55-6.11,10.75-11.84,21.75-18.6,32.08-9.4,14.34-11.78,28,2.75,42h-8.94q-82.58,0-165.13,0c-11.15,0-15,3.82-15,14.86q0,109.83,0,219.65c0,11.53,3.73,15.2,15.43,15.21q52.18,0,104.37,0c8.83,0,17.66.13,26.48-.08,6.65-.16,10.63-3.76,11.31-10.44.66-6.43-3.38-11.46-10.08-12.57a47.8,47.8,0,0,0-7.77-.27c-36.6,0-73.21-.14-109.82.14-5.6,0-6.7-1.56-6.69-6.88q.3-94.64,0-189.27c0-5.88,1.45-7.18,7.21-7.15q72.82.39,145.66.06c5.35,0,9.55.75,9.56,7,0,6-3.82,8.05-9.37,7.52-4.47-.43-8.46.85-10.95,4.55-17.17,25.44-27.44,52.8-22.93,84.18A34.33,34.33,0,0,0,252,737.94c19.36,18.82,38.47,37.9,58,56.55,22.11,21.11,54.51,21.81,77.77,2.11,22-18.68,26.16-51.31,9.14-76-2.78-4-2.23-6.21.26-9.84a57.16,57.16,0,0,0-20-83c-2.69-1.47-5.44-2.82-8.46-4.39,6.33-4.1,10.33-9.69,19.39-9.49,40.49.85,81,.21,121.5.43,21.64.12,40.71-6,57.21-20.33,16.68-14.46,36-24.36,57.08-30.66,32-9.56,64.87-6.4,97.47-5.95,11.15.15,19.49,10.13,19.57,21.57q.39,58,0,116.05c-.06,9.64-5.23,16.78-14.25,20.45-14.89,6.05-30.32-4.74-30.52-21.64-.3-24.66,0-49.33-.14-74,0-7.71-5-12.89-11.68-12.83-6.28.06-10.9,4.92-11.64,12.25-2,20.07-15.57,33.6-33.87,33.79s-32.55-13.6-34.52-33.23c-.84-8.4-5.72-13.36-12.53-12.74-7.14.65-11.34,6.68-10.71,15.34a57.78,57.78,0,0,0,86.13,46.32c1.64-.92,2.93-3,5.53-2.06,0,9.61-.31,19.22.07,28.81.74,19.12,9.78,33.12,27.37,40.81,17.85,7.81,34.38,4.95,49.23-7.74,1.4-1.2,2.1-3.78,5.11-3a35,35,0,0,0,6.62,15.43c2.72,3.47,2.14,5.13-1.1,8C743.9,763.28,739.4,782,747.36,801.82c1.83,4.55.79,5-3.52,6.24-18.08,5-29.37,17.06-33.4,35.29-2.34,10.58-.54,21.06,4.79,31.34-16,0-31.07.08-46.11,0-38.21-.24-72.44-12.08-101.71-36.67-17.18-14.44-36.47-20.81-58.65-20.74-67.5.21-135,.07-202.52.09-3.35,0-6.73-.36-10,.95-5.52,2.21-8.28,6.35-7.62,12.13s4.06,9.47,10.07,10.12a74.66,74.66,0,0,0,7.78.15c67.51,0,135,.11,202.52-.08,16.53,0,30.71,4.63,43.56,15.42,31,26,67.11,40.56,107.46,41.57,49.56,1.25,99.17.6,148.76.29,21.39-.13,38.93-15.78,43.42-36.69,2.37-11.09-.19-21.28-4.66-31.45,3.25-.9,6-1.52,8.71-2.44,28.13-9.67,39.49-42.82,23.57-68.32C878.73,757.28,874.52,755.45,878.24,752.79ZM611.58,372.38c-.51,5.85-6,9-10.92,6.2C582.77,368.29,565,357.83,547,347.76c-4.26-2.38-4.43-4.29-2.06-8.19s3.75-5.54,8.5-2.68c17.9,10.78,36.14,21,54.2,31.52C609.2,369.33,611.8,369.55,611.58,372.38Zm73.61,55c-17.94-10.31-35.78-20.81-53.83-30.93-4.24-2.38-4.68-4.42-2.06-8.28,2.14-3.16,3.09-5.84,8-2.87,17.93,10.83,36.23,21,54.34,31.58,1.63.95,4,1.34,4.26,3C695.91,426.41,690,430.12,685.19,427.38ZM706,255.32c2.14-3.31,3.22-5.49,7.92-2.66,18.17,11,36.69,21.32,55,32,1.42.83,3.67,1.13,3.42,3.64-.18,5.73-5.95,9.14-10.81,6.33-17.94-10.33-35.78-20.83-53.85-30.93C703.23,261.14,703.63,259,706,255.32Zm-9.74,28.38c18,10.81,36.07,21.37,54.46,31.4,7.11,3.88,1.82,6.85.36,10.15-1.7,3.83-3.11,7.49-8.84,3.63a298.31,298.31,0,0,0-26.16-15.2c-8.66-4.63-18,.38-18.23,9.79.31,4.69,2.88,8.23,7.28,10.73,8.77,5,17.33,10.37,26.23,15.11,8.14,4.33.36,7.48-.59,10.95-1.08,4-3.12,5.74-7.7,2.73-8.21-5.38-16.9-10.05-25.48-14.84-7.35-4.11-14.08-2.77-17.57,3.21s-1.38,12.66,5.81,16.91c8.46,5,16.87,10.14,25.61,14.62,4.55,2.33,4.14,4.34,1.88,8.08-5.15,8.52-5,8.64-13.8,3.53-16.57-9.59-33.07-19.31-49.76-28.7-4.06-2.28-5.47-3.73-2.64-8.49,14-23.58,27.61-47.39,41.15-71.24C690.47,282.23,691.83,281,696.28,283.7Zm-74.6-76.9c2.05-2.93,2.78-6,7.83-3,18.07,11,36.52,21.31,54.81,31.92,1.47.85,2.82,1.91,4.41,3-2,3.34-3.29,6.54-5.47,9-1.85,2.06-3.73-.61-5.31-1.51-18.14-10.36-36.11-21-54.35-31.2C619.16,212.53,619.09,210.5,621.68,206.8Zm-10.11,27.94q27.38,16.2,55,31.92c3.07,1.76,4.52,2.89,2.28,6.77-5.58,9.65-5.33,9.79-14.81,4.33-7.17-4.14-14.27-8.4-21.52-12.38s-14-2.44-17.4,3.73c-3.3,6-1.34,12.2,5.6,16.37,8.64,5.19,17.28,10.44,26.26,15,7.4,3.77,1.47,7.1,0,10.29s-2.54,7.33-8.16,3.59a300.55,300.55,0,0,0-27.53-15.89c-8.22-4.29-17.09,1.15-17.12,10-.07,5.3,2.82,8.65,7.17,11.12,8.77,5,17.35,10.31,26.3,14.93,6.18,3.18,2.21,6.36.32,9s-1.47,9-8.27,5c-18.41-11-37.08-21.62-55.76-32.2-3.2-1.81-3.74-3.2-1.82-6.48q21.34-36.49,42.28-73.24C606.53,233,608.08,232.68,611.57,234.74ZM535,253.45q21.45-36.48,42.32-73.29c2.29-4,4.13-4.23,7.7-1.89a144.79,144.79,0,0,0,15.45,8.94c3.86,1.89,3.72,3.7,1.77,7.06q-39,67.15-77.76,134.42c-.84,1.45-1.26,3.46-3.33,3.83-2.71-1.69-6.73-2-3.67-7,8.56-14.17,16.69-28.61,24.93-43,6.22-10.83,5.26-15.25-5.47-21.48C533.09,258.79,532.73,257.24,535,253.45Zm-49.59,44.31c4.39-7.62,9.1-15.09,13-22.95,2.76-5.52,5.48-7.51,10.78-3.06,2,1.64,4.47,2.59,6.65,4,.94.6,2.62.86,1.79,2.95-.64,1.12-1.41,2.47-2.19,3.81-5.69,9.86-11.58,19.62-17,29.63-2.25,4.16-3.87,5.62-8.63,2.66C479.32,308.28,479.12,308.6,485.37,297.76ZM420.12,411.18c2.08-4.22,4-8.63,7-11.56,3.72.25,15.62,8.78,14.82,9.92-2.69,3.85-3,9.63-8.13,11.39C431.51,421.7,419.46,412.52,420.12,411.18Zm-40,21.37c2.26-3.82,3.58-8.46,7.4-11.1l4.59,2.62c15.47,8.93,30.74,18.22,46.49,26.62,7.11,3.79,2.84,6.91,1.05,10.85-2.06,4.53-4,6.25-9.13,3.12-15.47-9.44-31.31-18.26-46.95-27.41C381.82,436.24,378.2,435.78,380.11,432.55Zm-17,29.22c1.89-3.15,2.54-8.17,8.77-4.37,15.65,9.55,31.68,18.48,47.53,27.69,1.68,1,4,1.44,4,4.68-2.12,3.32-3.88,7.66-7,10.42-2.17,1.9-5-1.63-7.33-2.95-15-8.53-29.83-17.56-45.06-25.76C357.71,468.08,361.19,465,363.15,461.77Zm-61,105.58c2.11-3.59,4.36-7.1,6.5-10.55l4.32,2.48c15.93,9.18,31.77,18.51,47.84,27.43,4.34,2.4,4.84,4.79,1.78,8.07-2.58,2.76-2,10.41-9.54,6-16-9.52-32.24-18.73-48.4-28C302.48,571.46,300.48,570.23,302.17,567.35Zm-23.06,87c1.27-2.09,3.23-2.12,5.23-2.64,18.35-4.82,27.68-20.85,22.74-39.44-.92-3.43-.93-6.51,1.61-8.5s4.69,1,6.78,2.19c10.2,5.63,10.15,5.7,4.36,15.75-9.18,15.9-18.3,31.84-27.52,47.72A84.72,84.72,0,0,1,264.37,699C265,681.88,271,667.8,279.11,654.39Zm90-4.32c16,10.91,19.83,33.5,8.21,48.61a43.27,43.27,0,0,1-3.64,4c-9.92,10-9.95,16.22-.06,26.12,17,17,12.81,44.66-8.49,54.9-13.41,6.45-26.17,4.76-37.58-5a133.72,133.72,0,0,1-10.13-9.65c-15-15.79-29.86-31.66-44.88-47.61,18.35-10.08,32.78-26.29,43.4-46.16,2.56-4.78,5.38-9.43,8.09-14.13C334.23,643.44,352.68,638.89,369.07,650.07ZM383.8,558c-2.13,3.67-3.54,7.94-7.1,10.81-2-1-3.61-1.81-5.16-2.7-15.42-8.87-30.68-18-46.31-26.52-5.57-3-4.21-5.81-1.55-9.53,2.3-3.22,2.77-8.64,9.4-4.58,15.6,9.57,31.64,18.42,47.46,27.63C382.33,554.14,385.68,554.77,383.8,558Zm5.89-26.72c-15-8.5-29.83-17.43-45-25.7-5.13-2.8-4.43-5.53-1.63-9,2.3-2.85,2.21-9.41,9.14-5.24,15.91,9.55,32.1,18.64,48.16,27.94,1.49.87,3.4,1.43,3.45,4.43-2,3.19-3.76,7.51-6.86,10.33C394.69,536.12,392,532.56,389.69,531.27ZM764.55,645.92c.75-11.49,10-20.23,22.22-20.54,8.8-.22,17.62,0,26.43,0,8.55,0,17.11-.18,25.65,0,12.16.31,21.49,9,22.33,20.48.87,12-7.19,23.08-19.59,23.74a547.91,547.91,0,0,1-57.46,0C771.66,669,763.76,658.09,764.55,645.92Zm42,228.74c-8.29.16-16.58,0-24.87,0-8.55,0-17.11.12-25.65,0-13-.24-22.56-9.25-23-21.44-.44-12.8,8.5-22.93,21.83-23.32,17.6-.52,35.25-.5,52.85,0a22.46,22.46,0,0,1,22.08,22.56C829.7,864.86,819.8,874.41,806.58,874.66Zm35-68.38c-8.8.22-17.61,0-26.41.05-8.55,0-17.1.14-25.64,0-12.64-.26-21.83-9-22.47-21.06s7.43-22.28,20.13-23.16a386.43,386.43,0,0,1,56.63,0,21.85,21.85,0,0,1,20,22.68C863.34,796.75,853.93,806,841.61,806.28ZM851.74,738c-9.06.32-18.13.06-27.19.07-8.54,0-17.1.22-25.63,0-12.92-.41-22.06-9.8-22-22.24s9.1-21.89,22.1-22.11c17.61-.3,35.22-.32,52.82,0a22,22,0,0,1,21.81,21.74C873.8,727.65,864.38,737.58,851.74,738Z" fill="#6e90e8" class="color000 svgShape"></path></svg></g></svg>