<svg id="SvgjsSvg1139" width="288" height="288" xmlns="http://www.w3.org/2000/svg" version="1.1" xmlns:xlink="http://www.w3.org/1999/xlink" xmlns:svgjs="http://svgjs.com/svgjs"><defs id="SvgjsDefs1140"></defs><g id="SvgjsG1141"><svg xmlns="http://www.w3.org/2000/svg" data-name="Layer 1" viewBox="0 0 1000 1000" width="288" height="288"><path fill="#007CAA" d="M253.13,899.37l163.7-.23c1.82,0,3.7-.16,5,1.57H253.67A2.24,2.24,0,0,1,253.13,899.37Z" class="color111 svgShape"></path><path d="M877.07,745.36q-37.85-23.07-73.87-48.94a50.83,50.83,0,0,1-12.5-12.75q-32.84-47.88-66.05-95.5-28.51-40.77-76.74-53.72-42.35-11.43-84.64-23c-29.14-8.06-58.56-13.32-89-12-28.94,1.23-57,7-85,13.74-22.42,5.38-44.59,11.24-62.61,27.07-11.68,10.26-20.74,22.39-28.31,36.06-.59-19.66-.43-39.15-.7-58.63-.07-5.24,1.07-7.84,6.53-10.08,20.74-8.53,31.85-24.62,33.65-47,.62-7.59-3.26-13.65-9.65-15.2-6.2-1.5-11.34.37-15,5.84-2.14,3.24-1.92,7-2.45,10.6-1.46,9.89-6.75,17-15.82,20.84-10.27,4.32-20.13,2.92-28.5-4.62s-10.95-17.24-7.64-27.86c3.44-11,11.57-17,23-18.71,13.28-2,15.94-5.06,16-18.24q0-15.33,0-30.64c0-2.62-.31-4.56,3.67-5.25,24.47-4.2,36.59-18.92,36.65-43.92.06-24.09.19-48.19-.11-72.28-.08-5.64,1.34-8.76,6.7-11.45q26.61-13.32,52.57-27.91c25.77-14.56,39.12-43.65,33.32-71.15-9.63-45.57-57-67.66-98.73-45.67Q221.57,163,111.56,221.45c-5.71,3-11.1,6.2-15,11.44V363.31c8,10.17,12.27,11.11,23.87,5q48.48-25.56,96.93-51.18c4-2.13,8.18-4.14,13.17-6.65,0,9.47-.22,17.81,0,26.12.57,17.84,8.8,30.54,25.18,38.3,5,2.36,12.64-.36,14.77,5.47,1.85,5.09.4,11.38.41,17.14a11.52,11.52,0,0,0,0,2.35c1.09,5.11-1.51,7-6.06,8.77a53,53,0,0,0-34.33,49.71C230.62,480,244,500,264.39,507.6c5.49,2,6.64,4.68,6.62,10q-.27,80.88-.06,161.77c.08,25.31,12.87,44.2,35.68,52.82,4,1.51,5,3.22,5.1,7.19,1.07,29.86,20.44,54.51,48.56,62.24,28.5,7.83,58.12-3.65,74.1-29.2,2.58-4.14,4.75-4.91,9.22-3.66,23.13,6.47,46.34,12.61,69.53,18.85q76,20.43,152,40.92c2.44.66,6.22.09,6.11,4.46-.39,14.77,4,28.13,13,41h-4.83l-277.23,0q-71.46,0-142.93-.08c-7.48,0-13,2.9-14.68,10.24-1.58,7.07.82,12.92,8.54,15.3,2.78,1,5.68.5,8.52.5q75.87.06,151.74.06c2.8,0,5.74-.75,8.43.78H747.11c20.74-5.1,38.17-14.9,48.76-34.39,1.47-2.69,3.49-1.33,5.45-.8,7.82,2.1,15.61,4.32,23.48,6.21,27.85,6.65,55.18-8.65,63.79-36,3.76-12,6.67-24.16,9.95-36.25C905,775.64,898.05,758.16,877.07,745.36Zm-750-410.79a35.15,35.15,0,0,1-3.8,1.33c0-29.18.08-57.43-.1-85.68,0-3.82,1.56-5.42,4.64-7q109-57.6,217.93-115.29c20.49-10.78,44-3.17,54.45,16.73S403.54,188.08,383,199Q255.18,267,127.1,334.57Zm130.32,1.62c-.31-12,0-24.08-.15-36.11,0-3.06,1-4.7,3.66-6.08,15.06-7.81,30.09-15.66,45-23.76,4.22-2.3,5.36-1.58,5.27,3.11-.19,10.47-.06,20.94-.06,31.41,0,9.94.12,19.89,0,29.83-.17,11.63-4.77,16.16-16.23,16.26-7.33.06-14.66.08-22,0C262.71,350.71,257.67,346.17,257.42,336.19ZM377.55,777a39.63,39.63,0,1,1,40.14-39.35A39.27,39.27,0,0,1,377.55,777Zm360.37,96.9a39.69,39.69,0,0,1-39.84-39c-.31-22.26,17-40.38,39-40.69a39.86,39.86,0,0,1,.84,79.72ZM869,786.66a186,186,0,0,0-18.88-5.15c-9.08-2.15-16.31,1.57-18.12,9-1.92,7.93,2.23,14.36,11.15,17,6.27,1.81,12.56,3.63,18.94,4.94,4.23.87,4.61,2.43,3.57,6.46-4.78,18.61-13.61,27.48-29.45,27.46-9.47-.9-19.54-4.78-29.9-7.38-3.82-1-2-4.93-2.16-7.54-1.53-36.82-31.85-65.52-68.59-64.08-23.24.91-41.59,11.47-54.1,31.18-2.75,4.32-4.88,5.31-9.87,4q-110-29.81-220.1-59c-5.64-1.5-6.88-4.09-7.2-9.56-1.73-29.95-21.8-54.19-49.92-61.08-28.79-7.06-57.39,4.43-73,30.11-3.24,5.34-5.83,4.51-9.87,2.25a26.61,26.61,0,0,1-12.88-30.12c6.61-25.25,13.05-50.56,20.41-75.59,8.21-27.9,26.68-46.47,54.74-54.32,40.86-11.43,82-21.21,125-18.63,24.78,1.49,48.28,8.66,72,14.92,22.46,5.94,44.79,12.36,67.29,18.15,28.09,7.21,50.11,22.72,66.48,46.61,21.43,31.26,43.13,62.34,64.57,93.6a71,71,0,0,0,17.45,17.77c25.06,18,50.7,35.14,77.11,51.08,5.19,3.13,9.13,7,10.26,13.11C874.69,785.67,874.72,788.67,869,786.66Z" fill="#007CAA" class="color000 svgShape"></path><path d="M575.79,721.72c-13.69-3.64-29-7.71-44.33-11.81a82.74,82.74,0,0,1-9-2.6,13.09,13.09,0,0,1-8.25-15.72c1.68-6.82,7.6-11.51,14.63-9.8,18.44,4.47,36.81,9.34,55,14.82,6.86,2.06,9,8.33,7.66,15.28C590.27,718.19,584.51,722.13,575.79,721.72Z" fill="#007CAA" class="color000 svgShape"></path><path fill="#007CAA" d="M738 847.3a13.06 13.06 0 01-13.48-13.1 13.14 13.14 0 1126.27-.64A13 13 0 01738 847.3zM391.31 737.71a13.25 13.25 0 01-14 12.78 13.13 13.13 0 011.46-26.22A13.2 13.2 0 01391.31 737.71z" class="color010101 svgShape"></path><path d="M723,679.1c-13.52-19.25-27-38.5-40.21-58-12.76-18.85-30-30.68-52-36.35-26.54-6.85-52.92-14.25-79.35-21.49-24.28-6.65-48.71-12.14-80.24-10.65-27.88,1-60.46,9.74-93,18.5-7.89,2.13-14.66,6.78-20.46,12.66-10.81,11-7.8,22.14,7.08,26.14q170.87,45.95,341.73,91.91c7,1.88,13.59,2.67,18.41-4S727.23,685.12,723,679.1ZM527.7,590.52c-3.15,9.37-5.42,19.05-7.79,28.67-.79,3.2-2,4.29-5.31,3.38q-53.94-14.73-107.92-29.33c-.44-.12-.78-.64-1.77-1.5,23.8-5.94,47.2-11.23,71.35-12.33a180.28,180.28,0,0,1,47.46,4.39C527.6,584.66,529.3,585.76,527.7,590.52ZM628.17,653c-26-7-51.9-14.1-77.94-20.79-4.82-1.24-5.54-3-4.22-7.4,2.8-9.24,5.39-18.56,7.62-27.95.92-3.84,2.31-4.4,6-3.38,23.39,6.49,46.87,12.65,70.26,19.15a48.73,48.73,0,0,1,26.72,18.27c8.37,11.34,16.24,23,25.81,36.69Z" fill="#007CAA" class="color000 svgShape"></path></svg></g></svg>
