<svg id="SvgjsSvg1445" width="288" height="288" xmlns="http://www.w3.org/2000/svg" version="1.1" xmlns:xlink="http://www.w3.org/1999/xlink" xmlns:svgjs="http://svgjs.com/svgjs"><defs id="SvgjsDefs1446"></defs><g id="SvgjsG1447"><svg xmlns="http://www.w3.org/2000/svg" data-name="Layer 1" viewBox="0 0 1000 1000" width="288" height="288"><path d="M873.86,365.73c-5.68-18.9-22.76-31.08-43.92-31.15-20.87-.07-41.75,0-64.33,0l17.12-19.09c26-29,52.31-57.59,77.74-87,18.1-21,20-50.19,6.38-73.8-13.77-23.92-40.18-36.21-67.73-31.87-16.29,2.56-28.47,11.9-40.26,22.52q-103,92.77-206.19,185.33a14.15,14.15,0,0,1-10.42,4c-18.54-.22-37.08-.1-55.62-.1H470.09c1.58-3.29,2.57-5.38,3.58-7.46q26.82-55.37-.15-110.65c-13.4-27.38-32.59-50.2-55.15-70.38-18.1-16.19-20-16.13-38.18.2-23.28,20.89-42.9,44.63-56.52,73.34-30.81-35.39-71.07-51.8-115.16-60.42C184,154.4,183.07,154.88,176,178.85,160.22,232,154.49,284.67,189.24,334.6c-8.08,0-15.55-.17-23,0A44.21,44.21,0,0,0,125.73,365c-5.77,17.91.38,37.73,16.13,48.48,5.45,3.72,7,7.44,7,13.76.1,36-2.25,72.13,3.38,107.91q23.17,147,143.37,235.09c3.5,2.55,5,5.1,5,9.53-.22,25.58-.13,51.17-.1,76.76,0,12.95,3.89,16.9,16.63,16.9h365c12.41,0,16.54-4.05,16.56-16.24,0-25.58.12-51.17-.1-76.75,0-4.61,1.17-7.48,5-10.29a351.26,351.26,0,0,0,28.23-22.3C801.65,685.08,841.08,607,849.31,513.34c2.62-29.71.8-59.49,1.28-89.24.06-3.44.22-6,3.81-8.33C872.34,404.12,879.6,384.85,873.86,365.73Zm-99-201.08c7.37-6.63,14.39-13.69,24.4-16.36a40.67,40.67,0,0,1,44.92,17.41c9.51,15.16,8.24,33.91-3.87,47.91-12.28,14.2-25,28-37.57,42Q769,293.15,735.36,330.76c-2.22,2.48-4.31,3.9-7.87,3.89-45.92-.13-91.84-.09-137.75-.11a22,22,0,0,1-3.25-.69C649.9,276.9,712.39,220.79,774.85,164.65Zm-425.7,60.21c11.62-22.57,27.76-41.51,46.31-58.59,2.23-2.05,3.89-3.79,7.06-.84,26,24.09,48.25,50.59,57,86,7.34,29.73-1.93,56-17.45,80.84a4.58,4.58,0,0,1-4.49,2.3c-7.31,0-14.63-.23-21.93.05-5.06.2-3.65-3.27-3.66-5.79-.07-17.48,0-35,0-52.45,0-17.23,0-34.45,0-51.68,0-9.81-4.8-15.53-12.67-15.43S386.9,215.05,386.89,225c0,34.19-.18,68.38.15,102.56.06,6-1.55,8.06-7.28,7a14.17,14.17,0,0,0-2.35,0c-20.68,0-20.61,0-29.88-18.9C332.51,285.09,333.68,254.9,349.15,224.86ZM199.25,188.2c.79-2.61,1.12-5.3,5.56-4.35,34.33,7.35,66.65,18.79,92.3,44.17,3,2.93,5.56,6.22,8.22,9.42,6,7.29,8.63,14.83,7.06,25-2.83,18.32,1.35,36.26,7.89,53.54.64,1.7,1.61,3.3,2.07,5,2.36,8.94-1.08,13.51-10,13.51-2.34,0-4.7-.09-7,0-2.85.15-5.2.08-4.5-3.94.47-2.7-.8-5.12-2.13-7.37-18.7-31.57-37.34-63.17-56.19-94.65-5.27-8.8-15.86-9.8-21.38-2.34-4.17,5.63-2.66,11.08.68,16.68q25,41.88,49.77,83.93c1.3,2.2,2.55,4.41,4.44,7.66-16.28,0-31.4-.12-46.52.09-3.53.05-5.78-1.49-8.19-3.61C201.83,314,192,292.16,189.62,266.81,187.13,240,191.38,213.83,199.25,188.2Zm474.6,592c-.44,20.87-.29,41.76-.07,62.63,0,4.3-.95,5.7-5.51,5.69q-168.73-.19-337.49,0c-3.93,0-5.35-.83-5.3-5.1.22-21.66.34-43.32-.06-65-.11-6,3.12-5.21,6.75-5.21q84.18,0,168.35,0c55.34,0,110.67.09,166-.13C672.2,773.05,674,774.14,673.85,780.19Zm151.89-347.9c-.93,32.31,1.51,64.73-3.25,96.92q-19.8,134.1-127.42,216.49a11.85,11.85,0,0,1-7.79,2.63q-187.54-.21-375.09,0a12.76,12.76,0,0,1-8.45-3Q201.05,666.24,178.29,538.64c-6.59-37.31-3.82-74.94-4.54-112.46-.06-3.1,1-4.22,4-3.92,1.81.18,3.65,0,5.48,0H499.6c105.45,0,210.91.12,316.36-.22C824.4,422.05,826,424.48,825.74,432.29Zm6.41-35.11c-2.09.12-4.18.05-6.27.05H173.56a70.42,70.42,0,0,1-7.83-.15,18.73,18.73,0,0,1,.32-37.32c2.59-.25,5.21-.12,7.82-.12H824.63c2.61,0,5.23-.1,7.83.07,10.42.7,18.22,8.88,18.12,18.88S842.63,396.54,832.15,397.18Z" fill="#007CAA" class="color000 svgShape"></path><path d="M612.47,538c0-11.09-4.49-15.39-15.82-15.43-13.31-.05-26.63-.41-39.92.16-6.19.27-7.21-1.82-7-7.38.4-13.56.21-27.13.1-40.7-.08-10.11-4.71-14.7-14.93-14.73q-35.24-.12-70.46,0c-10.18,0-14.76,4.64-14.83,14.82-.09,14.09-.19,28.18.08,42.26.08,4.34-1,5.76-5.54,5.67-14.08-.3-28.17-.18-42.26-.09-10.25.06-14.86,4.6-15,14.71-.1,11.74,0,23.48,0,35.23,0,11.48,0,23,0,34.44s4.37,15.82,16.19,15.85c13.31,0,26.63.33,39.92-.14,5.7-.2,6.83,1.63,6.68,6.94-.4,13.56-.19,27.13-.11,40.7.06,10.63,4.58,15.13,15.3,15.15q34.83.1,69.67,0c10.68,0,15.2-4.56,15.26-15.21.08-13.83.23-27.67-.1-41.49-.11-4.73,1-6.21,5.94-6.07,13.82.38,27.66.18,41.49.11,10.72,0,15.3-4.54,15.34-15.14Q612.57,572.83,612.47,538Zm-25,54.59c.07,4-.9,5.47-5.14,5.26-7.29-.35-14.62-.1-21.93-.1-7.05,0-14.1-.08-21.15,0-9.73.14-14.43,4.71-14.51,14.37-.12,14.36-.16,28.72.05,43.07.06,3.94-.81,5.4-5.09,5.31-13.05-.3-26.12-.33-39.16,0-4.72.12-6.24-.92-6.1-5.93.39-13.82.19-27.67.12-41.51-.06-10.73-4.53-15.26-15.16-15.32-14.1-.07-28.2-.15-42.3.07-3.94.06-5.4-.82-5.3-5.1.29-13,.32-26.11,0-39.16-.12-4.71.93-6.23,5.93-6.09,13.83.39,27.68.19,41.51.12,10.73-.06,15.26-4.54,15.32-15.18.09-14.1.16-28.2-.06-42.29-.06-4,.85-5.38,5.11-5.29,13.05.29,26.12.33,39.16,0,4.74-.12,6.22,1,6.08,6-.38,13.82-.18,27.67-.11,41.51.05,10.73,4.51,15.24,15.17,15.3,14.1.08,28.2.16,42.3-.06,4-.06,5.38.85,5.29,5.11C587.24,566,587.28,579.28,587.51,592.59Z" fill="#007CAA" class="color000 svgShape"></path></svg></g></svg>
