<svg id="SvgjsSvg1451" width="288" height="288" xmlns="http://www.w3.org/2000/svg" version="1.1" xmlns:xlink="http://www.w3.org/1999/xlink" xmlns:svgjs="http://svgjs.com/svgjs"><defs id="SvgjsDefs1452"></defs><g id="SvgjsG1453"><svg xmlns="http://www.w3.org/2000/svg" data-name="Layer 1" viewBox="0 0 1000 1000" width="288" height="288"><path d="M622.42 796.34h10.49q108.21 0 216.42 0a40.45 40.45 0 0110.1.79c6 1.58 9.11 6 8.9 12.18s-3.57 10.31-9.68 11.57a46.28 46.28 0 01-9.36.53q-108.21 0-216.42 0h-8.54c-1.33 3 1.66 3.56 2.51 5.2 2.82 5.45 2.84 10.67-1.39 15.2-4.46 4.78-10.29 6-15.58 2.13-11.39-8.29-22.56-16.94-33.34-26-6.15-5.17-5.52-13.78 1-19.1 9.9-8.1 20-15.92 30.25-23.64 6.28-4.75 13.14-4.47 17.59.65 4.8 5.51 4.56 11.34.1 17C624.87 793.68 624.19 794.36 622.42 796.34zM840.4 372.2H755.91a68.75 68.75 0 01-8.62-.2c-6.55-.83-10.42-4.67-10.94-11.28s2.64-11.14 9-12.86a36.86 36.86 0 019.3-.74q42.75-.08 85.44 0c.2-.71.58-1.36.41-1.57-6.21-7.62-6.8-13.28-1.89-18.68s11.81-5.4 19.51.52c8.9 6.86 17.79 13.74 26.56 20.76 9.83 7.88 9.65 15.75-.41 23.67Q871.36 382 858.33 392c-7.88 6.11-14.26 6.36-19.53.85-5-5.2-4.53-10.91 1.41-18.78C840.45 373.78 840.32 373.17 840.4 372.2z" fill="#007CAA" class="color000 svgShape"></path><path d="M891.83,590.69c0-29-.26-58.06.16-87.09.12-8.94-3-14.46-10.79-18.89-48-27.42-95.84-55.24-143.81-82.76a14.42,14.42,0,0,1-7.48-10.05C685.43,212.34,491.29,109.71,318.49,174.29,170.15,229.73,86.84,383.43,121.31,538.08c28.85,129.44,141.92,229.36,274,241.58,75.3,7,144.66-10.36,207.32-53.06,4.45-3,7.4-2.68,11.71-.16,32.2,18.84,64.59,37.35,96.81,56.16,6.31,3.69,11.91,3.89,18.29.19q76.48-44.41,153.18-88.47c6.68-3.84,9.38-8.88,9.31-16.53C891.68,648.76,891.83,619.73,891.83,590.69ZM784.31,457.81c3.74,3,8.3,5,13.12,7.79-3,1.86-5.34,3.43-7.78,4.83-39.29,22.68-78.68,45.21-117.82,68.15-5.62,3.3-9.85,4.37-15.25.1-3.76-3-8.31-5-13.12-7.75,2.55-1.59,4.48-2.86,6.47-4,39.74-23,79.55-45.79,119.15-69C774.63,454.67,778.9,453.48,784.31,457.81ZM651.6,607.8c-6.72-3.81-12.31-7-18-10.16-2.36-1.3-3.08-3.16-3-5.76q.13-16.85,0-33.7c0-3.93.45-4.84,4.79-3,12,5,19,12,16.49,26.36C650.45,589.62,651.6,598.18,651.6,607.8Zm75.25-183.16c7.65,4.95,15.75,9.22,24.85,14.46l-33.55,19.37c-31.64,18.26-63.31,36.46-94.85,54.89-3.8,2.22-6.56,2.55-10.43.09-8.13-5.18-16.65-9.74-25.23-14.67,1.14-2.48,3.48-3,5.29-4.08,40.42-23.39,80.93-46.62,121.26-70.18C718.93,421.75,722.32,421.7,726.85,424.64Zm-99.19-162q56.72,56,77.43,133c1,3.77,0,5.53-3.26,7.4-46.35,26.62-92.58,53.46-139,80-7.9,4.52-15.77.93-22.94-2.72-5.1-2.59-9.28-6.74-13.16-11-7-7.78-8.91-16.47-3.85-25.92,4.18-7.8,8.91-15.31,13.32-23,5.25-9.15,9.46-18.45,7.66-29.6-1-6.36,5.32-10.62,12.55-9.17a327,327,0,0,0,75.64,5.66c23.87-.84,40-22.56,34.78-46-3.63-16.27-17.15-25-33.24-24.51-22.24,1.51-40,2.52-57.68,4-6.45.55-9.16-1.73-9.08-8.05,0-2.6-.52-5.2-.69-7.81-.89-13.21,3.53-23.16,16.14-29.31s25.65-10.17,38.55-15C623.86,259.37,625.65,260.62,627.66,262.6ZM168.74,339.7A292.45,292.45,0,0,1,257,235.39c3.15-2.33,6.05-2.83,9.29-1.22,30.71,15.34,62.28,14.5,94.48,5.58,15-4.15,28.65-1.95,40.61,9.4,9.35,8.86,21.57,12.35,34.13,14.37,2.83.45,5.63,1.22,8.48,1.47,6.92.61,9.76,4.16,8.86,11.07-1.2,8.26-2.45,16.52-3.6,24.8-.66,4.75-3.2,7.33-8,8.24-8.45,1.61-16.82,3.66-25.26,5.38-20.37,4.14-37.82,14.65-54.91,25.68-11.89,7.67-19.34,19.09-22.34,32.87-1.52,7-5.48,10.3-11.92,11.54-10.75,2.08-21.61,3.69-32.28,6.13-23.84,5.46-31.62,21.15-21.3,43.34,6.63,14.23,15.39,27.27,25,39.67,7.11,9.19,16.94,12.76,28.35,11.94,6.77-.48,13.57-1,20.26-2.13,17.86-2.93,33.95,3.51,50.22,9,20.06,6.83,39.39,15.07,56.39,28.19,9.16,7.08,11.88,15.49,9.38,26.76-3.92,17.61-12.73,32.37-24.05,46-8.85,10.63-18.08,21-25.47,32.76-8.37,13.34-12.27,28-14.4,43.46-1.76,12.72-5.15,25-12.11,36.06-3.58,5.7-6.45,5.83-10,.08-8.55-13.8-12.31-29.23-15.49-44.84-3.7-18.14-6.84-36.4-14-53.63-5.95-14.26-13.69-27.85-27.19-35.47-20.13-11.37-25.47-29-25.88-50-.13-7.06-.17-14.14-.88-21.15-2.42-23.84-16.21-40.52-35.74-52.33-24.1-14.56-47.08-30.09-63.86-53.31a211,211,0,0,1-25.46-47.42A8.93,8.93,0,0,1,168.74,339.7Zm96.31,366.72c-111.49-76-150.87-212.29-112-328,2.24.28,2.42,2.34,3.18,3.81,18,34.83,44.2,61.8,78.13,81.38a147.57,147.57,0,0,1,15.81,10.09c13.14,10,19.33,23.31,18.81,40.1a135.92,135.92,0,0,0,4.59,39.59c3.07,11.4,8.11,22.47,18.35,28.3,28.88,16.46,37.49,43.9,42.7,73.69,3.06,17.5,7,34.78,14.07,51.17,3.35,7.72,7.47,15,13.58,20.87,11.84,11.43,26.5,11.64,38.38.2,13-12.52,19.65-28.9,21.39-46,2.81-27.53,15.34-49.23,33.37-69.08,16.18-17.83,27.88-38.15,32.44-62.39,3.47-18.46-1-33.41-15.11-45.79-12.52-11-27-18.7-41.94-25.57-12.1-5.55-24.77-9.6-37.23-14.2-21-7.74-42.42-8-64-4.31-7.35,1.26-12-1.17-15.58-7.26-5.09-8.51-10.74-16.69-15.72-25.25-6.27-10.78-5.77-11.53,6.15-13.56,8.75-1.5,17.54-2.84,26.21-4.7,17.19-3.7,29.35-12.53,32.76-31.21,1.72-9.45,8.44-15.9,16.66-20.77,17.15-10.17,34.91-18.74,55-21.5,1-.14,2.08-.25,3.1-.47,27.62-5.8,35.08-14.22,37.88-42.5.72-7.27,1.91-14.49,1.65-21.86-.54-14.8-7.68-24.57-21.76-29.12a52.7,52.7,0,0,0-9.91-2.19c-13.58-1.59-25.46-6.43-36-15.58-17-14.83-37.24-12.58-57.4-8.83-6.15,1.14-12.27,2.5-18.38,3.89-14.89,3.37-29.52,3.76-43.86-4,88.87-51.75,219-48.21,310.74,24.93-8.48,3.51-16.79,6.68-24.87,10.37-16.54,7.54-30.23,18-33.74,37.23-2.87,15.74-1.25,31.24,4,46.34,3,8.57,10.24,10.52,18.13,11,17.55,1.14,35-.86,52.44-2.33,5.21-.43,10.42-1,15.64-1,4.77,0,9.79.19,9.7,7.18-.1,7.44-4.1,12.85-10.17,13.09-16.75.66-33.45-.42-50.12-2-8-.77-16.16-1.6-23.9-4.08-8.56-2.75-16.27-.79-22.77,4.59-10.87,9-20.66,18.68-16.49,35.19,1.16,4.6-2.64,8.81-5,12.85C507,420.41,499,431.4,496.05,445.06c-2.44,11.38-.87,22.07,5.39,31.55,10.32,15.64,23.35,28.34,42.81,31.54,5.6.92,4.94,4.12,4.94,7.76,0,52.56.26,105.13-.23,157.69-.11,11,2.95,18.37,13.19,23,7.23,3.31,13.89,7.87,21,12C502.82,765.4,371,778.71,265.05,706.42Zm443,43.65c-3,.94-4.68-1.13-6.6-2.24q-60.69-34.92-121.33-69.93c-3.57-2-6-3.87-6-8.85.25-48.1.15-96.21.16-144.32,0-1,.16-2.06.35-4.44,10,5.76,18.85,11.1,28,16.06,3.39,1.84,2.88,4.57,2.89,7.36,0,18.3.26,36.61-.11,54.91-.16,8.3,2.9,13.71,10.2,17.67,13.52,7.33,26.68,15.33,40.09,22.86,11.69,6.57,20.89,1.19,21-12.26.14-15.41,0-30.82,0-47.66,10.42,6,20,11.57,29.58,17.08,2.38,1.37,1.7,3.62,1.7,5.6Q708,676,708,750.07Zm18.16-177.78c-4.09,2.4-7.21,2.71-11.29.12-8-5.1-16.42-9.69-24.69-14.51,1.42-2.61,3.83-3.21,5.81-4.35,40.34-23.36,80.75-46.6,121-70.12,4.41-2.58,7.61-2.67,11.87.07C836.75,488.55,845,493,854,498.25c-9.91,5.74-19.18,11.13-28.46,16.49C792.43,533.9,759.23,553,726.17,572.29Zm140.56,96.43c0,3.13.17,5.74-3.41,7.79-43,24.6-85.87,49.43-130.2,75v-148c0-3.3-.5-6.32,3.44-8.58,43-24.59,85.87-49.4,128.61-74,2.4,1,1.5,2.83,1.51,4.18Q866.76,596.92,866.73,668.72Z" fill="#007CAA" class="color000 svgShape"></path></svg></g></svg>
