<svg id="SvgjsSvg1430" width="288" height="288" xmlns="http://www.w3.org/2000/svg" version="1.1" xmlns:xlink="http://www.w3.org/1999/xlink" xmlns:svgjs="http://svgjs.com/svgjs"><defs id="SvgjsDefs1431"></defs><g id="SvgjsG1432"><svg xmlns="http://www.w3.org/2000/svg" data-name="Layer 1" viewBox="0 0 1000 1000" width="288" height="288"><path fill="#007CAA" d="M472.48,98.14c-3.14,2.25-6.28,2.6-9.42,0Z" class="color131313 svgShape"></path><path fill="#007CAA" d="M538.43,98.14c-3.14,2.61-6.28,2.25-9.43,0Z" class="color141414 svgShape"></path><path d="M152.4,470.72c.88-34.27,29.82-63.18,64.48-64.42,8.78-.31,14.89,4.34,15.61,11.89.79,8.31-4.13,13.72-13.42,14.77-24.3,2.75-37.91,16.14-40,39.32-.84,9.48-6,14.62-14.12,14.19C157,486,152.16,480,152.4,470.72Z" fill="#007CAA" class="color000 svgShape"></path><path fill="#007CAA" d="M279.59,432.93c-2.09,0-4.19.1-6.27,0-8.17-.45-13.66-5.75-13.71-13.14s5.38-12.92,13.49-13.52a99.16,99.16,0,0,1,12.55,0c8.55.48,14.24,6.16,14.07,13.74-.17,7.73-5.71,12.66-14.63,13-1.83.06-3.67,0-5.5,0Z" class="color010101 svgShape"></path><path d="M787.75 595.1c-18.43-21.93-34-45.52-50.06-69.05-26.31-38.72-78.52-51.08-120.41-29.61-18 9.23-29.69 24.48-39.75 41.18-11.35 18.86-23.69 36.89-39 52.82a79.39 79.39 0 00-16.7 27.24c-10.24 27.14-11.39 54.46 3.08 80.28 16.28 29 54.89 38.42 88.56 22.93 2.5-1.14 4.64-3.43 7.92-2.93 0 22.32.63 44.58-.13 66.79-1.56 45.67-35.2 82.81-80.7 89.31-20.79 3-41.8 1.07-62.71 1.14-57 .18-97.73-40.69-97.77-97.8q0-62.79 0-125.59c0-21.24-9.86-31-31.25-31-42.9 0-85.82.18-128.72-.06-47.69-.26-86.51-33.77-93.31-80.78-3-20.77-1.06-41.8-1.13-62.7-.18-57.12 40.63-97.83 97.69-97.86q62.81 0 125.59 0c21.29 0 31.12-9.85 31.13-31.16 0-43.17-.21-86.34.07-129.51.3-47.08 34-85.89 80.65-92.59C482.06 123.06 503.6 125 525 125c55-.15 96.2 41.05 96.4 96 .09 25.38 0 50.76 0 76.14v23.48c-3.6-3.11-6.05-5.35-8.63-7.44-27.89-22.61-67.68-15.52-86 15.29-23.49 39.41-15.84 95.63 17.3 127.2 28.9 27.52 72.52 20.74 91.77-14.22 7.71-14 12.15-29 12.21-44.9.23-60.44.63-120.88-.09-181.31-.6-50.38-34.65-95.25-82.56-110.85-7.8-2.54-15.89-4.19-23.84-6.25h-3.14a12 12 0 01-9.43 0H472.48a12 12 0 01-9.42 0h-3.14c-.58.42-1.13 1.14-1.74 1.2-53 5.66-105.73 53.19-105 122.93.43 41.07-.05 82.15.22 123.23 0 5.81-1.29 7.31-7.21 7.27-42.91-.28-85.82-.5-128.72 0-59.35.65-109.5 45.3-117.36 104-2.89 21.61-.69 43.37-1.33 65.06a120.36 120.36 0 002.4 28.85c12.43 57.64 60.57 96.7 119.62 96.91 41.34.15 82.68.18 124-.12 6.5 0 8.72 1 8.65 8.26-.42 42.64-.58 85.29-.08 127.93.69 59.26 45.47 109.34 104.22 117.11 22.39 3 44.94 1.2 67.41 1.23 70.08.11 123-52.89 123.16-123 .06-23 .33-46-.18-69.06-.15-6.81 2.65-8.33 8.34-8.71 13.82-.93 26.46 2.14 37.64 10.5a82.94 82.94 0 0037.19 15.5c34.32 5.55 65.25-12.87 73.72-44.79C813.33 650.65 808.9 620.28 787.75 595.1zM610 433.1c-11.11 15.92-34.32 17.48-47.78 3.22-14.77-15.66-22.32-34.91-22.31-56.88a72 72 0 018.78-35.33c10.35-19.23 31.42-23.23 48.19-9.31C622.89 356.39 629.41 405.26 610 433.1zM780.57 667.7c-4.12 24.87-22 37.31-46.82 32.74a58.17 58.17 0 01-22.91-9.56c-32.23-22.3-66.4-22.37-98.43-.1A56.64 56.64 0 01574.65 701c-18.2-1.37-30.72-15.43-32.89-36.86a85.23 85.23 0 010-8.61c-.17-18.51 5.64-35.07 18.15-48.65A291.75 291.75 0 00598 555.32c2.09-3.61 4.5-7 6.69-10.59 17.4-28.34 42.63-36.71 79.87-28.05 13.64 3.16 23.22 12.72 30.86 24 6.29 9.29 12 19 18 28.44 8.15 12.84 17.81 24.47 28 35.73C777.7 622.72 784.55 643.65 780.57 667.7zM901 476.52c-6.76-30-33.26-45.47-61.66-36-37 12.35-59.45 60.58-45.06 96.78 8.81 22.14 29.63 33.6 52.09 28.22 21.27-5.1 36.83-17.58 46.85-37.13 4.13-8.07 5.51-17.09 9.45-25.18v-4.71a17.5 17.5 0 010-15.7v-1.57C900.3 480.33 901.37 478.13 901 476.52zm-51.3 60c-15.32 8.76-28.58 2.38-32.2-14.86-4.57-21.75 9.09-47.27 29.32-54.77 14.14-5.25 24-.16 27.86 14.32A35.8 35.8 0 01876 491.28C874.48 510.52 867 526.57 849.71 536.47z" fill="#007CAA" class="color000 svgShape"></path><path d="M798.32 332.18c-18.52-35.19-60.08-43.22-90-17.12C685 335.46 676 362.32 675 386c-.27 23.26 3.67 39.1 11.36 53.95 19.33 37.28 65.51 43.9 94.64 13.67C811.66 421.78 818.88 371.23 798.32 332.18zM760.1 437A30.58 30.58 0 01711 429.59c-6-11.49-9.54-23.69-9.19-43.13a75.44 75.44 0 0118.85-46.28c19.33-21.57 44.58-17.46 56.2 9C789.59 378.21 782.73 414.25 760.1 437zM485.87 441.44c-26.46-10.27-52.67 1.71-61.92 28.3-13.26 38.13 11.28 84.62 50.19 95.06 23.08 6.19 43.6-3.5 53.58-25.16 3.8-8.22 5.07-16.93 5.51-24.7C533.45 482.79 513.37 452.11 485.87 441.44zm18.5 84.94c-4.87 13.19-16.8 17.88-29.84 10.79-18.1-9.84-25.95-26.2-27.41-46.09a33.34 33.34 0 013.2-15.26c4.44-9.17 12-12.75 21.77-10.35C496 471.32 512.91 503.29 504.37 526.38z" fill="#007CAA" class="color000 svgShape"></path></svg></g></svg>
